<svg id="Capa_1" enable-background="new 0 0 512 512" height="512" viewBox="0 0 512 512" width="512" xmlns="http://www.w3.org/2000/svg"><g><g><g><g><g><path d="m405.645 211.354c-2.92-63.167-53.783-114.029-116.951-116.949-3.203-.148-5.74-2.749-5.74-5.956v-64.947c0-3.366 2.786-6.076 6.15-5.973 105.217 3.199 190.217 88.199 193.417 193.415.102 3.364-2.607 6.15-5.973 6.15h-64.947c-3.206 0-5.808-2.537-5.956-5.74z" fill="#fddd45"/></g><g><path d="m482.523 210.943c-3.121-102.761-84.291-186.223-186.1-193.04 0 0 137.568 44.504 137.568 185.305 0 4.662-.161 9.288-.52 13.878h43.08c3.363-.001 6.074-2.782 5.972-6.143z" fill="#f8c52d"/></g></g></g><g><g><path d="m378.84 402.68c-36.96 42.82-91.77 69.83-152.75 69.35-1.14-.01-2.28-.03-3.42-.06v-76.86c1.05.04 2.1.06 3.15.08 39.9.59 75.58-17.95 98.45-47.03z" fill="#64b9fc"/></g><g><path d="m225.89 78.86v64.98c0 3.17-2.49 5.76-5.67 5.95-65.03 3.91-116.59 58.65-115.35 124.93.02.88.04 1.75.09 2.62-.04.01-.07.03-.11.04h-76.78c-.02-.98-.04-1.95-.05-2.93-1.1-108.36 84.58-197.32 191.67-201.56 3.38-.13 6.2 2.59 6.2 5.97z" fill="#fb4a59"/></g><g><path d="m378.83 402.67c-36.63 42.45-90.81 69.37-151.16 69.37-1.67 0-3.34-.02-5-.06v-26.99c49.87-8.91 93.04-37.4 121.25-77.2z" fill="#31a7fb"/></g><g><path d="m374.554 407.464c31.454-34.174 51.175-79.307 52.682-128.944.102-3.361-2.61-6.14-5.972-6.14h-64.951c-3.202 0-5.805 2.531-5.953 5.73-1.325 28.635-12.522 54.724-30.231 74.984 18.168 18.097 36.308 36.222 54.425 54.37z" fill="#23f1a8"/></g><g><path d="m427.238 278.511c-1.507 49.652-21.227 94.774-52.692 128.96-11.475-11.511-22.968-23.004-34.461-34.479 21.605-28.365 35.375-62.987 38.101-100.621h43.08c3.362 0 6.074 2.779 5.972 6.14z" fill="#26d192"/></g><g><path d="m227.669 472.039c-110.092 0-199.658-89.567-199.658-199.659h76.837c0 67.725 55.098 122.823 122.822 122.823v76.836z" fill="#d4f2f6"/></g><g><path d="m189.236 447.936c-32.472 0-63.065-8.218-89.8-22.66 34.719 29.184 79.468 46.762 128.226 46.762v-28.027c-12.411 2.583-25.259 3.925-38.426 3.925z" fill="#a8e7ef"/></g></g></g><g><g><path d="m76.158 454.383h-65.634c-4.143 0-7.5-3.358-7.5-7.5s3.357-7.5 7.5-7.5h62.527l49.484-49.484c2.931-2.929 7.679-2.929 10.607 0 2.929 2.929 2.929 7.678 0 10.606l-51.682 51.681c-1.405 1.407-3.313 2.197-5.302 2.197z" fill="#8dcafc"/></g><g><g><path d="m32.123 512h-21.599c-4.143 0-7.5-3.358-7.5-7.5s3.357-7.5 7.5-7.5h21.599c4.143 0 7.5 3.358 7.5 7.5s-3.357 7.5-7.5 7.5z" fill="#70d9e6"/></g><g><path d="m67.237 512h-8.415c-4.143 0-7.5-3.358-7.5-7.5s3.357-7.5 7.5-7.5h8.415c4.143 0 7.5 3.358 7.5 7.5s-3.357 7.5-7.5 7.5z" fill="#70d9e6"/></g><g><path d="m106.512 484.167h-95.988c-4.143 0-7.5-3.358-7.5-7.5s3.357-7.5 7.5-7.5h95.987c4.143 0 7.5 3.358 7.5 7.5s-3.357 7.5-7.499 7.5z" fill="#70d9e6"/></g></g></g><g><g><path d="m171.432 124.298c-1.919 0-3.839-.732-5.304-2.197l-49.484-49.484h-62.527c-4.143 0-7.5-3.358-7.5-7.5s3.357-7.5 7.5-7.5h65.633c1.989 0 3.896.79 5.304 2.197l51.682 51.681c2.929 2.929 2.929 7.678 0 10.606-1.465 1.464-3.385 2.197-5.304 2.197z" fill="#8dcafc"/></g><g><g><path d="m75.715 15h-21.598c-4.143 0-7.5-3.358-7.5-7.5s3.357-7.5 7.5-7.5h21.598c4.143 0 7.5 3.358 7.5 7.5s-3.358 7.5-7.5 7.5z" fill="#fb4a59"/></g><g><path d="m110.829 15h-8.414c-4.143 0-7.5-3.358-7.5-7.5s3.357-7.5 7.5-7.5h8.414c4.143 0 7.5 3.358 7.5 7.5s-3.357 7.5-7.5 7.5z" fill="#fb4a59"/></g><g><path d="m150.104 42.833h-95.987c-4.143 0-7.5-3.358-7.5-7.5s3.357-7.5 7.5-7.5h95.987c4.143 0 7.5 3.358 7.5 7.5s-3.357 7.5-7.5 7.5z" fill="#fb4a59"/></g></g></g><g><g><path d="m327.793 185.75h-65.633c-4.143 0-7.5-3.358-7.5-7.5s3.357-7.5 7.5-7.5h62.526l58.559-58.559c2.931-2.929 7.679-2.929 10.607 0 2.929 2.929 2.929 7.678 0 10.606l-60.756 60.755c-1.407 1.407-3.314 2.198-5.303 2.198z" fill="#8dcafc"/></g><g><g><path d="m283.758 243.366h-21.598c-4.143 0-7.5-3.358-7.5-7.5s3.357-7.5 7.5-7.5h21.598c4.143 0 7.5 3.358 7.5 7.5s-3.358 7.5-7.5 7.5z" fill="#f8c52d"/></g><g><path d="m318.872 243.366h-8.415c-4.143 0-7.5-3.358-7.5-7.5s3.357-7.5 7.5-7.5h8.415c4.143 0 7.5 3.358 7.5 7.5s-3.357 7.5-7.5 7.5z" fill="#f8c52d"/></g><g><path d="m349.429 215.534h-87.269c-4.143 0-7.5-3.358-7.5-7.5s3.357-7.5 7.5-7.5h87.269c4.143 0 7.5 3.358 7.5 7.5s-3.358 7.5-7.5 7.5z" fill="#f8c52d"/></g></g></g><g><g><path d="m501.476 408.263h-65.634c-1.989 0-3.896-.79-5.304-2.197l-51.682-51.682c-2.929-2.929-2.929-7.678 0-10.606 2.93-2.929 7.678-2.929 10.607 0l49.484 49.485h62.527c4.143 0 7.5 3.358 7.5 7.5s-3.356 7.5-7.498 7.5z" fill="#8dcafc"/></g><g><g><path d="m501.476 465.879h-21.599c-4.143 0-7.5-3.358-7.5-7.5s3.357-7.5 7.5-7.5h21.599c4.143 0 7.5 3.358 7.5 7.5s-3.358 7.5-7.5 7.5z" fill="#26d192"/></g><g><path d="m453.178 465.879h-8.415c-4.143 0-7.5-3.358-7.5-7.5s3.357-7.5 7.5-7.5h8.415c4.143 0 7.5 3.358 7.5 7.5s-3.358 7.5-7.5 7.5z" fill="#26d192"/></g><g><path d="m501.476 438.047h-87.269c-4.143 0-7.5-3.358-7.5-7.5s3.357-7.5 7.5-7.5h87.269c4.143 0 7.5 3.358 7.5 7.5s-3.358 7.5-7.5 7.5z" fill="#26d192"/></g></g></g><g><g><path d="m207.706 296.716h-21.598c-4.143 0-7.5-3.358-7.5-7.5s3.357-7.5 7.5-7.5h21.598c4.143 0 7.5 3.358 7.5 7.5s-3.357 7.5-7.5 7.5z" fill="#31a7fb"/></g><g><path d="m242.82 296.716h-8.414c-4.143 0-7.5-3.358-7.5-7.5s3.357-7.5 7.5-7.5h8.414c4.143 0 7.5 3.358 7.5 7.5s-3.357 7.5-7.5 7.5z" fill="#31a7fb"/></g><g><path d="m277.736 324.548h-91.628c-4.143 0-7.5-3.358-7.5-7.5s3.357-7.5 7.5-7.5h91.628c4.143 0 7.5 3.358 7.5 7.5s-3.357 7.5-7.5 7.5z" fill="#31a7fb"/></g></g><g><path d="m306.253 414.971c-1.919 0-3.839-.732-5.304-2.197l-54.671-54.671h-60.17c-4.143 0-7.5-3.358-7.5-7.5s3.357-7.5 7.5-7.5h63.276c1.989 0 3.896.79 5.304 2.197l56.868 56.868c2.929 2.929 2.929 7.678 0 10.606-1.464 1.464-3.384 2.197-5.303 2.197z" fill="#8dcafc"/></g></g></svg>