<svg id="Capa_1" enable-background="new 0 0 512 512" height="512" viewBox="0 0 512 512" width="512" xmlns="http://www.w3.org/2000/svg"><g><g><path d="m7.5 399.942 75.581-21.017c1.068-.297 2.008-.941 2.67-1.83l97.82-131.325c1.2-1.611 3.249-2.348 5.2-1.869l46.607 11.426c1.704.418 3.502-.088 4.738-1.333l115.986-116.775c1.307-1.316 3.234-1.8 5.008-1.258l45.666 13.948c2.225.68 4.625-.265 5.789-2.279l55.271-95.608c2.56-4.427 9.329-2.612 9.329 2.502v449.976h-469.665z" fill="#23f1a8"/><path d="m444.952 91.607v412.893h32.213v-449.976c0-5.114-6.769-6.93-9.329-2.502z" fill="#26d192"/><path d="m504.5 497h-19.835v-10.417c0-4.142-3.358-7.5-7.5-7.5s-7.5 3.358-7.5 7.5v10.417h-53.517v-10.417c0-4.142-3.358-7.5-7.5-7.5s-7.5 3.358-7.5 7.5v10.417h-53.517v-10.417c0-4.142-3.358-7.5-7.5-7.5s-7.5 3.358-7.5 7.5v10.417h-53.517v-10.417c0-4.142-3.358-7.5-7.5-7.5s-7.5 3.358-7.5 7.5v10.417h-249.114v-243.975h10.417c4.142 0 7.5-3.358 7.5-7.5s-3.358-7.5-7.5-7.5h-10.417v-53.517h10.417c4.142 0 7.5-3.358 7.5-7.5s-3.358-7.5-7.5-7.5h-10.417v-53.517h10.417c4.142 0 7.5-3.358 7.5-7.5s-3.358-7.5-7.5-7.5h-10.417v-53.516h10.417c4.142 0 7.5-3.358 7.5-7.5s-3.358-7.5-7.5-7.5h-10.417v-24.975c0-4.142-3.358-7.5-7.5-7.5s-7.5 3.358-7.5 7.5v497c0 4.142 3.358 7.5 7.5 7.5h497c4.142 0 7.5-3.358 7.5-7.5s-3.358-7.5-7.5-7.5z" fill="#1682ad"/><g><path d="m84.729 470.59c-4.142 0-7.5-3.358-7.5-7.5v-84.623c0-4.142 3.358-7.5 7.5-7.5s7.5 3.358 7.5 7.5v84.623c0 4.142-3.358 7.5-7.5 7.5z" fill="#1ec480"/></g><g><path d="m185.551 427.1c-4.142 0-7.5-3.358-7.5-7.5v-176.489c0-4.142 3.358-7.5 7.5-7.5s7.5 3.358 7.5 7.5v176.489c0 4.142-3.358 7.5-7.5 7.5z" fill="#1ec480"/></g><g><path d="m245.62 248.45v188.76c0 4.14-3.35 7.5-7.5 7.5-4.14 0-7.5-3.36-7.5-7.5v-183.05l4.76 1.17c1.7.41 3.5-.09 4.74-1.34z" fill="#1ec480"/></g><g><path d="m358.227 390.285c-4.142 0-7.5-3.358-7.5-7.5v-247.705c0-4.142 3.358-7.5 7.5-7.5s7.5 3.358 7.5 7.5v247.705c0 4.142-3.358 7.5-7.5 7.5z" fill="#1ec480"/></g><g><path d="m418.08 138.1v289.96c0 4.15-3.36 7.5-7.5 7.5-4.15 0-7.5-3.35-7.5-7.5v-279.28l3.7 1.13c2.22.68 4.62-.27 5.79-2.28z" fill="#1ec480"/></g><g><circle cx="185.551" cy="243.111" fill="#a8e7ef" r="26.732"/><path d="m212.279 243.111c0 14.761-11.958 26.731-26.731 26.731-4.223 0-8.232-.982-11.781-2.744 10.172-3.229 17.541-12.751 17.541-23.987s-7.369-20.758-17.541-23.987c3.548-1.762 7.558-2.744 11.781-2.744 14.773 0 26.731 11.97 26.731 26.731z" fill="#3ad1e0"/></g><g><circle cx="358.227" cy="135.08" fill="#a8e7ef" r="26.732"/><path d="m384.954 135.08c0 14.761-11.958 26.731-26.731 26.731-4.223 0-8.232-.982-11.781-2.744 10.172-3.229 17.541-12.751 17.541-23.987s-7.369-20.758-17.541-23.987c3.548-1.762 7.558-2.744 11.781-2.744 14.773 0 26.731 11.97 26.731 26.731z" fill="#3ad1e0"/></g><g><circle cx="84.729" cy="378.467" fill="#a8e7ef" r="26.732"/><path d="m111.457 378.467c0 14.761-11.958 26.731-26.731 26.731-4.223 0-8.232-.982-11.781-2.744 10.172-3.229 17.541-12.751 17.541-23.987 0-11.237-7.369-20.758-17.541-23.987 3.548-1.762 7.558-2.744 11.781-2.744 14.772 0 26.731 11.97 26.731 26.731z" fill="#3ad1e0"/></g></g><g><g><g><circle cx="130.331" cy="101.45" fill="#23f1a8" r="63.571"/><path d="m193.902 101.452c0 35.109-28.464 63.573-63.573 63.573-6.645 0-13.057-1.016-19.078-2.91 32.199-1.524 57.828-28.094 57.828-60.663 0-32.559-25.618-59.129-57.796-60.674 6.021-1.883 12.412-2.899 19.047-2.899 35.108 0 63.572 28.464 63.572 63.573z" fill="#26d192"/><path d="m155.513 115.566c0-11.622-9.455-21.076-21.076-21.076h-8.211c-3.351 0-6.076-2.726-6.076-6.076 0-3.351 2.726-6.076 6.076-6.076h8.211c2.022 0 3.907 1.003 5.042 2.684 2.319 3.433 6.98 4.336 10.413 2.017 3.432-2.318 4.335-6.98 2.017-10.413-3.285-4.863-8.393-8.079-14.078-9.004v-2.68c0-4.142-3.358-7.5-7.5-7.5s-7.5 3.358-7.5 7.5v2.696c-10.01 1.631-17.682 10.313-17.682 20.777 0 11.621 9.455 21.076 21.076 21.076h8.211c3.351 0 6.076 2.726 6.076 6.076s-2.726 6.076-6.076 6.076h-8.211c-2.449 0-4.647-1.458-5.602-3.713-1.614-3.814-6.017-5.6-9.83-3.986-3.815 1.614-5.599 6.015-3.986 9.83 2.859 6.758 8.943 11.441 16.023 12.589v1.598c0 4.142 3.358 7.5 7.5 7.5s7.5-3.358 7.5-7.5v-1.616c10.011-1.634 17.683-10.316 17.683-20.779z" fill="#1ec480"/></g></g><g><g><path d="m250.879 79.117c-1.919 0-3.839-.732-5.303-2.197l-6.074-6.074-6.074 6.074c-2.929 2.929-7.678 2.929-10.606 0-2.929-2.929-2.929-7.678 0-10.606l11.377-11.377c2.929-2.929 7.678-2.929 10.606 0l11.377 11.377c2.929 2.929 2.929 7.678 0 10.606-1.464 1.464-3.383 2.197-5.303 2.197z" fill="#26d192"/></g><g><path d="m250.879 114.641c-1.919 0-3.839-.732-5.303-2.197l-6.074-6.074-6.074 6.074c-2.929 2.929-7.678 2.929-10.606 0-2.929-2.929-2.929-7.678 0-10.606l11.377-11.377c2.929-2.929 7.678-2.929 10.606 0l11.377 11.377c2.929 2.929 2.929 7.678 0 10.606-1.464 1.464-3.383 2.197-5.303 2.197z" fill="#26d192"/></g><g><path d="m250.879 150.165c-1.919 0-3.839-.732-5.303-2.197l-6.074-6.073-6.074 6.073c-2.929 2.929-7.678 2.93-10.606 0-2.929-2.929-2.929-7.678 0-10.606l11.377-11.376c2.929-2.929 7.678-2.929 10.606 0l11.377 11.376c2.929 2.929 2.929 7.677 0 10.606-1.464 1.464-3.383 2.197-5.303 2.197z" fill="#26d192"/></g></g></g></g></svg>