<svg id="Capa_1" enable-background="new 0 0 512 512" height="512" viewBox="0 0 512 512" width="512" xmlns="http://www.w3.org/2000/svg"><g><g><g><path d="m477.165 504.5h-469.665v-464.525h68.253c2.041 0 3.878 1.241 4.639 3.135l58.359 145.168c.979 2.436 3.676 3.7 6.175 2.893l40.209-12.977c2.165-.699 4.528.152 5.751 2.069l62.243 97.576c1.554 2.436 4.844 3.052 7.174 1.342l42.284-31.036c2.038-1.496 4.871-1.235 6.602.606l126.654 134.754c1.357 1.444 3.44 1.95 5.309 1.29l29.348-10.365c3.253-1.149 6.665 1.264 6.665 4.715z" fill="#fb6672"/><path d="m477.163 379.146v26.603l-41.532 14.664c-3.955 1.396-8.361.325-11.234-2.731l-122.114-129.938-45.715 33.556c-4.931 3.619-11.894 2.317-15.183-2.84l-66.154-103.718-43.772 14.132c-5.288 1.707-10.996-.967-13.069-6.123l-60.707-151.027h-50.188v-31.744h68.257c2.041 0 3.878 1.241 4.639 3.135l58.362 145.166c.979 2.436 3.676 3.7 6.175 2.893l40.204-12.979c2.165-.699 4.528.152 5.751 2.069l62.245 97.572c1.554 2.436 4.844 3.052 7.174 1.342l42.283-31.035c2.038-1.496 4.871-1.235 6.602.606l126.653 134.75c1.357 1.444 3.439 1.95 5.308 1.29l29.349-10.36c3.254-1.146 6.666 1.267 6.666 4.717z" fill="#fb4a59"/></g><path d="m504.5 497h-19.835v-10.417c0-4.142-3.358-7.5-7.5-7.5s-7.5 3.358-7.5 7.5v10.417h-53.516v-10.417c0-4.142-3.358-7.5-7.5-7.5s-7.5 3.358-7.5 7.5v10.417h-53.516v-10.417c0-4.142-3.358-7.5-7.5-7.5s-7.5 3.358-7.5 7.5v10.417h-53.517v-10.417c0-4.142-3.358-7.5-7.5-7.5s-7.5 3.358-7.5 7.5v10.417h-249.116v-243.975h10.417c4.142 0 7.5-3.358 7.5-7.5s-3.358-7.5-7.5-7.5h-10.417v-53.517h10.417c4.142 0 7.5-3.358 7.5-7.5s-3.358-7.5-7.5-7.5h-10.417v-53.516h10.417c4.142 0 7.5-3.358 7.5-7.5s-3.358-7.5-7.5-7.5h-10.417v-93.492c0-4.142-3.358-7.5-7.5-7.5s-7.5 3.358-7.5 7.5v497c0 4.142 3.358 7.5 7.5 7.5h497c4.142 0 7.5-3.358 7.5-7.5s-3.358-7.5-7.5-7.5z" fill="#1682ad"/><g><path d="m147.987 190.179v220.952c0 4.14-3.35 7.5-7.5 7.5-4.14 0-7.5-3.36-7.5-7.5v-237.182l5.76 14.33c.98 2.44 3.68 3.7 6.18 2.89z" fill="#f82f40"/></g><g><path d="m263.498 276.84v128.361c0 4.14-3.36 7.5-7.5 7.5s-7.5-3.36-7.5-7.5v-134.621l4.63 7.26c1.56 2.44 4.85 3.05 7.18 1.34z" fill="#f82f40"/></g><g><path d="m445.579 383.231v57.531c0 4.14-3.36 7.5-7.5 7.5s-7.5-3.36-7.5-7.5v-62.861l5.26 5.6c1.36 1.45 3.44 1.95 5.31 1.29z" fill="#f82f40"/></g><g><path d="m313.658 253.51v119.951c0 4.14-3.36 7.5-7.5 7.5s-7.5-3.36-7.5-7.5v-122.431l3.93-2.89c2.04-1.49 4.87-1.23 6.6.61z" fill="#f82f40"/></g><g><path d="m196.307 188.759v246.152c0 4.14-3.36 7.5-7.5 7.5s-7.5-3.36-7.5-7.5v-255.472l3.83-1.24c2.16-.7 4.53.15 5.75 2.06z" fill="#f82f40"/></g><g><path d="m86.636 58.628v217.572c0 4.15-3.36 7.5-7.5 7.5-4.15 0-7.5-3.35-7.5-7.5v-236.222h4.12c2.04 0 3.88 1.24 4.64 3.13z" fill="#f82f40"/></g><g><circle cx="306.157" cy="245.525" fill="#fee265" r="26.732"/><path d="m332.884 245.525c0 14.761-11.958 26.731-26.731 26.731-4.223 0-8.232-.982-11.781-2.744 10.172-3.229 17.541-12.751 17.541-23.987 0-11.237-7.369-20.758-17.541-23.987 3.548-1.762 7.558-2.744 11.781-2.744 14.773-.001 26.731 11.969 26.731 26.731z" fill="#f8c52d"/></g><g><circle cx="188.81" cy="177.008" fill="#fee265" r="26.732"/><path d="m215.537 177.008c0 14.761-11.958 26.731-26.731 26.731-4.223 0-8.232-.982-11.781-2.744 10.172-3.229 17.541-12.751 17.541-23.987 0-11.237-7.369-20.758-17.541-23.987 3.548-1.762 7.558-2.744 11.781-2.744 14.773 0 26.731 11.97 26.731 26.731z" fill="#f8c52d"/></g><g><circle cx="79.132" cy="39.975" fill="#fee265" r="26.732"/><path d="m105.86 39.975c0 14.761-11.958 26.731-26.731 26.731-4.223 0-8.232-.982-11.781-2.744 10.172-3.229 17.541-12.751 17.541-23.987s-7.369-20.758-17.542-23.987c3.548-1.762 7.558-2.744 11.781-2.744 14.773 0 26.732 11.97 26.732 26.731z" fill="#f8c52d"/></g></g><g><g><circle cx="351.245" cy="101.45" fill="#23f1a8" r="63.571"/><path d="m414.816 101.452c0 35.109-28.464 63.573-63.573 63.573-6.645 0-13.057-1.016-19.078-2.91 32.199-1.524 57.828-28.094 57.828-60.663 0-32.559-25.618-59.129-57.796-60.674 6.021-1.883 12.412-2.899 19.047-2.899 35.108 0 63.572 28.464 63.572 63.573z" fill="#26d192"/><path d="m376.427 115.566c0-11.621-9.455-21.076-21.076-21.076h-8.212c-3.35 0-6.076-2.726-6.076-6.076s2.726-6.076 6.076-6.076h8.212c2.022 0 3.907 1.003 5.042 2.684 2.318 3.433 6.981 4.336 10.413 2.017 3.432-2.318 4.335-6.981 2.017-10.413-3.285-4.863-8.393-8.078-14.078-9.004v-2.68c0-4.142-3.358-7.5-7.5-7.5s-7.5 3.358-7.5 7.5v2.696c-10.009 1.631-17.682 10.314-17.682 20.777 0 11.621 9.455 21.076 21.076 21.076h8.212c3.35 0 6.076 2.726 6.076 6.076s-2.726 6.076-6.076 6.076h-8.212c-2.449 0-4.647-1.458-5.601-3.713-1.613-3.815-6.015-5.601-9.829-3.986-3.815 1.613-5.6 6.014-3.986 9.829 2.858 6.758 8.943 11.442 16.023 12.59v1.597c0 4.142 3.358 7.5 7.5 7.5s7.5-3.358 7.5-7.5v-1.616c10.008-1.633 17.681-10.315 17.681-20.778z" fill="#1ec480"/></g><g><g><path d="m460.416 150.165c-1.989 0-3.897-.79-5.303-2.197l-11.377-11.377c-2.929-2.929-2.929-7.678 0-10.607s7.678-2.929 10.607 0l6.074 6.073 6.073-6.073c2.929-2.929 7.678-2.93 10.607 0 2.929 2.929 2.929 7.677 0 10.607l-11.377 11.377c-1.407 1.407-3.315 2.197-5.304 2.197z" fill="#fb6672"/></g><g><path d="m460.416 114.641c-1.989 0-3.897-.79-5.303-2.197l-11.377-11.377c-2.929-2.929-2.929-7.678 0-10.607s7.678-2.929 10.607 0l6.074 6.073 6.073-6.073c2.929-2.929 7.678-2.93 10.607 0 2.929 2.929 2.929 7.677 0 10.607l-11.377 11.377c-1.407 1.407-3.315 2.197-5.304 2.197z" fill="#fb6672"/></g><g><path d="m460.416 79.116c-1.919 0-3.839-.732-5.303-2.197l-11.377-11.377c-2.929-2.929-2.929-7.677 0-10.607 2.929-2.929 7.678-2.93 10.607 0l6.074 6.073 6.073-6.073c2.929-2.929 7.678-2.929 10.607 0s2.929 7.678 0 10.607l-11.378 11.378c-1.464 1.464-3.384 2.196-5.303 2.196z" fill="#fb6672"/></g></g></g></g></svg>