<svg id="Capa_1" enable-background="new 0 0 512 512" height="512" viewBox="0 0 512 512" width="512" xmlns="http://www.w3.org/2000/svg"><g><g><g><g><path d="m256 450.796c-4.267 0-7.726-3.459-7.726-7.726v-43.794c0-4.267 3.459-7.726 7.726-7.726 4.268 0 7.726 3.459 7.726 7.726v43.794c0 4.267-3.458 7.726-7.726 7.726z" fill="#8dcafc"/></g><g><g><g><path d="m256.001 496.448c-16.279 0-29.523-13.243-29.523-29.522s13.244-29.523 29.523-29.523 29.523 13.244 29.523 29.523-13.244 29.522-29.523 29.522zm0-43.592c-7.758 0-14.07 6.312-14.07 14.07s6.312 14.069 14.07 14.069c7.759 0 14.07-6.311 14.07-14.069s-6.311-14.07-14.07-14.07z" fill="#c4e1ff"/></g></g></g><path d="m484.271 399.739h-456.542c-5.69 0-10.302-4.612-10.302-10.302v-331.106h477.146v331.106c0 5.69-4.612 10.302-10.302 10.302z" fill="#eaf6ff"/><g fill="#d9ecfd"><path d="m17.427 58.331h477.146v33.699h-477.146z"/><path d="m494.569 58.329v331.111c0 5.687-4.605 10.302-10.302 10.302h-40.775c5.687 0 10.302-4.615 10.302-10.302v-331.111z"/></g></g><g><path d="m501.643 67.401h-491.288c-5.719 0-10.355-4.636-10.355-10.355v-31.137c0-5.719 4.636-10.355 10.355-10.355h491.288c5.719 0 10.355 4.636 10.355 10.355v31.137c0 5.719-4.636 10.355-10.355 10.355z" fill="#64b9fc"/><path d="m512 25.906v31.138c0 5.716-4.639 10.355-10.355 10.355h-39.607c5.716 0 10.355-4.639 10.355-10.355v-31.138c0-5.716-4.639-10.355-10.355-10.355h39.607c5.716.001 10.355 4.64 10.355 10.355z" fill="#31a7fb"/></g></g><g><g><path d="m452.765 334.406h-54.124c-4.268 0-7.726-3.459-7.726-7.726s3.459-7.726 7.726-7.726h54.124c4.268 0 7.726 3.459 7.726 7.726s-3.459 7.726-7.726 7.726z" fill="#b3d5f2"/></g><g><path d="m452.765 362.034h-108.249c-4.268 0-7.726-3.459-7.726-7.726s3.459-7.726 7.726-7.726h108.249c4.268 0 7.726 3.459 7.726 7.726s-3.459 7.726-7.726 7.726z" fill="#b3d5f2"/></g></g><g><g><path d="m354.859 131.355h-10.343c-4.268 0-7.726-3.459-7.726-7.726s3.459-7.726 7.726-7.726h10.343c4.268 0 7.726 3.459 7.726 7.726s-3.458 7.726-7.726 7.726z" fill="#b3d5f2"/></g><g><path d="m452.765 131.355h-69.503c-4.268 0-7.726-3.459-7.726-7.726s3.459-7.726 7.726-7.726h69.503c4.268 0 7.726 3.459 7.726 7.726s-3.459 7.726-7.726 7.726z" fill="#b3d5f2"/></g><g><path d="m452.765 158.983h-108.249c-4.268 0-7.726-3.459-7.726-7.726s3.459-7.726 7.726-7.726h108.249c4.268 0 7.726 3.459 7.726 7.726s-3.459 7.726-7.726 7.726z" fill="#b3d5f2"/></g></g><path d="m452.765 273.914h-18.569v-67.235c0-4.267-3.459-7.726-7.726-7.726s-7.726 3.459-7.726 7.726v67.235h-12.375v-24.836c0-4.267-3.459-7.726-7.726-7.726s-7.726 3.459-7.726 7.726v24.836h-12.376v-44.404c0-4.267-3.459-7.726-7.726-7.726s-7.726 3.459-7.726 7.726v44.404h-10.843v-76.45c0-4.267-3.459-7.726-7.726-7.726-4.268 0-7.726 3.459-7.726 7.726v84.177c0 4.267 3.459 7.726 7.726 7.726h108.249c4.268 0 7.726-3.459 7.726-7.726-.004-4.268-3.463-7.727-7.73-7.727z" fill="#fb4a59"/><g><g><g><path d="m237.117 279.571c-13.784 18.131-35.593 29.865-60.08 29.865-41.588 0-75.43-33.841-75.43-75.44 0-41.588 33.841-75.43 75.43-75.43 1.731 0 3.451.062 5.151.175v-47.254c-1.71-.093-3.43-.124-5.151-.124-67.621 0-122.633 55.012-122.633 122.633s55.012 122.633 122.633 122.633c37.509 0 71.134-16.926 93.633-43.546z" fill="#64b9fc"/></g><g><path d="m270.67 313.082c-22.499 26.62-56.124 43.546-93.633 43.546-29.989 0-57.494-10.827-78.829-28.763 16.442 8.911 35.253 13.959 55.228 13.959 39.631 0 74.698-19.913 95.704-50.252z" fill="#31a7fb"/></g><g fill="#23f1a8"><path d="m267.257 316.968c20.113-21.852 32.415-51 32.415-82.97h-47.193c0 18.966-7.051 36.306-18.649 49.575 11.158 11.116 22.3 22.249 33.427 33.395z"/><path d="m299.669 233.995c0 31.966-12.29 61.11-32.42 82.96-11.116-11.136-22.262-22.262-33.409-33.368 11.6-13.269 18.636-30.627 18.636-49.593 0-1.72-.062-3.42-.175-5.11.062-.021.113-.031.175-.041h47.069c.093 1.712.124 3.432.124 5.152z"/></g><g><path d="m299.673 233.993c0 31.98-12.301 61.119-32.421 82.979-7.048-7.07-14.107-14.129-21.166-21.177 13.27-17.422 21.728-38.687 23.402-61.802z" fill="#26d192"/></g><g><path d="m252.479 233.998c0-41.596-33.842-75.438-75.439-75.438v-47.193c67.62 0 122.632 55.012 122.632 122.631z" fill="#fddd45"/></g><g><path d="m299.673 233.993c0-67.617-55.018-122.624-122.635-122.624v.143c52.893 10.924 92.769 57.882 92.769 113.957 0 2.863-.099 5.704-.319 8.524z" fill="#f8c52d"/></g></g><g><path d="m72.825 369.525c-1.977 0-3.955-.755-5.463-2.263l-10.337-10.337c-3.018-3.017-3.018-7.909 0-10.927 3.017-3.017 7.909-3.017 10.927 0l4.874 4.874 4.874-4.874c3.017-3.017 7.909-3.017 10.927 0s3.018 7.909 0 10.927l-10.337 10.337c-1.51 1.509-3.488 2.263-5.465 2.263z" fill="#31a7fb"/></g><g><path d="m210.299 261.982c-1.977 0-3.955-.754-5.463-2.263l-10.337-10.337c-3.018-3.017-3.018-7.909 0-10.927 3.017-3.017 7.909-3.017 10.927 0l4.873 4.873 4.874-4.873c3.018-3.018 7.91-3.018 10.927 0 3.018 3.018 3.017 7.909 0 10.927l-10.337 10.337c-1.509 1.508-3.487 2.263-5.464 2.263z" fill="#26d192"/></g><g><path d="m292.478 142.69c-2.049 0-4.015-.814-5.464-2.263l-10.336-10.337c-3.017-3.018-3.017-7.91.001-10.927 3.017-3.017 7.909-3.016 10.927.001l4.872 4.873 4.873-4.873c3.018-3.017 7.909-3.017 10.928 0 3.017 3.017 3.017 7.909 0 10.927l-10.337 10.337c-1.45 1.448-3.415 2.262-5.464 2.262z" fill="#f8c52d"/></g></g></g></svg>