<svg id="Capa_1" enable-background="new 0 0 512 512" height="512" viewBox="0 0 512 512" width="512" xmlns="http://www.w3.org/2000/svg"><g><g><g><g><path d="m430.678 96.415v402.863c0 7.026-5.707 12.723-12.723 12.723h-323.91c-7.016 0-12.723-5.697-12.723-12.723v-486.555c0-7.026 5.708-12.723 12.723-12.723h240.218z" fill="#eaf6ff"/><path d="m430.678 96.415v402.863c0 7.026-5.707 12.723-12.723 12.723h-39.971c7.026 0 12.723-5.697 12.723-12.723v-442.834z" fill="#d9ecfd"/></g></g><path d="m334.263 83.692v-83.692l96.415 96.415h-83.692c-7.016 0-12.723-5.697-12.723-12.723z" fill="#b5dbfd"/></g><g><g><g><path d="m344.328 281.868c-1.473 1.638-3.029 3.255-4.646 4.821-42.103 40.95-109.92 40.816-151.88-.278-21.902-21.448-32.791-49.82-32.667-78.15.021-5.728 4.924-10.219 10.621-9.632l98.125 10.065 2.081-5.192z" fill="#fee265"/><path d="m344.328 281.868c-1.473 1.638-3.029 3.255-4.646 4.821-40.62 39.497-105.181 40.785-147.357 3.904 36.922 19.738 84.042 14.381 115.422-16.143 5.069-4.924 9.488-10.261 13.258-15.906z" fill="#fdd330"/><path d="m263.878 208.698 36.714-91.585c2.103-5.245 8.273-7.618 13.292-5.02 9.686 5.014 18.776 11.585 26.894 19.704 42.471 42.471 42.471 111.33 0 153.801z" fill="#fb4a59"/><path d="m340.781 285.596-22.784-22.784c28.962-38.638 25.878-93.69-9.252-128.82-3.508-3.508-7.219-6.698-11.084-9.561l2.93-7.315c2.101-5.243 8.279-7.624 13.291-5.021 9.686 5.012 18.775 11.585 26.899 19.7 42.465 42.473 42.465 111.336 0 153.801z" fill="#f82f40"/><path d="m282.851 81.574-34.007 84.832c-1.6 3.992-5.652 6.44-9.93 6.001l-90.9-9.329c-5.697-.585-9.583-5.969-8.449-11.582 4.09-20.242 13.984-39.543 29.682-55.241 29.095-29.094 70.572-38.255 107.467-27.487 5.422 1.583 8.238 7.564 6.137 12.806z" fill="#64b9fc"/><path d="m282.848 81.571-34.002 84.833c-1.6 3.99-5.658 6.448-9.927 6.004l-26.745-2.747c2.824-.877 5.185-2.988 6.332-5.85l35.419-88.37c1.552-3.884.53-8.144-2.226-10.891 8.443.424 16.837 1.831 25.02 4.221 5.416 1.582 8.23 7.557 6.129 12.8z" fill="#31a7fb"/></g><g><path d="m151.254 72.131c-1.977 0-3.955-.755-5.463-2.263l-10.595-10.594c-3.018-3.017-3.018-7.909-.001-10.927 3.018-3.017 7.91-3.018 10.927 0l5.132 5.131 5.132-5.131c3.017-3.018 7.909-3.017 10.927 0 3.017 3.018 3.017 7.909-.001 10.927l-10.595 10.594c-1.509 1.508-3.487 2.263-5.463 2.263z" fill="#64b9fc"/></g><g><path d="m157.625 328.505c-2.049 0-4.014-.814-5.463-2.263l-10.595-10.594c-3.018-3.017-3.018-7.909-.001-10.927 3.018-3.017 7.91-3.018 10.927 0l5.132 5.131 5.13-5.131c3.018-3.017 7.91-3.018 10.927 0 3.018 3.017 3.018 7.909.001 10.927l-10.594 10.594c-1.45 1.449-3.415 2.263-5.464 2.263z" fill="#64b9fc"/></g></g><g><g><g><path d="m198.348 370.788h-45.757c-4.268 0-7.726-3.459-7.726-7.726s3.459-7.726 7.726-7.726h45.757c4.268 0 7.726 3.459 7.726 7.726s-3.458 7.726-7.726 7.726z" fill="#b3d5f2"/></g><g><g><path d="m368.134 408.466h-142.041c-4.268 0-7.726-3.459-7.726-7.726s3.459-7.726 7.726-7.726h142.041c4.268 0 7.726 3.459 7.726 7.726s-3.459 7.726-7.726 7.726z" fill="#b3d5f2"/></g><g><path d="m199.211 408.466h-7.965c-4.268 0-7.726-3.459-7.726-7.726s3.459-7.726 7.726-7.726h7.965c4.268 0 7.726 3.459 7.726 7.726.001 4.267-3.458 7.726-7.726 7.726z" fill="#b3d5f2"/></g><g><path d="m165.001 408.466h-12.409c-4.268 0-7.726-3.459-7.726-7.726s3.459-7.726 7.726-7.726h12.409c4.268 0 7.726 3.459 7.726 7.726s-3.458 7.726-7.726 7.726z" fill="#b3d5f2"/></g><g><path d="m264.407 438.896h-111.815c-4.268 0-7.726-3.459-7.726-7.726s3.459-7.726 7.726-7.726h111.816c4.268 0 7.726 3.459 7.726 7.726s-3.459 7.726-7.727 7.726z" fill="#b3d5f2"/></g><g><g><path d="m368.134 438.896h-30.118c-4.268 0-7.726-3.459-7.726-7.726s3.459-7.726 7.726-7.726h30.118c4.268 0 7.726 3.459 7.726 7.726s-3.459 7.726-7.726 7.726z" fill="#b3d5f2"/></g><g><path d="m307.871 438.896h-14.619c-4.268 0-7.726-3.459-7.726-7.726s3.459-7.726 7.726-7.726h14.619c4.268 0 7.726 3.459 7.726 7.726.001 4.267-3.458 7.726-7.726 7.726z" fill="#b3d5f2"/></g><g><path d="m368.134 469.326h-149.763c-4.268 0-7.726-3.459-7.726-7.726s3.459-7.726 7.726-7.726h149.763c4.268 0 7.726 3.459 7.726 7.726s-3.459 7.726-7.726 7.726z" fill="#b3d5f2"/></g></g></g></g><g><circle cx="345.866" cy="347.99" fill="#fee265" r="22.267"/><path d="m368.13 347.99c0 12.296-9.961 22.267-22.267 22.267-3.517 0-6.857-.818-9.813-2.286 8.473-2.69 14.612-10.621 14.612-19.981s-6.138-17.291-14.612-19.981c2.956-1.468 6.296-2.286 9.813-2.286 12.306 0 22.267 9.971 22.267 22.267z" fill="#f8c52d"/></g></g></g></g></svg>