<svg id="Capa_1" enable-background="new 0 0 512 512" height="512" viewBox="0 0 512 512" width="512" xmlns="http://www.w3.org/2000/svg"><g><g><g><g><g><path d="m471.504 77.954v143.072h-370.835c-5.687 0-10.302 4.615-10.302 10.302v239.878c0 14.876-8.149 27.835-20.233 34.676h-30.297c-22.005-.001-39.837-17.834-39.837-39.828v-333.212c0-11.383 9.22-20.604 20.604-20.604h238.714c5.954 0 11.62-2.575 15.535-7.077l35.479-40.733c3.915-4.502 9.581-7.077 15.535-7.077h125.033c11.383-.001 20.604 9.219 20.604 20.603z" fill="#fca62f"/><path d="m140.352 112.238v108.787h-39.683c-5.687 0-10.302 4.615-10.302 10.302v89.471l-84.742-202.09c3.75-3.987 9.066-6.47 14.979-6.47z" fill="#f98824"/><path d="m471.514 77.954v143.072h-44.803v-143.072c0-11.373-9.23-20.604-20.604-20.604h44.803c11.373 0 20.604 9.231 20.604 20.604z" fill="#f98824"/><g><path d="m421.229 144.247h-79.485c-6.659 0-12.057-5.398-12.057-12.057v-22.301c0-6.659 5.398-12.057 12.057-12.057h79.485c6.659 0 12.057 5.398 12.057 12.057v22.301c.001 6.659-5.398 12.057-12.057 12.057z" fill="#a8e7ef"/><path d="m433.287 109.886v22.303c0 6.665-5.398 12.063-12.053 12.063h-27.382c6.655 0 12.053-5.398 12.053-12.063v-22.303c0-6.655-5.398-12.053-12.053-12.053h27.382c6.655 0 12.053 5.398 12.053 12.053z" fill="#70d9e6"/></g><g><g><g><path d="m334.163 49.692 131.454 313.531c2.293 5.468-.29 11.764-5.75 14.053l-252.085 105.691c-5.46 2.289-11.761-.282-14.053-5.75l-158.763-378.665c-2.293-5.468.29-11.764 5.75-14.053l186.952-78.383z" fill="#eaf6ff"/><g><g><g><circle cx="204.9" cy="182.22" fill="#23f1a8" r="64.415"/><path d="m264.326 157.365c13.729 32.819-1.749 70.557-34.568 84.286-6.212 2.598-12.603 4.156-18.972 4.74 29.504-14.015 43.071-48.874 30.335-79.319-12.731-30.436-47.068-45.255-77.752-34.117 4.892-4.115 10.469-7.564 16.671-10.158 32.82-13.729 70.558 1.748 84.286 34.568z" fill="#26d192"/><path d="m234.076 185.52c-2.214-5.294-6.357-9.408-11.666-11.586-5.311-2.178-11.15-2.157-16.443.057l-7.675 3.211c-3.067 1.283-6.608-.168-7.89-3.236-1.283-3.067.169-6.607 3.234-7.889l7.678-3.211c1.852-.774 3.962-.578 5.643.526 3.568 2.34 8.358 1.346 10.699-2.222 2.34-3.568 1.345-8.358-2.222-10.698-4.973-3.261-10.998-4.283-16.676-2.955l-1.006-2.405c-1.645-3.937-6.174-5.792-10.109-4.146-3.937 1.646-5.794 6.173-4.147 10.109l1.012 2.42c-8.705 5.492-12.463 16.632-8.362 26.436 4.57 10.928 17.179 16.1 28.109 11.528l7.675-3.211c1.489-.622 3.127-.627 4.616-.016 1.49.611 2.653 1.766 3.275 3.252 1.283 3.067-.169 6.607-3.236 7.89l-7.676 3.211c-2.241.938-4.814.445-6.55-1.254-3.05-2.985-7.942-2.93-10.927.119-2.984 3.05-2.931 7.942.12 10.926 4.103 4.014 9.511 6.136 15.017 6.136 1.633 0 3.272-.21 4.891-.59l.589 1.408c1.238 2.962 4.109 4.747 7.131 4.747.994 0 2.004-.193 2.978-.601 3.937-1.646 5.794-6.173 4.147-10.109l-.59-1.41c8.704-5.493 12.463-16.632 8.361-26.437z" fill="#1ec480"/></g><g><g id="XMLID_495_"><path d="m293.73 152.778c-3.03 0-5.906-1.795-7.14-4.768-1.635-3.942.235-8.462 4.177-10.097l10.468-4.342c3.942-1.636 8.462.235 10.097 4.177s-.235 8.462-4.177 10.097l-10.468 4.342c-.968.401-1.971.591-2.957.591z" fill="#b3d5f2"/></g><g id="XMLID_494_"><path d="m278.336 128.511c-1.592 0-3.197-.49-4.576-1.507-3.436-2.531-4.169-7.368-1.638-10.803l6.797-9.225c2.531-3.435 7.369-4.169 10.803-1.637 3.436 2.531 4.169 7.368 1.638 10.803l-6.797 9.225c-1.515 2.056-3.856 3.144-6.227 3.144z" fill="#b3d5f2"/></g><g id="XMLID_493_"><path d="m311.391 182.508c-.383 0-.77-.028-1.159-.087l-11.333-1.705c-4.22-.635-7.126-4.57-6.492-8.79.635-4.221 4.576-7.13 8.79-6.491l11.333 1.705c4.22.635 7.126 4.57 6.492 8.79-.576 3.83-3.872 6.578-7.631 6.578z" fill="#b3d5f2"/></g></g></g></g><path d="m334.163 49.692 131.454 313.531c2.293 5.468-.29 11.764-5.75 14.053l-31.108 13.043c5.468-2.293 8.043-8.585 5.75-14.053l-144.496-344.64z" fill="#d9ecfd"/></g></g><path d="m254.976 71.25-27.308-65.134 106.496 43.575-65.135 27.309c-5.46 2.29-11.76-.282-14.053-5.75z" fill="#b5dbfd"/></g></g><g><path d="m511.995 231.33v234.72c0 21.999-17.833 39.832-39.832 39.832h-431.925c22 0 39.832-17.831 39.832-39.832v-234.72c0-11.379 9.224-20.603 20.603-20.603h390.718c11.379-.001 20.604 9.224 20.604 20.603z" fill="#ffd496"/></g><g><path d="m512 231.333v234.714c0 22.004-17.843 39.837-39.837 39.837h-40.362c21.994 0 39.827-17.832 39.827-39.837v-234.714c0-11.383-9.22-20.603-20.603-20.603h40.372c11.373-.001 20.603 9.219 20.603 20.603z" fill="#fcc16d"/></g></g></g><g><path d="m82.017 118.237c-3.019 0-5.887-1.782-7.129-4.741-1.65-3.935.203-8.463 4.138-10.113l55.301-23.186c3.935-1.65 8.463.203 10.114 4.138 1.65 3.935-.203 8.463-4.138 10.113l-55.301 23.186c-.976.409-1.989.603-2.985.603z" fill="#b3d5f2"/></g><g><path d="m92.845 141.862c-3.019 0-5.887-1.782-7.129-4.741-1.65-3.935.203-8.463 4.138-10.113l22.515-9.44c3.934-1.65 8.464.202 10.114 4.138 1.65 3.935-.203 8.463-4.138 10.113l-22.515 9.44c-.976.41-1.989.603-2.985.603z" fill="#b3d5f2"/></g></g><g><g><path d="m167.644 444.682h-39.194c-4.268 0-7.726-3.459-7.726-7.726s3.459-7.726 7.726-7.726h39.194c4.268 0 7.726 3.459 7.726 7.726s-3.459 7.726-7.726 7.726z" fill="#fca62f"/></g><g><path d="m239.599 472.686h-111.149c-4.268 0-7.726-3.459-7.726-7.726s3.459-7.726 7.726-7.726h111.149c4.268 0 7.726 3.459 7.726 7.726s-3.459 7.726-7.726 7.726z" fill="#fca62f"/></g></g></g></svg>