<svg id="Capa_1" enable-background="new 0 0 512 512" height="512" viewBox="0 0 512 512" width="512" xmlns="http://www.w3.org/2000/svg"><g><g><g><g><g><path d="m322.848 452.641h-133.696l8.241-91.82h36.066v28.279c0 12.449 10.092 22.54 22.54 22.54 12.449 0 22.54-10.092 22.54-22.54v-28.278h36.066z" fill="#1682ad"/><g fill="#107295"><path d="m317.904 397.562-3.298-36.74h-36.066v28.278c0 2.994-.59 5.849-1.651 8.462z"/><path d="m235.111 397.562c-1.062-2.613-1.651-5.468-1.651-8.462v-28.278h-36.066l-3.298 36.74z"/><path d="m322.848 452.641h-30.37l-8.241-91.819h30.37z"/></g></g></g><g><g><path d="m349.379 490.291h-186.758c-5.69 0-10.302-4.612-10.302-10.302v-19.073c0-5.69 4.612-10.302 10.302-10.302h186.759c5.689 0 10.302 4.612 10.302 10.302v19.073c-.001 5.69-4.613 10.302-10.303 10.302z" fill="#189ab0"/></g><g><path d="m359.677 460.914v19.079c0 5.687-4.605 10.302-10.302 10.302h-30.359c5.687 0 10.302-4.615 10.302-10.302v-19.079c0-5.687-4.615-10.302-10.302-10.302h30.359c5.697 0 10.302 4.615 10.302 10.302z" fill="#1682ad"/></g></g></g><g><g><path d="m512 42.608v279.869h-208.859v-300.771h187.957c11.548 0 20.902 9.354 20.902 20.902z" fill="#d9ecfd"/><path d="m308.292 21.706v300.772h-308.292v-279.87c0-11.548 9.354-20.902 20.902-20.902z" fill="#6e4189"/><path d="m270.072 21.706h38.22v300.772h-38.22z" fill="#5b3573"/><path d="m512 42.598v279.88h-39.662v-279.88c0-11.538-9.364-20.892-20.902-20.892h39.672c11.538 0 20.892 9.354 20.892 20.892z" fill="#c4e1ff"/><path d="m511.997 317.328v33.264c0 11.548-9.354 20.902-20.892 20.902h-470.203c-11.548.001-20.902-9.353-20.902-20.902v-33.264z" fill="#189ab0"/><path d="m511.997 317.328v33.264c0 11.548-9.354 20.902-20.892 20.902h-39.672c11.538 0 20.902-9.354 20.902-20.902v-33.264z" fill="#1682ad"/></g></g></g><g><g><path d="m54.694 214.463 45.009-26.256c1.368-.798 3.027-.922 4.498-.337l36.418 14.478c2.001.796 4.286.262 5.728-1.337l28.302-31.39c1.852-2.054 4.996-2.279 7.121-.509l10.472 8.719c2.177 1.813 5.41 1.527 7.236-.64l41.627-49.421c3.095-3.674 9.091-1.486 9.091 3.318v142.303h-195.502z" fill="#23f1a8"/><path d="m224.042 148.029v125.362h26.155v-142.303c0-4.804-5.996-6.993-9.091-3.318z" fill="#26d192"/><g><g><path d="m101.87 165.699c-4.267 0-7.726-3.459-7.726-7.726v-5.436c0-4.267 3.459-7.726 7.726-7.726s7.726 3.459 7.726 7.726v5.436c.001 4.267-3.459 7.726-7.726 7.726z" fill="#189ab0"/></g><g><path d="m177.844 144.116c-4.267 0-7.726-3.459-7.726-7.726v-5.436c0-4.267 3.459-7.726 7.726-7.726s7.726 3.459 7.726 7.726v5.436c0 4.267-3.459 7.726-7.726 7.726z" fill="#189ab0"/></g><g><path d="m250.197 97.716c-4.267 0-7.726-3.459-7.726-7.726v-5.435c0-4.267 3.459-7.726 7.726-7.726s7.726 3.459 7.726 7.726v5.435c.001 4.267-3.459 7.726-7.726 7.726z" fill="#189ab0"/></g><path d="m261.839 265.664h-38.752v-6.066c0-4.267-3.459-7.726-7.726-7.726s-7.726 3.459-7.726 7.726v6.066h-25.975v-6.066c0-4.267-3.459-7.726-7.726-7.726s-7.726 3.459-7.726 7.726v6.066h-25.974v-6.066c0-4.267-3.459-7.726-7.726-7.726s-7.726 3.459-7.726 7.726v6.066h-25.977v-6.066c0-4.267-3.459-7.726-7.726-7.726s-7.726 3.459-7.726 7.726v6.066h-20.932v-131.992c0-4.267-3.459-7.726-7.726-7.726s-7.726 3.459-7.726 7.726v139.718c0 4.267 3.459 7.726 7.726 7.726h207.144c4.267 0 7.726-3.459 7.726-7.726s-3.459-7.726-7.726-7.726z" fill="#189ab0"/></g></g><g><g><path d="m81.323 70.142h-26.628c-4.267 0-7.726-3.459-7.726-7.726s3.459-7.726 7.726-7.726h26.629c4.267 0 7.726 3.459 7.726 7.726s-3.459 7.726-7.727 7.726z" fill="#492960"/></g><g><path d="m112.155 99.119h-57.46c-4.267 0-7.726-3.459-7.726-7.726s3.459-7.726 7.726-7.726h57.46c4.267 0 7.726 3.459 7.726 7.726s-3.459 7.726-7.726 7.726z" fill="#492960"/></g></g></g><g><g><circle cx="411.112" cy="120.062" fill="#23f1a8" r="57.646"/><path d="m468.758 120.064c0 31.837-25.811 57.648-57.648 57.648-6.026 0-11.84-.921-17.3-2.639 29.198-1.382 52.438-25.475 52.438-55.01 0-29.525-23.23-53.618-52.409-55.019 5.46-1.708 11.255-2.629 17.271-2.629 31.837.001 57.648 25.812 57.648 57.649z" fill="#26d192"/><path d="m414.836 112.825h-7.447c-2.528 0-4.584-2.057-4.584-4.585s2.056-4.584 4.584-4.584h7.447c1.526 0 2.948.758 3.805 2.027 2.389 3.535 7.192 4.465 10.728 2.077 3.536-2.389 4.466-7.192 2.077-10.728-2.973-4.401-7.516-7.382-12.607-8.419v-1.658c0-4.267-3.459-7.726-7.726-7.726s-7.726 3.459-7.726 7.726v1.651c-9.137 1.86-16.034 9.956-16.034 19.633 0 11.049 8.988 20.037 20.037 20.037h7.447c2.528 0 4.584 2.056 4.584 4.584s-2.056 4.585-4.584 4.585h-7.447c-1.848 0-3.507-1.1-4.227-2.802-1.663-3.93-6.194-5.769-10.126-4.106-3.93 1.662-5.768 6.196-4.106 10.126 2.612 6.176 8.06 10.525 14.456 11.823v.681c0 4.267 3.459 7.726 7.726 7.726s7.726-3.459 7.726-7.726v-.672c9.137-1.86 16.034-9.956 16.034-19.634-.001-11.047-8.989-20.036-20.037-20.036z" fill="#1ec480"/></g><g><g><path d="m403.295 219.499h-56.142c-4.267 0-7.726-3.459-7.726-7.726s3.459-7.726 7.726-7.726h56.142c4.267 0 7.726 3.459 7.726 7.726s-3.459 7.726-7.726 7.726z" fill="#b3d5f2"/></g><g><path d="m466.83 249.929h-24.193c-4.267 0-7.726-3.459-7.726-7.726s3.459-7.726 7.726-7.726h24.193c4.267 0 7.726 3.459 7.726 7.726s-3.459 7.726-7.726 7.726z" fill="#b3d5f2"/></g><g><g><path d="m377.271 249.929h-30.118c-4.267 0-7.726-3.459-7.726-7.726s3.459-7.726 7.726-7.726h30.118c4.267 0 7.726 3.459 7.726 7.726s-3.459 7.726-7.726 7.726z" fill="#b3d5f2"/></g><g><path d="m417.913 249.929h-14.618c-4.267 0-7.726-3.459-7.726-7.726s3.459-7.726 7.726-7.726h14.618c4.267 0 7.726 3.459 7.726 7.726s-3.459 7.726-7.726 7.726z" fill="#b3d5f2"/></g><g><path d="m466.83 280.359h-119.677c-4.267 0-7.726-3.459-7.726-7.726s3.459-7.726 7.726-7.726h119.677c4.267 0 7.726 3.459 7.726 7.726s-3.459 7.726-7.726 7.726z" fill="#b3d5f2"/></g></g></g></g></g></svg>