<svg id="Capa_1" enable-background="new 0 0 512 512" height="512" viewBox="0 0 512 512" width="512" xmlns="http://www.w3.org/2000/svg"><g><g><g><g><g><path d="m395.59 319.83v166.415c0 14.227-11.528 25.755-25.755 25.755h-227.67c-14.227 0-25.755-11.528-25.755-25.755v-166.415z" fill="#d9ecfd"/><path d="m395.59 319.83v166.415c0 14.227-11.528 25.755-25.755 25.755h-36.139c14.227 0 25.755-11.528 25.755-25.755v-166.415z" fill="#c4e1ff"/><path d="m395.59 25.755v299.226h-279.18v-299.226c0-14.227 11.528-25.755 25.755-25.755h38.982l7.52 21.294c2.184 6.181 8.025 10.302 14.577 10.302h105.511c6.552 0 12.393-4.121 14.567-10.302l7.531-21.294h38.982c14.227 0 25.755 11.528 25.755 25.755z" fill="#6e4189"/><path d="m328.184 23.011 8.131-23.011h-160.63l8.131 23.011c2.909 8.234 10.694 13.739 19.427 13.739h105.515c8.733 0 16.517-5.505 19.426-13.739z" fill="#189ab0"/><path d="m336.313 0-8.128 23.014c-2.905 8.231-10.693 13.732-19.429 13.732h-28.732c8.736 0 16.514-5.501 19.429-13.732l8.128-23.014z" fill="#1682ad"/><path d="m359.451 25.755v299.224h36.139v-299.224c0-14.227-11.528-25.755-25.755-25.755h-36.139c14.227 0 25.755 11.528 25.755 25.755z" fill="#5b3573"/></g></g><g><path d="m152.305 214.198 45.009-26.256c1.368-.798 3.027-.922 4.498-.337l36.419 14.478c2.001.796 4.286.262 5.728-1.337l28.302-31.39c1.852-2.054 4.996-2.279 7.121-.509l10.472 8.719c2.177 1.813 5.41 1.527 7.236-.64l41.627-49.421c3.095-3.674 9.091-1.486 9.091 3.318v142.304h-195.503z" fill="#23f1a8"/><path d="m321.654 147.763v125.363h26.155v-142.304c0-4.804-5.996-6.993-9.091-3.318z" fill="#26d192"/><g><g><path d="m199.481 165.434c-4.267 0-7.726-3.459-7.726-7.726v-5.436c0-4.267 3.459-7.726 7.726-7.726s7.726 3.459 7.726 7.726v5.436c.001 4.267-3.459 7.726-7.726 7.726z" fill="#189ab0"/></g><g><path d="m275.456 143.851c-4.267 0-7.726-3.459-7.726-7.726v-5.436c0-4.267 3.459-7.726 7.726-7.726s7.726 3.459 7.726 7.726v5.436c0 4.267-3.459 7.726-7.726 7.726z" fill="#189ab0"/></g><g><path d="m347.809 97.451c-4.267 0-7.726-3.459-7.726-7.726v-5.436c0-4.267 3.459-7.726 7.726-7.726s7.726 3.459 7.726 7.726v5.436c0 4.266-3.459 7.726-7.726 7.726z" fill="#189ab0"/></g><path d="m359.451 265.4h-38.752v-6.067c0-4.267-3.459-7.726-7.726-7.726s-7.726 3.459-7.726 7.726v6.067h-25.975v-6.067c0-4.267-3.459-7.726-7.726-7.726s-7.726 3.459-7.726 7.726v6.067h-25.974v-6.067c0-4.267-3.459-7.726-7.726-7.726s-7.726 3.459-7.726 7.726v6.067h-25.975v-6.067c0-4.267-3.459-7.726-7.726-7.726s-7.726 3.459-7.726 7.726v6.067h-20.932v-131.993c0-4.267-3.459-7.726-7.726-7.726s-7.726 3.459-7.726 7.726v139.719c0 4.267 3.459 7.726 7.726 7.726h207.145c4.267 0 7.726-3.459 7.726-7.726-.003-4.267-3.462-7.726-7.729-7.726z" fill="#189ab0"/></g></g><g><path d="m362.615 413.904c0-11.048-8.988-20.037-20.037-20.037h-7.447c-2.528 0-4.585-2.057-4.585-4.585s2.057-4.585 4.585-4.585h7.447c1.526 0 2.949.758 3.806 2.027 2.389 3.535 7.193 4.465 10.728 2.076 3.536-2.389 4.465-7.192 2.076-10.728-2.973-4.4-7.516-7.382-12.607-8.418v-1.658c0-4.267-3.459-7.726-7.726-7.726s-7.726 3.459-7.726 7.726v1.651c-9.137 1.86-16.034 9.956-16.034 19.634 0 11.049 8.988 20.037 20.037 20.037h7.447c2.528 0 4.584 2.056 4.584 4.584s-2.056 4.585-4.584 4.585h-7.447c-1.848 0-3.507-1.1-4.227-2.802-1.662-3.93-6.194-5.769-10.126-4.107-3.93 1.662-5.769 6.196-4.107 10.126 2.612 6.176 8.06 10.526 14.456 11.824v.681c0 4.267 3.459 7.726 7.726 7.726s7.726-3.459 7.726-7.726v-.672c9.138-1.859 16.035-9.955 16.035-19.633z" fill="#26d192"/><g><g><path d="m231.992 378.4h-74.881c-4.267 0-7.726-3.459-7.726-7.726s3.459-7.726 7.726-7.726h74.881c4.267 0 7.726 3.459 7.726 7.726.001 4.267-3.458 7.726-7.726 7.726z" fill="#b3d5f2"/></g><g><path d="m285.03 408.83h-24.192c-4.267 0-7.726-3.459-7.726-7.726s3.459-7.726 7.726-7.726h24.192c4.267 0 7.726 3.459 7.726 7.726s-3.459 7.726-7.726 7.726z" fill="#b3d5f2"/></g><g><g><path d="m187.229 408.83h-30.118c-4.267 0-7.726-3.459-7.726-7.726s3.459-7.726 7.726-7.726h30.118c4.267 0 7.726 3.459 7.726 7.726s-3.459 7.726-7.726 7.726z" fill="#b3d5f2"/></g><g><path d="m231.992 408.83h-14.619c-4.267 0-7.726-3.459-7.726-7.726s3.459-7.726 7.726-7.726h14.619c4.267 0 7.726 3.459 7.726 7.726.001 4.267-3.458 7.726-7.726 7.726z" fill="#b3d5f2"/></g><g><path d="m260.838 439.26h-103.727c-4.267 0-7.726-3.459-7.726-7.726s3.459-7.726 7.726-7.726h103.726c4.267 0 7.726 3.459 7.726 7.726.001 4.267-3.458 7.726-7.725 7.726z" fill="#b3d5f2"/></g></g></g></g></g><g><g><path d="m178.935 71.752h-26.629c-4.267 0-7.726-3.459-7.726-7.726s3.459-7.726 7.726-7.726h26.629c4.267 0 7.726 3.459 7.726 7.726s-3.459 7.726-7.726 7.726z" fill="#492960"/></g><g><path d="m209.766 100.73h-57.461c-4.267 0-7.726-3.459-7.726-7.726s3.459-7.726 7.726-7.726h57.461c4.267 0 7.726 3.459 7.726 7.726s-3.459 7.726-7.726 7.726z" fill="#492960"/></g></g></g><g><g><path d="m256 488.162c-2.049 0-4.015-.814-5.463-2.263l-11.72-11.72c-3.018-3.018-3.018-7.909 0-10.927 3.018-3.017 7.91-3.018 10.927 0l6.257 6.257 6.257-6.257c3.017-3.017 7.909-3.018 10.927 0 3.018 3.017 3.018 7.909 0 10.927l-11.72 11.72c-1.45 1.449-3.416 2.263-5.465 2.263z" fill="#189ab0"/></g></g></g></svg>