<svg id="Capa_1" enable-background="new 0 0 512 512" height="512" viewBox="0 0 512 512" width="512" xmlns="http://www.w3.org/2000/svg"><g><g><g><g><path d="m392.806 96.415v402.863c0 7.026-5.707 12.723-12.723 12.723h-323.909c-7.016 0-12.723-5.697-12.723-12.723v-486.555c0-7.026 5.707-12.723 12.723-12.723h240.218z" fill="#eaf6ff"/><g fill="#d9ecfd"><path d="m392.806 265.292v145.523l-29.061 36.396c-3.039 3.801-7.799 5.398-12.259 4.615l-16.833 10.075c-3.853 2.308-8.324 3.451-12.815 3.091-6.542-.515-15.288.464-23.509 2.225-3.894.834-7.953-.144-11.003-2.699l-2.833-2.38c-3.049-2.555-4.718-6.387-4.574-10.364.381-10.292-.536-21.16-3.183-27.434-.484-1.174-.474-2.503-.021-3.688l9.138-23.9c-1.556-4.265-.804-9.22 2.421-12.877z"/><path d="m392.806 96.415v402.863c0 7.026-5.707 12.723-12.723 12.723h-39.971c7.026 0 12.723-5.697 12.723-12.723v-442.834z"/></g></g></g><path d="m296.391 83.692v-83.692l96.415 96.415h-83.692c-7.015 0-12.723-5.697-12.723-12.723z" fill="#b5dbfd"/></g><g><g><path d="m230.7 450.297h-78.574c-4.267 0-7.726-3.459-7.726-7.726s3.459-7.726 7.726-7.726h78.574c4.267 0 7.726 3.459 7.726 7.726s-3.459 7.726-7.726 7.726z" fill="#b3d5f2"/></g><g><path d="m124.154 450.297h-21.339c-4.267 0-7.726-3.459-7.726-7.726s3.459-7.726 7.726-7.726h21.339c4.267 0 7.726 3.459 7.726 7.726.001 4.267-3.458 7.726-7.726 7.726z" fill="#b3d5f2"/></g><g><path d="m175.967 421.896h-73.151c-4.267 0-7.726-3.459-7.726-7.726s3.459-7.726 7.726-7.726h73.151c4.267 0 7.726 3.459 7.726 7.726s-3.459 7.726-7.726 7.726z" fill="#b3d5f2"/></g></g><g><path d="m102.816 290.384 51.876-30.262c1.368-.798 3.027-.922 4.498-.337l42.544 16.913c2.001.796 4.286.262 5.728-1.337l33.254-36.882c1.852-2.054 4.996-2.279 7.121-.509l13.123 10.927c2.177 1.813 5.41 1.527 7.236-.64l49.49-58.756c3.095-3.674 9.091-1.486 9.091 3.318v165.071h-223.96v-67.506z" fill="#70d9e6"/><path d="m296.814 214.279v143.61h29.962v-165.071c0-4.804-5.996-6.993-9.091-3.318z" fill="#22c7db"/><g><g><path d="m156.859 233.397c-4.267 0-7.726-3.459-7.726-7.726v-6.226c0-4.267 3.459-7.726 7.726-7.726s7.726 3.459 7.726 7.726v6.226c0 4.267-3.459 7.726-7.726 7.726z" fill="#189ab0"/></g><g><path d="m243.891 208.673c-4.267 0-7.726-3.459-7.726-7.726v-6.226c0-4.267 3.459-7.726 7.726-7.726s7.726 3.459 7.726 7.726v6.226c.001 4.267-3.459 7.726-7.726 7.726z" fill="#189ab0"/></g><g><path d="m326.776 155.519c-4.268 0-7.726-3.459-7.726-7.726v-6.226c0-4.267 3.459-7.726 7.726-7.726s7.726 3.459 7.726 7.726v6.226c0 4.266-3.459 7.726-7.726 7.726z" fill="#189ab0"/></g><path d="m340.112 350.163h-45.517v-8.074c0-4.267-3.459-7.726-7.726-7.726-4.268 0-7.726 3.459-7.726 7.726v8.074h-32.005v-8.074c0-4.267-3.459-7.726-7.726-7.726s-7.726 3.459-7.726 7.726v8.074h-32.006v-8.074c0-4.267-3.459-7.726-7.726-7.726s-7.726 3.459-7.726 7.726v8.074h-32.005v-8.074c0-4.267-3.459-7.726-7.726-7.726s-7.726 3.459-7.726 7.726v8.074h-26.228v-152.33c0-4.267-3.459-7.726-7.726-7.726s-7.726 3.459-7.726 7.726v160.056c0 4.267 3.459 7.726 7.726 7.726h237.296c4.268 0 7.726-3.459 7.726-7.726-.001-4.267-3.46-7.726-7.727-7.726z" fill="#189ab0"/></g></g><g><g><path d="m266.081 457.386c-1.753 0-3.514-.593-4.962-1.807-3.27-2.743-3.696-7.616-.953-10.885l18.723-22.313c2.742-3.27 7.616-3.695 10.884-.953 3.27 2.743 3.696 7.616.953 10.885l-18.722 22.313c-1.529 1.82-3.718 2.76-5.923 2.76z" fill="#fb4a59"/></g><path d="m273.83 372.018-10.42 27.274c-.476 1.245-.414 2.612.092 3.845 2.591 6.302 3.485 17.072 3.115 27.275-.144 3.978 1.517 7.806 4.566 10.365l2.835 2.379c3.05 2.559 7.108 3.53 11.001 2.697 9.984-2.136 20.745-3.126 27.402-1.669 1.302.285 2.659.108 3.803-.577l25.05-14.998z" fill="#0d5f7f"/><path d="m341.271 428.613-25.048 14.989c-1.142.682-2.5.865-3.8.578-6.663-1.456-17.425-.46-27.405 1.679-3.888.822-7.949-.142-11.004-2.705l-2.829-2.374c-3.055-2.564-4.71-6.396-4.565-10.359.032-.777.055-1.561.059-2.344 9.289-1.814 18.944-2.568 25.097-1.222 1.299.287 2.658.104 3.8-.578l25.048-14.989z" fill="#094c66"/><path d="m332.17 427.667-55.83-46.847c-5.519-4.631-6.141-12.898-1.377-18.303l122.213-138.641c4.603-5.221 12.53-5.818 17.862-1.344l48.929 41.057c5.332 4.474 6.121 12.385 1.779 17.824l-115.312 144.431c-4.495 5.63-12.745 6.454-18.264 1.823z" fill="#fb4a59"/><path d="m350.44 425.845c-4.505 5.628-12.751 6.458-18.272 1.826l-29.43-24.695c5.521 4.632 13.767 3.802 18.272-1.826l115.303-144.434c4.348-5.441 3.556-13.354-1.769-17.822l29.43 24.695c5.324 4.468 6.117 12.381 1.769 17.822z" fill="#f82f40"/></g><g><g><circle cx="152.125" cy="104.798" fill="#23f1a8" r="57.647"/><path d="m209.771 104.8c0 31.837-25.811 57.649-57.648 57.649-6.026 0-11.841-.921-17.3-2.639 29.198-1.382 52.438-25.476 52.438-55.01 0-29.525-23.23-53.618-52.409-55.019 5.46-1.708 11.255-2.629 17.271-2.629 31.837 0 57.648 25.811 57.648 57.648z" fill="#26d192"/><path d="m175.885 117.599c0-11.049-8.988-20.037-20.037-20.037h-7.447c-2.528 0-4.585-2.057-4.585-4.585s2.057-4.584 4.585-4.584h7.447c1.526 0 2.948.758 3.805 2.027 2.389 3.535 7.192 4.464 10.728 2.077 3.536-2.389 4.466-7.192 2.077-10.728-2.973-4.401-7.516-7.382-12.607-8.419v-1.658c0-4.267-3.459-7.726-7.726-7.726s-7.726 3.459-7.726 7.726v1.652c-9.137 1.86-16.034 9.956-16.034 19.633 0 11.049 8.988 20.037 20.037 20.037h7.447c2.528 0 4.584 2.057 4.584 4.585s-2.056 4.584-4.584 4.584h-7.447c-1.848 0-3.507-1.1-4.227-2.802-1.662-3.93-6.195-5.77-10.126-4.107-3.93 1.662-5.769 6.196-4.107 10.126 2.612 6.176 8.06 10.526 14.456 11.823v.681c0 4.267 3.459 7.726 7.726 7.726s7.726-3.459 7.726-7.726v-.672c9.138-1.86 16.035-9.956 16.035-19.633z" fill="#1ec480"/></g><g><g><path d="m253.986 96.136h-16.781c-4.267 0-7.726-3.459-7.726-7.726s3.459-7.726 7.726-7.726h16.781c4.268 0 7.726 3.459 7.726 7.726s-3.458 7.726-7.726 7.726z" fill="#b3d5f2"/></g><g><path d="m275.004 122.3h-37.799c-4.267 0-7.726-3.459-7.726-7.726s3.459-7.726 7.726-7.726h37.799c4.268 0 7.726 3.459 7.726 7.726s-3.458 7.726-7.726 7.726z" fill="#b3d5f2"/></g></g></g></g></svg>