<svg id="Capa_1" enable-background="new 0 0 512 512" height="512" viewBox="0 0 512 512" width="512" xmlns="http://www.w3.org/2000/svg"><g><g><g><g><path d="m512 109.828v343.689c0 8.54-6.923 15.453-15.453 15.453h-481.094c-8.53-.001-15.453-6.913-15.453-15.453v-343.689z" fill="#eaf6ff"/><path d="m512 109.828v343.689c0 8.54-6.923 15.453-15.453 15.453h-39.662c8.53 0 15.453-6.912 15.453-15.453v-343.689z" fill="#d9ecfd"/><path d="m512 58.483v56.495h-512v-56.495c0-8.54 6.923-15.453 15.453-15.453h481.095c8.529.001 15.452 6.913 15.452 15.453z" fill="#b18bc8"/><path d="m512 58.483v56.495h-39.662v-56.495c0-8.54-6.923-15.453-15.453-15.453h39.662c8.53.001 15.453 6.913 15.453 15.453z" fill="#a176bd"/></g><g><g><g id="XMLID_460_"><path d="m39.575 86.302c-4.268 0-7.726-3.459-7.726-7.726v-.107c0-4.267 3.459-7.726 7.726-7.726s7.726 3.459 7.726 7.726v.107c.001 4.267-3.458 7.726-7.726 7.726z" fill="#f82f40"/></g><g id="XMLID_457_"><path d="m67.037 86.302c-4.268 0-7.726-3.459-7.726-7.726v-.107c0-4.267 3.459-7.726 7.726-7.726s7.726 3.459 7.726 7.726v.107c.001 4.267-3.458 7.726-7.726 7.726z" fill="#fee265"/></g><g id="XMLID_379_"><path d="m94.499 86.302c-4.268 0-7.726-3.459-7.726-7.726v-.107c0-4.267 3.459-7.726 7.726-7.726 4.268 0 7.726 3.459 7.726 7.726v.107c0 4.267-3.458 7.726-7.726 7.726z" fill="#26d192"/></g></g><g><path d="m472.425 86.248h-202.284c-4.268 0-7.726-3.459-7.726-7.726s3.459-7.726 7.726-7.726h202.284c4.268 0 7.726 3.459 7.726 7.726s-3.459 7.726-7.726 7.726z" fill="#915eb2"/></g></g></g></g><g><g><path d="m222.288 351.061 51.876-30.262c1.368-.798 3.027-.922 4.498-.337l42.544 16.913c2.001.796 4.286.262 5.728-1.337l33.254-36.882c1.852-2.054 4.996-2.279 7.121-.509l13.123 10.927c2.177 1.813 5.41 1.527 7.236-.64l49.49-58.756c3.095-3.674 9.091-1.486 9.091 3.318v165.071h-223.96v-67.506z" fill="#70d9e6"/><path d="m416.287 274.956v143.61h29.962v-165.071c0-4.804-5.996-6.993-9.091-3.318z" fill="#22c7db"/><g><g><path d="m276.331 294.074c-4.268 0-7.726-3.459-7.726-7.726v-6.227c0-4.267 3.459-7.726 7.726-7.726s7.726 3.459 7.726 7.726v6.227c0 4.267-3.458 7.726-7.726 7.726z" fill="#189ab0"/></g><g><path d="m363.364 269.35c-4.268 0-7.726-3.459-7.726-7.726v-6.227c0-4.267 3.459-7.726 7.726-7.726s7.726 3.459 7.726 7.726v6.227c.001 4.267-3.458 7.726-7.726 7.726z" fill="#189ab0"/></g><g><path d="m446.249 216.196c-4.268 0-7.726-3.459-7.726-7.726v-6.227c0-4.267 3.459-7.726 7.726-7.726 4.268 0 7.726 3.459 7.726 7.726v6.227c0 4.266-3.459 7.726-7.726 7.726z" fill="#189ab0"/></g><path d="m459.585 410.84h-45.517v-8.074c0-4.267-3.459-7.726-7.726-7.726-4.268 0-7.726 3.459-7.726 7.726v8.074h-32.006v-8.074c0-4.267-3.459-7.726-7.726-7.726s-7.726 3.459-7.726 7.726v8.074h-32.004v-8.074c0-4.267-3.459-7.726-7.726-7.726-4.268 0-7.726 3.459-7.726 7.726v8.074h-32.005v-8.074c0-4.267-3.459-7.726-7.726-7.726s-7.726 3.459-7.726 7.726v8.074h-26.227v-152.33c0-4.267-3.459-7.726-7.726-7.726-4.268 0-7.726 3.459-7.726 7.726v160.056c0 4.267 3.459 7.726 7.726 7.726h237.296c4.268 0 7.726-3.459 7.726-7.726-.003-4.267-3.462-7.726-7.729-7.726z" fill="#189ab0"/></g></g><g><g><g><g><path d="m178.465 426.292h-122.376c-4.268 0-7.726-3.459-7.726-7.726s3.459-7.726 7.726-7.726h122.376c4.268 0 7.726 3.459 7.726 7.726s-3.459 7.726-7.726 7.726z" fill="#b3d5f2"/></g><g><path d="m73.904 394.653h-17.815c-4.268 0-7.726-3.459-7.726-7.726s3.459-7.726 7.726-7.726h17.816c4.268 0 7.726 3.459 7.726 7.726s-3.459 7.726-7.727 7.726z" fill="#b3d5f2"/></g><g><path d="m178.465 394.653h-71.152c-4.268 0-7.726-3.459-7.726-7.726s3.459-7.726 7.726-7.726h71.152c4.268 0 7.726 3.459 7.726 7.726s-3.459 7.726-7.726 7.726z" fill="#b3d5f2"/></g><g><path d="m178.465 363.014h-17.907c-4.268 0-7.726-3.459-7.726-7.726s3.459-7.726 7.726-7.726h17.907c4.268 0 7.726 3.459 7.726 7.726s-3.459 7.726-7.726 7.726z" fill="#b3d5f2"/></g><g><path d="m127.512 363.014h-71.423c-4.268 0-7.726-3.459-7.726-7.726s3.459-7.726 7.726-7.726h71.424c4.268 0 7.726 3.459 7.726 7.726-.001 4.267-3.459 7.726-7.727 7.726z" fill="#b3d5f2"/></g><g><g><path d="m153.944 205.768h-39.717c-4.268 0-7.726-3.459-7.726-7.726s3.459-7.726 7.726-7.726h39.717c4.268 0 7.726 3.459 7.726 7.726s-3.459 7.726-7.726 7.726z" fill="#26d192"/></g><g><path d="m199.272 174.019h-85.045c-4.268 0-7.726-3.459-7.726-7.726s3.459-7.726 7.726-7.726h85.045c4.268 0 7.726 3.459 7.726 7.726 0 4.266-3.459 7.726-7.726 7.726z" fill="#26d192"/></g><g><path d="m153.944 228.415h-39.717c-4.268 0-7.726-3.459-7.726-7.726s3.459-7.726 7.726-7.726h39.717c4.268 0 7.726 3.459 7.726 7.726s-3.459 7.726-7.726 7.726z" fill="#26d192"/></g></g></g></g><g><path d="m67.809 319.478c-2.049 0-4.014-.814-5.464-2.263l-11.72-11.72c-3.017-3.017-3.017-7.909 0-10.927 3.018-3.017 7.909-3.017 10.928 0l6.257 6.257 6.256-6.257c3.018-3.017 7.91-3.018 10.927 0 3.018 3.018 3.018 7.909.001 10.927l-11.719 11.72c-1.451 1.448-3.417 2.263-5.466 2.263z" fill="#915eb2"/></g></g></g><path d="m88.757 205.861c0-11.049-8.989-20.037-20.037-20.037h-7.446c-2.528 0-4.585-2.056-4.585-4.584s2.056-4.585 4.585-4.585h7.446c1.526 0 2.949.758 3.806 2.027 2.388 3.535 7.19 4.465 10.727 2.077 3.536-2.389 4.466-7.192 2.077-10.728-2.972-4.4-7.516-7.382-12.607-8.418v-1.658c0-4.267-3.459-7.726-7.726-7.726-4.268 0-7.726 3.459-7.726 7.726v1.651c-9.137 1.86-16.034 9.956-16.034 19.634 0 11.048 8.989 20.037 20.037 20.037h7.446c2.528 0 4.585 2.057 4.585 4.585s-2.056 4.585-4.585 4.585h-7.446c-1.848 0-3.508-1.1-4.228-2.803-1.662-3.931-6.201-5.77-10.126-4.106-3.931 1.662-5.769 6.196-4.106 10.126 2.612 6.176 8.061 10.525 14.457 11.823v.681c0 4.267 3.459 7.726 7.726 7.726 4.268 0 7.726-3.459 7.726-7.726v-.672c9.137-1.861 16.034-9.957 16.034-19.635z" fill="#26d192"/></g></svg>