<svg id="Capa_1" enable-background="new 0 0 512 512" height="512" viewBox="0 0 512 512" width="512" xmlns="http://www.w3.org/2000/svg"><g><g><g><g><path d="m415.299 512h-318.601c-12.554 0-22.731-10.177-22.731-22.731v-451.359c0-12.554 10.177-22.731 22.731-22.731h318.601c12.554 0 22.731 10.177 22.731 22.731v451.358c0 12.555-10.177 22.732-22.731 22.732z" fill="#70d9e6"/><path d="m438.033 37.909v451.357c0 12.556-10.178 22.734-22.734 22.734h-32.621c12.556 0 22.734-10.178 22.734-22.734v-451.357c0-12.556-10.178-22.734-22.734-22.734h32.622c12.556 0 22.733 10.178 22.733 22.734z" fill="#3ad1e0"/><g><path d="m398.569 65.025v397.125c0 5.733-4.653 10.385-10.385 10.385h-264.371c-5.733 0-10.385-4.653-10.385-10.385v-397.125c0-5.733 4.653-10.385 10.385-10.385h264.371c5.732 0 10.385 4.653 10.385 10.385z" fill="#eaf6ff"/><g fill="#d9ecfd"><path d="m398.569 65.025v397.125c0 5.733-4.653 10.385-10.385 10.385h-32.621c5.733 0 10.385-4.653 10.385-10.385v-397.125c0-5.733-4.653-10.385-10.385-10.385h32.621c5.732 0 10.385 4.653 10.385 10.385z"/><path d="m344.565 54.64v26.42c0 5.276-2.139 10.043-5.587 13.501-3.458 3.448-8.225 5.587-13.501 5.587-7.311 0-13.657-4.113-16.866-10.147-1.786-3.365-5.348-5.411-9.16-5.411h-86.905c-3.822 0-7.374 2.067-9.17 5.432-3.354 6.304-10.136 10.5-17.873 10.105-10.219-.53-18.071-9.326-18.071-19.566v-25.921z"/></g></g><g><path d="m185.506 76.191c7.729.401 14.512-3.798 17.868-10.102 1.795-3.371 5.352-5.429 9.171-5.429h86.905c3.811 0 7.374 2.042 9.161 5.408 3.205 6.037 9.549 10.149 16.862 10.149 10.546 0 19.096-8.55 19.096-19.096v-45.679c0-6.319-5.123-11.442-11.443-11.442h-154.256c-6.319 0-11.442 5.123-11.442 11.442v45.185c0 10.239 7.853 19.033 18.078 19.564z" fill="#fee265"/><path d="m344.565 11.445v45.677c0 5.265-2.139 10.043-5.587 13.501-3.458 3.458-8.225 5.598-13.501 5.598-6.522 0-12.286-3.271-15.723-8.277 2.119-3.074 3.365-6.813 3.365-10.822v-45.677c-.001-6.325-5.121-11.445-11.446-11.445h31.457c6.315 0 11.435 5.12 11.435 11.445z" fill="#fdd330"/></g></g><g><g id="XMLID_67_"><path d="m196.349 41.752c-4.267 0-7.726-3.459-7.726-7.726v-.108c0-4.267 3.459-7.726 7.726-7.726s7.726 3.459 7.726 7.726v.108c0 4.266-3.459 7.726-7.726 7.726z" fill="#e8b125"/></g><g id="XMLID_79_"><path d="m315.648 41.752c-4.267 0-7.726-3.459-7.726-7.726v-.108c0-4.267 3.459-7.726 7.726-7.726s7.726 3.459 7.726 7.726v.108c0 4.266-3.459 7.726-7.726 7.726z" fill="#e8b125"/></g></g></g><g><path d="m349.49 292.54h-186.98c-5.69 0-10.302-4.612-10.302-10.302v-18.647c0-5.69 4.612-10.302 10.302-10.302h186.98c5.69 0 10.302 4.612 10.302 10.302v18.647c0 5.69-4.612 10.302-10.302 10.302z" fill="#fb4a59"/><path d="m359.791 263.59v18.646c0 5.697-4.615 10.302-10.302 10.302h-27.99c5.697 0 10.302-4.605 10.302-10.302v-18.646c0-5.687-4.605-10.302-10.302-10.302h27.99c5.687 0 10.302 4.615 10.302 10.302z" fill="#f82f40"/></g><g><g><g><g><path d="m332.74 336.592h-39.195c-4.267 0-7.726-3.459-7.726-7.726s3.459-7.726 7.726-7.726h39.195c4.267 0 7.726 3.459 7.726 7.726s-3.459 7.726-7.726 7.726z" fill="#b3d5f2"/></g><g><path d="m348.114 364.597h-69.943c-4.267 0-7.726-3.459-7.726-7.726s3.459-7.726 7.726-7.726h69.943c4.267 0 7.726 3.459 7.726 7.726 0 4.266-3.459 7.726-7.726 7.726z" fill="#b3d5f2"/></g><g><path d="m348.114 392.601h-69.921c-4.267 0-7.726-3.459-7.726-7.726s3.459-7.726 7.726-7.726h69.921c4.267 0 7.726 3.459 7.726 7.726s-3.459 7.726-7.726 7.726z" fill="#b3d5f2"/></g></g><g><g><path d="m218.455 336.592h-39.195c-4.267 0-7.726-3.459-7.726-7.726s3.459-7.726 7.726-7.726h39.195c4.267 0 7.726 3.459 7.726 7.726s-3.459 7.726-7.726 7.726z" fill="#b3d5f2"/></g><g><path d="m233.829 364.597h-69.943c-4.267 0-7.726-3.459-7.726-7.726s3.459-7.726 7.726-7.726h69.943c4.267 0 7.726 3.459 7.726 7.726 0 4.266-3.459 7.726-7.726 7.726z" fill="#b3d5f2"/></g><g><path d="m233.807 392.601h-69.921c-4.267 0-7.726-3.459-7.726-7.726s3.459-7.726 7.726-7.726h69.921c4.267 0 7.726 3.459 7.726 7.726s-3.459 7.726-7.726 7.726z" fill="#b3d5f2"/></g></g></g><g><path d="m308.767 437.164h-105.534c-4.267 0-7.726-3.459-7.726-7.726s3.459-7.726 7.726-7.726h105.534c4.267 0 7.726 3.459 7.726 7.726s-3.459 7.726-7.726 7.726z" fill="#b3d5f2"/></g></g><g><g><circle cx="235.242" cy="164.682" fill="#23f1a8" r="61.891"/><path d="m297.133 164.684c0 34.181-27.712 61.893-61.893 61.893-6.469 0-12.712-.989-18.574-2.833 31.348-1.483 56.299-27.351 56.299-59.06 0-31.699-24.941-57.566-56.268-59.071 5.862-1.834 12.084-2.823 18.543-2.823 34.181.001 61.893 27.713 61.893 61.894z" fill="#26d192"/><path d="m260.183 178.425c0-11.548-9.395-20.943-20.943-20.943h-7.995c-3.028 0-5.491-2.463-5.491-5.491s2.463-5.491 5.491-5.491h7.995c1.827 0 3.531.907 4.557 2.426 2.388 3.536 7.193 4.465 10.727 2.077 3.536-2.389 4.466-7.192 2.077-10.727-3.196-4.731-8.127-7.898-13.633-8.892v-2.246c0-4.267-3.459-7.726-7.726-7.726s-7.726 3.459-7.726 7.726v2.261c-9.773 1.766-17.215 10.318-17.215 20.592 0 11.548 9.395 20.944 20.944 20.944h7.995c3.028 0 5.49 2.463 5.49 5.49s-2.463 5.491-5.49 5.491h-7.995c-2.213 0-4.2-1.317-5.062-3.356-1.663-3.93-6.195-5.769-10.126-4.106-3.93 1.662-5.768 6.196-4.106 10.126 2.792 6.601 8.684 11.205 15.566 12.443v1.203c0 4.267 3.459 7.726 7.726 7.726s7.726-3.459 7.726-7.726v-1.209c9.772-1.767 17.214-10.319 17.214-20.592z" fill="#1ec480"/></g><g><g id="XMLID_91_"><path d="m338.649 172.429c-.008 0-.016 0-.024 0l-10.888-.033c-4.267-.013-7.716-3.482-7.703-7.749.013-4.259 3.47-7.703 7.726-7.703h.024l10.888.033c4.267.013 7.716 3.482 7.703 7.749-.013 4.259-3.47 7.703-7.726 7.703z" fill="#b3d5f2"/></g><g id="XMLID_89_"><path d="m323.128 145.184c-2.627 0-5.188-1.34-6.636-3.757-2.193-3.66-1.003-8.406 2.658-10.599l9.445-5.657c3.66-2.192 8.405-1.003 10.599 2.658 2.193 3.66 1.003 8.406-2.658 10.599l-9.445 5.657c-1.243.744-2.612 1.099-3.963 1.099z" fill="#b3d5f2"/></g><g id="XMLID_88_"><path d="m332.378 205.297c-1.366 0-2.749-.362-4.002-1.122l-9.413-5.714c-3.648-2.214-4.81-6.966-2.596-10.614s6.965-4.809 10.614-2.596l9.413 5.713c3.648 2.214 4.81 6.966 2.596 10.614-1.453 2.395-4.002 3.719-6.612 3.719z" fill="#b3d5f2"/></g></g></g></g><g><path d="m160.449 104.911h-10.185c-4.267 0-7.726-3.459-7.726-7.726s3.459-7.726 7.726-7.726h10.185c4.267 0 7.726 3.459 7.726 7.726.001 4.267-3.459 7.726-7.726 7.726z" fill="#b3d5f2"/></g></g></svg>