<svg id="Capa_1" enable-background="new 0 0 512 512" height="512" viewBox="0 0 512 512" width="512" xmlns="http://www.w3.org/2000/svg"><g><g><g><g><g><g><g><g><g><path d="m341.469 40.322 121.639 290.121c2.121 5.06-.269 10.885-5.321 13.004l-233.263 97.8c-5.052 2.118-10.882-.261-13.004-5.321l-146.908-350.392c-2.121-5.06.269-10.885 5.321-13.004l172.992-72.53z" fill="#eaf6ff"/><g><g><g><circle cx="221.858" cy="162.955" fill="#23f1a8" r="59.605"/><path d="m276.847 139.955c12.704 30.369-1.618 65.289-31.987 77.993-5.748 2.404-11.662 3.846-17.555 4.386 27.301-12.969 39.855-45.225 28.07-73.397-11.781-28.163-43.554-41.876-71.946-31.57 4.526-3.808 9.687-6.999 15.426-9.399 30.368-12.704 65.288 1.618 77.992 31.987z" fill="#26d192"/><path d="m249.388 165.785c-4.353-10.406-16.358-15.329-26.766-10.976l-7.103 2.971c-1.231.516-2.592.521-3.829.014-1.236-.507-2.2-1.465-2.716-2.698s-.52-2.593-.013-3.828c.507-1.236 1.465-2.201 2.698-2.717l7.102-2.971c1.536-.643 3.288-.48 4.686.437 3.566 2.341 8.358 1.345 10.697-2.224 2.34-3.568 1.344-8.358-2.224-10.698-4.596-3.014-10.135-4.023-15.402-2.923l-.743-1.777c-1.647-3.937-6.171-5.793-10.11-4.146-3.937 1.646-5.793 6.173-4.146 10.109l.743 1.776c-3.384 2.24-6.025 5.433-7.599 9.27-2.073 5.055-2.053 10.615.055 15.655 2.108 5.041 6.053 8.959 11.109 11.032 5.053 2.073 10.613 2.054 15.656-.055l7.103-2.971c2.544-1.064 5.481.14 6.546 2.684 1.064 2.545-.14 5.482-2.685 6.546l-7.104 2.971c-1.86.778-3.993.37-5.435-1.04-3.05-2.986-7.943-2.93-10.926.118-2.985 3.05-2.932 7.942.119 10.926 3.905 3.822 9.054 5.843 14.298 5.843 1.396 0 2.798-.152 4.186-.443l.354.846c1.239 2.963 4.109 4.747 7.131 4.747.994 0 2.004-.193 2.979-.601 3.937-1.646 5.793-6.173 4.146-10.109l-.355-.849c7.999-5.316 11.389-15.736 7.548-24.919z" fill="#1ec480"/></g><g><g id="XMLID_498_"><path d="m304.056 136.288c-3.03 0-5.906-1.794-7.14-4.768-1.635-3.941.234-8.462 4.176-10.097l9.685-4.018c3.942-1.636 8.463.235 10.098 4.177 1.635 3.941-.234 8.462-4.176 10.097l-9.685 4.018c-.968.401-1.971.591-2.958.591z" fill="#b3d5f2"/></g><g id="XMLID_497_"><path d="m289.81 113.832c-1.592 0-3.197-.49-4.577-1.507-3.435-2.531-4.168-7.368-1.637-10.803l6.29-8.536c2.532-3.435 7.368-4.169 10.804-1.637 3.435 2.531 4.168 7.368 1.637 10.803l-6.29 8.536c-1.516 2.056-3.856 3.144-6.227 3.144z" fill="#b3d5f2"/></g><g id="XMLID_70_"><path d="m320.399 163.798c-.383 0-.77-.028-1.16-.087l-10.488-1.578c-4.219-.635-7.126-4.57-6.491-8.79.636-4.221 4.572-7.126 8.791-6.491l10.488 1.578c4.219.635 7.126 4.57 6.491 8.79-.576 3.83-3.872 6.578-7.631 6.578z" fill="#b3d5f2"/></g></g></g></g><path d="m341.469 40.322 121.639 290.121c2.121 5.06-.269 10.885-5.321 13.004l-28.785 12.069c5.06-2.121 7.442-7.944 5.321-13.004l-133.707-318.907z" fill="#d9ecfd"/></g></g><path d="m268.195 60.271-25.27-60.271 98.544 40.322-60.271 25.27c-5.051 2.118-10.882-.262-13.003-5.321z" fill="#b5dbfd"/></g></g></g></g><g><path d="m108.151 104.326c-3.019 0-5.887-1.782-7.129-4.741-1.65-3.935.203-8.463 4.138-10.113l51.171-21.455c3.935-1.65 8.463.203 10.114 4.138 1.65 3.935-.203 8.463-4.138 10.113l-51.171 21.455c-.976.409-1.989.603-2.985.603z" fill="#b3d5f2"/></g><g><path d="m118.17 126.187c-3.019 0-5.887-1.782-7.129-4.741-1.65-3.935.203-8.463 4.139-10.113l20.833-8.735c3.939-1.651 8.463.202 10.114 4.138 1.65 3.935-.203 8.463-4.138 10.113l-20.834 8.735c-.977.409-1.989.603-2.985.603z" fill="#b3d5f2"/></g></g></g><g><g><g><path d="m400.961 511.998h-319.96c-5.265 0-9.533-4.268-9.533-9.533v-253.718h339.025v253.719c.001 5.264-4.267 9.532-9.532 9.532z" fill="#fcb44d"/><path d="m71.469 248.747h339.025v34.113h-339.025z" fill="#fca62f"/><path d="m410.494 248.75v253.718c0 5.262-4.271 9.533-9.533 9.533h-37.796c5.262 0 9.533-4.271 9.533-9.533v-253.718z" fill="#fca62f"/><g><g><path d="m424.313 256.137h-366.663c-5.265 0-9.533-4.268-9.533-9.533v-46.068c0-5.265 4.268-9.533 9.533-9.533h366.663c5.265 0 9.533 4.268 9.533 9.533v46.068c-.001 5.265-4.269 9.533-9.533 9.533z" fill="#ffd496"/></g><g><path d="m433.844 200.534v46.071c0 5.262-4.271 9.533-9.533 9.533h-41.581c5.262 0 9.533-4.271 9.533-9.533v-46.071c0-5.262-4.271-9.533-9.533-9.533h41.581c5.262.001 9.533 4.271 9.533 9.533z" fill="#fcc16d"/></g></g></g><path d="m281.627 346.043h-81.291c-7.897 0-14.299-6.402-14.299-14.299v-18.131c0-7.897 6.402-14.299 14.299-14.299h81.291c7.897 0 14.299 6.402 14.299 14.299v18.131c0 7.897-6.402 14.299-14.299 14.299z" fill="#fca62f"/><path d="m281.627 346.043h-81.291c-7.897 0-14.299-6.402-14.299-14.299v-18.131c0-7.897 6.402-14.299 14.299-14.299h81.291c7.897 0 14.299 6.402 14.299 14.299v18.131c0 7.897-6.402 14.299-14.299 14.299z" fill="#0d5f7f"/></g><g><g><path d="m193.918 473.895h-73.55c-6.162 0-11.157-4.995-11.157-11.157v-20.636c0-6.162 4.995-11.157 11.157-11.157h73.55c6.162 0 11.157 4.995 11.157 11.157v20.636c0 6.162-4.995 11.157-11.157 11.157z" fill="#a8e7ef"/><path d="m205.076 442.099v20.638c0 6.168-4.995 11.163-11.153 11.163h-25.337c6.158 0 11.153-4.995 11.153-11.163v-20.638c0-6.158-4.995-11.153-11.153-11.153h25.337c6.157 0 11.153 4.995 11.153 11.153z" fill="#70d9e6"/></g><g><g><path d="m372.752 448.43h-36.753c-4.268 0-7.726-3.459-7.726-7.726s3.459-7.726 7.726-7.726h36.753c4.268 0 7.726 3.459 7.726 7.726s-3.459 7.726-7.726 7.726z" fill="#f98824"/></g><g><path d="m372.752 473.995h-78.695c-4.268 0-7.726-3.459-7.726-7.726s3.459-7.726 7.726-7.726h78.695c4.268 0 7.726 3.459 7.726 7.726s-3.459 7.726-7.726 7.726z" fill="#f98824"/></g></g></g></g></g></svg>