<svg id="Capa_1" enable-background="new 0 0 512 512" height="512" viewBox="0 0 512 512" width="512" xmlns="http://www.w3.org/2000/svg"><g><g><g><g><g><g><path d="m430.678 96.415v402.863c0 7.026-5.707 12.723-12.723 12.723h-323.91c-7.016 0-12.723-5.697-12.723-12.723v-486.555c0-7.026 5.708-12.723 12.723-12.723h240.218z" fill="#c4e1ff"/><path d="m430.678 96.415v402.863c0 7.026-5.707 12.723-12.723 12.723h-39.971c7.026 0 12.723-5.697 12.723-12.723v-442.834z" fill="#8dcafc"/></g></g><path d="m334.263 83.692v-83.692l96.415 96.415h-83.692c-7.016 0-12.723-5.697-12.723-12.723z" fill="#64b9fc"/></g></g><g><g><path d="m378.336 244.812h-244.672c-5.69 0-10.302-4.612-10.302-10.302v-18.647c0-5.69 4.612-10.302 10.302-10.302h244.671c5.69 0 10.302 4.612 10.302 10.302v18.647c0 5.69-4.612 10.302-10.301 10.302z" fill="#fb4a59"/><path d="m388.636 215.862v18.646c0 5.697-4.615 10.302-10.302 10.302h-27.99c5.697 0 10.302-4.605 10.302-10.302v-18.646c0-5.687-4.605-10.302-10.302-10.302h27.99c5.687 0 10.302 4.615 10.302 10.302z" fill="#f82f40"/></g><g><path d="m360.17 174.361h-65.878c-4.267 0-7.726-3.459-7.726-7.726s3.459-7.726 7.726-7.726h65.878c4.267 0 7.726 3.459 7.726 7.726s-3.459 7.726-7.726 7.726z" fill="#7fbfea"/></g><g><path d="m360.17 147.75h-32.939c-4.267 0-7.726-3.459-7.726-7.726s3.459-7.726 7.726-7.726h32.939c4.267 0 7.726 3.459 7.726 7.726s-3.459 7.726-7.726 7.726z" fill="#7fbfea"/></g><g><g><g><path d="m381.925 291.948h-186.096c-4.267 0-7.726-3.459-7.726-7.726s3.459-7.726 7.726-7.726h186.095c4.267 0 7.726 3.459 7.726 7.726s-3.458 7.726-7.725 7.726z" fill="#7fbfea"/></g><g><path d="m149.121 291.948h-19.045c-4.267 0-7.726-3.459-7.726-7.726s3.459-7.726 7.726-7.726h19.045c4.267 0 7.726 3.459 7.726 7.726s-3.459 7.726-7.726 7.726z" fill="#7fbfea"/></g></g><g><g><path d="m381.925 322.107h-165.968c-4.267 0-7.726-3.459-7.726-7.726s3.459-7.726 7.726-7.726h165.967c4.267 0 7.726 3.459 7.726 7.726s-3.458 7.726-7.725 7.726z" fill="#7fbfea"/></g><g><path d="m184.548 322.107h-9.306c-4.267 0-7.726-3.459-7.726-7.726s3.459-7.726 7.726-7.726h9.306c4.267 0 7.726 3.459 7.726 7.726s-3.459 7.726-7.726 7.726z" fill="#7fbfea"/></g><g><path d="m144.575 322.107h-14.499c-4.267 0-7.726-3.459-7.726-7.726s3.459-7.726 7.726-7.726h14.499c4.267 0 7.726 3.459 7.726 7.726s-3.459 7.726-7.726 7.726z" fill="#7fbfea"/></g><g><path d="m381.925 352.534h-35.191c-4.267 0-7.726-3.459-7.726-7.726s3.459-7.726 7.726-7.726h35.191c4.267 0 7.726 3.459 7.726 7.726s-3.459 7.726-7.726 7.726z" fill="#7fbfea"/></g><g><path d="m311.511 352.534h-17.081c-4.267 0-7.726-3.459-7.726-7.726s3.459-7.726 7.726-7.726h17.081c4.267 0 7.726 3.459 7.726 7.726s-3.459 7.726-7.726 7.726z" fill="#7fbfea"/></g><g><path d="m260.726 352.534h-130.65c-4.267 0-7.726-3.459-7.726-7.726s3.459-7.726 7.726-7.726h130.65c4.267 0 7.726 3.459 7.726 7.726s-3.459 7.726-7.726 7.726z" fill="#7fbfea"/></g><g><path d="m381.925 382.962h-130.331c-4.267 0-7.726-3.459-7.726-7.726s3.459-7.726 7.726-7.726h130.331c4.267 0 7.726 3.459 7.726 7.726s-3.459 7.726-7.726 7.726z" fill="#7fbfea"/></g></g></g><g><g><g><path d="m242.957 458.926h-53.412c-4.267 0-7.726-3.459-7.726-7.726s3.459-7.726 7.726-7.726h53.412c4.267 0 7.726 3.459 7.726 7.726 0 4.266-3.459 7.726-7.726 7.726z" fill="#7fbfea"/></g><g><path d="m157.804 458.926c-18.465 0-33.488-15.023-33.488-33.488s15.023-33.488 33.488-33.488c18.466 0 33.488 15.023 33.488 33.488 0 4.267-3.459 7.726-7.726 7.726s-7.726-3.459-7.726-7.726c0-9.945-8.091-18.035-18.036-18.035s-18.035 8.091-18.035 18.035 8.091 18.036 18.035 18.036c4.267 0 7.726 3.459 7.726 7.726 0 4.266-3.459 7.726-7.726 7.726z" fill="#7fbfea"/></g></g><g><path d="m379.958 458.926h-70.959c-4.267 0-7.726-3.459-7.726-7.726s3.459-7.726 7.726-7.726h70.959c4.267 0 7.726 3.459 7.726 7.726 0 4.266-3.459 7.726-7.726 7.726z" fill="#7fbfea"/></g></g></g></g><g><g><g><path d="m245.413 166.635h-98.628c-5.69 0-10.302-4.612-10.302-10.302v-103.354c0-5.69 4.612-10.302 10.302-10.302h98.628c5.69 0 10.302 4.612 10.302 10.302v103.353c-.001 5.69-4.613 10.303-10.302 10.303z" fill="#eaf6ff"/></g></g><g><g><path d="m229.26 166.63h-66.326v-25.931c0-13.531 10.969-24.5 24.5-24.5h17.326c13.531 0 24.5 10.969 24.5 24.5z" fill="#31a7fb"/><path d="m229.263 140.698v25.937h-22.179v-25.937c0-12.714-9.682-23.159-22.066-24.383.8-.075 1.601-.113 2.42-.113h17.32c13.533 0 24.505 10.962 24.505 24.496z" fill="#1c96f9"/><g><circle cx="196.097" cy="95.875" fill="#64b9fc" r="22.515"/></g></g></g></g></g></svg>