<svg id="Capa_1" enable-background="new 0 0 512 512" height="512" viewBox="0 0 512 512" width="512" xmlns="http://www.w3.org/2000/svg"><g><g><g><g><path d="m448.359 20.965v470.069c0 7.024-5.7 12.724-12.724 12.724h-311.542c-7.024 0-12.724-5.7-12.724-12.724v-470.069c0-7.024 5.7-12.724 12.724-12.724h311.541c7.024 0 12.725 5.701 12.725 12.724z" fill="#eaf6ff"/><path d="m448.359 20.965v470.069c0 7.024-5.7 12.724-12.724 12.724h-39.966c7.024 0 12.724-5.7 12.724-12.724v-470.069c0-7.024-5.7-12.724-12.724-12.724h39.966c7.023 0 12.724 5.701 12.724 12.724z" fill="#d9ecfd"/></g></g><g><g><path d="m151.594 0h-39.863c-7.027 0-12.724 5.697-12.724 12.724v486.552c0 7.027 5.697 12.724 12.724 12.724h39.863c2.845 0 5.151-2.306 5.151-5.151v-501.698c0-2.845-2.306-5.151-5.151-5.151z" fill="#70d9e6"/></g><g fill="#189ab0"><path d="m103.128 74.344h-13.466c-14.348 0-26.021-11.673-26.021-26.021s11.673-26.021 26.021-26.021h29.495c4.267 0 7.726 3.459 7.726 7.726s-3.459 7.726-7.726 7.726h-29.495c-5.827 0-10.568 4.741-10.568 10.568s4.741 10.568 10.568 10.568h13.466c4.267 0 7.726 3.459 7.726 7.726s-3.459 7.728-7.726 7.728z"/><path d="m103.128 135.573h-13.466c-14.348 0-26.021-11.673-26.021-26.021s11.673-26.021 26.021-26.021h29.495c4.267 0 7.726 3.459 7.726 7.726s-3.459 7.726-7.726 7.726h-29.495c-5.827 0-10.568 4.741-10.568 10.568s4.741 10.568 10.568 10.568h13.466c4.267 0 7.726 3.459 7.726 7.726 0 4.269-3.459 7.728-7.726 7.728z"/><path d="m103.128 196.803h-13.466c-14.348 0-26.021-11.673-26.021-26.021s11.673-26.021 26.021-26.021h29.495c4.267 0 7.726 3.459 7.726 7.726s-3.459 7.726-7.726 7.726h-29.495c-5.827 0-10.568 4.741-10.568 10.568s4.741 10.568 10.568 10.568h13.466c4.267 0 7.726 3.459 7.726 7.726s-3.459 7.728-7.726 7.728z"/><path d="m103.128 258.034h-13.466c-14.348 0-26.021-11.673-26.021-26.021s11.673-26.021 26.021-26.021h29.495c4.267 0 7.726 3.459 7.726 7.726s-3.459 7.726-7.726 7.726h-29.495c-5.827 0-10.568 4.741-10.568 10.568s4.741 10.568 10.568 10.568h13.466c4.267 0 7.726 3.459 7.726 7.726s-3.459 7.728-7.726 7.728z"/><path d="m103.128 319.264h-13.466c-14.348 0-26.021-11.673-26.021-26.021s11.673-26.021 26.021-26.021h29.495c4.267 0 7.726 3.459 7.726 7.726s-3.459 7.726-7.726 7.726h-29.495c-5.827 0-10.568 4.741-10.568 10.568s4.741 10.568 10.568 10.568h13.466c4.267 0 7.726 3.459 7.726 7.726 0 4.268-3.459 7.728-7.726 7.728z"/><path d="m103.128 380.493h-13.466c-14.348 0-26.021-11.673-26.021-26.021s11.673-26.021 26.021-26.021h29.495c4.267 0 7.726 3.459 7.726 7.726s-3.459 7.726-7.726 7.726h-29.495c-5.827 0-10.568 4.741-10.568 10.568s4.741 10.568 10.568 10.568h13.466c4.267 0 7.726 3.459 7.726 7.726 0 4.269-3.459 7.728-7.726 7.728z"/><path d="m103.128 441.723h-13.466c-14.348 0-26.021-11.673-26.021-26.021s11.673-26.021 26.021-26.021h29.495c4.267 0 7.726 3.459 7.726 7.726s-3.459 7.726-7.726 7.726h-29.495c-5.827 0-10.568 4.741-10.568 10.568s4.741 10.568 10.568 10.568h13.466c4.267 0 7.726 3.459 7.726 7.726 0 4.269-3.459 7.728-7.726 7.728z"/><path d="m103.128 502.953h-13.466c-14.348 0-26.021-11.673-26.021-26.021s11.673-26.021 26.021-26.021h29.495c4.267 0 7.726 3.459 7.726 7.726s-3.459 7.726-7.726 7.726h-29.495c-5.827 0-10.568 4.741-10.568 10.568s4.741 10.569 10.568 10.569h13.466c4.267 0 7.726 3.459 7.726 7.726 0 4.268-3.459 7.727-7.726 7.727z"/></g><g><path d="m128.864 0v512h22.73c2.845 0 5.151-2.306 5.151-5.151v-501.698c0-2.845-2.306-5.151-5.151-5.151z" fill="#22c7db"/></g></g></g><g><g><path d="m116.009 66.622c0 7.098-5.779 12.877-12.877 12.877h-4.121v-25.754h4.121c7.097 0 12.877 5.769 12.877 12.877z" fill="#70d9e6"/></g><g><path d="m116.009 127.845c0 7.098-5.779 12.877-12.877 12.877h-4.121v-25.755h4.121c7.097.001 12.877 5.78 12.877 12.878z" fill="#70d9e6"/></g><g><path d="m116.009 189.079c0 7.098-5.779 12.877-12.877 12.877h-4.121v-25.755h4.121c7.097.001 12.877 5.78 12.877 12.878z" fill="#70d9e6"/></g><g><path d="m116.009 250.303c0 7.108-5.779 12.877-12.877 12.877h-4.121v-25.755h4.121c7.097.001 12.877 5.78 12.877 12.878z" fill="#70d9e6"/></g><g><path d="m116.009 311.537c0 7.098-5.779 12.877-12.877 12.877h-4.121v-25.754h4.121c7.097 0 12.877 5.779 12.877 12.877z" fill="#70d9e6"/></g><g><path d="m116.009 372.771c0 7.098-5.779 12.877-12.877 12.877h-4.121v-25.755h4.121c7.097.001 12.877 5.77 12.877 12.878z" fill="#70d9e6"/></g><g><path d="m116.009 433.995c0 7.098-5.779 12.877-12.877 12.877h-4.121v-25.755h4.121c7.097 0 12.877 5.78 12.877 12.878z" fill="#70d9e6"/></g><g><path d="m116.009 495.229c0 7.098-5.779 12.877-12.877 12.877h-.546c-2.215-2.277-3.575-5.398-3.575-8.829v-16.926h4.121c7.097 0 12.877 5.78 12.877 12.878z" fill="#70d9e6"/></g></g><g><g><g><circle cx="302.243" cy="156.744" fill="#fca62f" r="96.703"/><path d="m398.945 156.748c0 53.407-43.299 96.706-96.706 96.706-10.108 0-19.863-1.545-29.021-4.426 48.981-2.318 87.965-42.735 87.965-92.279 0-49.528-38.969-89.945-87.917-92.295 9.159-2.865 18.881-4.41 28.973-4.41 53.407-.002 96.706 43.297 96.706 96.704z" fill="#f98824"/></g><circle cx="302.243" cy="156.745" fill="#fee265" r="67.542"/><path d="m369.785 156.747c0 37.302-30.242 67.544-67.544 67.544-7.06 0-13.873-1.079-20.27-3.092 34.211-1.619 61.44-29.849 61.44-64.453 0-34.593-27.218-62.822-61.406-64.464 6.397-2.001 13.187-3.08 20.236-3.08 37.302.001 67.544 30.243 67.544 67.545z" fill="#fdd330"/><path d="m328.756 171.742c0-12.214-9.937-22.15-22.15-22.15h-8.725c-3.693 0-6.698-3.005-6.698-6.698s3.005-6.697 6.698-6.697h8.725c2.229 0 4.307 1.106 5.558 2.958 2.388 3.536 7.192 4.466 10.727 2.077 3.536-2.389 4.466-7.192 2.077-10.727-3.492-5.169-8.943-8.566-14.999-9.494v-3.055c0-4.267-3.459-7.726-7.726-7.726s-7.726 3.459-7.726 7.726v3.072c-10.619 1.629-18.786 10.8-18.786 21.867 0 12.214 9.937 22.15 22.15 22.15h8.725c3.693 0 6.697 3.005 6.697 6.698s-3.005 6.698-6.697 6.698h-8.725c-2.699 0-5.123-1.607-6.175-4.093-1.662-3.931-6.198-5.77-10.126-4.107-3.93 1.662-5.769 6.196-4.107 10.126 3.032 7.168 9.515 12.121 17.043 13.27v1.898c0 4.267 3.459 7.726 7.726 7.726s7.726-3.459 7.726-7.726v-1.924c10.62-1.63 18.788-10.801 18.788-21.869z" fill="#e8b125"/></g><g><path d="m385.418 353.613h-166.35c-5.745 0-10.403-4.657-10.403-10.403v-27.882c0-5.745 4.657-10.403 10.403-10.403h166.35c5.745 0 10.403 4.657 10.403 10.403v27.882c0 5.745-4.658 10.403-10.403 10.403z" fill="#a8e7ef"/><path d="m395.821 315.326v27.883c0 5.751-4.657 10.408-10.399 10.408h-27.745c5.742 0 10.399-4.657 10.399-10.408v-27.883c0-5.742-4.657-10.399-10.399-10.399h27.745c5.741 0 10.399 4.657 10.399 10.399z" fill="#70d9e6"/></g><g><g><path d="m384.386 459.686h-164.286c-4.267 0-7.726-3.459-7.726-7.726s3.459-7.726 7.726-7.726h164.286c4.267 0 7.726 3.459 7.726 7.726 0 4.266-3.459 7.726-7.726 7.726z" fill="#b3d5f2"/></g><g><path d="m234.392 428.046h-14.292c-4.267 0-7.726-3.459-7.726-7.726s3.459-7.726 7.726-7.726h14.292c4.267 0 7.726 3.459 7.726 7.726.001 4.267-3.458 7.726-7.726 7.726z" fill="#b3d5f2"/></g><g><path d="m384.386 428.046h-123.193c-4.267 0-7.726-3.459-7.726-7.726s3.459-7.726 7.726-7.726h123.193c4.267 0 7.726 3.459 7.726 7.726s-3.459 7.726-7.726 7.726z" fill="#b3d5f2"/></g><g><path d="m384.386 396.407h-14.365c-4.267 0-7.726-3.459-7.726-7.726s3.459-7.726 7.726-7.726h14.365c4.267 0 7.726 3.459 7.726 7.726s-3.459 7.726-7.726 7.726z" fill="#b3d5f2"/></g><g><path d="m343.511 396.407h-123.411c-4.267 0-7.726-3.459-7.726-7.726s3.459-7.726 7.726-7.726h123.41c4.267 0 7.726 3.459 7.726 7.726.001 4.267-3.458 7.726-7.725 7.726z" fill="#b3d5f2"/></g></g></g></g></svg>