<svg id="Capa_1" enable-background="new 0 0 512 512" height="512" viewBox="0 0 512 512" width="512" xmlns="http://www.w3.org/2000/svg"><g><g><g><g><g><path d="m322.848 452.642h-133.697l8.241-91.82h36.067v28.278c0 12.449 10.092 22.54 22.54 22.54 12.449 0 22.54-10.092 22.54-22.54v-28.278h36.067z" fill="#1682ad"/><g fill="#107295"><path d="m317.904 397.562-3.298-36.74h-36.066v28.278c0 2.994-.59 5.849-1.651 8.462z"/><path d="m235.11 397.562c-1.062-2.613-1.651-5.468-1.651-8.462v-28.278h-36.067l-3.298 36.74z"/><path d="m322.848 452.642h-30.37l-8.241-91.82h30.369z"/></g></g></g><g><g><path d="m349.379 490.292h-186.759c-5.69 0-10.302-4.612-10.302-10.302v-19.073c0-5.69 4.612-10.302 10.302-10.302h186.759c5.69 0 10.302 4.612 10.302 10.302v19.073c0 5.69-4.613 10.302-10.302 10.302z" fill="#189ab0"/></g><g><path d="m359.677 460.914v19.079c0 5.687-4.605 10.302-10.302 10.302h-30.359c5.687 0 10.302-4.615 10.302-10.302v-19.079c0-5.687-4.615-10.302-10.302-10.302h30.359c5.697 0 10.302 4.615 10.302 10.302z" fill="#1682ad"/></g></g></g><g><g><path d="m512 42.597v279.88h-512v-279.88c0-11.538 9.354-20.892 20.902-20.892h470.195c11.549 0 20.903 9.354 20.903 20.892z" fill="#d9ecfd"/><path d="m512 42.597v279.88h-39.662v-279.88c0-11.538-9.364-20.892-20.902-20.892h39.672c11.538 0 20.892 9.354 20.892 20.892z" fill="#c4e1ff"/></g><g><path d="m511.999 317.328v33.264c0 11.548-9.354 20.902-20.892 20.902h-470.205c-11.548 0-20.902-9.354-20.902-20.902v-33.264z" fill="#189ab0"/><g fill="#1682ad"><path d="m365.518 317.328v43.865c0 5.687-4.615 10.302-10.302 10.302h-198.433c-5.687 0-10.302-4.615-10.302-10.302v-43.865z"/><path d="m511.997 317.328v33.264c0 11.548-9.354 20.902-20.892 20.902h-39.672c11.538 0 20.902-9.354 20.902-20.902v-33.264z"/></g></g></g></g><path d="m115.967 97.712h35.665v37.138h-35.665c-5.697 0-10.302-4.615-10.302-10.302v-16.534c.001-5.697 4.606-10.302 10.302-10.302z" fill="#0d5f7f"/><path d="m406.334 108.014v16.534c0 5.687-4.615 10.302-10.302 10.302h-35.665v-37.138h35.665c5.687 0 10.302 4.605 10.302 10.302z" fill="#0d5f7f"/><g><path d="m146.481 97.712h126.218v244.503h-115.916c-5.687 0-10.302-4.615-10.302-10.302z" fill="#fddd45"/><path d="m365.519 97.712v234.201c0 5.687-4.615 10.302-10.302 10.302h-44.669v-244.503z" fill="#fddd45"/><g fill="#f8c52d"><path d="m146.481 97.712h126.218v25.023h-126.218z"/><path d="m310.548 97.712h54.971v25.023h-54.971z"/><path d="m365.518 97.704v234.201c0 5.697-4.615 10.302-10.302 10.302h-31.359c5.687 0 10.302-4.605 10.302-10.302v-234.201z"/></g></g><g><path d="m267.548 97.707h48.149v244.504h-48.149z" fill="#0d5f7f"/><path d="m267.548 97.707h48.149v25.031h-48.149z" fill="#094c66"/></g><g><g><path d="m255.999 77.251c-1.977 0-3.955-.754-5.463-2.263l-11.72-11.72c-3.018-3.017-3.018-7.909 0-10.927 3.017-3.017 7.909-3.018 10.927 0l6.257 6.257 6.256-6.257c3.018-3.017 7.909-3.017 10.928 0 3.017 3.017 3.017 7.909 0 10.927l-11.72 11.72c-1.51 1.509-3.487 2.263-5.465 2.263z" fill="#189ab0"/></g></g><g><path d="m233.456 313.407c-4.267 0-7.726-3.459-7.726-7.726v-35.676c0-4.267 3.459-7.726 7.726-7.726s7.726 3.459 7.726 7.726v35.676c.001 4.267-3.459 7.726-7.726 7.726z" fill="#e8b125"/></g><g><path d="m208.199 313.407c-4.267 0-7.726-3.459-7.726-7.726v-97.044c0-4.267 3.459-7.726 7.726-7.726s7.726 3.459 7.726 7.726v97.044c.001 4.267-3.459 7.726-7.726 7.726z" fill="#e8b125"/></g><g><g><g><path d="m468.838 284.313h-48.951c-4.268 0-7.726-3.459-7.726-7.726s3.459-7.726 7.726-7.726h48.951c4.268 0 7.726 3.459 7.726 7.726s-3.458 7.726-7.726 7.726z" fill="#b3d5f2"/></g><g><path d="m468.838 256.235h-24.226c-4.268 0-7.726-3.459-7.726-7.726s3.459-7.726 7.726-7.726h24.226c4.268 0 7.726 3.459 7.726 7.726s-3.458 7.726-7.726 7.726z" fill="#b3d5f2"/></g></g><g><g><path d="m92.112 284.313h-48.951c-4.267 0-7.726-3.459-7.726-7.726s3.459-7.726 7.726-7.726h48.951c4.267 0 7.726 3.459 7.726 7.726s-3.459 7.726-7.726 7.726z" fill="#b3d5f2"/></g><g><path d="m67.387 256.235h-24.226c-4.267 0-7.726-3.459-7.726-7.726s3.459-7.726 7.726-7.726h24.226c4.267 0 7.726 3.459 7.726 7.726s-3.459 7.726-7.726 7.726z" fill="#b3d5f2"/></g></g></g></g></svg>