<svg id="Capa_1" enable-background="new 0 0 512 512" height="512" viewBox="0 0 512 512" width="512" xmlns="http://www.w3.org/2000/svg"><g><g><g><g><g><path d="m327.901 50.144v173.045h63.878c13.534 0 24.505-11.383 24.505-25.425v-137.305c0-5.696-4.618-10.314-10.314-10.314h-78.069z" fill="#d9ecfd"/></g><g><g><path d="m405.972 50.149c5.696 0 10.314 4.618 10.314 10.314v137.303c0 14.038-10.974 25.425-24.507 25.425h-31.397c13.532 0 24.496-11.387 24.496-25.425v-147.617z" fill="#c4e1ff"/></g></g></g></g><path d="m379.786 144.679v346.697c0 11.383-9.241 20.624-20.634 20.624h-242.814c-11.394 0-20.624-9.241-20.624-20.624v-346.697c0-11.394 9.231-20.624 20.624-20.624h27.897v38.673c0 2.854 2.318 5.161 5.161 5.161h179.901c2.843 0 5.161-2.308 5.161-5.161v-38.673h24.694c11.394-.001 20.634 9.23 20.634 20.624z" fill="#31a7fb"/><path d="m379.786 144.679v346.697c0 11.383-9.241 20.624-20.634 20.624h-32.039c11.394 0 20.635-9.241 20.635-20.624v-346.697c0-11.394-9.241-20.624-20.635-20.624h32.039c11.394-.001 20.634 9.23 20.634 20.624z" fill="#1c96f9"/><path d="m329.297 173.043h-179.895c-5.696 0-10.314-4.618-10.314-10.314v-38.676h200.524v38.676c-.001 5.696-4.618 10.314-10.315 10.314z" fill="#0d5f7f"/><g><path d="m334.336 288.157h-193.176c-5.696 0-10.314-4.618-10.314-10.314v-59.303c0-5.696 4.618-10.314 10.314-10.314h193.175c5.696 0 10.314 4.618 10.314 10.314v59.303c.001 5.697-4.617 10.314-10.313 10.314z" fill="#72f4c3"/><path d="m344.647 218.543v59.297c0 5.697-4.615 10.322-10.312 10.322h-28.876c5.697 0 10.322-4.626 10.322-10.322v-59.297c0-5.697-4.626-10.312-10.322-10.312h28.876c5.697 0 10.312 4.615 10.312 10.312z" fill="#27e19d"/></g><g><g><g><path d="m358.894 124.053v-98.628c0-14.042-11.383-25.425-25.425-25.425h-140.085v124.053z" fill="#8dcafc"/></g><g><path d="m307.785 173.045v-147.62c0-14.043 11.382-25.425 25.425-25.425h-140.244c-14.042 0-25.425 11.383-25.425 25.425v147.62z" fill="#eaf6ff"/></g><g><path d="m333.213 0c-14.045 0-25.425 11.38-25.425 25.425v147.617h-26.64v-147.617c-.001-14.045 11.379-25.425 25.424-25.425z" fill="#d9ecfd"/></g></g></g></g><g><g><g><g><path d="m154.652 353.327h-17.798c-4.55 0-8.239-3.689-8.239-8.239v-15.239c0-4.55 3.689-8.239 8.239-8.239h17.798c4.55 0 8.239 3.689 8.239 8.239v15.239c.001 4.55-3.688 8.239-8.239 8.239z" fill="#a8e7ef"/><path d="m162.892 329.846v15.241c0 4.555-3.689 8.243-8.236 8.243h-15.668c4.548 0 8.236-3.689 8.236-8.243v-15.241c0-4.548-3.689-8.236-8.236-8.236h15.668c4.547 0 8.236 3.688 8.236 8.236z" fill="#70d9e6"/></g></g><g><g><path d="m154.652 409.939h-17.798c-4.55 0-8.239-3.689-8.239-8.239v-15.24c0-4.55 3.689-8.239 8.239-8.239h17.798c4.55 0 8.239 3.689 8.239 8.239v15.24c.001 4.55-3.688 8.239-8.239 8.239z" fill="#a8e7ef"/><path d="m162.892 386.458v15.241c0 4.555-3.689 8.243-8.236 8.243h-15.668c4.548 0 8.236-3.689 8.236-8.243v-15.241c0-4.548-3.689-8.236-8.236-8.236h15.668c4.547 0 8.236 3.688 8.236 8.236z" fill="#70d9e6"/></g></g><g><g><path d="m154.652 466.551h-17.798c-4.55 0-8.239-3.689-8.239-8.239v-15.239c0-4.55 3.689-8.239 8.239-8.239h17.798c4.55 0 8.239 3.689 8.239 8.239v15.239c.001 4.55-3.688 8.239-8.239 8.239z" fill="#a8e7ef"/><path d="m162.892 443.07v15.241c0 4.555-3.689 8.243-8.236 8.243h-15.668c4.548 0 8.236-3.689 8.236-8.243v-15.241c0-4.548-3.689-8.236-8.236-8.236h15.668c4.547 0 8.236 3.689 8.236 8.236z" fill="#70d9e6"/></g></g></g><g><g><g><path d="m214.609 353.327h-17.799c-4.55 0-8.239-3.689-8.239-8.239v-15.239c0-4.55 3.689-8.239 8.239-8.239h17.798c4.55 0 8.239 3.689 8.239 8.239v15.239c.001 4.55-3.688 8.239-8.238 8.239z" fill="#a8e7ef"/><path d="m222.848 329.846v15.241c0 4.555-3.689 8.243-8.236 8.243h-15.668c4.548 0 8.236-3.689 8.236-8.243v-15.241c0-4.548-3.689-8.236-8.236-8.236h15.668c4.547 0 8.236 3.688 8.236 8.236z" fill="#70d9e6"/></g></g><g><g><path d="m214.609 409.939h-17.799c-4.55 0-8.239-3.689-8.239-8.239v-15.24c0-4.55 3.689-8.239 8.239-8.239h17.798c4.55 0 8.239 3.689 8.239 8.239v15.24c.001 4.55-3.688 8.239-8.238 8.239z" fill="#a8e7ef"/><path d="m222.848 386.458v15.241c0 4.555-3.689 8.243-8.236 8.243h-15.668c4.548 0 8.236-3.689 8.236-8.243v-15.241c0-4.548-3.689-8.236-8.236-8.236h15.668c4.547 0 8.236 3.688 8.236 8.236z" fill="#70d9e6"/></g></g><g><g><path d="m214.609 466.551h-17.799c-4.55 0-8.239-3.689-8.239-8.239v-15.239c0-4.55 3.689-8.239 8.239-8.239h17.798c4.55 0 8.239 3.689 8.239 8.239v15.239c.001 4.55-3.688 8.239-8.238 8.239z" fill="#a8e7ef"/><path d="m222.848 443.07v15.241c0 4.555-3.689 8.243-8.236 8.243h-15.668c4.548 0 8.236-3.689 8.236-8.243v-15.241c0-4.548-3.689-8.236-8.236-8.236h15.668c4.547 0 8.236 3.689 8.236 8.236z" fill="#70d9e6"/></g></g></g><g><g><g><path d="m274.565 353.327h-17.798c-4.55 0-8.239-3.689-8.239-8.239v-15.239c0-4.55 3.689-8.239 8.239-8.239h17.798c4.55 0 8.239 3.689 8.239 8.239v15.239c0 4.55-3.689 8.239-8.239 8.239z" fill="#a8e7ef"/><path d="m282.804 329.846v15.241c0 4.555-3.689 8.243-8.236 8.243h-15.668c4.548 0 8.236-3.689 8.236-8.243v-15.241c0-4.548-3.689-8.236-8.236-8.236h15.668c4.548 0 8.236 3.688 8.236 8.236z" fill="#70d9e6"/></g></g><g><g><path d="m274.565 409.939h-17.798c-4.55 0-8.239-3.689-8.239-8.239v-15.24c0-4.55 3.689-8.239 8.239-8.239h17.798c4.55 0 8.239 3.689 8.239 8.239v15.24c0 4.55-3.689 8.239-8.239 8.239z" fill="#a8e7ef"/><path d="m282.804 386.458v15.241c0 4.555-3.689 8.243-8.236 8.243h-15.668c4.548 0 8.236-3.689 8.236-8.243v-15.241c0-4.548-3.689-8.236-8.236-8.236h15.668c4.548 0 8.236 3.688 8.236 8.236z" fill="#70d9e6"/></g></g><g><g><path d="m274.565 466.551h-17.798c-4.55 0-8.239-3.689-8.239-8.239v-15.239c0-4.55 3.689-8.239 8.239-8.239h17.798c4.55 0 8.239 3.689 8.239 8.239v15.239c0 4.55-3.689 8.239-8.239 8.239z" fill="#a8e7ef"/><path d="m282.804 443.07v15.241c0 4.555-3.689 8.243-8.236 8.243h-15.668c4.548 0 8.236-3.689 8.236-8.243v-15.241c0-4.548-3.689-8.236-8.236-8.236h15.668c4.548 0 8.236 3.689 8.236 8.236z" fill="#70d9e6"/></g></g></g><g><g><g><path d="m334.521 353.327h-17.798c-4.55 0-8.239-3.689-8.239-8.239v-15.239c0-4.55 3.689-8.239 8.239-8.239h17.798c4.55 0 8.239 3.689 8.239 8.239v15.239c.001 4.55-3.688 8.239-8.239 8.239z" fill="#a8e7ef"/><path d="m342.761 329.846v15.241c0 4.555-3.689 8.243-8.236 8.243h-15.668c4.548 0 8.236-3.689 8.236-8.243v-15.241c0-4.548-3.689-8.236-8.236-8.236h15.668c4.547 0 8.236 3.688 8.236 8.236z" fill="#70d9e6"/></g></g><g><g><path d="m334.521 409.939h-17.798c-4.55 0-8.239-3.689-8.239-8.239v-15.24c0-4.55 3.689-8.239 8.239-8.239h17.798c4.55 0 8.239 3.689 8.239 8.239v15.24c.001 4.55-3.688 8.239-8.239 8.239z" fill="#a8e7ef"/><path d="m342.761 386.458v15.241c0 4.555-3.689 8.243-8.236 8.243h-15.668c4.548 0 8.236-3.689 8.236-8.243v-15.241c0-4.548-3.689-8.236-8.236-8.236h15.668c4.547 0 8.236 3.688 8.236 8.236z" fill="#70d9e6"/></g></g><g><g><path d="m334.521 466.551h-17.798c-4.55 0-8.239-3.689-8.239-8.239v-15.239c0-4.55 3.689-8.239 8.239-8.239h17.798c4.55 0 8.239 3.689 8.239 8.239v15.239c.001 4.55-3.688 8.239-8.239 8.239z" fill="#a8e7ef"/><path d="m342.761 443.07v15.241c0 4.555-3.689 8.243-8.236 8.243h-15.668c4.548 0 8.236-3.689 8.236-8.243v-15.241c0-4.548-3.689-8.236-8.236-8.236h15.668c4.547 0 8.236 3.689 8.236 8.236z" fill="#70d9e6"/></g></g></g></g><g><g><path d="m181.057 268.515h-16.545c-4.268 0-7.726-3.459-7.726-7.726s3.459-7.726 7.726-7.726h16.545c4.268 0 7.726 3.459 7.726 7.726.001 4.267-3.458 7.726-7.726 7.726z" fill="#1eb07c"/></g><g><path d="m224.366 268.515h-16.545c-4.268 0-7.726-3.459-7.726-7.726s3.459-7.726 7.726-7.726h16.545c4.268 0 7.726 3.459 7.726 7.726s-3.458 7.726-7.726 7.726z" fill="#1eb07c"/></g><g><path d="m267.675 268.515h-16.545c-4.268 0-7.726-3.459-7.726-7.726s3.459-7.726 7.726-7.726h16.545c4.268 0 7.726 3.459 7.726 7.726s-3.458 7.726-7.726 7.726z" fill="#1eb07c"/></g><g><path d="m310.985 268.515h-16.546c-4.268 0-7.726-3.459-7.726-7.726s3.459-7.726 7.726-7.726h16.546c4.268 0 7.726 3.459 7.726 7.726s-3.459 7.726-7.726 7.726z" fill="#1eb07c"/></g></g></g></svg>