<svg id="Capa_1" enable-background="new 0 0 512 512" height="512" viewBox="0 0 512 512" width="512" xmlns="http://www.w3.org/2000/svg"><g><g><g><g><g><g><path d="m318.188 476.972h-124.376l7.667-85.419h33.552v26.307c0 11.581 9.388 20.969 20.969 20.969 11.581 0 20.969-9.388 20.969-20.969v-26.307h33.552z" fill="#1682ad"/><g fill="#107295"><path d="m313.589 425.732-3.068-34.179h-33.552v26.307c0 2.786-.549 5.441-1.536 7.872z"/><path d="m236.567 425.732c-.988-2.431-1.536-5.086-1.536-7.872v-26.307h-33.552l-3.068 34.179z"/><path d="m318.188 476.972h-28.252l-7.667-85.419h28.252z"/></g></g></g><g><g><path d="m342.87 511.997h-173.74c-5.293 0-9.584-4.291-9.584-9.584v-17.743c0-5.293 4.291-9.584 9.584-9.584h173.74c5.293 0 9.584 4.291 9.584 9.584v17.743c0 5.294-4.291 9.584-9.584 9.584z" fill="#189ab0"/></g><g><path d="m352.45 484.667v17.749c0 5.29-4.284 9.584-9.584 9.584h-28.243c5.29 0 9.584-4.293 9.584-9.584v-17.749c0-5.29-4.293-9.584-9.584-9.584h28.243c5.3.001 9.584 4.294 9.584 9.584z" fill="#1682ad"/></g></g></g><g><g><g><path d="m464.326 81.225v-44.17c0-20.465-16.59-37.055-37.055-37.055h-286.584v81.225z" fill="#8dcafc"/></g><path d="m494.157 95.518v260.718h-476.314v-260.718c0-10.745 8.705-19.44 19.45-19.44h437.425c10.734.001 19.439 8.696 19.439 19.44z" fill="#fb4a59"/><path d="m494.157 95.518v260.718h-36.901v-260.718c0-10.734-8.715-19.44-19.45-19.44h36.911c10.735.001 19.44 8.706 19.44 19.44z" fill="#f82f40"/><g><path d="m426.897 0c-20.47 0-37.056 16.586-37.056 37.056v319.186h-286.823v-319.186c0-20.47 16.596-37.056 37.056-37.056z" fill="#eaf6ff"/></g><g><path d="m426.897 0c-20.47 0-37.056 16.586-37.056 37.056v319.186h-38.827v-319.186c0-20.47 16.586-37.056 37.055-37.056z" fill="#d9ecfd"/></g><path d="m494.153 351.091v30.946c0 10.743-8.702 19.445-19.436 19.445h-437.427c-10.743 0-19.445-8.702-19.445-19.445v-30.946z" fill="#189ab0"/><path d="m494.153 351.091v30.946c0 10.743-8.702 19.445-19.436 19.445h-36.907c10.734 0 19.445-8.702 19.445-19.445v-30.946z" fill="#1682ad"/></g></g></g><g><g><path d="m302.358 63.181c-67.621 0-122.633 55.012-122.633 122.633 0 10.215 1.263 20.139 3.628 29.632-25.012 8.941-42.914 32.836-42.914 60.921 0 35.726 28.962 64.688 64.688 64.688 26.459 0 49.194-15.894 59.216-38.648 11.975 3.914 24.751 6.039 38.016 6.039 34.223 0 65.221-14.093 87.483-36.798v-171.669c-22.263-22.705-53.261-36.798-87.484-36.798zm0 198.073c-13.705 0-26.556-3.692-37.645-10.105-5.947-14.034-16.717-25.518-30.22-32.413-4.848-9.954-7.575-21.124-7.575-32.922 0-41.599 33.841-75.44 75.44-75.44 41.589 0 75.43 33.841 75.43 75.44s-33.841 75.44-75.43 75.44z" fill="#d9ecfd"/></g></g></g><g><g><g><path d="m362.428 207.788c-13.784 18.131-35.582 29.865-60.07 29.865-41.599 0-75.44-33.841-75.44-75.43 0-41.599 33.841-75.44 75.44-75.44 1.731 0 3.451.062 5.151.175v-47.245c-1.71-.093-3.431-.124-5.151-.124-67.621 0-122.633 55.012-122.633 122.633 0 67.611 55.012 122.633 122.633 122.633 37.498 0 71.124-16.926 93.623-43.546z" fill="#64b9fc"/></g><g><path d="m395.981 241.31c-22.499 26.61-56.124 43.535-93.633 43.535-29.978 0-57.494-10.817-78.819-28.763 16.442 8.911 35.242 13.969 55.228 13.969 39.631 0 74.688-19.903 95.704-50.242z" fill="#31a7fb"/></g><g><path d="m424.981 162.223c0 31.956-12.29 61.1-32.42 82.961-11.116-11.136-22.262-22.273-33.409-33.378 11.6-13.269 18.636-30.617 18.636-49.583 0-1.731-.062-3.451-.175-5.151h47.244c.093 1.71.124 3.43.124 5.151z" fill="#23f1a8"/></g><g><path d="m424.987 162.213c0 31.98-12.301 61.119-32.421 82.979-7.048-7.07-14.107-14.129-21.166-21.177 13.27-17.422 21.728-38.687 23.402-61.802z" fill="#26d192"/></g><g><path d="m377.792 162.219c0-41.596-33.842-75.438-75.439-75.438v-47.194c67.62 0 122.632 55.012 122.632 122.631h-47.193z" fill="#fddd45"/></g><g><path d="m424.987 162.213c0-67.617-55.018-122.624-122.635-122.624v.143c52.893 10.924 92.769 57.882 92.769 113.957 0 2.863-.099 5.704-.319 8.524z" fill="#f8c52d"/></g></g></g><g><circle cx="205.127" cy="248.189" fill="#fee265" r="64.688"/><path d="m269.814 248.192c0 35.726-28.964 64.69-64.69 64.69-6.762 0-13.287-1.034-19.413-2.961 32.765-1.55 58.843-28.587 58.843-61.729 0-33.131-26.068-60.168-58.811-61.74 6.127-1.916 12.63-2.95 19.381-2.95 35.726 0 64.69 28.964 64.69 64.69z" fill="#fdd330"/><path d="m230.845 262.553c0-11.878-9.663-21.541-21.54-21.541h-8.356c-3.357 0-6.088-2.731-6.088-6.088s2.73-6.088 6.088-6.088h8.356c2.026 0 3.914 1.005 5.051 2.689 2.388 3.537 7.194 4.468 10.727 2.079 3.536-2.388 4.467-7.191 2.079-10.727-3.343-4.949-8.531-8.229-14.31-9.192v-2.646c0-4.267-3.459-7.726-7.726-7.726-4.268 0-7.726 3.459-7.726 7.726v2.662c-10.191 1.7-17.992 10.557-17.992 21.223 0 11.877 9.663 21.54 21.54 21.54h8.356c3.357 0 6.088 2.731 6.088 6.088s-2.73 6.088-6.088 6.088h-8.356c-2.454 0-4.657-1.46-5.612-3.72-1.663-3.932-6.198-5.769-10.126-4.107-3.931 1.662-5.77 6.195-4.108 10.125 2.91 6.882 9.095 11.657 16.297 12.853v1.547c0 4.267 3.459 7.726 7.726 7.726 4.268 0 7.726-3.459 7.726-7.726v-1.563c10.193-1.699 17.994-10.556 17.994-21.222z" fill="#e8b125"/></g><g><g><path d="m160.271 57.046c-1.978 0-3.955-.754-5.464-2.263l-4.147-4.147-4.147 4.147c-3.018 3.017-7.91 3.018-10.927 0-3.018-3.017-3.018-7.909-.001-10.927l9.611-9.611c1.45-1.449 3.414-2.263 5.464-2.263s4.014.814 5.464 2.263l9.611 9.611c3.017 3.018 3.017 7.909-.001 10.927-1.509 1.509-3.487 2.263-5.463 2.263z" fill="#b3d5f2"/></g><g><path d="m160.271 91.297c-1.977 0-3.955-.755-5.464-2.263l-4.147-4.147-4.147 4.147c-3.018 3.017-7.909 3.017-10.928 0-3.017-3.017-3.017-7.909 0-10.927l9.611-9.611c3.018-3.017 7.909-3.017 10.928 0l9.611 9.611c3.017 3.017 3.017 7.909 0 10.927-1.51 1.508-3.488 2.263-5.464 2.263z" fill="#b3d5f2"/></g><g><path d="m160.271 125.547c-1.977 0-3.955-.755-5.464-2.263l-4.147-4.147-4.147 4.147c-3.018 3.017-7.909 3.017-10.928 0-3.017-3.017-3.017-7.909 0-10.927l9.611-9.611c3.018-3.017 7.909-3.017 10.928 0l9.611 9.611c3.017 3.017 3.017 7.909 0 10.927-1.51 1.509-3.488 2.263-5.464 2.263z" fill="#b3d5f2"/></g></g></g></svg>