<svg id="Capa_1" enable-background="new 0 0 512 512" height="512" viewBox="0 0 512 512" width="512" xmlns="http://www.w3.org/2000/svg"><g><g><g><g><path d="m430.678 96.415v402.863c0 7.026-5.707 12.723-12.723 12.723h-323.91c-7.016 0-12.723-5.697-12.723-12.723v-486.555c0-7.026 5.708-12.723 12.723-12.723h240.218z" fill="#eaf6ff"/><path d="m430.678 96.415v402.863c0 7.026-5.707 12.723-12.723 12.723h-39.971c7.026 0 12.723-5.697 12.723-12.723v-442.834z" fill="#d9ecfd"/></g></g><path d="m334.263 83.692v-83.692l96.415 96.415h-83.692c-7.016 0-12.723-5.697-12.723-12.723z" fill="#b5dbfd"/></g><g><g><g><path d="m385.926 224.579v29c0 5.697-4.605 10.302-10.302 10.302h-197.804v-49.603h197.805c5.697 0 10.301 4.615 10.301 10.301z" fill="#31a7fb"/><path d="m182.97 214.281v49.603h-46.595c-5.697 0-10.302-4.615-10.302-10.302v-29c0-5.687 4.605-10.302 10.302-10.302h46.595z" fill="#70d9e6"/><path d="m385.926 224.583v29c0 5.687-4.605 10.302-10.302 10.302h-34.738c5.697 0 10.302-4.615 10.302-10.302v-29c0-5.687-4.605-10.302-10.302-10.302h34.738c5.697 0 10.302 4.615 10.302 10.302z" fill="#1c96f9"/></g><g><path d="m385.926 274.183v29.01c0 5.687-4.605 10.302-10.302 10.302h-197.804v-49.614h197.805c5.697 0 10.301 4.615 10.301 10.302z" fill="#72f4c3"/><path d="m182.97 263.884v49.603h-46.595c-5.697 0-10.302-4.605-10.302-10.302v-29c0-5.687 4.605-10.302 10.302-10.302h46.595z" fill="#20bfd5"/><path d="m385.926 274.186v29c0 5.697-4.605 10.302-10.302 10.302h-34.738c5.697 0 10.302-4.605 10.302-10.302v-29c0-5.687-4.605-10.302-10.302-10.302h34.738c5.697 0 10.302 4.616 10.302 10.302z" fill="#23f1a8"/></g><g><path d="m385.926 323.796v29c0 5.687-4.605 10.302-10.302 10.302h-197.804v-49.603h197.805c5.697-.001 10.301 4.604 10.301 10.301z" fill="#31a7fb"/><path d="m182.97 313.488v49.613h-46.595c-5.697 0-10.302-4.615-10.302-10.302v-29.01c0-5.687 4.605-10.302 10.302-10.302h46.595z" fill="#70d9e6"/><path d="m385.926 323.79v29.01c0 5.687-4.605 10.302-10.302 10.302h-34.738c5.697 0 10.302-4.615 10.302-10.302v-29.01c0-5.687-4.605-10.302-10.302-10.302h34.738c5.697 0 10.302 4.615 10.302 10.302z" fill="#1c96f9"/></g></g></g><g><circle cx="187.962" cy="111.899" fill="#70d9e6" r="61.891"/><path d="m249.853 111.902c0 34.181-27.712 61.893-61.893 61.893-6.47 0-12.712-.989-18.574-2.833 31.348-1.483 56.299-27.351 56.299-59.06 0-31.699-24.941-57.566-56.268-59.071 5.862-1.834 12.084-2.823 18.543-2.823 34.181.001 61.893 27.712 61.893 61.894z" fill="#3ad1e0"/><path d="m212.903 125.642c0-11.548-9.395-20.943-20.944-20.943h-7.995c-3.028 0-5.49-2.463-5.49-5.491s2.463-5.491 5.49-5.491h7.995c1.827 0 3.531.906 4.557 2.426 2.388 3.537 7.193 4.466 10.727 2.077 3.536-2.388 4.466-7.191 2.077-10.727-3.196-4.731-8.127-7.898-13.633-8.892v-2.246c0-4.268-3.459-7.726-7.726-7.726s-7.726 3.459-7.726 7.726v2.261c-9.773 1.766-17.214 10.318-17.214 20.592 0 11.548 9.395 20.944 20.943 20.944h7.995c3.028 0 5.491 2.463 5.491 5.49 0 3.028-2.463 5.491-5.491 5.491h-7.995c-2.213 0-4.2-1.317-5.062-3.356-1.663-3.931-6.196-5.769-10.126-4.106-3.93 1.662-5.769 6.195-4.107 10.125 2.792 6.602 8.684 11.206 15.566 12.444v1.203c0 4.268 3.459 7.726 7.726 7.726s7.726-3.459 7.726-7.726v-1.209c9.774-1.767 17.216-10.318 17.216-20.592z" fill="#20bfd5"/></g><g><g><g><path d="m278.775 405.987h-142.723c-4.267 0-7.726-3.459-7.726-7.726s3.459-7.726 7.726-7.726h142.723c4.267 0 7.726 3.459 7.726 7.726s-3.459 7.726-7.726 7.726z" fill="#c4e1ff"/></g><g><path d="m225.145 435.4h-17.384c-4.267 0-7.726-3.459-7.726-7.726s3.459-7.726 7.726-7.726h17.384c4.267 0 7.726 3.459 7.726 7.726s-3.459 7.726-7.726 7.726z" fill="#c4e1ff"/></g><g><path d="m178.014 435.4h-41.962c-4.267 0-7.726-3.459-7.726-7.726s3.459-7.726 7.726-7.726h41.962c4.267 0 7.726 3.459 7.726 7.726s-3.459 7.726-7.726 7.726z" fill="#c4e1ff"/></g></g><g><path d="m350.273 433.459c-2.049 0-4.015-.814-5.463-2.264l-13.059-13.059c-3.018-3.017-3.018-7.909 0-10.927 3.017-3.017 7.909-3.016 10.927.001l7.596 7.596 20.067-20.067c3.017-3.016 7.909-3.016 10.927 0 3.018 3.018 3.018 7.909 0 10.928l-25.53 25.53c-1.45 1.448-3.416 2.262-5.465 2.262z" fill="#1ec480"/></g></g><g><path d="m363.406 176.948c-2.049 0-4.015-.814-5.463-2.263l-11.72-11.72c-3.018-3.018-3.018-7.909 0-10.928 3.017-3.016 7.909-3.016 10.927 0l6.257 6.258 6.257-6.257c3.017-3.018 7.909-3.017 10.927-.001 3.018 3.017 3.018 7.909 0 10.927l-11.72 11.72c-1.45 1.45-3.415 2.264-5.465 2.264z" fill="#3ad1e0"/></g><g><path d="m255.925 468.026h-119.873c-4.267 0-7.726-3.459-7.726-7.726s3.459-7.726 7.726-7.726h119.873c4.267 0 7.726 3.459 7.726 7.726s-3.459 7.726-7.726 7.726z" fill="#c4e1ff"/></g></g></svg>