<svg id="Capa_1" enable-background="new 0 0 512 512" height="512" viewBox="0 0 512 512" width="512" xmlns="http://www.w3.org/2000/svg"><g><g><g><path d="m432.058 96.755v131.966h-339.424c-4.945 0-8.963 4.007-8.963 8.963v219.841c0 13.32-7.139 24.982-17.801 31.348h-29.37c-20.161-.001-36.5-16.339-36.5-36.5v-305.325c0-10.425 8.447-18.883 18.883-18.883h218.738c5.46 0 10.652-2.359 14.237-6.48l32.512-37.334c3.585-4.121 8.777-6.48 14.237-6.48h114.566c10.427 0 18.885 8.448 18.885 18.884z" fill="#fca62f"/><path d="m432.058 208.406v61.049l-86.236 149.365c-3.956 6.861-12.743 9.21-19.604 5.254l-298.156-172.143c-6.871-3.966-9.22-12.743-5.254-19.615l60.132-104.151h154.682c5.46 0 10.652-2.359 14.237-6.48l10.034-11.517z" fill="#f98824"/><path d="m432.058 96.744v131.976h-41.053v-131.976c0-10.415-8.458-18.873-18.883-18.873h41.053c10.425 0 18.883 8.458 18.883 18.873z" fill="#f98824"/><g><path d="m385.984 157.498h-72.834c-6.102 0-11.048-4.947-11.048-11.049v-20.435c0-6.102 4.947-11.049 11.048-11.049h72.834c6.102 0 11.048 4.947 11.048 11.049v20.435c0 6.102-4.947 11.049-11.048 11.049z" fill="#a8e7ef"/><path d="m397.032 126.011v20.437c0 6.107-4.946 11.054-11.044 11.054h-25.091c6.098 0 11.044-4.946 11.044-11.054v-20.437c0-6.098-4.946-11.045-11.044-11.045h25.091c6.098.001 11.044 4.947 11.044 11.045z" fill="#70d9e6"/></g></g><g><g><g><path d="m452.366 183.832-298.156-172.14c-6.866-3.964-15.645-1.612-19.609 5.254l-105.489 182.713c-3.964 6.866-1.612 15.645 5.254 19.609l298.156 172.14c6.866 3.964 15.645 1.612 19.609-5.254l105.49-182.713c3.963-6.866 1.611-15.645-5.255-19.609z" fill="#27e19d"/><path d="m352.128 386.152 105.489-182.712c3.967-6.871 1.616-15.642-5.254-19.609l-29.123-16.814c6.871 3.967 9.221 12.738 5.254 19.609l-105.489 182.711c-3.967 6.871-12.738 9.221-19.609 5.254l29.123 16.814c6.87 3.968 15.642 1.617 19.609-5.253z" fill="#26d192"/><g><path d="m423.003 205.974-85.979 148.933c-1.422 2.462-4.574 3.307-7.036 1.885l-264.376-152.631c-2.462-1.422-3.307-4.574-1.885-7.036l85.989-148.933c1.422-2.462 4.564-3.307 7.036-1.885l28.165 16.267-18.636 32.286 19.347 11.167 18.636-32.286 216.853 125.198c2.463 1.421 3.307 4.573 1.886 7.035z" fill="#cffbe8"/><path d="m276.82 259.558h182.27v27.847h-182.27z" fill="#9ff7d3" transform="matrix(.5 -.866 .866 .5 -52.865 455.398)"/></g><g><circle cx="243.365" cy="201.552" fill="#23f1a8" r="60.836"/><path d="m296.051 231.968c16.799-29.097 6.829-66.307-22.268-83.107-5.507-3.18-11.308-5.406-17.204-6.717 25.957 16.67 34.483 50.953 18.899 77.946-15.579 26.984-49.524 36.746-76.931 22.63 4.089 4.442 8.899 8.342 14.398 11.516 29.097 16.799 66.307 6.829 83.106-22.268z" fill="#26d192"/><path d="m266.988 176.087.537-.93c2.134-3.695.868-8.421-2.828-10.554s-8.421-.868-10.554 2.828l-.538.931c-9.221-3.257-19.768.396-24.831 9.166-5.712 9.894-2.31 22.591 7.583 28.302l6.806 3.93c1.218.703 2.09 1.839 2.453 3.197.364 1.358.178 2.777-.526 3.995-1.452 2.513-4.68 3.38-7.193 1.928l-6.807-3.931c-1.517-.875-2.497-2.445-2.621-4.199-.301-4.257-3.991-7.458-8.252-7.163-4.257.301-7.463 3.995-7.163 8.252.395 5.597 3.019 10.721 7.196 14.293l-1.047 1.814c-2.134 3.695-.868 8.421 2.828 10.554 1.217.702 2.545 1.036 3.856 1.036 2.67 0 5.267-1.385 6.698-3.864l1.051-1.82c2.24.792 4.557 1.182 6.857 1.182 7.165 0 14.145-3.716 17.978-10.355 2.767-4.792 3.502-10.375 2.069-15.721-1.432-5.345-4.861-9.813-9.653-12.579l-6.806-3.93c-2.514-1.452-3.379-4.679-1.927-7.193 1.451-2.514 4.677-3.378 7.193-1.928l6.805 3.93c1.838 1.061 2.857 3.108 2.596 5.214-.526 4.234 2.481 8.094 6.716 8.619 4.23.528 8.094-2.481 8.619-6.715.871-7-1.866-13.822-7.095-18.289z" fill="#1ec480"/></g><g><g><circle cx="337.709" cy="256.019" fill="#fee265" r="21.315"/><path d="m356.166 266.675c5.885-10.194 2.4-23.227-7.802-29.117-2.916-1.684-6.076-2.604-9.229-2.802 5.737 6.285 7.029 15.798 2.549 23.558s-13.365 11.397-21.677 9.571c1.748 2.632 4.125 4.908 7.041 6.592 10.202 5.89 23.232 2.391 29.118-7.802z" fill="#f8c52d"/></g><g><circle cx="149.023" cy="147.081" fill="#fee265" r="21.315"/><path d="m167.48 157.737c5.885-10.194 2.4-23.227-7.802-29.117-2.916-1.684-6.076-2.604-9.229-2.802 5.737 6.285 7.029 15.798 2.549 23.558s-13.365 11.397-21.677 9.571c1.748 2.632 4.125 4.908 7.041 6.592 10.202 5.89 23.233 2.392 29.118-7.802z" fill="#f8c52d"/></g></g><g><g><path d="m391.915 218.751c-1.311 0-2.639-.334-3.856-1.036l-35.035-20.227c-3.696-2.134-4.962-6.859-2.828-10.554 2.133-3.696 6.859-4.962 10.554-2.828l35.035 20.227c3.696 2.134 4.962 6.859 2.828 10.554-1.431 2.478-4.028 3.864-6.698 3.864z" fill="#86e2ba"/></g><g><path d="m129.838 220.031c-1.311 0-2.639-.334-3.856-1.036l-35.035-20.227c-3.696-2.134-4.962-6.859-2.828-10.554 2.134-3.696 6.858-4.961 10.554-2.828l35.035 20.227c3.696 2.134 4.962 6.859 2.828 10.554-1.431 2.479-4.028 3.864-6.698 3.864z" fill="#86e2ba"/></g></g></g></g><g fill="#1eb07c"><path d="m323.706 304.176-20.945-12.093c-2.023-1.168-4.609-.475-5.777 1.548l-19.1 33.082 28.27 16.322 19.1-33.082c1.168-2.023.475-4.609-1.548-5.777z"/><path d="m162.904 98.854 20.945 12.093c2.023 1.168 4.609.475 5.777-1.548l19.1-33.082-28.27-16.322-19.1 33.082c-1.168 2.023-.475 4.609 1.548 5.777z"/></g></g></g><g><g><g><g><g><g><path d="m469.155 237.294v215.08c0 20.158-16.341 36.499-36.499 36.499h-395.785c20.16 0 36.499-16.339 36.499-36.499v-215.08c0-10.427 8.453-18.879 18.879-18.879h358.025c10.428-.001 18.881 8.452 18.881 18.879z" fill="#ffd496"/></g><g><path d="m469.159 237.296v215.075c0 20.163-16.35 36.503-36.503 36.503h-36.985c20.154 0 36.494-16.34 36.494-36.503v-215.075c0-10.431-8.449-18.879-18.879-18.879h36.994c10.421 0 18.879 8.449 18.879 18.879z" fill="#fcc16d"/></g></g></g></g><g fill="#fca62f"><path d="m117.702 433.441h35.915c4.267 0 7.726-3.459 7.726-7.726s-3.459-7.726-7.726-7.726h-35.915c-4.267 0-7.726 3.459-7.726 7.726s3.459 7.726 7.726 7.726z"/><path d="m219.55 443.649h-101.848c-4.267 0-7.726 3.459-7.726 7.726s3.459 7.726 7.726 7.726h101.848c4.267 0 7.726-3.459 7.726-7.726s-3.459-7.726-7.726-7.726z"/></g></g><g><g><circle cx="415.297" cy="405.524" fill="#fca62f" r="96.703"/><path d="m511.999 405.528c0 53.407-43.299 96.706-96.706 96.706-10.108 0-19.863-1.545-29.021-4.426 48.981-2.318 87.965-42.735 87.965-92.279 0-49.528-38.969-89.945-87.917-92.295 9.159-2.865 18.881-4.41 28.973-4.41 53.408-.002 96.706 43.297 96.706 96.704z" fill="#f98824"/></g><circle cx="415.297" cy="405.525" fill="#fee265" r="67.542"/><path d="m482.839 405.528c0 37.302-30.242 67.544-67.544 67.544-7.06 0-13.873-1.079-20.27-3.092 34.211-1.619 61.44-29.849 61.44-64.453 0-34.593-27.218-62.822-61.406-64.464 6.397-2.001 13.187-3.08 20.236-3.08 37.302.001 67.544 30.243 67.544 67.545z" fill="#fdd330"/><path d="m441.81 420.523c0-12.214-9.937-22.151-22.15-22.151h-8.725c-3.693 0-6.698-3.004-6.698-6.697s3.005-6.697 6.698-6.697h8.725c2.229 0 4.307 1.106 5.558 2.958 2.388 3.537 7.193 4.466 10.727 2.077 3.536-2.388 4.466-7.191 2.077-10.727-3.492-5.169-8.943-8.566-14.999-9.494v-3.055c0-4.268-3.459-7.726-7.726-7.726s-7.726 3.459-7.726 7.726v3.072c-10.619 1.629-18.786 10.8-18.786 21.867 0 12.213 9.937 22.15 22.15 22.15h8.725c3.693 0 6.697 3.005 6.697 6.698s-3.005 6.697-6.697 6.697h-8.725c-2.699 0-5.123-1.607-6.175-4.094-1.662-3.93-6.197-5.769-10.126-4.106-3.93 1.662-5.769 6.195-4.107 10.126 3.032 7.167 9.515 12.121 17.043 13.269v1.898c0 4.268 3.459 7.726 7.726 7.726s7.726-3.459 7.726-7.726v-1.924c10.62-1.629 18.788-10.8 18.788-21.867z" fill="#e8b125"/></g></g></g></svg>