<svg id="Capa_1" enable-background="new 0 0 512 512" height="512" viewBox="0 0 512 512" width="512" xmlns="http://www.w3.org/2000/svg"><g><g><g><g><g><path d="m322.848 452.642h-133.696l8.241-91.82h36.066v28.278c0 12.449 10.092 22.54 22.54 22.54 12.449 0 22.54-10.092 22.54-22.54v-28.278h36.066z" fill="#1682ad"/><g fill="#107295"><path d="m317.904 397.562-3.298-36.74h-36.066v28.278c0 2.994-.59 5.849-1.651 8.462z"/><path d="m235.111 397.562c-1.062-2.613-1.651-5.468-1.651-8.462v-28.278h-36.066l-3.298 36.74z"/><path d="m322.848 452.642h-30.37l-8.241-91.82h30.37z"/></g></g></g><g><g><path d="m349.379 490.292h-186.758c-5.69 0-10.302-4.612-10.302-10.302v-19.073c0-5.689 4.612-10.302 10.302-10.302h186.759c5.689 0 10.302 4.612 10.302 10.302v19.073c-.001 5.69-4.613 10.302-10.303 10.302z" fill="#189ab0"/></g><g><path d="m359.677 460.914v19.079c0 5.687-4.605 10.302-10.302 10.302h-30.359c5.687 0 10.302-4.615 10.302-10.302v-19.079c0-5.687-4.615-10.302-10.302-10.302h30.359c5.697 0 10.302 4.616 10.302 10.302z" fill="#1682ad"/></g></g></g><g><g><path d="m491.102 371.493h-470.202c-11.542 0-20.898-9.356-20.898-20.898v-307.992c0-11.542 9.356-20.898 20.898-20.898h470.202c11.542 0 20.898 9.356 20.898 20.898v307.992c0 11.541-9.356 20.898-20.898 20.898z" fill="#d9ecfd"/><path d="m512 42.608v279.869h-512v-279.869c0-11.548 9.354-20.902 20.902-20.902h470.195c11.549 0 20.903 9.354 20.903 20.902z" fill="#d9ecfd"/><path d="m512 42.598v279.88h-39.662v-279.88c0-11.538-9.364-20.892-20.902-20.892h39.672c11.538 0 20.892 9.354 20.892 20.892z" fill="#c4e1ff"/><path d="m511.997 317.328v33.264c0 11.548-9.354 20.902-20.892 20.902h-470.203c-11.548.001-20.902-9.353-20.902-20.901v-33.264h511.997z" fill="#189ab0"/><path d="m511.997 317.328v33.264c0 11.548-9.354 20.902-20.892 20.902h-39.672c11.538 0 20.902-9.354 20.902-20.902v-33.264z" fill="#1682ad"/></g></g></g><g><g><g><path d="m122.149 206.783h-56.616c-8.895 0-16.105-7.211-16.105-16.105v-46.392c0-8.895 7.211-16.105 16.105-16.105h56.616z" fill="#f82f40"/><path d="m94.891 128.181h27.258v78.602h-27.258z" fill="#e22334"/><path d="m122.149 128.181v78.602l56.656 34.25c5.367 3.244 12.219-.62 12.219-6.891v-133.319c0-6.271-6.852-10.136-12.219-6.891z" fill="#fb4a59"/><path d="m191.026 100.825v133.318c0 6.268-6.856 10.136-12.223 6.892l-20.365-12.314c4.586.459 9.034-3.088 9.034-8.188v-106.098c0-5.11-4.457-8.657-9.043-8.188l20.374-12.314c5.367-3.245 12.223.615 12.223 6.892z" fill="#f82f40"/></g><g><g id="XMLID_504_"><path d="m240.656 175.227c-.008 0-.016 0-.024 0l-10.888-.033c-4.267-.013-7.716-3.483-7.703-7.749.013-4.26 3.47-7.703 7.726-7.703h.024l10.888.033c4.267.013 7.716 3.483 7.703 7.749-.013 4.26-3.47 7.703-7.726 7.703z" fill="#b3d5f2"/></g><g id="XMLID_503_"><path d="m225.135 147.982c-2.627 0-5.188-1.34-6.636-3.758-2.193-3.661-1.003-8.405 2.658-10.599l9.445-5.657c3.661-2.194 8.406-1.001 10.599 2.659 2.193 3.661 1.003 8.405-2.658 10.599l-9.445 5.657c-1.243.745-2.612 1.099-3.963 1.099z" fill="#b3d5f2"/></g><g id="XMLID_72_"><path d="m234.385 208.095c-1.366 0-2.748-.362-4.001-1.123l-9.414-5.713c-3.648-2.213-4.81-6.966-2.597-10.614 2.214-3.646 6.965-4.808 10.614-2.597l9.414 5.714c3.648 2.213 4.81 6.966 2.597 10.614-1.454 2.395-4.002 3.719-6.613 3.719z" fill="#b3d5f2"/></g></g></g><g><g><g><path d="m355.526 184.388h-62.248c-2.845 0-5.151-2.306-5.151-5.151v-23.214c0-14.801 11.998-26.799 26.799-26.799h18.952c14.801 0 26.799 11.998 26.799 26.799v23.214c-.001 2.844-2.307 5.151-5.151 5.151z" fill="#31a7fb"/><path d="m360.678 156.032v23.21c0 2.845-2.306 5.151-5.151 5.151h-19.11v-28.371c0-13.907-10.59-25.332-24.137-26.671.865-.082 1.751-.124 2.648-.124h18.945c14.804 0 26.805 12.001 26.805 26.805z" fill="#1c96f9"/><g><circle cx="324.401" cy="106.992" fill="#64b9fc" r="24.628"/></g></g><g><path d="m457.418 184.388h-62.248c-2.845 0-5.151-2.306-5.151-5.151v-23.214c0-14.801 11.998-26.799 26.799-26.799h18.952c14.801 0 26.799 11.998 26.799 26.799v23.214c0 2.844-2.306 5.151-5.151 5.151z" fill="#31a7fb"/><path d="m462.573 156.032v23.21c0 2.845-2.306 5.151-5.151 5.151h-19.11v-28.371c0-13.907-10.59-25.332-24.137-26.671.875-.082 1.751-.124 2.647-.124h18.945c14.805 0 26.806 12.001 26.806 26.805z" fill="#1c96f9"/><g><circle cx="426.294" cy="106.992" fill="#64b9fc" r="24.628"/></g></g></g><g><g><path d="m462.572 265.754h-173.844c-4.268 0-7.726-3.459-7.726-7.726s3.459-7.726 7.726-7.726h173.844c4.268 0 7.726 3.459 7.726 7.726s-3.458 7.726-7.726 7.726z" fill="#b3d5f2"/></g><g><path d="m306.544 234.115h-17.816c-4.268 0-7.726-3.459-7.726-7.726 0-4.268 3.459-7.726 7.726-7.726h17.816c4.268 0 7.726 3.459 7.726 7.726.001 4.267-3.458 7.726-7.726 7.726z" fill="#b3d5f2"/></g><g><path d="m462.572 234.115h-126.74c-4.268 0-7.726-3.459-7.726-7.726 0-4.268 3.459-7.726 7.726-7.726h126.74c4.268 0 7.726 3.459 7.726 7.726.001 4.267-3.458 7.726-7.726 7.726z" fill="#b3d5f2"/></g></g></g></g></g></svg>