<svg id="Capa_1" enable-background="new 0 0 512 512" height="512" viewBox="0 0 512 512" width="512" xmlns="http://www.w3.org/2000/svg"><g><g><g><g><g><g><path d="m411.304 71.311 54.821 352.788c.956 6.152-3.267 11.918-9.41 12.873l-283.648 44.077c-6.144.955-11.917-3.258-12.873-9.41l-66.21-426.078c-.956-6.152 3.267-11.918 9.41-12.873l210.36-32.688z" fill="#c4e1ff"/><path d="m411.304 71.311 54.821 352.788c.956 6.152-3.267 11.918-9.41 12.873l-35.003 5.439c6.153-.956 10.366-6.72 9.41-12.873l-60.26-387.79z" fill="#8dcafc"/></g></g><path d="m325.142 73.289-11.388-73.289 97.551 71.311-73.289 11.389c-6.145.954-11.918-3.258-12.874-9.411z" fill="#64b9fc"/></g></g><g><g><g><path d="m353.019 406.282c-3.744 0-7.033-2.726-7.626-6.541-.655-4.216 2.231-8.166 6.449-8.821l62.139-9.656c4.22-.657 8.166 2.232 8.821 6.449.655 4.216-2.231 8.166-6.449 8.821l-62.139 9.656c-.401.061-.802.092-1.195.092z" fill="#7fbfea"/></g></g></g></g><g><g><g><g><path d="m355.342 143.703v357.022c0 6.226-5.058 11.275-11.275 11.275h-287.052c-6.217 0-11.275-5.049-11.275-11.275v-431.191c0-6.226 5.058-11.275 11.275-11.275h212.884z" fill="#eaf6ff"/><g><g><path d="m143.443 58.259v101.202c0 9.133-7.431 16.565-16.565 16.565s-16.565-7.431-16.565-16.565v-27.958c0-7.095-5.752-12.847-12.847-12.847s-12.847 5.752-12.847 12.847v27.958c0 23.301 18.957 42.259 42.259 42.259 23.301 0 42.259-18.957 42.259-42.259v-101.202z" fill="#d9ecfd"/></g></g><g><path d="m295.704 288.759h-40.122c-5.042 0-9.13-4.087-9.13-9.13v-146.237c0-5.042 4.087-9.13 9.13-9.13h40.122c5.042 0 9.13 4.087 9.13 9.13v146.238c-.001 5.041-4.088 9.129-9.13 9.129z" fill="#fb4a59"/><path d="m304.838 133.396v146.238c0 5.04-4.09 9.13-9.13 9.13h-25.782c5.049 0 9.13-4.09 9.13-9.13v-146.238c0-5.049-4.081-9.13-9.13-9.13h25.782c5.039 0 9.13 4.081 9.13 9.13z" fill="#f82f40"/></g><path d="m355.342 143.703v357.022c0 6.226-5.058 11.275-11.275 11.275h-35.423c6.226 0 11.275-5.049 11.275-11.275v-392.445z" fill="#d9ecfd"/></g></g><path d="m269.899 132.428v-74.169l85.444 85.444h-74.169c-6.218 0-11.275-5.048-11.275-11.275z" fill="#b5dbfd"/></g></g><g><path d="m310.394 450.391h-62.885c-4.268 0-7.726 3.459-7.726 7.726s3.459 7.726 7.726 7.726h62.885c4.268 0 7.726-3.459 7.726-7.726s-3.458-7.726-7.726-7.726z" fill="#c4e1ff"/><path d="m105.447 296.485h106.101c4.268 0 7.726-3.459 7.726-7.726s-3.459-7.726-7.726-7.726h-18.048v-65.747c0-4.268-3.459-7.726-7.726-7.726-4.268 0-7.726 3.459-7.726 7.726v65.747h-11.824v-24.189c0-4.268-3.459-7.726-7.726-7.726s-7.726 3.459-7.726 7.726v24.189h-11.824v-43.37c0-4.268-3.459-7.726-7.726-7.726s-7.726 3.459-7.726 7.726v43.37h-10.321v-74.78c0-4.268-3.459-7.726-7.726-7.726-4.268 0-7.726 3.459-7.726 7.726v82.506c-.003 4.267 3.456 7.726 7.724 7.726z" fill="#27e19d"/><path d="m119.263 401.434-8.609 8.61-2.963-2.964c-3.018-3.016-7.909-3.016-10.928 0-3.017 3.018-3.017 7.909 0 10.928l8.427 8.427c1.509 1.508 3.487 2.263 5.464 2.263s3.955-.755 5.464-2.263l14.072-14.072c3.017-3.018 3.017-7.909 0-10.928-3.018-3.017-7.909-3.017-10.927-.001z" fill="#1ec480"/><path d="m312.137 406.207h-100.59c-4.268 0-7.726 3.459-7.726 7.726s3.459 7.726 7.726 7.726h100.59c4.268 0 7.726-3.459 7.726-7.726s-3.459-7.726-7.726-7.726z" fill="#c4e1ff"/><path d="m185.774 406.207h-25.656c-4.268 0-7.726 3.459-7.726 7.726s3.459 7.726 7.726 7.726h25.656c4.268 0 7.726-3.459 7.726-7.726s-3.459-7.726-7.726-7.726z" fill="#c4e1ff"/><path d="m119.263 363.893-8.609 8.61-2.963-2.964c-3.018-3.016-7.909-3.016-10.928 0-3.017 3.018-3.017 7.909 0 10.928l8.427 8.427c1.509 1.508 3.487 2.263 5.464 2.263s3.955-.755 5.464-2.263l14.072-14.072c3.017-3.018 3.017-7.909 0-10.928-3.018-3.017-7.909-3.017-10.927-.001z" fill="#1ec480"/><g fill="#c4e1ff"><path d="m312.137 368.667h-5.168c-4.268 0-7.726 3.459-7.726 7.726s3.459 7.726 7.726 7.726h5.168c4.268 0 7.726-3.459 7.726-7.726s-3.459-7.726-7.726-7.726z"/><path d="m253.756 368.667c-4.268 0-7.726 3.459-7.726 7.726s3.459 7.726 7.726 7.726h25.196c4.268 0 7.726-3.459 7.726-7.726s-3.459-7.726-7.726-7.726z"/><path d="m160.118 384.12h67.864c4.268 0 7.726-3.459 7.726-7.726s-3.459-7.726-7.726-7.726h-67.864c-4.268 0-7.726 3.459-7.726 7.726s3.458 7.726 7.726 7.726z"/></g><path d="m119.263 326.352-8.609 8.61-2.963-2.964c-3.018-3.016-7.909-3.016-10.928 0-3.017 3.018-3.017 7.909 0 10.928l8.427 8.427c1.509 1.508 3.487 2.263 5.464 2.263s3.955-.755 5.464-2.263l14.072-14.072c3.017-3.018 3.017-7.909 0-10.928-3.018-3.017-7.909-3.017-10.927-.001z" fill="#1ec480"/><path d="m203.821 338.852c0 4.268 3.459 7.726 7.726 7.726h100.59c4.268 0 7.726-3.459 7.726-7.726s-3.459-7.726-7.726-7.726h-100.59c-4.267 0-7.726 3.459-7.726 7.726z" fill="#c4e1ff"/><path d="m160.118 346.578h25.656c4.268 0 7.726-3.459 7.726-7.726s-3.459-7.726-7.726-7.726h-25.656c-4.268 0-7.726 3.459-7.726 7.726s3.458 7.726 7.726 7.726z" fill="#c4e1ff"/></g><g><g><g><path d="m72.286 63.41v-25.534c0-17.806 14.487-32.293 32.293-32.293h32.264c17.807 0 32.293 14.487 32.293 32.293v98.189c0 23.301-18.957 42.259-42.259 42.259s-42.259-18.957-42.259-42.259v-27.958c0-7.095 5.752-12.847 12.847-12.847s12.847 5.752 12.847 12.847v27.958c0 9.133 7.431 16.565 16.565 16.565s16.565-7.431 16.565-16.565v-98.189c0-3.638-2.96-6.599-6.599-6.599h-32.263c-3.639 0-6.599 2.961-6.599 6.599v25.534z" fill="#fb4a59"/></g></g></g><g><g><g><path d="m66.436 58.257h37.396v10.446h-37.396z" fill="#eaf6ff"/></g></g></g></g></svg>