<svg id="Capa_1" enable-background="new 0 0 512 512" height="512" viewBox="0 0 512 512" width="512" xmlns="http://www.w3.org/2000/svg"><g><g><g><g><path d="m17.484 381.098c-9.656 0-17.484-7.828-17.484-17.485v-275.626c0-9.656 7.828-17.484 17.484-17.484h477.031c9.656 0 17.484 7.828 17.484 17.484v275.627c0 9.656-7.828 17.484-17.484 17.484z" fill="#1ec186"/><path d="m512 87.988v275.625c0 9.653-7.829 17.482-17.482 17.482h-477.036c-9.653 0-17.482-7.829-17.482-17.482v-275.625c0-9.653 7.829-17.482 17.482-17.482h477.036c9.653 0 17.482 7.829 17.482 17.482z" fill="#1ec186"/><path d="m511.996 87.988v275.625c0 9.663-7.821 17.484-17.484 17.484h-40.96c9.663 0 17.484-7.821 17.484-17.484v-275.625c0-9.663-7.821-17.484-17.484-17.484h40.96c9.662-.001 17.484 7.821 17.484 17.484z" fill="#1eb07c"/></g><path d="m494.516 441.498h-477.032c-9.656 0-17.484-7.828-17.484-17.485v-256.976c0-9.656 7.828-17.484 17.484-17.484h477.031c9.656 0 17.484 7.828 17.484 17.484v256.977c.001 9.656-7.827 17.484-17.483 17.484z" fill="#27e19d"/><path d="m511.996 167.038v256.975c0 9.663-7.821 17.484-17.484 17.484h-40.96c9.663 0 17.484-7.821 17.484-17.484v-256.975c0-9.663-7.821-17.484-17.484-17.484h40.96c9.662-.001 17.484 7.82 17.484 17.484z" fill="#26d192"/><g><path d="m477.036 189.677v211.702c0 2.845-2.306 5.151-5.151 5.151h-337.961v-46.533h-29.464v46.533h-64.345c-2.845 0-5.151-2.306-5.151-5.151v-211.702c0-2.845 2.306-5.151 5.151-5.151h337.796v46.523h29.453v-46.523h64.52c2.846 0 5.152 2.306 5.152 5.151z" fill="#cffbe8"/><path d="m443.113 184.521v222.008h28.767c2.845 0 5.151-2.306 5.151-5.151v-211.706c0-2.845-2.306-5.151-5.151-5.151z" fill="#9ff7d3"/></g><g><circle cx="256" cy="295.522" fill="#23f1a8" r="74.1"/><path d="m330.099 295.525c0 40.924-33.178 74.102-74.102 74.102-7.746 0-15.22-1.184-22.238-3.392 37.532-1.776 67.405-32.747 67.405-70.71 0-37.952-29.86-68.922-67.368-70.723 7.018-2.195 14.468-3.379 22.201-3.379 40.924 0 74.102 33.178 74.102 74.102z" fill="#26d192"/><path d="m284.337 311.976c0-12.986-10.565-23.55-23.551-23.55h-9.571c-4.465 0-8.098-3.633-8.098-8.098s3.633-8.098 8.098-8.098h9.571c2.695 0 5.207 1.337 6.719 3.575 2.388 3.536 7.192 4.465 10.727 2.077 3.536-2.389 4.466-7.192 2.077-10.727-3.835-5.677-9.89-9.355-16.583-10.194v-3.994c0-4.267-3.459-7.726-7.726-7.726s-7.726 3.459-7.726 7.726v3.999c-11.602 1.453-20.61 11.371-20.61 23.361 0 12.986 10.565 23.551 23.551 23.551h9.571c4.465 0 8.098 3.633 8.098 8.098s-3.633 8.098-8.098 8.098h-9.571c-3.264 0-6.194-1.942-7.465-4.948-1.663-3.931-6.198-5.769-10.126-4.106-3.93 1.662-5.768 6.196-4.106 10.126 3.309 7.821 10.485 13.151 18.757 14.184v2.747c0 4.267 3.459 7.726 7.726 7.726s7.726-3.459 7.726-7.726v-2.741c11.602-1.452 20.61-11.371 20.61-23.36z" fill="#1ec480"/></g><g><g><circle cx="392.809" cy="295.525" fill="#fee265" r="25.963"/><path d="m418.768 295.525c0 14.337-11.614 25.962-25.962 25.962-4.101 0-7.996-.953-11.442-2.665 9.88-3.136 17.036-12.384 17.036-23.297s-7.157-20.161-17.036-23.297c3.446-1.712 7.341-2.665 11.442-2.665 14.347 0 25.962 11.625 25.962 25.962z" fill="#f8c52d"/></g><g><circle cx="119.191" cy="295.525" fill="#fee265" r="25.963"/><path d="m145.149 295.525c0 14.337-11.614 25.962-25.962 25.962-4.101 0-7.996-.953-11.442-2.665 9.88-3.136 17.036-12.384 17.036-23.297s-7.157-20.161-17.036-23.297c3.446-1.712 7.341-2.665 11.442-2.665 14.348 0 25.962 11.625 25.962 25.962z" fill="#f8c52d"/></g></g><g><g><path d="m447.317 383.73h-90.482c-4.267 0-7.726-3.459-7.726-7.726s3.459-7.726 7.726-7.726h90.482c4.267 0 7.726 3.459 7.726 7.726s-3.459 7.726-7.726 7.726z" fill="#86e2ba"/></g><g><path d="m155.165 222.772h-90.482c-4.267 0-7.726-3.459-7.726-7.726s3.459-7.726 7.726-7.726h90.482c4.267 0 7.726 3.459 7.726 7.726s-3.458 7.726-7.726 7.726z" fill="#86e2ba"/></g></g></g><g><path d="m199.907 113.814c0 4.265-3.461 7.726-7.726 7.726h-192.181v-15.453h192.18c4.265.001 7.727 3.452 7.727 7.727z" fill="#189e6b"/></g><g><path d="m512 95.302v15.453h-162.666c-4.265 0-7.726-3.461-7.726-7.726 0-4.275 3.461-7.726 7.726-7.726h162.666z" fill="#189e6b"/></g></g><g><g id="XMLID_372_"><path d="m65.98 247.377c-4.267 0-7.726-3.459-7.726-7.726v-.107c0-4.267 3.459-7.726 7.726-7.726s7.726 3.459 7.726 7.726v.107c0 4.267-3.459 7.726-7.726 7.726z" fill="#86e2ba"/></g><g id="XMLID_362_"><path d="m89.321 247.377c-4.267 0-7.726-3.459-7.726-7.726v-.107c0-4.267 3.459-7.726 7.726-7.726s7.726 3.459 7.726 7.726v.107c0 4.267-3.459 7.726-7.726 7.726z" fill="#86e2ba"/></g><g id="XMLID_71_"><path d="m112.662 247.377c-4.267 0-7.726-3.459-7.726-7.726v-.107c0-4.267 3.459-7.726 7.726-7.726s7.726 3.459 7.726 7.726v.107c0 4.267-3.459 7.726-7.726 7.726z" fill="#86e2ba"/></g><g id="XMLID_377_"><path d="m399.338 361.107c-4.267 0-7.726-3.459-7.726-7.726v-.107c0-4.267 3.459-7.726 7.726-7.726s7.726 3.459 7.726 7.726v.107c0 4.267-3.459 7.726-7.726 7.726z" fill="#86e2ba"/></g><g id="XMLID_376_"><path d="m422.679 361.107c-4.267 0-7.726-3.459-7.726-7.726v-.107c0-4.267 3.459-7.726 7.726-7.726s7.726 3.459 7.726 7.726v.107c0 4.267-3.459 7.726-7.726 7.726z" fill="#86e2ba"/></g><g id="XMLID_375_"><path d="m446.02 361.107c-4.267 0-7.726-3.459-7.726-7.726v-.107c0-4.267 3.459-7.726 7.726-7.726s7.726 3.459 7.726 7.726v.107c0 4.267-3.459 7.726-7.726 7.726z" fill="#86e2ba"/></g></g><g fill="#1eb07c"><path d="m407.367 236.2h-29.459c-2.845 0-5.151-2.306-5.151-5.151v-46.528h39.761v46.528c0 2.845-2.306 5.151-5.151 5.151z"/><path d="m104.461 354.85h29.459c2.845 0 5.151 2.306 5.151 5.151v46.528h-39.76v-46.528c0-2.845 2.306-5.151 5.15-5.151z"/></g></g></svg>