<svg id="Capa_1" enable-background="new 0 0 512 512" height="512" viewBox="0 0 512 512" width="512" xmlns="http://www.w3.org/2000/svg"><g><g><g><g><path d="m479.897 248.202-223.897-213.175-223.897 213.175c-2.248 2.18-3.518 5.177-3.518 8.309v119.182h454.829v-119.183c0-3.131-1.269-6.129-3.517-8.308z" fill="#fb9927"/><path d="m483.412 256.515v119.182h-37.2v-102.586c0-3.132-1.267-6.13-3.523-8.314l-214.009-203.759 27.32-26.012 223.9 213.175c2.245 2.185 3.512 5.182 3.512 8.314z" fill="#f98824"/></g><g><g><g><g><path d="m416.145 11.666v446.079c0 6.439-5.226 11.666-11.666 11.666h-296.959c-6.439 0-11.666-5.226-11.666-11.666v-446.079c0-6.44 5.227-11.666 11.666-11.666h296.96c6.439 0 11.665 5.226 11.665 11.666z" fill="#eaf6ff"/><path d="m416.145 11.666v446.079c0 6.439-5.226 11.666-11.666 11.666h-36.642c6.439 0 11.666-5.226 11.666-11.666v-446.079c.001-6.44-5.225-11.666-11.665-11.666h36.642c6.439 0 11.665 5.226 11.665 11.666z" fill="#d9ecfd"/></g></g></g></g><g><g><path d="m48.635 258.079 217.831 234.473c6.878 7.403 1.628 19.448-8.478 19.448h-217.831c-6.391 0-11.572-5.181-11.572-11.572v-234.473c.001-10.516 12.893-15.58 20.05-7.876z" fill="#fcc16d"/><path d="m257.988 512h-18.203l-211.197-227.33v-18.719c0-10.508 12.888-15.576 20.047-7.87l217.832 234.469c6.881 7.407 1.627 19.45-8.479 19.45z" fill="#fcb44d"/><path d="m463.365 258.079-217.832 234.473c-6.878 7.403-1.628 19.448 8.478 19.448h217.831c6.391 0 11.572-5.181 11.572-11.572v-234.473c0-10.516-12.892-15.58-20.049-7.876z" fill="#fcb44d"/><path d="m483.412 265.951v234.48c0 6.387-5.182 11.569-11.569 11.569h-33.213c6.387 0 11.569-5.182 11.569-11.569v-205.634c0-6.449-4.862-10.848-10.261-11.497l23.426-25.219c7.161-7.706 20.048-2.637 20.048 7.87z" fill="#fb9927"/></g></g><g><path d="m277.178 338.252h-40.673c-5.838 0-11.461 2.207-15.741 6.178l-180.607 167.57h431.685l-178.844-167.497c-4.289-4.016-9.945-6.251-15.82-6.251z" fill="#ffd496"/><path d="m471.844 512h-44.184l-178.84-167.497c-3.863-3.616-8.829-5.789-14.062-6.181.577-.051 1.164-.072 1.751-.072h40.672c5.872 0 11.528 2.235 15.813 6.253z" fill="#fcc16d"/></g></g><g><g id="XMLID_501_"><path d="m174.522 490.595c-4.268 0-7.726-3.459-7.726-7.726v-.107c0-4.268 3.459-7.726 7.726-7.726 4.268 0 7.726 3.459 7.726 7.726v.107c0 4.267-3.458 7.726-7.726 7.726z" fill="#fcb44d"/></g><g id="XMLID_500_"><path d="m150.066 490.595c-4.268 0-7.726-3.459-7.726-7.726v-.107c0-4.268 3.459-7.726 7.726-7.726 4.268 0 7.726 3.459 7.726 7.726v.107c.001 4.267-3.458 7.726-7.726 7.726z" fill="#fcb44d"/></g><g id="XMLID_499_"><path d="m125.61 490.595c-4.268 0-7.726-3.459-7.726-7.726v-.107c0-4.268 3.459-7.726 7.726-7.726 4.268 0 7.726 3.459 7.726 7.726v.107c0 4.267-3.459 7.726-7.726 7.726z" fill="#fcb44d"/></g></g></g><g><path d="m354.85 92.914c30.026 30.026 29.769 78.868-.772 108.572-29.513 28.704-77.05 28.617-106.463-.19-15.35-15.034-22.983-34.923-22.897-54.785.017-4.016 3.453-7.16 7.448-6.75l68.778 7.058 25.736-64.199c1.474-3.677 5.8-5.34 9.317-3.519 6.79 3.516 13.161 8.122 18.853 13.813z" fill="#fee265"/><path d="m354.081 201.486c-28.476 27.693-73.728 28.591-103.292 2.743 25.875 13.836 58.905 10.08 80.902-11.316 27.699-26.936 27.929-71.235.703-98.461-2.459-2.459-5.06-4.695-7.769-6.702l2.054-5.128c1.473-3.675 5.803-5.344 9.316-3.52 6.79 3.513 13.161 8.121 18.856 13.809 30.023 30.031 29.767 78.87-.77 108.575z" fill="#fdd330"/><path d="m300.944 146.82 25.736-64.199c1.474-3.677 5.8-5.34 9.317-3.519 6.79 3.515 13.161 8.121 18.852 13.812 29.771 29.771 29.771 78.04 0 107.811z" fill="#fb4a59"/><path d="m354.851 200.723-15.971-15.971c20.301-27.085 18.14-65.674-6.486-90.3-2.459-2.459-5.06-4.695-7.769-6.702l2.054-5.128c1.473-3.675 5.803-5.344 9.316-3.52 6.79 3.513 13.161 8.121 18.856 13.809 29.767 29.774 29.767 78.045 0 107.812z" fill="#f82f40"/><path d="m310.123 53.588-23.838 59.465c-1.122 2.798-3.962 4.515-6.961 4.207l-63.719-6.539c-3.993-.41-6.717-4.184-5.922-8.119 2.867-14.189 9.802-27.719 20.806-38.723 20.395-20.395 49.47-26.817 75.332-19.268 3.8 1.11 5.775 5.303 4.302 8.977z" fill="#64b9fc"/><path d="m310.12 53.586-23.835 59.466c-1.122 2.797-3.966 4.52-6.959 4.209l-18.748-1.925c1.979-.615 3.635-2.094 4.439-4.101l24.828-61.945c1.088-2.723.371-5.709-1.561-7.634 5.918.297 11.803 1.284 17.538 2.959 3.799 1.107 5.771 5.296 4.298 8.971z" fill="#31a7fb"/></g><g><g fill="#c4e1ff"><path d="m156.307 35.026c0-4.268-3.459-7.726-7.726-7.726h-14.331c-4.268 0-7.726 3.459-7.726 7.726s3.459 7.726 7.726 7.726h14.331c4.267.001 7.726-3.458 7.726-7.726z"/><path d="m138.638 218.241c0 4.268 3.459 7.726 7.726 7.726h45.141c4.268 0 7.726-3.459 7.726-7.726 0-4.268-3.459-7.726-7.726-7.726h-45.141c-4.267 0-7.726 3.459-7.726 7.726z"/><path d="m276.596 244.394h-2.18c-4.268 0-7.726 3.459-7.726 7.726s3.459 7.726 7.726 7.726h2.18c4.268 0 7.726-3.459 7.726-7.726s-3.459-7.726-7.726-7.726z"/><path d="m226.332 259.847h19.238c4.268 0 7.726-3.459 7.726-7.726s-3.459-7.726-7.726-7.726h-19.238c-4.268 0-7.726 3.459-7.726 7.726s3.458 7.726 7.726 7.726z"/><path d="m146.364 244.394c-4.268 0-7.726 3.459-7.726 7.726s3.459 7.726 7.726 7.726h51.123c4.268 0 7.726-3.459 7.726-7.726s-3.459-7.726-7.726-7.726z"/><path d="m276.596 272.424h-83.119c-4.268 0-7.726 3.459-7.726 7.726s3.459 7.726 7.726 7.726h83.119c4.268 0 7.726-3.459 7.726-7.726s-3.459-7.726-7.726-7.726z"/><path d="m164.814 272.424h-18.45c-4.268 0-7.726 3.459-7.726 7.726s3.459 7.726 7.726 7.726h18.45c4.268 0 7.726-3.459 7.726-7.726s-3.459-7.726-7.726-7.726z"/><path d="m276.596 300.453h-65.336c-4.268 0-7.726 3.459-7.726 7.726s3.459 7.726 7.726 7.726h65.336c4.268 0 7.726-3.459 7.726-7.726s-3.459-7.726-7.726-7.726z"/></g><path d="m365.121 294.619c0-11.548-9.395-20.943-20.944-20.943h-7.995c-3.027 0-5.49-2.463-5.49-5.491s2.463-5.491 5.49-5.491h7.995c1.827 0 3.531.907 4.558 2.427 2.389 3.534 7.192 4.466 10.727 2.075 3.535-2.388 4.465-7.192 2.075-10.727-3.196-4.73-8.126-7.896-13.632-8.89v-2.246c0-4.268-3.459-7.726-7.726-7.726s-7.726 3.459-7.726 7.726v2.261c-9.773 1.766-17.214 10.318-17.214 20.592 0 11.548 9.394 20.944 20.943 20.944h7.995c3.028 0 5.491 2.463 5.491 5.491 0 3.027-2.463 5.49-5.491 5.49h-7.995c-2.213 0-4.2-1.317-5.061-3.355-1.662-3.931-6.199-5.766-10.126-4.108-3.931 1.662-5.77 6.195-4.108 10.126 2.792 6.602 8.684 11.206 15.566 12.444v1.204c0 4.268 3.459 7.726 7.726 7.726s7.726-3.459 7.726-7.726v-1.21c9.774-1.768 17.216-10.32 17.216-20.593z" fill="#26d192"/><path d="m151.425 184.19c1.508 1.508 3.486 2.263 5.463 2.263s3.955-.755 5.464-2.263l14.072-14.072c3.017-3.018 3.017-7.909 0-10.928-3.018-3.016-7.909-3.016-10.928 0l-8.609 8.61-2.965-2.964c-3.016-3.016-7.908-3.017-10.927.001-3.017 3.017-3.017 7.909.001 10.927z" fill="#1ec480"/><path d="m142.996 127.296c-3.017 3.017-3.017 7.909.001 10.927l8.428 8.427c1.508 1.508 3.486 2.263 5.463 2.263s3.955-.755 5.464-2.263l14.072-14.072c3.017-3.018 3.017-7.909 0-10.928-3.018-3.016-7.909-3.016-10.928 0l-8.609 8.61-2.965-2.964c-3.016-3.017-7.908-3.018-10.926 0z" fill="#1ec480"/></g></g></svg>