<svg id="Capa_1" enable-background="new 0 0 512 512" height="512" viewBox="0 0 512 512" width="512" xmlns="http://www.w3.org/2000/svg"><g><g><g><g><g><g><path d="m512 183.925v259.856c0 12.096-9.806 21.902-21.902 21.902h-420.961c-12.096 0-21.902-9.806-21.902-21.902v-259.856z" fill="#20bfd5"/><g fill="#1fb2cc"><path d="m512 183.925v104.646c0 5.601-4.54 10.14-10.14 10.14h-160.988v17.765c0 16.282-13.206 29.478-29.478 29.478h-63.554c-16.272 0-29.478-13.196-29.478-29.478v-17.765h-160.987c-5.601 0-10.14-4.54-10.14-10.14v-104.646z"/><path d="m512 183.924v259.858c0 12.095-9.804 21.899-21.899 21.899h-39.392c12.095 0 21.899-9.804 21.899-21.899v-259.858z"/></g></g></g><g><g><path d="m377.73 23.987h-196.225c-13.381 0-24.229 10.848-24.229 24.229v81.781h40.604v-63.346c0-1.138.922-2.06 2.06-2.06h159.355c1.138 0 2.06.922 2.06 2.06v63.346h40.604v-81.781c0-13.382-10.848-24.229-24.229-24.229z" fill="#1682ad"/><path d="m401.958 48.212v81.787h-27.435v-81.787c0-13.373-10.848-24.221-24.231-24.221h27.435c13.383 0 24.231 10.848 24.231 24.221z" fill="#107295"/><g><path d="m211.217 131.027h-67.278v-18.995c0-6.554 5.313-11.866 11.866-11.866h43.545c6.554 0 11.866 5.313 11.866 11.866v18.995z" fill="#d9e8ef"/><path d="m211.214 112.029v18.999h-23.511v-18.999c0-6.549-5.313-11.862-11.872-11.862h23.521c6.549 0 11.862 5.313 11.862 11.862z" fill="#bad5e4"/></g><g><path d="m415.296 131.027h-67.278v-18.995c0-6.554 5.313-11.866 11.866-11.866h43.545c6.554 0 11.866 5.313 11.866 11.866v18.995z" fill="#d9e8ef"/><path d="m415.3 112.029v18.999h-23.521v-18.999c0-6.549-5.313-11.862-11.862-11.862h23.511c6.559 0 11.872 5.313 11.872 11.862z" fill="#bad5e4"/></g></g></g></g><path d="m501.861 269.32h-444.487c-5.599 0-10.138-4.539-10.138-10.138v-107.286c0-12.094 9.805-21.899 21.899-21.899h420.967c12.094 0 21.899 9.805 21.899 21.899v107.286c-.001 5.599-4.54 10.138-10.14 10.138z" fill="#70d9e6"/><path d="m512 151.893v107.289c0 5.601-4.54 10.14-10.14 10.14h-39.337c5.601 0 10.14-4.54 10.14-10.14v-107.289c0-12.096-9.806-21.892-21.902-21.892h39.337c12.096 0 21.902 9.796 21.902 21.892z" fill="#3ad1e0"/></g><path d="m311.39 321.235h-63.545c-16.28 0-29.478-13.198-29.478-29.478v-32.633c0-5.427 4.399-9.826 9.826-9.826h102.849c5.427 0 9.826 4.399 9.826 9.826v32.633c0 16.281-13.198 29.478-29.478 29.478z" fill="#fcb44d"/><path d="m340.872 259.123v32.632c0 16.282-13.206 29.478-29.478 29.478h-34.902c16.282 0 29.478-13.196 29.478-29.478v-32.632c0-5.424-4.402-9.826-9.826-9.826h34.902c5.424 0 9.826 4.402 9.826 9.826z" fill="#fb9927"/><g><path d="m308.683 284.264h-58.13c-4.267 0-7.726-3.459-7.726-7.726s3.459-7.726 7.726-7.726h58.13c4.267 0 7.726 3.459 7.726 7.726s-3.459 7.726-7.726 7.726z" fill="#f98824"/></g></g><g><g><circle cx="94.724" cy="393.282" fill="#fca62f" r="94.724"/><path d="m189.448 393.286c0 52.314-42.413 94.727-94.727 94.727-9.902 0-19.456-1.514-28.428-4.336 47.978-2.27 86.166-41.861 86.166-90.391 0-48.515-38.171-88.105-86.118-90.407 8.971-2.806 18.494-4.32 28.38-4.32 52.314 0 94.727 42.413 94.727 94.727z" fill="#f98824"/></g><circle cx="94.724" cy="393.283" fill="#fee265" r="66.16"/><path d="m160.884 393.286c0 36.539-29.623 66.163-66.162 66.163-6.916 0-13.589-1.057-19.855-3.028 33.511-1.586 60.183-29.238 60.183-63.134 0-33.885-26.661-61.537-60.15-63.145 6.266-1.96 12.918-3.017 19.822-3.017 36.539-.001 66.162 29.622 66.162 66.161z" fill="#fdd330"/><path d="m120.853 407.974c0-12.051-9.804-21.855-21.855-21.855h-8.546c-3.53 0-6.402-2.872-6.402-6.402s2.872-6.402 6.402-6.402h8.546c2.131 0 4.117 1.057 5.313 2.828 2.389 3.536 7.192 4.466 10.728 2.077s4.466-7.192 2.077-10.727c-3.42-5.062-8.744-8.402-14.665-9.347v-2.857c0-4.268-3.459-7.726-7.726-7.726s-7.726 3.459-7.726 7.726v2.874c-10.412 1.664-18.402 10.682-18.402 21.555 0 12.051 9.804 21.855 21.855 21.855h8.546c3.53 0 6.402 2.872 6.402 6.402s-2.872 6.402-6.402 6.402h-8.546c-2.58 0-4.897-1.536-5.903-3.912-1.662-3.931-6.196-5.77-10.126-4.106-3.93 1.662-5.768 6.196-4.106 10.126 2.973 7.029 9.312 11.895 16.681 13.066v1.728c0 4.268 3.459 7.726 7.726 7.726s7.726-3.459 7.726-7.726v-1.75c10.412-1.664 18.403-10.682 18.403-21.555z" fill="#e8b125"/></g></g></svg>