<svg id="Capa_1" enable-background="new 0 0 512 512" height="512" viewBox="0 0 512 512" width="512" xmlns="http://www.w3.org/2000/svg"><g><g><path d="m392.993 21.294v5.656l-84.361 45.482h-105.264l-84.361-45.482v-5.656s25.889-21.294 136.993-21.294 136.993 21.294 136.993 21.294z" fill="#3b93ba"/><path d="m392.993 21.294v5.656l-84.361 45.482h-38.044c27.598-11.672 47.378-38.209 49.304-69.568 57.762 5.81 73.101 18.43 73.101 18.43z" fill="#1682ad"/><g><path d="m313.103 356.781-114.123 114.133-12.877-9.848c-2.885-2.205-4.306-5.821-3.678-9.395 7.252-41.805 51.22-294.898 51.22-294.62h44.71c0-.186 19.563 112.361 34.748 199.73z" fill="#31a7fb"/><path d="m325.897 461.066-63.984 48.933c-3.492 2.668-8.334 2.668-11.826 0l-30.71-23.488 99.051-99.051c5.182 29.844 9.323 53.703 11.147 64.211.629 3.574-.793 7.19-3.678 9.395z" fill="#31a7fb"/><g fill="#1c96f9"><path d="m283.2 184.813c-2.999-17.231-4.847-27.823-4.847-27.767h-44.706c0-.056-1.848 10.535-4.847 27.767z"/><path d="m286.555 383.328c-13.248-76.295-33.893-195.064-39.342-226.288h31.132c0-.175 19.563 112.361 34.758 199.741z"/><path d="m325.908 461.066-63.984 48.923c-3.503 2.668-8.355 2.668-11.837 0l-15.432-11.796 58.741-44.916c2.884-2.205 4.306-5.831 3.678-9.395-1.051-6.027-2.854-16.452-5.192-29.875l26.548-26.548c5.182 29.834 9.323 53.703 11.147 64.211.616 3.575-.795 7.191-3.669 9.396z"/></g><g><path d="m307.519 324.701-124.692 124.682c1.04-6.006 2.617-15.102 4.584-26.424v-.01l116.873-116.863c1.082 6.222 2.164 12.434 3.235 18.615z" fill="#70d9e6"/></g><path d="m319.505 393.665-96.004 96.004-28.651-21.912 117.166-117.166c2.648 15.25 5.19 29.839 7.489 43.074z" fill="#70d9e6"/><g><path d="m291.758 60.746h-71.515c-3.676 0-7.039 2.07-8.695 5.352l-13.84 27.431h116.584l-13.84-27.431c-1.656-3.282-5.018-5.352-8.694-5.352z" fill="#1785f8"/><path d="m314.294 93.529h-26.626l-13.838-27.434c-1.656-3.282-5.015-5.347-8.697-5.347h26.626c3.671 0 7.041 2.065 8.697 5.347z" fill="#1576f7"/></g><g><path d="m289.655 159.668 34.714-49.29c1.646-2.336 2.182-5.278 1.467-8.045l-2.639-10.211c-1.111-4.299-4.989-7.302-9.429-7.302h-115.536c-4.44 0-8.318 3.003-9.429 7.302l-2.639 10.211c-.715 2.767-.179 5.708 1.467 8.045l34.714 49.29c1.824 2.59 4.794 4.131 7.962 4.131h51.385c3.169 0 6.139-1.541 7.963-4.131z" fill="#8dcafc"/><path d="m324.374 110.377-34.718 49.287c-1.821 2.591-4.791 4.139-7.966 4.139h-32.498c3.165 0 6.135-1.548 7.966-4.139l34.709-49.287c1.646-2.337 2.181-5.278 1.471-8.044l-2.639-10.206c-1.11-4.305-4.986-7.304-9.427-7.304h32.498c4.441 0 8.317 2.999 9.427 7.304l2.639 10.206c.719 2.765.174 5.706-1.462 8.044z" fill="#64b9fc"/></g><g><path d="m301.54 290.24-110.22 110.21c1.43-8.26 2.98-17.15 4.6-26.46l102.38-102.37c1.07 6.14 2.15 12.36 3.24 18.62z" fill="#70d9e6"/></g></g><g><g><path d="m301.608 81.65 20.856 42.272c3.125 6.334 11.552 7.716 16.537 2.712l50.99-51.187c1.923-1.931 3.003-4.545 3.003-7.27v-46.887l-87.021 46.726c-4.891 2.626-6.822 8.655-4.365 13.634z" fill="#eaf6ff"/><path d="m392.993 21.294v46.883c0 2.73-1.082 5.336-2.998 7.273l-23.097 23.179c.783-1.463 1.205-3.121 1.205-4.811v-59.163z" fill="#d9ecfd"/></g><g><path d="m210.392 81.65-20.856 42.272c-3.125 6.334-11.552 7.716-16.537 2.712l-50.99-51.187c-1.923-1.931-3.003-4.545-3.003-7.27v-46.887l87.021 46.726c4.891 2.626 6.822 8.655 4.365 13.634z" fill="#eaf6ff"/><path d="m210.394 81.652-20.861 42.268c-3.121 6.335-11.548 7.716-16.534 2.709l-15.236-15.288c4.131 1.102 8.777-.701 10.848-4.914l18.986-38.498c1.813-3.678.999-7.984-1.751-10.755l20.181 10.837c4.892 2.628 6.819 8.665 4.367 13.641z" fill="#d9ecfd"/></g></g></g><g><path d="m307.52 324.7-26.54 26.53c-1.06-6.13-2.15-12.35-3.23-18.61l26.53-26.53c1.09 6.22 2.17 12.43 3.24 18.61z" fill="#3ad1e0"/></g><path d="m319.5 393.66-26.53 26.54c-2.23-12.81-4.77-27.43-7.49-43.06 0-.01 0-.01 0-.01l26.54-26.54c2.64 15.25 5.19 29.84 7.48 43.07z" fill="#3ad1e0"/><g><path d="m301.54 290.24-26.55 26.55c-1.08-6.21-2.16-12.43-3.24-18.63l26.55-26.54c1.07 6.14 2.15 12.36 3.24 18.62z" fill="#3ad1e0"/></g></g></svg>