<svg id="Capa_1" enable-background="new 0 0 512 512" height="512" viewBox="0 0 512 512" width="512" xmlns="http://www.w3.org/2000/svg"><g><g><path d="m506.557 415.097-53.557 29.063c-5.423 2.936-12.189.552-14.573-5.132l-48.472-115.747c-.869-2.075-3.961-1.454-3.961.796v126.943c0 7.359-5.965 13.324-13.324 13.324h-72.885c-3.174 0-6.172-1.463-8.124-3.967l-35.661-45.728v39.393c0 5.69-4.612 10.302-10.302 10.302h-106.368c-7.359 0-13.324-5.965-13.324-13.324v-126.943c0-2.25-3.092-2.871-3.961-.796l-48.472 115.748c-2.384 5.684-9.15 8.067-14.573 5.132l-53.557-29.064c-4.632-2.519-6.652-8.099-4.705-13.002l109.633-275.54c9.441-23.734 32.405-39.317 57.95-39.317h175.359c25.545 0 48.508 15.583 57.95 39.317l109.633 275.54c1.946 4.903-.074 10.483-4.706 13.002z" fill="#d9ecfd"/><g fill="#c4e1ff"><path d="m224.693 87.235h31.307v366.806c0 5.687-4.615 10.302-10.302 10.302h-31.307c5.687 0 10.302-4.615 10.302-10.302z"/><path d="m506.561 415.1-21.52 11.682c1.494-2.658 1.792-5.934.597-8.952l-119.1-291.273c-9.447-23.735-32.409-39.322-57.958-39.322h35.098c25.548 0 48.511 15.587 57.948 39.322l109.632 275.543c1.947 4.903-.072 10.477-4.697 13z"/><path d="m363.726 90.552v.031c0 7.222-2.802 14.011-7.902 19.12l-32.1 32.224c-5.12 5.151-11.94 7.974-19.182 7.974-10.394 0-19.707-5.779-24.312-15.102l-13.125-26.62c-3.369-6.809-3.637-14.32-1.319-20.944h77.892c6.944 0 13.702 1.154 20.048 3.317z"/><path d="m246.625 108.179-13.135 26.62c-4.605 9.323-13.918 15.102-24.312 15.102-7.242 0-14.062-2.823-19.182-7.974l-32.1-32.224c-5.099-5.12-7.902-11.909-7.902-19.12v-.597c5.841-1.793 12.002-2.751 18.327-2.751h79.612c2.319 6.624 2.051 14.134-1.308 20.944z"/></g><g><g><path d="m343.122 61.058v5.759l-49.088 26.445h-74.348l-49.088-26.445v-5.759s16.308-13.403 86.267-13.403c69.95.001 86.257 13.403 86.257 13.403z" fill="#3b93ba"/><path d="m343.122 61.058v5.759l-49.088 26.445h-27.99c17.379-7.345 29.834-24.055 31.05-43.803 36.365 3.657 46.028 11.599 46.028 11.599z" fill="#1682ad"/><g><g><path d="m275.582 146.635h-37.443c0-.165-17.368 151.463-20.237 176.51-.25 2.183.592 4.345 2.251 5.785l32.34 28.079c2.505 2.175 6.229 2.175 8.735 0l32.34-28.079c1.659-1.44 2.501-3.602 2.251-5.785-2.869-25.047-20.237-176.675-20.237-176.51z" fill="#fb4a59"/><path d="m293.568 328.927-32.342 28.085c-2.498 2.176-6.225 2.176-8.734 0l-16.031-13.928 31.458-27.315c1.655-1.436 2.498-3.602 2.248-5.788-2.353-20.528-14.438-126.059-18.716-163.346h24.129c0-.166 17.373 151.458 20.236 176.514.25 2.176-.593 4.342-2.248 5.778z" fill="#f82f40"/></g><g><path d="m278.051 148.192 21.858-31.036c1.036-1.471 1.374-3.323.923-5.065l-1.662-6.429c-.7-2.707-3.141-4.598-5.937-4.598h-72.749c-2.796 0-5.237 1.891-5.937 4.598l-1.662 6.429c-.45 1.742-.113 3.594.924 5.065l21.858 31.036c1.149 1.631 3.019 2.601 5.014 2.601h32.355c1.997 0 3.867-.97 5.015-2.601z" fill="#f82f40"/><path d="m299.907 117.156-21.86 31.041c-1.145 1.624-3.019 2.592-5.007 2.592h-28.054c1.999 0 3.872-.968 5.017-2.592l21.86-31.041c1.031-1.468 1.374-3.321.926-5.069l-1.665-6.423c-.697-2.707-3.144-4.601-5.933-4.601h28.043c2.8 0 5.236 1.895 5.933 4.601l1.666 6.423c.448 1.748.115 3.601-.926 5.069z" fill="#e22334"/></g></g><g><g><path d="m285.578 99.066 13.132 26.618c1.968 3.988 7.274 4.859 10.413 1.708l32.106-32.231c1.211-1.216 1.891-2.862 1.891-4.578v-29.523l-54.794 29.422c-3.079 1.653-4.295 5.45-2.748 8.584z" fill="#eaf6ff"/><path d="m343.12 61.062v29.521c0 1.719-.681 3.36-1.888 4.58l-14.543 14.595c.493-.921.759-1.965.759-3.029v-37.254z" fill="#d9ecfd"/></g><g><path d="m228.143 99.066-13.132 26.618c-1.968 3.988-7.274 4.859-10.413 1.708l-32.106-32.231c-1.211-1.216-1.891-2.862-1.891-4.578v-29.523l54.794 29.422c3.079 1.653 4.294 5.45 2.748 8.584z" fill="#eaf6ff"/><path d="m228.144 99.068-13.135 26.615c-1.965 3.989-7.272 4.859-10.411 1.706l-9.594-9.626c2.601.694 5.527-.441 6.83-3.094l11.955-24.241c1.142-2.316.629-5.027-1.103-6.772l12.707 6.824c3.082 1.653 4.295 5.455 2.751 8.588z" fill="#d9ecfd"/></g></g></g></g></g><g><path d="m126.001 192.211v131.863c0-2.246-3.091-2.864-3.956-.793l-11.497 27.454v-158.524c0-4.275 3.461-7.726 7.726-7.726 4.276-.001 7.727 3.45 7.727 7.726z" fill="#b3d5f2"/></g><g><path d="m401.451 192.468v158.267l-11.497-27.454c-.865-2.071-3.956-1.453-3.956.793v-131.606c0-4.265 3.451-7.726 7.726-7.726 4.266 0 7.727 3.461 7.727 7.726z" fill="#b3d5f2"/></g><g id="XMLID_548_"><path d="m280.625 386.272c-4.268 0-7.726-3.459-7.726-7.726v-.108c0-4.268 3.459-7.726 7.726-7.726s7.726 3.459 7.726 7.726v.108c0 4.267-3.459 7.726-7.726 7.726z" fill="#b3d5f2"/></g><g><g><g><path d="m69.197 392.333c-1.401 2.586-4.049 4.049-6.799 4.049-1.236 0-2.503-.309-3.678-.938l-45.503-24.693 5.759-14.464 47.12 25.569c3.75 2.04 5.141 6.728 3.101 10.477z" fill="#b3d5f2"/></g><g id="XMLID_935_"><path d="m29.995 407.004c-4.267 0-7.726-3.459-7.726-7.726v-.108c0-4.268 3.459-7.726 7.726-7.726s7.726 3.459 7.726 7.726v.108c0 4.268-3.459 7.726-7.726 7.726z" fill="#b3d5f2"/></g></g><g><g><path d="m498.783 370.751-45.503 24.693c-1.174.628-2.441.938-3.678.938-2.751 0-5.398-1.463-6.799-4.049-2.04-3.75-.649-8.437 3.101-10.477l47.12-25.569z" fill="#b3d5f2"/></g><g id="XMLID_936_"><path d="m482.005 407.004c-4.268 0-7.726-3.459-7.726-7.726v-.108c0-4.268 3.459-7.726 7.726-7.726s7.726 3.459 7.726 7.726v.108c0 4.268-3.458 7.726-7.726 7.726z" fill="#b3d5f2"/></g></g></g></g></svg>