<svg id="Capa_1" enable-background="new 0 0 512 512" height="512" viewBox="0 0 512 512" width="512" xmlns="http://www.w3.org/2000/svg"><g><g><g><path d="m191.204 480.015 37.693 31.985h100.585c19.253 0 35.252-13.429 40.389-31.985 19.371-69.978 79.053-261.223 93.236-306.555 1.695-5.419-1.24-11.192-6.613-13.027l-83.266-28.426c-4.977-1.699-10.442.557-12.771 5.273z" fill="#0d5f7f"/><path d="m463.104 173.462c-14.177 45.326-73.858 236.578-93.228 306.551-5.141 18.553-21.139 31.987-40.394 31.987h-37.766c19.255 0 35.254-13.434 40.395-31.987 19.37-69.973 83.752-273.695 97.94-319.021 1.183-3.801.105-7.769-2.503-10.439l28.951 9.884c5.37 1.832 8.301 7.602 6.605 13.025z" fill="#094c66"/><g><path d="m408.693 144.112-131.512 266.312c-1.35 2.73-4.09 4.306-6.933 4.306-1.154 0-2.318-.258-3.42-.793-3.822-1.896-5.388-6.531-3.503-10.353l130.617-264.499z" fill="#074254"/></g><path d="m112.758 47.419v-36.949c0-5.783 4.688-10.47 10.47-10.47h155.933c5.783 0 10.47 4.688 10.47 10.47v36.949z" fill="#1682ad"/><path d="m289.632 10.47v36.949h-41.494v-36.949c0-5.78-4.691-10.47-10.47-10.47h41.494c5.779 0 10.47 4.691 10.47 10.47z" fill="#107295"/><path d="m165.007 0h34.545v47.419h-34.545z" fill="#094c66"/><path d="m289.632 471.762c0-108.266 0-429.494 0-429.494h-176.874s-13.114 63.389-58.205 99.161c-4.918 3.902-7.147 10.286-5.709 16.397l75.848 322.189c4.412 18.741 21.136 31.985 40.389 31.985h164.908c-19.211 0-40.357-10.55-40.357-40.238z" fill="#0d5f7f"/><path d="m329.984 512h-41.494c-19.203 0-40.353-10.554-40.353-40.237 0-108.264 0-429.494 0-429.494h41.494v429.494c.001 29.683 21.151 40.237 40.353 40.237z" fill="#094c66"/></g><g><path d="m237.653 173.082h-126.989c-5.783 0-10.47-4.688-10.47-10.47v-5.622c0-5.783 4.688-10.47 10.47-10.47h126.989c5.783 0 10.47 4.688 10.47 10.47v5.622c0 5.782-4.687 10.47-10.47 10.47z" fill="#1682ad"/><path d="m248.127 156.992v5.623c0 5.78-4.691 10.47-10.47 10.47h-27.788c5.79 0 10.47-4.691 10.47-10.47v-5.623c0-5.79-4.68-10.47-10.47-10.47h27.788c5.779 0 10.47 4.68 10.47 10.47z" fill="#107295"/></g><g><path d="m246.091 116.165h-37.06c-6.263 0-11.34-5.077-11.34-11.34v-12.597c0-6.263 5.077-11.34 11.34-11.34h37.06c6.263 0 11.34 5.077 11.34 11.34v12.597c0 6.263-5.077 11.34-11.34 11.34z" fill="#a8e7ef"/><path d="m257.431 92.225v12.599c0 6.268-5.077 11.345-11.336 11.345h-25.752c6.259 0 11.336-5.077 11.336-11.345v-12.599c0-6.259-5.077-11.336-11.336-11.336h25.752c6.26.001 11.336 5.077 11.336 11.336z" fill="#70d9e6"/></g></g></g></svg>