<svg id="Capa_1" enable-background="new 0 0 512 512" height="512" viewBox="0 0 512 512" width="512" xmlns="http://www.w3.org/2000/svg"><g><g><g><g><g><path d="m375.481 512h-318.601c-12.554 0-22.731-10.177-22.731-22.731v-451.359c0-12.554 10.177-22.731 22.731-22.731h318.601c12.554 0 22.731 10.177 22.731 22.731v451.358c.001 12.555-10.176 22.732-22.731 22.732z" fill="#70d9e6"/><path d="m398.216 37.909v451.357c0 12.556-10.178 22.734-22.734 22.734h-32.621c12.556 0 22.734-10.178 22.734-22.734v-451.357c0-12.556-10.178-22.734-22.734-22.734h32.621c12.556 0 22.734 10.178 22.734 22.734z" fill="#3ad1e0"/><g><path d="m358.752 65.025v397.125c0 5.733-4.653 10.385-10.385 10.385h-264.371c-5.733 0-10.385-4.653-10.385-10.385v-397.125c0-5.733 4.653-10.385 10.385-10.385h264.371c5.732 0 10.385 4.653 10.385 10.385z" fill="#eaf6ff"/><g fill="#d9ecfd"><path d="m358.752 65.025v397.125c0 5.733-4.653 10.385-10.385 10.385h-32.621c5.733 0 10.385-4.653 10.385-10.385v-397.125c0-5.733-4.653-10.385-10.385-10.385h32.621c5.732 0 10.385 4.653 10.385 10.385z"/><path d="m304.748 54.64v26.42c0 5.276-2.139 10.043-5.587 13.501-3.458 3.448-8.225 5.587-13.501 5.587-7.311 0-13.657-4.113-16.866-10.147-1.786-3.365-5.349-5.411-9.16-5.411h-86.905c-3.822 0-7.374 2.067-9.17 5.432-3.354 6.304-10.136 10.5-17.873 10.105-10.219-.53-18.071-9.326-18.071-19.566v-25.921z"/></g></g><g><path d="m145.688 76.191c7.729.401 14.512-3.798 17.868-10.102 1.795-3.371 5.352-5.429 9.171-5.429h86.905c3.811 0 7.374 2.042 9.161 5.408 3.205 6.037 9.549 10.149 16.862 10.149 10.546 0 19.096-8.55 19.096-19.096v-45.679c.001-6.319-5.122-11.442-11.442-11.442h-154.256c-6.319 0-11.442 5.123-11.442 11.442v45.185c-.001 10.239 7.853 19.033 18.077 19.564z" fill="#fee265"/><path d="m304.748 11.445v45.677c0 5.265-2.139 10.043-5.587 13.501-3.458 3.458-8.225 5.598-13.501 5.598-6.522 0-12.286-3.271-15.724-8.277 2.119-3.074 3.365-6.813 3.365-10.822v-45.677c0-6.325-5.12-11.445-11.445-11.445h31.457c6.315 0 11.435 5.12 11.435 11.445z" fill="#fdd330"/></g></g><g><g id="XMLID_969_"><path d="m156.531 41.752c-4.267 0-7.726-3.459-7.726-7.726v-.108c0-4.268 3.459-7.726 7.726-7.726s7.726 3.459 7.726 7.726v.108c.001 4.267-3.459 7.726-7.726 7.726z" fill="#e8b125"/></g><g id="XMLID_962_"><path d="m275.831 41.752c-4.267 0-7.726-3.459-7.726-7.726v-.108c0-4.268 3.459-7.726 7.726-7.726s7.726 3.459 7.726 7.726v.108c0 4.267-3.459 7.726-7.726 7.726z" fill="#e8b125"/></g></g></g></g><g><path d="m326.668 104.911h-10.185c-4.267 0-7.726-3.459-7.726-7.726 0-4.268 3.459-7.726 7.726-7.726h10.185c4.267 0 7.726 3.459 7.726 7.726 0 4.268-3.459 7.726-7.726 7.726z" fill="#c4e1ff"/></g></g><g><path d="m477.851 382.362c0-40.724-33.495-73.624-74.438-72.656-38.443.909-69.213 31.063-70.848 69.482-1.405 33.008 19.222 61.391 48.388 71.699 2.066.73 3.458 2.665 3.458 4.857v35.494c0 11.467 9.296 20.762 20.762 20.762 11.467 0 20.762-9.296 20.762-20.762v-35.495c0-2.186 1.385-4.123 3.447-4.851 28.234-9.973 48.469-36.882 48.469-68.53z" fill="#fb4a59"/><circle cx="405.174" cy="382.362" fill="#dcf4f7" r="35.049"/><path d="m440.222 382.36c0 19.356-15.688 35.057-35.044 35.057-5.155 0-10.05-1.109-14.448-3.119 12.151-5.495 20.609-17.737 20.609-31.938s-8.458-26.43-20.609-31.925c4.398-2.01 9.293-3.119 14.448-3.119 19.356 0 35.044 15.688 35.044 35.044z" fill="#a8e7ef"/></g><g><g><g><path d="m302.096 303.113 10.302-10.302c5.303-5.302 5.303-13.9 0-19.202-5.302-5.302-13.9-5.302-19.202 0l-10.302 10.302-10.302-10.302c-5.302-5.302-13.9-5.302-19.202 0-5.303 5.302-5.303 13.9 0 19.202l10.302 10.302-10.302 10.302c-5.303 5.302-5.303 13.9 0 19.202 2.651 2.651 6.126 3.977 9.601 3.977s6.95-1.326 9.601-3.977l10.302-10.302 10.302 10.302c2.651 2.651 6.126 3.977 9.601 3.977s6.95-1.326 9.601-3.977c5.303-5.302 5.303-13.9 0-19.202z" fill="#fb4a59"/></g><g><path d="m176.915 396.064 10.302-10.302c5.303-5.302 5.303-13.9 0-19.202-5.302-5.302-13.9-5.302-19.202 0l-10.302 10.302-10.302-10.302c-5.302-5.302-13.9-5.302-19.202 0-5.303 5.302-5.303 13.9 0 19.202l10.302 10.302-10.302 10.302c-5.303 5.302-5.303 13.9 0 19.202 2.651 2.651 6.126 3.977 9.601 3.977s6.95-1.326 9.601-3.977l10.302-10.302 10.302 10.302c2.651 2.651 6.126 3.977 9.601 3.977s6.95-1.326 9.601-3.977c5.303-5.302 5.303-13.9 0-19.202z" fill="#fb4a59"/></g></g><g><path d="m263.395 444.729c-4.267 0-7.726-3.459-7.726-7.726 0-49.755-33.653-73.361-63.345-94.189-23.739-16.652-46.162-32.38-42.813-58.577 2.315-18.115 18.065-27.485 29.711-32.957 15.608-7.334 36.916-13.334 63.893-20.932 3.033-.854 6.134-1.727 9.302-2.624 35.407-10.019 47.462-25.681 46.936-36.998-.465-10.012-10.415-18.267-25.35-21.029-4.196-.777-6.968-4.807-6.192-9.003.777-4.196 4.81-6.967 9.003-6.192 22.259 4.118 37.165 18.055 37.975 35.507 1.037 22.328-20.707 41.985-58.165 52.585-3.174.898-6.281 1.773-9.32 2.629-48.241 13.586-80.111 22.56-82.465 40.974-2.061 16.125 12.473 27.212 36.359 43.967 31.153 21.853 69.924 49.049 69.924 106.84 0 4.267-3.459 7.725-7.727 7.725z" fill="#c4e1ff"/></g><g><circle cx="185.243" cy="156.856" fill="#23f1a8" r="59.235"/><path d="m244.478 156.859c0 32.715-26.523 59.237-59.237 59.237-6.192 0-12.167-.947-17.777-2.711 30.003-1.42 53.883-26.178 53.883-56.526 0-30.338-23.87-55.096-53.854-56.536 5.61-1.755 11.565-2.702 17.747-2.702 32.715 0 59.238 26.523 59.238 59.238z" fill="#26d192"/><path d="m209.445 170.009c0-11.235-9.141-20.376-20.376-20.376h-7.652c-2.715 0-4.924-2.208-4.924-4.924 0-2.715 2.209-4.924 4.924-4.924h7.652c1.639 0 3.167.814 4.087 2.176 2.389 3.537 7.192 4.467 10.727 2.077 3.536-2.388 4.466-7.191 2.077-10.727-3.056-4.525-7.744-7.578-12.991-8.599v-1.874c0-4.268-3.459-7.726-7.726-7.726s-7.726 3.459-7.726 7.726v1.879c-9.375 1.826-16.476 10.091-16.476 19.992 0 11.235 9.141 20.376 20.376 20.376h7.652c2.715 0 4.924 2.208 4.924 4.924 0 2.715-2.209 4.925-4.924 4.925h-7.652c-1.984 0-3.766-1.181-4.539-3.009-1.662-3.931-6.196-5.767-10.126-4.108-3.93 1.663-5.769 6.196-4.107 10.126 2.679 6.336 8.293 10.78 14.871 12.056v.876c0 4.268 3.459 7.726 7.726 7.726s7.726-3.459 7.726-7.726v-.873c9.376-1.826 16.477-10.091 16.477-19.993z" fill="#1ec480"/></g></g></g></svg>