<svg id="Capa_1" enable-background="new 0 0 512 512" height="512" viewBox="0 0 512 512" width="512" xmlns="http://www.w3.org/2000/svg"><g><g><path d="m282.362 26.362v459.275c-126.825.001-229.627-102.811-229.627-229.637s102.802-229.638 229.627-229.638z" fill="#70d9e6"/><g><path d="m282.362 420.561v15.453c-46.873 0-92.036 2.823-131.585 8.2-5.831-4.079-11.456-8.417-16.864-13.011.443-.155.907-.278 1.38-.35 43.289-6.738 94.149-10.292 147.069-10.292z" fill="#1fb2cc"/></g><g><path d="m282.362 326.361v15.453c-76.46 0-147.419 12.949-194.962 35.572-2.73-4.378-5.316-8.86-7.747-13.423 49.583-23.89 123.457-37.602 202.709-37.602z" fill="#1fb2cc"/></g><g><path d="m282.362 75.986v15.453c-52.92 0-103.781-3.554-147.069-10.292-.474-.072-.938-.196-1.38-.35 5.408-4.595 11.033-8.932 16.864-13.011 39.549 5.378 84.712 8.2 131.585 8.2z" fill="#1fb2cc"/></g><g><path d="m282.362 170.186v15.453c-79.252 0-153.126-13.712-202.709-37.602 2.431-4.564 5.017-9.045 7.747-13.423 47.543 22.623 118.502 35.572 194.962 35.572z" fill="#1fb2cc"/></g><g><path d="m282.362 248.274v15.453h-229.503c-.082-2.565-.124-5.141-.124-7.726 0-2.586.041-5.161.124-7.726h229.503z" fill="#1fb2cc"/></g><path d="m282.365 26.365c126.824 0 229.635 102.811 229.635 229.635s-102.811 229.635-229.635 229.635z" fill="#1fb2cc"/><g><path d="m430.811 431.203c-5.408 4.595-11.033 8.932-16.864 13.011-39.538-5.378-84.712-8.2-131.585-8.2v-15.453c52.931 0 103.791 3.554 147.079 10.292.474.072.938.195 1.37.35z" fill="#0b9ead"/></g><g><path d="m485.081 363.963c-2.431 4.564-5.017 9.045-7.747 13.423-47.543-22.623-118.502-35.572-194.972-35.572v-15.453c79.263 0 153.147 13.712 202.719 37.602z" fill="#0b9ead"/></g><g><path d="m430.811 80.797c-.433.155-.896.278-1.37.35-43.288 6.737-94.148 10.292-147.079 10.292v-15.453c46.873 0 92.047-2.823 131.585-8.2 5.831 4.08 11.456 8.417 16.864 13.011z" fill="#0b9ead"/></g><g><path d="m485.081 148.037c-49.572 23.89-123.457 37.602-202.719 37.602v-15.453c76.47 0 147.429-12.949 194.972-35.572 2.73 4.378 5.316 8.859 7.747 13.423z" fill="#0b9ead"/></g><g><path d="m512 256c0 2.586-.041 5.161-.124 7.726h-229.514v-15.453h229.514c.083 2.566.124 5.141.124 7.727z" fill="#0b9ead"/></g><g><path d="m438.249 256c0 126.826-69.795 229.638-155.887 229.638v-459.276c86.093 0 155.887 102.812 155.887 229.638z" fill="#70d9e6"/><g><path d="m387.492 425.547c-3.771 5.079-7.706 9.89-11.806 14.412-29.432-2.606-60.976-3.946-93.324-3.946v-15.453c36.644.001 72.298 1.701 105.13 4.987z" fill="#20bfd5"/></g><g><path d="m426.619 343.205c-1.401 5.007-2.915 9.931-4.543 14.752-40.661-10.436-88.977-16.143-139.713-16.143v-15.453c52.219 0 102.111 5.955 144.256 16.844z" fill="#20bfd5"/></g><g><path d="m387.492 86.453c-32.832 3.286-68.486 4.986-105.13 4.986v-15.453c32.348 0 63.892-1.339 93.324-3.946 4.101 4.523 8.036 9.334 11.806 14.413z" fill="#20bfd5"/></g><g><path d="m426.619 168.795c-42.145 10.889-92.036 16.843-144.256 16.843v-15.453c50.736 0 99.052-5.707 139.713-16.143 1.627 4.822 3.142 9.747 4.543 14.753z" fill="#20bfd5"/></g><g><path d="m438.249 256c0 2.586-.031 5.161-.093 7.726h-155.794v-15.453h155.794c.062 2.566.093 5.141.093 7.727z" fill="#20bfd5"/></g><path d="m282.365 485.635c-86.092 0-155.883-102.811-155.883-229.635s69.791-229.635 155.883-229.635z" fill="#20bfd5"/><g><g><g><g><path d="m282.362 420.561v15.453c-32.348 0-63.882 1.339-93.314 3.946-4.1-4.523-8.046-9.333-11.816-14.412 32.832-3.287 68.487-4.987 105.13-4.987z" fill="#1fb2cc"/></g><g><path d="m282.362 326.361v15.453c-50.736 0-99.042 5.707-139.703 16.143-1.628-4.821-3.142-9.745-4.543-14.752 42.135-10.889 92.026-16.844 144.246-16.844z" fill="#1fb2cc"/></g></g></g><g><g><g><path d="m282.362 75.986v15.453c-36.644 0-72.298-1.7-105.13-4.986 3.77-5.079 7.716-9.89 11.816-14.412 29.433 2.606 60.967 3.945 93.314 3.945z" fill="#1fb2cc"/></g><g><path d="m282.362 170.186v15.453c-52.22 0-102.112-5.954-144.246-16.843 1.401-5.007 2.915-9.931 4.543-14.752 40.662 10.435 88.967 16.142 139.703 16.142z" fill="#1fb2cc"/></g></g></g></g><g><path d="m282.362 248.274v15.453h-155.784c-.062-2.565-.093-5.141-.093-7.726 0-2.586.031-5.161.093-7.726h155.784z" fill="#1fb2cc"/></g></g><g><ellipse cx="282.365" cy="256" fill="#a8e7ef" rx="67.302" ry="229.635"/></g><g><path d="m329.009 421.499c-1.628 5.378-3.348 10.467-5.141 15.267-13.609-.494-27.485-.752-41.506-.752s-27.897.258-41.506.752c-1.792-4.801-3.513-9.89-5.141-15.267 15.267-.618 30.864-.937 46.647-.937 15.783-.001 31.38.319 46.647.937z" fill="#70d9e6"/></g><g><path d="m346.151 329.4c-.515 5.202-1.082 10.322-1.7 15.35-20.016-1.937-40.836-2.936-62.089-2.936s-42.073.999-62.089 2.936c-.618-5.027-1.185-10.147-1.7-15.35 20.593-1.998 41.98-3.039 63.789-3.039 21.799 0 43.196 1.041 63.789 3.039z" fill="#70d9e6"/></g><g><path d="m329.009 90.501c-15.267.618-30.864.938-46.647.938-15.782 0-31.379-.319-46.647-.938 1.628-5.378 3.348-10.467 5.141-15.267 13.609.494 27.485.752 41.506.752s27.897-.258 41.506-.752c1.793 4.801 3.513 9.89 5.141 15.267z" fill="#70d9e6"/></g><g><path d="m346.151 182.6c-20.593 1.998-41.99 3.039-63.789 3.039-21.809 0-43.196-1.04-63.789-3.039.515-5.202 1.082-10.322 1.7-15.35 20.016 1.937 40.836 2.936 62.089 2.936s42.073-.999 62.089-2.936c.618 5.027 1.185 10.147 1.7 15.35z" fill="#70d9e6"/></g><g><path d="m349.664 256c0 2.586-.01 5.161-.041 7.726h-134.521c-.031-2.565-.041-5.141-.041-7.726 0-2.586.01-5.161.041-7.726h134.521c.031 2.565.041 5.14.041 7.726z" fill="#70d9e6"/></g></g><g><path d="m185.412 111.302c0-31.991-26.188-57.866-58.296-57.357-30.541.485-55.604 25.267-56.411 55.802-.672 25.384 15.156 47.155 37.53 55.391 2.045.753 3.426 2.669 3.426 4.848v27.252c0 9.051 7.337 16.388 16.388 16.388 9.051 0 16.388-7.337 16.388-16.388v-27.253c0-2.176 1.377-4.092 3.42-4.844 21.917-8.066 37.555-29.121 37.555-53.839z" fill="#fb4a59"/><circle cx="128.048" cy="111.302" fill="#dcf4f7" r="27.665"/><path d="m155.712 111.301c0 15.278-12.383 27.671-27.66 27.671-4.069 0-7.932-.876-11.404-2.462 9.591-4.337 16.267-14 16.267-25.209 0-11.208-6.676-20.861-16.267-25.198 3.472-1.586 7.335-2.462 11.404-2.462 15.277-.001 27.66 12.382 27.66 27.66z" fill="#a8e7ef"/></g><g><path d="m394.669 293.392c0-31.991-26.188-57.866-58.296-57.357-30.541.485-55.604 25.267-56.411 55.802-.672 25.384 15.156 47.155 37.53 55.391 2.045.753 3.426 2.669 3.426 4.848v27.252c0 9.051 7.337 16.388 16.388 16.388 9.051 0 16.388-7.337 16.388-16.388v-27.253c0-2.176 1.377-4.092 3.42-4.844 21.917-8.066 37.555-29.121 37.555-53.839z" fill="#fb4a59"/><circle cx="337.305" cy="293.392" fill="#dcf4f7" r="27.665"/><path d="m364.969 293.391c0 15.278-12.383 27.671-27.66 27.671-4.069 0-7.932-.875-11.404-2.462 9.591-4.337 16.267-14 16.267-25.208s-6.676-20.861-16.267-25.198c3.472-1.586 7.335-2.462 11.404-2.462 15.277-.001 27.66 12.381 27.66 27.659z" fill="#a8e7ef"/></g><g><path d="m503.759 169.052c0-31.991-26.188-57.866-58.296-57.357-30.541.485-55.604 25.267-56.411 55.802-.672 25.384 15.156 47.155 37.53 55.391 2.045.753 3.426 2.669 3.426 4.848v27.252c0 9.051 7.337 16.388 16.388 16.388 9.051 0 16.388-7.337 16.388-16.388v-27.253c0-2.176 1.377-4.093 3.42-4.844 21.917-8.066 37.555-29.122 37.555-53.839z" fill="#fb4a59"/><circle cx="446.395" cy="169.052" fill="#dcf4f7" r="27.665"/><path d="m474.058 169.05c0 15.278-12.383 27.671-27.66 27.671-4.069 0-7.932-.876-11.404-2.462 9.591-4.337 16.267-14 16.267-25.209 0-11.208-6.676-20.861-16.267-25.198 3.472-1.586 7.335-2.462 11.404-2.462 15.278 0 27.66 12.383 27.66 27.66z" fill="#a8e7ef"/></g><g><g><circle cx="95.406" cy="387.501" fill="#fca62f" r="95.406"/><path d="m190.81 387.504c0 52.691-42.718 95.409-95.409 95.409-9.973 0-19.596-1.524-28.632-4.367 48.324-2.287 86.786-42.162 86.786-91.042 0-48.864-38.446-88.739-86.738-91.057 9.036-2.827 18.628-4.351 28.584-4.351 52.692 0 95.409 42.718 95.409 95.408z" fill="#f98824"/></g><circle cx="95.406" cy="387.502" fill="#fee265" r="66.636"/><path d="m162.041 387.504c0 36.802-29.836 66.639-66.638 66.639-6.965 0-13.687-1.065-19.998-3.05 33.752-1.597 60.616-29.448 60.616-63.588 0-34.129-26.853-61.98-60.582-63.599 6.311-1.974 13.01-3.039 19.965-3.039 36.801-.001 66.637 29.835 66.637 66.637z" fill="#fdd330"/><path d="m121.666 402.298c0-12.107-9.85-21.957-21.957-21.957h-8.608c-3.587 0-6.504-2.917-6.504-6.504s2.918-6.504 6.504-6.504h8.608c2.164 0 4.183 1.074 5.398 2.873 2.389 3.536 7.192 4.466 10.727 2.077 3.536-2.388 4.466-7.191 2.077-10.727-3.445-5.1-8.812-8.459-14.78-9.398v-2.925c0-4.268-3.459-7.726-7.726-7.726s-7.726 3.459-7.726 7.726v2.942c-10.483 1.652-18.534 10.723-18.534 21.662 0 12.107 9.85 21.957 21.957 21.957h8.608c3.587 0 6.504 2.918 6.504 6.504s-2.918 6.504-6.504 6.504h-8.608c-2.621 0-4.975-1.56-5.996-3.975-1.663-3.931-6.198-5.77-10.126-4.106-3.93 1.662-5.768 6.195-4.106 10.126 2.993 7.077 9.382 11.973 16.806 13.136v1.787c0 4.268 3.459 7.726 7.726 7.726s7.726-3.459 7.726-7.726v-1.81c10.483-1.652 18.534-10.723 18.534-21.662z" fill="#e8b125"/></g></g></svg>