<svg id="Capa_1" enable-background="new 0 0 512 512" height="512" viewBox="0 0 512 512" width="512" xmlns="http://www.w3.org/2000/svg"><g><g><g><g><g><path d="m413.077 157.539v222.369c0 7.79-6.318 14.108-14.108 14.108h-384.861c-7.79 0-14.108-6.318-14.108-14.108v-222.369c0-7.79 6.318-14.108 14.108-14.108h384.86c7.79 0 14.109 6.318 14.109 14.108z" fill="#1ec186"/><g fill="#1eb07c"><path d="m413.077 157.539v196.259c-13.035 9.815-28.145 18.024-45.647 24.035-1.718.583-3.599.583-5.316 0-115.33-39.575-126.852-174.953-126.126-234.402h162.981c7.789 0 14.108 6.318 14.108 14.108z"/><path d="m413.073 157.536v222.371c0 7.796-6.31 14.106-14.106 14.106h-33.046c7.796 0 14.106-6.31 14.106-14.106v-222.371c0-7.796-6.31-14.106-14.106-14.106h33.046c7.796-.001 14.106 6.309 14.106 14.106z"/></g></g><path d="m413.077 221.312v207.331c0 7.79-6.318 14.098-14.108 14.098h-384.861c-7.79 0-14.108-6.308-14.108-14.098v-207.331c0-7.79 6.318-14.108 14.108-14.108h384.86c7.79 0 14.109 6.318 14.109 14.108z" fill="#27e19d"/><path d="m413.077 221.312v132.485c-13.035 9.815-28.145 18.024-45.647 24.035-1.718.583-3.599.583-5.316 0-83.147-28.533-112.335-106.855-121.883-170.628h158.739c7.788 0 14.107 6.318 14.107 14.108z" fill="#26d192"/><path d="m413.073 221.312v207.325c0 7.796-6.31 14.106-14.106 14.106h-33.046c7.796 0 14.106-6.31 14.106-14.106v-207.325c0-7.796-6.31-14.106-14.106-14.106h33.046c7.796 0 14.106 6.31 14.106 14.106z" fill="#26d192"/><g><path d="m384.855 240.568v168.816c0 2.843-2.297 5.151-5.151 5.151h-272.658v-36.551h-21.768v36.551h-51.91c-2.843 0-5.151-2.308-5.151-5.151v-168.816c0-2.843 2.308-5.151 5.151-5.151h346.337c2.853 0 5.15 2.308 5.15 5.151z" fill="#cffbe8"/><g fill="#9ff7d3"><path d="m384.86 235.421v135.348c-5.521 2.607-11.338 4.969-17.431 7.064-1.718.583-3.599.583-5.316 0-71.196-24.434-102.827-85.365-116.444-142.412z"/><path d="m357.5 235.418v179.114h22.214c2.845 0 5.151-2.306 5.151-5.151v-168.812c0-2.845-2.306-5.151-5.151-5.151z"/></g></g><g><circle cx="206.538" cy="324.973" fill="#23f1a8" r="59.783"/><path d="m266.321 324.975c0 33.017-26.768 59.785-59.785 59.785-6.249 0-12.279-.955-17.941-2.736 30.281-1.433 54.382-26.42 54.382-57.049 0-30.619-24.091-55.605-54.352-57.058 5.662-1.771 11.672-2.727 17.912-2.727 33.016 0 59.784 26.768 59.784 59.785z" fill="#26d192"/><path d="m230.893 338.247c0-11.3-9.193-20.493-20.493-20.493h-7.722c-2.78 0-5.041-2.261-5.041-5.04 0-2.78 2.261-5.041 5.041-5.041h7.722c1.678 0 3.242.833 4.185 2.228 2.389 3.535 7.192 4.467 10.728 2.075 3.536-2.388 4.465-7.191 2.076-10.727-3.086-4.567-7.823-7.644-13.123-8.66v-1.95c0-4.268-3.459-7.726-7.726-7.726s-7.726 3.459-7.726 7.726v1.958c-9.457 1.814-16.628 10.138-16.628 20.117 0 11.3 9.193 20.493 20.493 20.493h7.722c2.78 0 5.041 2.261 5.041 5.04 0 2.78-2.261 5.041-5.041 5.041h-7.722c-2.032 0-3.856-1.209-4.647-3.081-1.662-3.93-6.195-5.767-10.126-4.106-3.93 1.662-5.769 6.195-4.107 10.126 2.703 6.39 8.374 10.866 15.015 12.135v.943c0 4.268 3.459 7.726 7.726 7.726s7.726-3.459 7.726-7.726v-.942c9.456-1.814 16.627-10.138 16.627-20.116z" fill="#1ec480"/></g><g><g><circle cx="316.915" cy="324.975" fill="#f8c52d" r="20.946"/><path d="m337.858 324.975c0 11.567-9.37 20.946-20.946 20.946-3.309 0-6.451-.769-9.231-2.15 7.971-2.53 13.745-9.991 13.745-18.796s-5.774-16.266-13.745-18.796c2.78-1.381 5.922-2.15 9.231-2.15 11.575 0 20.946 9.379 20.946 20.946z" fill="#fcb44d"/></g><g><circle cx="96.162" cy="324.975" fill="#fee265" r="20.946"/><path d="m117.105 324.975c0 11.567-9.37 20.946-20.946 20.946-3.309 0-6.451-.769-9.231-2.15 7.971-2.53 13.745-9.991 13.745-18.796s-5.774-16.266-13.745-18.796c2.78-1.381 5.922-2.15 9.231-2.15 11.576 0 20.946 9.379 20.946 20.946z" fill="#f8c52d"/></g></g><g fill="#86e2ba"><path d="m360.89 382.178h-73c-4.268 0-7.726 3.459-7.726 7.726s3.459 7.726 7.726 7.726h73c4.268 0 7.726-3.459 7.726-7.726s-3.458-7.726-7.726-7.726z"/><path d="m125.186 252.318h-73c-4.267 0-7.726 3.459-7.726 7.726 0 4.268 3.459 7.726 7.726 7.726h73.001c4.267 0 7.726-3.459 7.726-7.726-.001-4.267-3.46-7.726-7.727-7.726z"/></g></g><g><path d="m162.779 178.366c0 4.275-3.461 7.726-7.726 7.726h-155.053v-15.452h155.053c4.265 0 7.726 3.461 7.726 7.726z" fill="#1eb07c"/></g></g><g fill="#1eb07c"><path d="m328.66 277.112h-23.767c-2.295 0-4.156-1.861-4.156-4.156v-37.538h32.078v37.538c0 2.295-1.86 4.156-4.155 4.156z"/><path d="m84.278 372.838h23.767c2.295 0 4.156 1.861 4.156 4.156v37.538h-32.078v-37.538c0-2.296 1.86-4.156 4.155-4.156z"/></g></g><g><g><g><path d="m504.284 88.98-119.745-19.613c-.897-.147-1.814-.147-2.711 0l-119.745 19.613c-3.697.606-6.49 3.576-6.762 7.202-2.647 35.23-8.824 210.614 125.204 256.603 1.718.589 3.601.589 5.318 0 134.028-45.989 127.851-221.373 125.204-256.603-.273-3.627-3.065-6.597-6.763-7.202z" fill="#eaf6ff"/><path d="m385.845 352.782c-1.717.592-3.606.592-5.323 0-7.928-2.723-15.368-5.897-22.344-9.472 130.921-47.575 124.816-220.578 122.187-255.539-.073-1.01-.342-1.966-.773-2.834l24.696 4.041c3.696.608 6.487 3.576 6.756 7.207 2.653 35.229 8.823 210.609-125.199 256.597z" fill="#d9ecfd"/></g><path d="m480.711 143.63c2.407.393 4.135 2.53 3.987 4.964-.929 15.283-2.927 32.73-6.832 50.665-10.828 49.666-32.109 86.205-63.484 109.132-2.179 1.592-5.198 1.036-6.722-1.191-5.453-7.965-14.381-13.156-24.476-13.156-10.094 0-19.022 5.191-24.476 13.156-1.525 2.227-4.543 2.783-6.722 1.191-31.375-22.928-52.656-59.466-63.484-109.132-3.904-17.936-5.903-35.378-6.832-50.665-.148-2.434 1.58-4.571 3.987-4.964 14.377-2.347 25.378-15.343 25.378-31.018 0-.014 0-.028 0-.042-.003-2.347 1.647-4.369 3.961-4.76l67.396-11.388c.524-.089 1.06-.089 1.584 0l67.396 11.388c2.315.391 3.964 2.413 3.961 4.76v.042c0 15.675 11.001 28.671 25.378 31.018z" fill="#915eb2"/><path d="m484.695 148.591c-.924 15.29-2.921 32.735-6.828 50.669-10.83 49.666-32.111 86.206-63.488 109.129-2.179 1.594-5.194 1.042-6.717-1.184-3.442-5.028-8.272-8.951-13.909-11.154 26.412-23.081 44.615-57.142 54.363-101.835 3.899-17.934 5.904-35.379 6.828-50.661.15-2.439-1.579-4.57-3.986-4.965-14.374-2.352-25.378-15.345-25.378-31.022v-.04c.008-2.25-1.516-4.207-3.694-4.697l29.49 4.981c2.313.387 3.963 2.408 3.955 4.76v.04c0 15.677 11.004 28.67 25.378 31.022 2.407.386 4.136 2.526 3.986 4.957z" fill="#804ea0"/></g><g><path d="m390.119 97.466v197.424c-2.225-.556-4.543-.845-6.933-.845-2.957 0-5.82.443-8.52 1.277v-197.588l7.726-1.308c.525-.093 1.061-.093 1.587 0z" fill="#804ea0"/></g></g></g></svg>