<svg id="Capa_1" enable-background="new 0 0 512 512" height="512" viewBox="0 0 512 512" width="512" xmlns="http://www.w3.org/2000/svg"><g><g><path d="m466.333 76.755-58.497 70.608c-1.377 1.662-3.666 2.253-5.675 1.465l-37.515-14.708c-1.919-.752-4.103-.25-5.501 1.265l-105.505 114.4c-1.577 1.71-4.125 2.107-6.147.957l-49.442-28.112c-1.842-1.047-4.143-.82-5.745.567l-184.806 160.052v121.251h467.683v-424.555c0-4.684-5.862-6.797-8.85-3.19z" fill="#70d9e6"/><path d="m437.787 111.21v393.29h37.396v-424.555c0-4.684-5.862-6.797-8.85-3.19z" fill="#3ad1e0"/></g><g><g><g><g><g><path d="m118.122 504.496h-63.692c-5.113 0-9.257-4.145-9.257-9.257v-16.402c0-5.113 4.145-9.257 9.257-9.257h63.692c5.113 0 9.257 4.145 9.257 9.257v16.402c0 5.113-4.145 9.257-9.257 9.257z" fill="#f98824"/><path d="m127.379 478.838v16.404c0 5.11-4.147 9.257-9.257 9.257h-24.968c5.11 0 9.257-4.147 9.257-9.257v-16.404c0-5.119-4.147-9.257-9.257-9.257h24.967c5.111 0 9.258 4.138 9.258 9.257z" fill="#f2671f"/></g></g></g><g><g><g><path d="m121.662 434.654h-63.692c-5.113 0-9.257-4.145-9.257-9.257v-16.402c0-5.113 4.145-9.257 9.257-9.257h63.692c5.113 0 9.257 4.145 9.257 9.257v16.402c0 5.112-4.144 9.257-9.257 9.257z" fill="#f98824"/><path d="m130.919 408.996v16.404c0 5.11-4.147 9.257-9.257 9.257h-24.968c5.11 0 9.257-4.147 9.257-9.257v-16.404c0-5.119-4.147-9.257-9.257-9.257h24.967c5.111 0 9.258 4.138 9.258 9.257z" fill="#f2671f"/></g></g></g><g><g><g><path d="m130.744 469.575h-63.691c-5.113 0-9.257-4.145-9.257-9.257v-16.402c0-5.113 4.145-9.257 9.257-9.257h63.692c5.113 0 9.257 4.145 9.257 9.257v16.402c0 5.112-4.145 9.257-9.258 9.257z" fill="#fcb44d"/><path d="m140.002 443.917v16.404c0 5.11-4.147 9.257-9.257 9.257h-24.967c5.11 0 9.257-4.147 9.257-9.257v-16.404c0-5.119-4.147-9.257-9.257-9.257h24.967c5.11 0 9.257 4.138 9.257 9.257z" fill="#fb9927"/></g></g></g></g><g><g><g><g><path d="m272.806 504.496h-63.692c-5.113 0-9.257-4.145-9.257-9.257v-16.402c0-5.113 4.145-9.257 9.257-9.257h63.692c5.113 0 9.257 4.145 9.257 9.257v16.402c0 5.113-4.144 9.257-9.257 9.257z" fill="#f98824"/><path d="m282.063 478.838v16.404c0 5.11-4.147 9.257-9.257 9.257h-24.967c5.11 0 9.257-4.147 9.257-9.257v-16.404c0-5.119-4.147-9.257-9.257-9.257h24.967c5.11 0 9.257 4.138 9.257 9.257z" fill="#f2671f"/></g></g></g><g><g><g><path d="m265.178 434.654h-63.692c-5.113 0-9.257-4.145-9.257-9.257v-16.402c0-5.113 4.145-9.257 9.257-9.257h63.692c5.113 0 9.257 4.145 9.257 9.257v16.402c.001 5.112-4.144 9.257-9.257 9.257z" fill="#f98824"/><path d="m274.436 408.996v16.404c0 5.11-4.147 9.257-9.257 9.257h-24.967c5.11 0 9.257-4.147 9.257-9.257v-16.404c0-5.119-4.147-9.257-9.257-9.257h24.967c5.109 0 9.257 4.138 9.257 9.257z" fill="#f2671f"/></g></g></g><g><g><g><path d="m254.261 469.575h-63.692c-5.113 0-9.257-4.145-9.257-9.257v-16.402c0-5.113 4.145-9.257 9.257-9.257h63.692c5.113 0 9.257 4.145 9.257 9.257v16.402c0 5.112-4.144 9.257-9.257 9.257z" fill="#fcb44d"/><path d="m263.518 443.917v16.404c0 5.11-4.147 9.257-9.257 9.257h-24.967c5.11 0 9.257-4.147 9.257-9.257v-16.404c0-5.119-4.147-9.257-9.257-9.257h24.967c5.11 0 9.257 4.138 9.257 9.257z" fill="#fb9927"/></g></g></g><g><g><g><path d="m274.261 399.738h-63.692c-5.113 0-9.257-4.145-9.257-9.257v-16.402c0-5.113 4.145-9.257 9.257-9.257h63.692c5.113 0 9.257 4.145 9.257 9.257v16.402c0 5.112-4.144 9.257-9.257 9.257z" fill="#fcb44d"/><path d="m283.518 374.08v16.404c0 5.11-4.147 9.257-9.257 9.257h-24.967c5.11 0 9.257-4.147 9.257-9.257v-16.404c0-5.119-4.147-9.257-9.257-9.257h24.967c5.11 0 9.257 4.138 9.257 9.257z" fill="#fb9927"/></g></g></g><g><g><g><path d="m245.178 364.817h-63.692c-5.113 0-9.257-4.145-9.257-9.257v-16.402c0-5.113 4.145-9.257 9.257-9.257h63.692c5.113 0 9.257 4.145 9.257 9.257v16.402c.001 5.112-4.144 9.257-9.257 9.257z" fill="#f98824"/><path d="m254.436 339.159v16.404c0 5.11-4.147 9.257-9.257 9.257h-24.967c5.11 0 9.257-4.147 9.257-9.257v-16.404c0-5.119-4.147-9.257-9.257-9.257h24.967c5.109-.001 9.257 4.137 9.257 9.257z" fill="#f2671f"/></g></g></g><g><g><g><path d="m254.261 329.901h-63.692c-5.113 0-9.257-4.145-9.257-9.257v-16.402c0-5.113 4.145-9.257 9.257-9.257h63.692c5.113 0 9.257 4.145 9.257 9.257v16.402c0 5.112-4.144 9.257-9.257 9.257z" fill="#fcb44d"/><path d="m263.518 304.243v16.404c0 5.11-4.147 9.257-9.257 9.257h-24.967c5.11 0 9.257-4.147 9.257-9.257v-16.404c0-5.119-4.147-9.257-9.257-9.257h24.967c5.11-.001 9.257 4.137 9.257 9.257z" fill="#fb9927"/></g></g></g></g><g><g><g><g><path d="m426.47 504.496h-63.692c-5.113 0-9.257-4.145-9.257-9.257v-16.402c0-5.113 4.145-9.257 9.257-9.257h63.692c5.113 0 9.257 4.145 9.257 9.257v16.402c0 5.113-4.144 9.257-9.257 9.257z" fill="#f98824"/><path d="m435.727 478.838v16.404c0 5.11-4.147 9.257-9.257 9.257h-24.967c5.11 0 9.257-4.147 9.257-9.257v-16.404c0-5.119-4.147-9.257-9.257-9.257h24.967c5.11 0 9.257 4.138 9.257 9.257z" fill="#f2671f"/></g></g></g><g><g><g><path d="m407.925 434.654h-63.692c-5.113 0-9.257-4.145-9.257-9.257v-16.402c0-5.113 4.145-9.257 9.257-9.257h63.692c5.113 0 9.257 4.145 9.257 9.257v16.402c.001 5.112-4.144 9.257-9.257 9.257z" fill="#f98824"/><path d="m417.182 408.996v16.404c0 5.11-4.147 9.257-9.257 9.257h-24.967c5.11 0 9.257-4.147 9.257-9.257v-16.404c0-5.119-4.147-9.257-9.257-9.257h24.967c5.11 0 9.257 4.138 9.257 9.257z" fill="#f2671f"/></g></g></g><g><g><g><path d="m407.925 469.575h-63.692c-5.113 0-9.257-4.145-9.257-9.257v-16.402c0-5.113 4.145-9.257 9.257-9.257h63.692c5.113 0 9.257 4.145 9.257 9.257v16.402c.001 5.112-4.144 9.257-9.257 9.257z" fill="#fcb44d"/><path d="m417.182 443.917v16.404c0 5.11-4.147 9.257-9.257 9.257h-24.967c5.11 0 9.257-4.147 9.257-9.257v-16.404c0-5.119-4.147-9.257-9.257-9.257h24.967c5.11 0 9.257 4.138 9.257 9.257z" fill="#fb9927"/></g></g></g><g><g><g><path d="m407.925 399.738h-63.692c-5.113 0-9.257-4.145-9.257-9.257v-16.402c0-5.113 4.145-9.257 9.257-9.257h63.692c5.113 0 9.257 4.145 9.257 9.257v16.402c.001 5.112-4.144 9.257-9.257 9.257z" fill="#fcb44d"/><path d="m417.182 374.08v16.404c0 5.11-4.147 9.257-9.257 9.257h-24.967c5.11 0 9.257-4.147 9.257-9.257v-16.404c0-5.119-4.147-9.257-9.257-9.257h24.967c5.11 0 9.257 4.138 9.257 9.257z" fill="#fb9927"/></g></g></g><g><g><g><path d="m418.842 364.817h-63.692c-5.113 0-9.257-4.145-9.257-9.257v-16.402c0-5.113 4.145-9.257 9.257-9.257h63.692c5.113 0 9.257 4.145 9.257 9.257v16.402c.001 5.112-4.144 9.257-9.257 9.257z" fill="#f98824"/><path d="m428.1 339.159v16.404c0 5.11-4.147 9.257-9.257 9.257h-24.967c5.11 0 9.257-4.147 9.257-9.257v-16.404c0-5.119-4.147-9.257-9.257-9.257h24.967c5.11-.001 9.257 4.137 9.257 9.257z" fill="#f2671f"/></g></g></g><g><g><g><path d="m431.925 329.901h-63.692c-5.113 0-9.257-4.145-9.257-9.257v-16.402c0-5.113 4.145-9.257 9.257-9.257h63.692c5.113 0 9.257 4.145 9.257 9.257v16.402c.001 5.112-4.144 9.257-9.257 9.257z" fill="#fcb44d"/><path d="m441.182 304.243v16.404c0 5.11-4.147 9.257-9.257 9.257h-24.967c5.11 0 9.257-4.147 9.257-9.257v-16.404c0-5.119-4.147-9.257-9.257-9.257h24.967c5.11-.001 9.257 4.137 9.257 9.257z" fill="#fb9927"/></g></g></g><g><g><g><path d="m414.842 294.98h-63.692c-5.113 0-9.257-4.145-9.257-9.257v-16.403c0-5.113 4.145-9.257 9.257-9.257h63.692c5.113 0 9.257 4.145 9.257 9.257v16.402c.001 5.113-4.144 9.258-9.257 9.258z" fill="#f98824"/><path d="m424.1 269.322v16.404c0 5.11-4.147 9.257-9.257 9.257h-24.967c5.11 0 9.257-4.147 9.257-9.257v-16.404c0-5.119-4.147-9.257-9.257-9.257h24.967c5.11-.001 9.257 4.137 9.257 9.257z" fill="#f2671f"/></g></g></g><g><g><g><path d="m423.053 225.144h-63.692c-5.113 0-9.257-4.145-9.257-9.257v-16.402c0-5.113 4.145-9.257 9.257-9.257h63.692c5.113 0 9.257 4.145 9.257 9.257v16.402c.001 5.113-4.144 9.257-9.257 9.257z" fill="#f98824"/><path d="m432.311 199.486v16.404c0 5.11-4.147 9.257-9.257 9.257h-24.967c5.11 0 9.257-4.147 9.257-9.257v-16.404c0-5.119-4.147-9.257-9.257-9.257h24.967c5.109 0 9.257 4.138 9.257 9.257z" fill="#f2671f"/></g></g></g><g><g><g><path d="m427.925 260.064h-63.692c-5.113 0-9.257-4.145-9.257-9.257v-16.402c0-5.113 4.145-9.257 9.257-9.257h63.692c5.113 0 9.257 4.145 9.257 9.257v16.402c.001 5.112-4.144 9.257-9.257 9.257z" fill="#fcb44d"/><path d="m437.182 234.406v16.404c0 5.11-4.147 9.257-9.257 9.257h-24.967c5.11 0 9.257-4.147 9.257-9.257v-16.404c0-5.119-4.147-9.257-9.257-9.257h24.967c5.11-.001 9.257 4.137 9.257 9.257z" fill="#fb9927"/></g></g></g></g></g><path d="m504.5 497h-489.5v-243.976h10.416c4.143 0 7.5-3.357 7.5-7.5s-3.357-7.5-7.5-7.5h-10.416v-53.517h10.416c4.143 0 7.5-3.357 7.5-7.5s-3.357-7.5-7.5-7.5h-10.416v-53.516h10.416c4.143 0 7.5-3.357 7.5-7.5s-3.357-7.5-7.5-7.5h-10.416v-53.515h10.416c4.143 0 7.5-3.357 7.5-7.5s-3.357-7.5-7.5-7.5h-10.416v-24.976c0-4.143-3.357-7.5-7.5-7.5s-7.5 3.357-7.5 7.5v497c0 4.143 3.357 7.5 7.5 7.5h497c4.143 0 7.5-3.357 7.5-7.5s-3.357-7.5-7.5-7.5z" fill="#1682ad"/><g><path d="m194.979 201.06c-4.143 0-7.5-3.357-7.5-7.5v-7.262c0-4.143 3.357-7.5 7.5-7.5s7.5 3.357 7.5 7.5v7.262c0 4.142-3.358 7.5-7.5 7.5z" fill="#189ab0"/></g><g><path d="m361.464 112.461c-4.143 0-7.5-3.357-7.5-7.5v-7.262c0-4.143 3.357-7.5 7.5-7.5s7.5 3.357 7.5 7.5v7.262c0 4.143-3.358 7.5-7.5 7.5z" fill="#189ab0"/></g><g><g><g><circle cx="130.331" cy="101.45" fill="#23f1a8" r="63.571"/><path d="m193.902 101.452c0 35.109-28.464 63.573-63.573 63.573-6.645 0-13.057-1.016-19.078-2.91 32.199-1.524 57.828-28.094 57.828-60.663 0-32.559-25.618-59.129-57.796-60.674 6.021-1.883 12.412-2.899 19.047-2.899 35.108 0 63.572 28.464 63.572 63.573z" fill="#26d192"/><path d="m155.513 115.565c0-11.621-9.454-21.075-21.075-21.075h-8.212c-3.351 0-6.076-2.726-6.076-6.076s2.726-6.076 6.076-6.076h8.212c2.022 0 3.907 1.003 5.042 2.684 2.318 3.433 6.98 4.334 10.413 2.017 3.433-2.318 4.335-6.98 2.017-10.413-3.285-4.863-8.393-8.078-14.078-9.004v-2.68c0-4.143-3.357-7.5-7.5-7.5s-7.5 3.357-7.5 7.5v2.696c-10.009 1.631-17.682 10.314-17.682 20.777 0 11.621 9.455 21.076 21.076 21.076h8.212c3.35 0 6.075 2.726 6.075 6.075 0 3.351-2.726 6.076-6.075 6.076h-8.212c-2.449 0-4.647-1.457-5.602-3.713-1.614-3.815-6.015-5.599-9.829-3.985s-5.6 6.014-3.985 9.829c2.857 6.757 8.942 11.44 16.021 12.588v1.598c0 4.143 3.357 7.5 7.5 7.5s7.5-3.357 7.5-7.5v-1.616c10.01-1.632 17.682-10.314 17.682-20.778z" fill="#1ec480"/></g></g><g><g><path d="m250.879 79.116c-1.919 0-3.839-.732-5.304-2.196l-6.073-6.074-6.072 6.073c-2.93 2.93-7.679 2.929-10.606.001-2.93-2.929-2.93-7.678-.001-10.606l11.376-11.377c1.406-1.407 3.314-2.197 5.304-2.197s3.896.79 5.304 2.196l11.377 11.377c2.929 2.93 2.929 7.678 0 10.607-1.466 1.464-3.386 2.196-5.305 2.196z" fill="#fcb44d"/></g><g><path d="m250.879 114.641c-1.919 0-3.839-.732-5.304-2.196l-6.073-6.074-6.072 6.073c-2.93 2.93-7.679 2.929-10.606.001-2.93-2.929-2.93-7.678-.001-10.606l11.376-11.377c1.406-1.407 3.314-2.197 5.304-2.197s3.896.79 5.304 2.196l11.377 11.377c2.929 2.93 2.929 7.678 0 10.607-1.466 1.463-3.386 2.196-5.305 2.196z" fill="#fcb44d"/></g><g><path d="m250.879 150.165c-1.919 0-3.839-.732-5.304-2.196l-6.073-6.074-6.072 6.073c-2.93 2.93-7.679 2.929-10.606.001-2.93-2.929-2.93-7.678-.001-10.606l11.376-11.377c1.406-1.407 3.314-2.197 5.304-2.197s3.896.79 5.304 2.196l11.377 11.377c2.929 2.93 2.929 7.678 0 10.607-1.466 1.464-3.386 2.196-5.305 2.196z" fill="#fcb44d"/></g></g></g></g></svg>