<svg id="Capa_1" enable-background="new 0 0 512 512" height="512" viewBox="0 0 512 512" width="512" xmlns="http://www.w3.org/2000/svg"><g><g><g><path d="m483.984 280.239h-189.517c-5.951 0-10.776-4.824-10.776-10.776v-19.092c0-5.951 4.824-10.776 10.776-10.776h189.516c5.951 0 10.776 4.824 10.776 10.776v19.092c0 5.951-4.824 10.776-10.775 10.776z" fill="#f98824"/><path d="m494.759 250.373v19.094c0 5.948-4.827 10.776-10.776 10.776h-29.062c5.948 0 10.776-4.827 10.776-10.776v-19.094c0-5.959-4.827-10.776-10.776-10.776h29.062c5.949.001 10.776 4.817 10.776 10.776z" fill="#f2671f"/><g><g><path d="m320.479 239.6v15.123c0 4.265-3.461 7.726-7.726 7.726s-7.726-3.461-7.726-7.726v-15.123z" fill="#e2571a"/></g><g><path d="m396.949 239.6v15.123c0 4.265-3.462 7.726-7.726 7.726-4.265 0-7.726-3.461-7.726-7.726v-15.123z" fill="#e2571a"/></g><g><path d="m473.42 239.6v15.123c0 4.265-3.451 7.726-7.726 7.726-4.265 0-7.726-3.461-7.726-7.726v-15.123z" fill="#e2571a"/></g></g><g><g><path d="m358.719 239.6v15.123c0 4.265-3.461 7.726-7.726 7.726-4.275 0-7.726-3.461-7.726-7.726v-15.123z" fill="#e2571a"/></g><g><path d="m435.19 239.6v15.123c0 4.265-3.461 7.726-7.726 7.726s-7.726-3.461-7.726-7.726v-15.123z" fill="#e2571a"/></g></g></g><g><path d="m501.224 320.886h-189.516c-5.951 0-10.776-4.824-10.776-10.776v-19.092c0-5.951 4.824-10.776 10.776-10.776h189.516c5.951 0 10.776 4.824 10.776 10.776v19.092c0 5.952-4.824 10.776-10.776 10.776z" fill="#fca62f"/><path d="m512 291.021v19.094c0 5.948-4.827 10.776-10.776 10.776h-29.062c5.948 0 10.776-4.827 10.776-10.776v-19.094c0-5.959-4.827-10.776-10.776-10.776h29.062c5.948 0 10.776 4.817 10.776 10.776z" fill="#f98824"/><g><g><path d="m337.724 280.24v15.133c0 4.265-3.462 7.726-7.726 7.726-4.275 0-7.726-3.461-7.726-7.726v-15.133z" fill="#ed7720"/></g><g><path d="m414.195 280.24v15.133c0 4.265-3.462 7.726-7.726 7.726-4.265 0-7.726-3.461-7.726-7.726v-15.133z" fill="#ed7720"/></g><g><path d="m490.665 280.24v15.133c0 4.265-3.462 7.726-7.726 7.726-4.265 0-7.726-3.461-7.726-7.726v-15.133z" fill="#ed7720"/></g></g><g><g><path d="m375.954 280.24v15.133c0 4.265-3.461 7.726-7.726 7.726s-7.726-3.461-7.726-7.726v-15.133z" fill="#ed7720"/></g><g><path d="m452.425 280.24v15.133c0 4.265-3.451 7.726-7.726 7.726-4.265 0-7.726-3.461-7.726-7.726v-15.133z" fill="#ed7720"/></g></g></g><g><path d="m485.42 361.534h-189.516c-5.951 0-10.776-4.824-10.776-10.776v-19.092c0-5.951 4.824-10.776 10.776-10.776h189.516c5.951 0 10.776 4.824 10.776 10.776v19.092c0 5.951-4.824 10.776-10.776 10.776z" fill="#f98824"/><path d="m496.196 331.668v19.094c0 5.948-4.827 10.776-10.776 10.776h-29.062c5.948 0 10.776-4.827 10.776-10.776v-19.094c0-5.959-4.827-10.776-10.776-10.776h29.062c5.948.001 10.776 4.817 10.776 10.776z" fill="#f2671f"/><g><g><path d="m321.911 320.891v15.133c0 4.265-3.451 7.726-7.726 7.726-4.265 0-7.726-3.461-7.726-7.726v-15.133z" fill="#e2571a"/></g><g><path d="m398.392 320.891v15.133c0 4.265-3.461 7.726-7.726 7.726-4.275 0-7.726-3.461-7.726-7.726v-15.133z" fill="#e2571a"/></g><g><path d="m474.862 320.891v15.133c0 4.265-3.461 7.726-7.726 7.726s-7.726-3.461-7.726-7.726v-15.133z" fill="#e2571a"/></g></g><g><g><path d="m360.151 320.891v15.133c0 4.265-3.461 7.726-7.726 7.726s-7.726-3.461-7.726-7.726v-15.133z" fill="#e2571a"/></g><g><path d="m436.622 320.891v15.133c0 4.265-3.451 7.726-7.726 7.726-4.265 0-7.726-3.461-7.726-7.726v-15.133z" fill="#e2571a"/></g></g></g><g><path d="m471.053 402.181h-189.516c-5.951 0-10.776-4.824-10.776-10.776v-19.092c0-5.951 4.824-10.776 10.776-10.776h189.516c5.951 0 10.776 4.824 10.776 10.776v19.092c0 5.952-4.825 10.776-10.776 10.776z" fill="#fca62f"/><path d="m481.828 372.316v19.094c0 5.948-4.827 10.776-10.776 10.776h-29.062c5.948 0 10.776-4.827 10.776-10.776v-19.094c0-5.959-4.827-10.776-10.776-10.776h29.062c5.949 0 10.776 4.817 10.776 10.776z" fill="#f98824"/><g><g><path d="m307.55 361.542v15.123c0 4.265-3.461 7.726-7.726 7.726s-7.726-3.461-7.726-7.726v-15.123z" fill="#ed7720"/></g><g><path d="m384.021 361.542v15.123c0 4.265-3.462 7.726-7.726 7.726-4.265 0-7.726-3.461-7.726-7.726v-15.123z" fill="#ed7720"/></g><g><path d="m460.491 361.542v15.123c0 4.265-3.451 7.726-7.726 7.726-4.265 0-7.726-3.461-7.726-7.726v-15.123z" fill="#ed7720"/></g></g><g><g><path d="m345.78 361.542v15.123c0 4.265-3.451 7.726-7.726 7.726-4.265 0-7.726-3.461-7.726-7.726v-15.123z" fill="#ed7720"/></g><g><path d="m422.261 361.542v15.123c0 4.265-3.461 7.726-7.726 7.726-4.275 0-7.726-3.461-7.726-7.726v-15.123z" fill="#ed7720"/></g></g></g><g><path d="m453.812 117.651h-189.516c-5.951 0-10.775-4.824-10.775-10.776v-19.092c0-5.951 4.824-10.776 10.775-10.776h189.516c5.951 0 10.776 4.824 10.776 10.776v19.092c0 5.952-4.825 10.776-10.776 10.776z" fill="#f98824"/><path d="m464.588 87.786v19.094c0 5.948-4.827 10.776-10.776 10.776h-29.062c5.948 0 10.776-4.827 10.776-10.776v-19.094c0-5.959-4.827-10.776-10.776-10.776h29.062c5.948 0 10.776 4.817 10.776 10.776z" fill="#f2671f"/><g><g><path d="m290.305 77.006v15.133c0 4.265-3.451 7.726-7.726 7.726-4.265 0-7.726-3.461-7.726-7.726v-15.133z" fill="#e2571a"/></g><g><path d="m366.786 77.006v15.133c0 4.265-3.462 7.726-7.726 7.726-4.275 0-7.726-3.461-7.726-7.726v-15.133z" fill="#e2571a"/></g><g><path d="m443.256 77.006v15.133c0 4.265-3.462 7.726-7.726 7.726-4.275 0-7.726-3.461-7.726-7.726v-15.133z" fill="#e2571a"/></g></g><g><g><path d="m328.545 77.006v15.133c0 4.265-3.461 7.726-7.726 7.726s-7.726-3.461-7.726-7.726v-15.133z" fill="#e2571a"/></g><g><path d="m405.016 77.006v15.133c0 4.265-3.461 7.726-7.726 7.726s-7.726-3.461-7.726-7.726v-15.133z" fill="#e2571a"/></g></g></g><g><path d="m479.673 158.298h-189.516c-5.951 0-10.776-4.824-10.776-10.776v-19.092c0-5.951 4.824-10.776 10.776-10.776h189.516c5.951 0 10.776 4.824 10.776 10.776v19.092c0 5.952-4.824 10.776-10.776 10.776z" fill="#fca62f"/><path d="m490.449 128.433v19.094c0 5.948-4.827 10.776-10.776 10.776h-29.062c5.948 0 10.776-4.827 10.776-10.776v-19.094c0-5.959-4.827-10.776-10.776-10.776h29.062c5.948.001 10.776 4.817 10.776 10.776z" fill="#f98824"/><g><g><path d="m316.173 117.657v15.123c0 4.275-3.461 7.726-7.726 7.726-4.275 0-7.726-3.451-7.726-7.726v-15.123z" fill="#ed7720"/></g><g><path d="m392.643 117.657v15.123c0 4.275-3.461 7.726-7.726 7.726s-7.726-3.451-7.726-7.726v-15.123z" fill="#ed7720"/></g><g><path d="m469.114 117.657v15.123c0 4.275-3.461 7.726-7.726 7.726s-7.726-3.451-7.726-7.726v-15.123z" fill="#ed7720"/></g></g><g><g><path d="m354.403 117.657v15.123c0 4.275-3.451 7.726-7.726 7.726-4.265 0-7.726-3.451-7.726-7.726v-15.123z" fill="#ed7720"/></g><g><path d="m430.873 117.657v15.123c0 4.275-3.451 7.726-7.726 7.726-4.265 0-7.726-3.451-7.726-7.726v-15.123z" fill="#ed7720"/></g></g></g><g><path d="m455.249 198.946h-189.516c-5.951 0-10.775-4.824-10.775-10.776v-19.092c0-5.951 4.824-10.776 10.775-10.776h189.516c5.951 0 10.776 4.824 10.776 10.776v19.092c-.001 5.952-4.825 10.776-10.776 10.776z" fill="#f98824"/><path d="m466.024 169.081v19.094c0 5.948-4.827 10.776-10.776 10.776h-29.062c5.948 0 10.776-4.827 10.776-10.776v-19.094c0-5.959-4.827-10.776-10.776-10.776h29.062c5.949 0 10.776 4.817 10.776 10.776z" fill="#f2671f"/><g><g><path d="m291.747 158.308v15.123c0 4.265-3.461 7.726-7.726 7.726-4.275 0-7.726-3.461-7.726-7.726v-15.123z" fill="#e2571a"/></g><g><path d="m368.218 158.308v15.123c0 4.265-3.461 7.726-7.726 7.726s-7.726-3.461-7.726-7.726v-15.123z" fill="#e2571a"/></g><g><path d="m444.688 158.308v15.123c0 4.265-3.461 7.726-7.726 7.726s-7.726-3.461-7.726-7.726v-15.123z" fill="#e2571a"/></g></g><g><g><path d="m329.977 158.308v15.123c0 4.265-3.451 7.726-7.726 7.726-4.265 0-7.726-3.461-7.726-7.726v-15.123z" fill="#e2571a"/></g><g><path d="m406.458 158.308v15.123c0 4.265-3.462 7.726-7.726 7.726-4.275 0-7.726-3.461-7.726-7.726v-15.123z" fill="#e2571a"/></g></g></g><g><path d="m471.053 239.593h-189.516c-5.951 0-10.776-4.824-10.776-10.776v-19.092c0-5.951 4.824-10.776 10.776-10.776h189.516c5.951 0 10.776 4.824 10.776 10.776v19.092c0 5.952-4.825 10.776-10.776 10.776z" fill="#fca62f"/><path d="m481.828 209.728v19.094c0 5.948-4.827 10.776-10.776 10.776h-29.062c5.948 0 10.776-4.827 10.776-10.776v-19.094c0-5.959-4.827-10.776-10.776-10.776h29.062c5.949.001 10.776 4.817 10.776 10.776z" fill="#f98824"/><g><g><path d="m307.55 198.949v15.133c0 4.265-3.461 7.726-7.726 7.726s-7.726-3.462-7.726-7.726v-15.133z" fill="#ed7720"/></g><g><path d="m384.021 198.949v15.133c0 4.265-3.462 7.726-7.726 7.726-4.265 0-7.726-3.462-7.726-7.726v-15.133z" fill="#ed7720"/></g><g><path d="m460.491 198.949v15.133c0 4.265-3.451 7.726-7.726 7.726-4.265 0-7.726-3.462-7.726-7.726v-15.133z" fill="#ed7720"/></g></g><g><g><path d="m345.78 198.949v15.133c0 4.265-3.451 7.726-7.726 7.726-4.265 0-7.726-3.462-7.726-7.726v-15.133z" fill="#ed7720"/></g><g><path d="m422.261 198.949v15.133c0 4.265-3.461 7.726-7.726 7.726-4.275 0-7.726-3.462-7.726-7.726v-15.133z" fill="#ed7720"/></g></g></g><g><path d="m485.42 442.829h-189.516c-5.951 0-10.776-4.824-10.776-10.776v-19.092c0-5.951 4.824-10.776 10.776-10.776h189.516c5.951 0 10.776 4.824 10.776 10.776v19.092c0 5.951-4.824 10.776-10.776 10.776z" fill="#f98824"/><path d="m496.196 412.963v19.094c0 5.948-4.827 10.776-10.776 10.776h-29.062c5.948 0 10.776-4.827 10.776-10.776v-19.094c0-5.959-4.827-10.776-10.776-10.776h29.062c5.948.001 10.776 4.817 10.776 10.776z" fill="#f2671f"/><g><g><path d="m321.911 402.183v15.133c0 4.265-3.451 7.726-7.726 7.726-4.265 0-7.726-3.462-7.726-7.726v-15.133z" fill="#e2571a"/></g><g><path d="m398.392 402.183v15.133c0 4.265-3.461 7.726-7.726 7.726-4.275 0-7.726-3.462-7.726-7.726v-15.133z" fill="#e2571a"/></g><g><path d="m474.862 402.183v15.133c0 4.265-3.461 7.726-7.726 7.726s-7.726-3.462-7.726-7.726v-15.133z" fill="#e2571a"/></g></g><g><g><path d="m360.151 402.183v15.133c0 4.265-3.461 7.726-7.726 7.726s-7.726-3.462-7.726-7.726v-15.133z" fill="#e2571a"/></g><g><path d="m436.622 402.183v15.133c0 4.265-3.451 7.726-7.726 7.726-4.265 0-7.726-3.462-7.726-7.726v-15.133z" fill="#e2571a"/></g></g></g><g><path d="m485.42 483.476h-189.516c-5.951 0-10.776-4.824-10.776-10.776v-19.092c0-5.951 4.824-10.776 10.776-10.776h189.516c5.951 0 10.776 4.824 10.776 10.776v19.092c0 5.952-4.824 10.776-10.776 10.776z" fill="#fca62f"/><path d="m496.196 453.611v19.094c0 5.948-4.827 10.776-10.776 10.776h-29.062c5.948 0 10.776-4.827 10.776-10.776v-19.094c0-5.959-4.827-10.776-10.776-10.776h29.062c5.948 0 10.776 4.817 10.776 10.776z" fill="#f98824"/><g><g><path d="m321.911 442.834v15.123c0 4.275-3.451 7.726-7.726 7.726-4.265 0-7.726-3.451-7.726-7.726v-15.123z" fill="#ed7720"/></g><g><path d="m398.392 442.834v15.123c0 4.275-3.461 7.726-7.726 7.726-4.275 0-7.726-3.451-7.726-7.726v-15.123z" fill="#ed7720"/></g><g><path d="m474.862 442.834v15.123c0 4.275-3.461 7.726-7.726 7.726s-7.726-3.451-7.726-7.726v-15.123z" fill="#ed7720"/></g></g><g><g><path d="m360.151 442.834v15.123c0 4.275-3.461 7.726-7.726 7.726s-7.726-3.451-7.726-7.726v-15.123z" fill="#ed7720"/></g><g><path d="m436.622 442.834v15.123c0 4.275-3.451 7.726-7.726 7.726-4.265 0-7.726-3.451-7.726-7.726v-15.123z" fill="#ed7720"/></g></g></g></g><g><g><circle cx="270.761" cy="377.939" fill="#fca62f" r="105.534"/><path d="m376.295 377.943c0 58.285-47.253 105.538-105.537 105.538-11.031 0-21.677-1.686-31.672-4.831 53.454-2.529 95.999-46.638 95.999-100.707 0-54.051-42.528-98.159-95.946-100.724 9.995-3.127 20.605-4.813 31.619-4.813 58.284 0 105.537 47.252 105.537 105.537z" fill="#f98824"/></g><circle cx="270.761" cy="377.94" fill="#fee265" r="73.711"/><path d="m344.471 377.943c0 40.709-33.004 73.713-73.713 73.713-7.705 0-15.14-1.178-22.121-3.374 37.335-1.767 67.051-32.575 67.051-70.339 0-37.752-29.703-68.56-67.014-70.351 6.981-2.184 14.392-3.362 22.084-3.362 40.709 0 73.713 33.004 73.713 73.713z" fill="#fdd330"/></g><g><g><g><circle cx="118.464" cy="134.054" fill="#fca62f" r="105.534"/><path d="m223.997 134.058c0 58.285-47.253 105.538-105.537 105.538-11.031 0-21.677-1.686-31.672-4.831 53.454-2.529 95.999-46.638 95.999-100.707 0-54.051-42.528-98.159-95.946-100.724 9.995-3.127 20.605-4.813 31.619-4.813 58.285 0 105.537 47.253 105.537 105.537z" fill="#f98824"/></g><circle cx="118.464" cy="134.055" fill="#fee265" r="73.711"/><path d="m192.174 134.058c0 40.709-33.004 73.713-73.713 73.713-7.705 0-15.14-1.178-22.121-3.374 37.335-1.767 67.051-32.575 67.051-70.339 0-37.752-29.703-68.56-67.014-70.351 6.981-2.184 14.392-3.362 22.084-3.362 40.709 0 73.713 33.004 73.713 73.713z" fill="#fdd330"/><g fill="#e8b125"><path d="m298.99 394.307c0-12.94-10.527-23.467-23.468-23.467h-9.521c-4.42 0-8.015-3.596-8.015-8.015s3.596-8.015 8.015-8.015h9.521c2.667 0 5.154 1.323 6.651 3.539 2.388 3.535 7.192 4.465 10.728 2.076 3.535-2.389 4.465-7.192 2.076-10.727-3.815-5.647-9.834-9.307-16.49-10.152v-3.938c0-4.267-3.459-7.726-7.726-7.726s-7.726 3.459-7.726 7.726v3.943c-11.544 1.463-20.502 11.339-20.502 23.274 0 12.94 10.528 23.467 23.468 23.467h9.521c4.42 0 8.015 3.596 8.015 8.015s-3.596 8.015-8.015 8.015h-9.521c-3.229 0-6.13-1.923-7.388-4.898-1.663-3.93-6.198-5.77-10.126-4.106-3.93 1.662-5.768 6.196-4.106 10.126 3.292 7.782 10.427 13.09 18.655 14.131v2.696c0 4.267 3.459 7.726 7.726 7.726s7.726-3.459 7.726-7.726v-2.69c11.544-1.464 20.502-11.339 20.502-23.274z"/><path d="m123.225 126.955h-9.522c-4.419 0-8.015-3.596-8.015-8.015s3.596-8.015 8.015-8.015h9.522c2.668 0 5.153 1.323 6.65 3.539 2.388 3.536 7.191 4.465 10.727 2.077s4.466-7.191 2.077-10.727c-3.814-5.647-9.834-9.307-16.489-10.152v-3.938c0-4.267-3.459-7.726-7.726-7.726s-7.726 3.459-7.726 7.726v3.943c-11.544 1.463-20.502 11.339-20.502 23.274 0 12.94 10.527 23.467 23.467 23.467h9.522c4.42 0 8.015 3.596 8.015 8.015 0 4.42-3.596 8.015-8.015 8.015h-9.522c-3.229 0-6.13-1.923-7.388-4.898-1.663-3.929-6.197-5.768-10.126-4.106-3.93 1.662-5.768 6.196-4.106 10.126 3.292 7.782 10.427 13.09 18.655 14.131v2.696c0 4.267 3.459 7.726 7.726 7.726s7.726-3.459 7.726-7.726v-2.691c11.544-1.463 20.502-11.339 20.502-23.274.001-12.94-10.527-23.467-23.467-23.467z"/></g></g><g><g><path d="m230.463 280.239h-189.516c-5.951 0-10.776-4.824-10.776-10.776v-19.092c0-5.951 4.824-10.776 10.776-10.776h189.516c5.951 0 10.776 4.824 10.776 10.776v19.092c0 5.951-4.825 10.776-10.776 10.776z" fill="#f98824"/><path d="m241.239 250.373v19.094c0 5.948-4.827 10.776-10.776 10.776h-29.062c5.948 0 10.776-4.827 10.776-10.776v-19.094c0-5.959-4.827-10.776-10.776-10.776h29.062c5.948.001 10.776 4.817 10.776 10.776z" fill="#f2671f"/><g><g><path d="m66.962 239.6v15.123c0 4.265-3.461 7.726-7.726 7.726-4.275 0-7.726-3.461-7.726-7.726v-15.123z" fill="#e2571a"/></g><g><path d="m143.432 239.6v15.123c0 4.265-3.461 7.726-7.726 7.726s-7.726-3.461-7.726-7.726v-15.123z" fill="#e2571a"/></g><g><path d="m219.902 239.6v15.123c0 4.265-3.461 7.726-7.726 7.726s-7.726-3.461-7.726-7.726v-15.123z" fill="#e2571a"/></g></g><g><g><path d="m105.192 239.6v15.123c0 4.265-3.461 7.726-7.726 7.726s-7.726-3.461-7.726-7.726v-15.123z" fill="#e2571a"/></g><g><path d="m181.672 239.6v15.123c0 4.265-3.461 7.726-7.726 7.726-4.275 0-7.726-3.461-7.726-7.726v-15.123z" fill="#e2571a"/></g></g></g><g><path d="m230.463 320.886h-189.516c-5.951 0-10.776-4.824-10.776-10.776v-19.092c0-5.951 4.824-10.776 10.776-10.776h189.516c5.951 0 10.776 4.824 10.776 10.776v19.092c0 5.952-4.825 10.776-10.776 10.776z" fill="#fca62f"/><path d="m241.239 291.021v19.094c0 5.948-4.827 10.776-10.776 10.776h-29.062c5.948 0 10.776-4.827 10.776-10.776v-19.094c0-5.959-4.827-10.776-10.776-10.776h29.062c5.948 0 10.776 4.817 10.776 10.776z" fill="#f98824"/><g><g><path d="m66.962 280.24v15.133c0 4.265-3.461 7.726-7.726 7.726-4.275 0-7.726-3.461-7.726-7.726v-15.133z" fill="#ed7720"/></g><g><path d="m143.432 280.24v15.133c0 4.265-3.461 7.726-7.726 7.726s-7.726-3.461-7.726-7.726v-15.133z" fill="#ed7720"/></g><g><path d="m219.902 280.24v15.133c0 4.265-3.461 7.726-7.726 7.726s-7.726-3.461-7.726-7.726v-15.133z" fill="#ed7720"/></g></g><g><g><path d="m105.192 280.24v15.133c0 4.265-3.461 7.726-7.726 7.726s-7.726-3.461-7.726-7.726v-15.133z" fill="#ed7720"/></g><g><path d="m181.672 280.24v15.133c0 4.265-3.461 7.726-7.726 7.726-4.275 0-7.726-3.461-7.726-7.726v-15.133z" fill="#ed7720"/></g></g></g><g><path d="m214.659 361.534h-189.516c-5.951 0-10.776-4.824-10.776-10.776v-19.092c0-5.951 4.824-10.776 10.776-10.776h189.516c5.951 0 10.776 4.824 10.776 10.776v19.092c0 5.951-4.825 10.776-10.776 10.776z" fill="#f98824"/><path d="m225.434 331.668v19.094c0 5.948-4.827 10.776-10.776 10.776h-29.062c5.948 0 10.776-4.827 10.776-10.776v-19.094c0-5.959-4.827-10.776-10.776-10.776h29.062c5.949.001 10.776 4.817 10.776 10.776z" fill="#f2671f"/><g><g><path d="m51.159 320.891v15.133c0 4.265-3.461 7.726-7.726 7.726-4.275 0-7.726-3.461-7.726-7.726v-15.133z" fill="#e2571a"/></g><g><path d="m127.629 320.891v15.133c0 4.265-3.461 7.726-7.726 7.726s-7.726-3.461-7.726-7.726v-15.133z" fill="#e2571a"/></g><g><path d="m204.099 320.891v15.133c0 4.265-3.461 7.726-7.726 7.726s-7.726-3.461-7.726-7.726v-15.133z" fill="#e2571a"/></g></g><g><g><path d="m89.389 320.891v15.133c0 4.265-3.461 7.726-7.726 7.726s-7.726-3.461-7.726-7.726v-15.133z" fill="#e2571a"/></g><g><path d="m165.859 320.891v15.133c0 4.265-3.451 7.726-7.726 7.726-4.265 0-7.726-3.461-7.726-7.726v-15.133z" fill="#e2571a"/></g></g></g><g><path d="m200.292 402.181h-189.516c-5.952 0-10.776-4.824-10.776-10.775v-19.092c0-5.951 4.824-10.776 10.776-10.776h189.516c5.951 0 10.776 4.824 10.776 10.776v19.092c-.001 5.951-4.825 10.775-10.776 10.775z" fill="#fca62f"/><path d="m211.067 372.316v19.094c0 5.948-4.827 10.776-10.776 10.776h-29.061c5.948 0 10.776-4.827 10.776-10.776v-19.094c0-5.959-4.827-10.776-10.776-10.776h29.062c5.948 0 10.775 4.817 10.775 10.776z" fill="#f98824"/><g><g><path d="m36.788 361.542v15.123c0 4.265-3.461 7.726-7.726 7.726s-7.726-3.461-7.726-7.726v-15.123z" fill="#ed7720"/></g><g><path d="m113.258 361.542v15.123c0 4.265-3.461 7.726-7.726 7.726s-7.726-3.461-7.726-7.726v-15.123z" fill="#ed7720"/></g><g><path d="m189.728 361.542v15.123c0 4.265-3.451 7.726-7.726 7.726-4.265 0-7.726-3.461-7.726-7.726v-15.123z" fill="#ed7720"/></g></g><g><g><path d="m75.028 361.542v15.123c0 4.265-3.461 7.726-7.726 7.726-4.275 0-7.726-3.461-7.726-7.726v-15.123z" fill="#ed7720"/></g><g><path d="m151.498 361.542v15.123c0 4.265-3.461 7.726-7.726 7.726s-7.726-3.461-7.726-7.726v-15.123z" fill="#ed7720"/></g></g></g><g><path d="m214.659 442.829h-189.516c-5.951 0-10.776-4.824-10.776-10.776v-19.092c0-5.951 4.824-10.776 10.776-10.776h189.516c5.951 0 10.776 4.824 10.776 10.776v19.092c0 5.951-4.825 10.776-10.776 10.776z" fill="#f98824"/><path d="m225.434 412.963v19.094c0 5.948-4.827 10.776-10.776 10.776h-29.062c5.948 0 10.776-4.827 10.776-10.776v-19.094c0-5.959-4.827-10.776-10.776-10.776h29.062c5.949.001 10.776 4.817 10.776 10.776z" fill="#f2671f"/><g><g><path d="m51.159 402.183v15.133c0 4.265-3.461 7.726-7.726 7.726-4.275 0-7.726-3.462-7.726-7.726v-15.133z" fill="#e2571a"/></g><g><path d="m127.629 402.183v15.133c0 4.265-3.461 7.726-7.726 7.726s-7.726-3.462-7.726-7.726v-15.133z" fill="#e2571a"/></g><g><path d="m204.099 402.183v15.133c0 4.265-3.461 7.726-7.726 7.726s-7.726-3.462-7.726-7.726v-15.133z" fill="#e2571a"/></g></g><g><g><path d="m89.389 402.183v15.133c0 4.265-3.461 7.726-7.726 7.726s-7.726-3.462-7.726-7.726v-15.133z" fill="#e2571a"/></g><g><path d="m165.859 402.183v15.133c0 4.265-3.451 7.726-7.726 7.726-4.265 0-7.726-3.462-7.726-7.726v-15.133z" fill="#e2571a"/></g></g></g><g><path d="m214.659 483.476h-189.516c-5.951 0-10.776-4.824-10.776-10.776v-19.092c0-5.951 4.824-10.776 10.776-10.776h189.516c5.951 0 10.776 4.824 10.776 10.776v19.092c0 5.952-4.825 10.776-10.776 10.776z" fill="#fca62f"/><path d="m225.434 453.611v19.094c0 5.948-4.827 10.776-10.776 10.776h-29.062c5.948 0 10.776-4.827 10.776-10.776v-19.094c0-5.959-4.827-10.776-10.776-10.776h29.062c5.949 0 10.776 4.817 10.776 10.776z" fill="#f98824"/><g><g><path d="m51.159 442.834v15.123c0 4.275-3.461 7.726-7.726 7.726-4.275 0-7.726-3.451-7.726-7.726v-15.123z" fill="#ed7720"/></g><g><path d="m127.629 442.834v15.123c0 4.275-3.461 7.726-7.726 7.726s-7.726-3.451-7.726-7.726v-15.123z" fill="#ed7720"/></g><g><path d="m204.099 442.834v15.123c0 4.275-3.461 7.726-7.726 7.726s-7.726-3.451-7.726-7.726v-15.123z" fill="#ed7720"/></g></g><g><g><path d="m89.389 442.834v15.123c0 4.275-3.461 7.726-7.726 7.726s-7.726-3.451-7.726-7.726v-15.123z" fill="#ed7720"/></g><g><path d="m165.859 442.834v15.123c0 4.275-3.451 7.726-7.726 7.726-4.265 0-7.726-3.451-7.726-7.726v-15.123z" fill="#ed7720"/></g></g></g></g></g></g></svg>