<svg id="Capa_1" enable-background="new 0 0 512 512" height="512" viewBox="0 0 512 512" width="512" xmlns="http://www.w3.org/2000/svg"><g><g><g><g><g><g><g><g><g><g><g><path d="m294.503 81.402v313.529c0 5.932-4.819 10.742-10.742 10.742h-268.767c-5.923 0-10.742-4.81-10.742-10.742v-384.189c0-5.932 4.819-10.742 10.742-10.742h198.107z" fill="#eaf6ff"/><path d="m294.503 81.402v313.529c0 5.932-4.819 10.742-10.742 10.742h-33.747c5.932 0 10.742-4.81 10.742-10.742v-347.276z" fill="#d9ecfd"/></g></g><path d="m213.101 70.66v-70.66l81.402 81.402h-70.66c-5.924 0-10.742-4.81-10.742-10.742z" fill="#b5dbfd"/></g></g></g><g><path d="m51.404 61.493c-1.977 0-3.955-.755-5.463-2.263l-12.225-12.223c-3.018-3.017-3.018-7.909-.001-10.927 3.018-3.018 7.91-3.017 10.927-.001l6.762 6.761 6.76-6.761c3.018-3.016 7.909-3.016 10.928 0 3.017 3.018 3.017 7.909 0 10.928l-12.225 12.223c-1.509 1.508-3.487 2.263-5.463 2.263z" fill="#fb4a59"/></g></g></g></g></g><g><g><g><g><circle cx="113.633" cy="154.245" fill="#23f1a8" r="67.183"/><path d="m180.816 154.248c0 37.104-30.081 67.186-67.186 67.186-7.023 0-13.799-1.073-20.162-3.075 34.029-1.61 61.113-29.69 61.113-64.11 0-34.409-27.073-62.489-61.08-64.121 6.363-1.99 13.117-3.064 20.129-3.064 37.105-.002 67.186 30.079 67.186 67.184z" fill="#26d192"/><path d="m140.046 169.163c0-12.171-9.902-22.073-22.074-22.073h-8.678c-3.651 0-6.621-2.971-6.621-6.622s2.97-6.621 6.621-6.621h8.678c2.203 0 4.258 1.094 5.495 2.925 2.388 3.536 7.191 4.465 10.727 2.077s4.466-7.191 2.077-10.727c-3.473-5.141-8.891-8.524-14.912-9.456v-3.003c0-4.268-3.459-7.726-7.726-7.726-4.268 0-7.726 3.459-7.726 7.726v3.02c-10.565 1.638-18.686 10.769-18.686 21.786 0 12.172 9.902 22.074 22.073 22.074h8.678c3.651 0 6.622 2.97 6.622 6.621s-2.971 6.621-6.622 6.621h-8.678c-2.668 0-5.063-1.589-6.104-4.046-1.663-3.932-6.197-5.768-10.126-4.106-3.93 1.662-5.769 6.196-4.106 10.126 3.017 7.132 9.462 12.062 16.948 13.216v1.854c0 4.268 3.459 7.726 7.726 7.726 4.268 0 7.726-3.459 7.726-7.726v-1.879c10.567-1.64 18.688-10.771 18.688-21.787z" fill="#1ec480"/></g><g><g id="XMLID_961_"><path d="m225.881 161.994c-.008 0-.015 0-.023 0l-11.819-.035c-4.267-.013-7.716-3.482-7.703-7.749.013-4.259 3.47-7.703 7.726-7.703h.023l11.819.035c4.267.013 7.716 3.482 7.703 7.749-.012 4.258-3.469 7.703-7.726 7.703z" fill="#c4e1ff"/></g><g id="XMLID_959_"><path d="m209.032 132.419c-2.627 0-5.187-1.34-6.636-3.758-2.192-3.66-1.002-8.405 2.659-10.599l10.253-6.141c3.659-2.192 8.404-1.002 10.599 2.659 2.192 3.66 1.002 8.405-2.659 10.599l-10.253 6.141c-1.242.744-2.612 1.099-3.963 1.099z" fill="#c4e1ff"/></g><g id="XMLID_957_"><path d="m219.076 197.672c-1.366 0-2.748-.362-4.002-1.123l-10.218-6.202c-3.648-2.214-4.81-6.966-2.596-10.614s6.965-4.81 10.614-2.596l10.218 6.202c3.648 2.214 4.81 6.966 2.596 10.614-1.454 2.395-4.002 3.719-6.612 3.719z" fill="#c4e1ff"/></g></g></g></g><g><g><path d="m124.548 282.9h-78.098c-4.268 0-7.726-3.459-7.726-7.726s3.459-7.726 7.726-7.726h78.099c4.268 0 7.726 3.459 7.726 7.726s-3.459 7.726-7.727 7.726z" fill="#c4e1ff"/></g><g><path d="m184.163 314.639h-16.637c-4.268 0-7.726-3.459-7.726-7.726s3.459-7.726 7.726-7.726h16.637c4.268 0 7.726 3.459 7.726 7.726s-3.458 7.726-7.726 7.726z" fill="#c4e1ff"/></g><g><g><path d="m99.35 314.639h-52.9c-4.268 0-7.726-3.459-7.726-7.726s3.459-7.726 7.726-7.726h52.9c4.268 0 7.726 3.459 7.726 7.726s-3.458 7.726-7.726 7.726z" fill="#c4e1ff"/></g><g><path d="m141.74 314.639h-15.246c-4.268 0-7.726-3.459-7.726-7.726s3.459-7.726 7.726-7.726h15.246c4.268 0 7.726 3.459 7.726 7.726s-3.459 7.726-7.726 7.726z" fill="#c4e1ff"/></g><g><path d="m184.163 346.376h-137.713c-4.268 0-7.726-3.459-7.726-7.726s3.459-7.726 7.726-7.726h137.713c4.268 0 7.726 3.459 7.726 7.726s-3.458 7.726-7.726 7.726z" fill="#c4e1ff"/></g></g></g></g></g><g><g><path d="m507.746 276.109v219.779c0 8.901-7.211 16.112-16.112 16.112h-262.419c-8.901 0-16.112-7.211-16.112-16.112v-219.779z" fill="#ffd2d6"/><path d="m507.746 276.109v219.779c0 8.891-7.222 16.112-16.112 16.112h-38.261c8.89 0 16.112-7.222 16.112-16.112v-219.779z" fill="#fcb5ba"/><path d="m507.748 246.719v34.544h-294.646v-34.544c0-8.896 7.21-16.117 16.117-16.117h262.412c8.896 0 16.117 7.221 16.117 16.117z" fill="#fb4a59"/><path d="m507.748 246.719v34.544h-38.261v-34.544c0-8.896-7.22-16.117-16.117-16.117h38.261c8.896 0 16.117 7.221 16.117 16.117z" fill="#f82f40"/></g><path d="m258.578 471.216h111.914c2.845 0 5.151-2.306 5.151-5.151v-35.55h86.628c2.845 0 5.151-2.306 5.151-5.151v-96.348c0-2.845-2.306-5.151-5.151-5.151h-66.024c-2.845 0-5.151 2.306-5.151 5.151v35.55h-132.518c-2.845 0-5.151 2.306-5.151 5.151v96.348c0 2.845 2.306 5.151 5.151 5.151z" fill="#eaf6ff"/><path d="m467.424 364.571v-15.453h-30.442v-24.735c0-.175-.01-.35-.031-.515h-15.391c-.021.165-.031.34-.031.515v24.735h-30.431v15.453h30.431v25.239h-30.431v-25.239h-15.453v25.239h-30.442v-25.239h-15.453v25.239h-30.432v-25.239h-15.453v25.239h-30.442v15.453h30.442v25.25h-30.442v15.453h30.442v25.25h15.453v-25.25h30.432v25.25h15.453v-25.25h30.442v-15.453h-30.442v-25.25h30.442v25.25h15.453v-25.25h30.431v25.25h15.453v-25.25h30.442v-15.453h-30.442v-25.239zm-137.673 65.942h-30.432v-25.25h30.432z" fill="#b5dbfd"/><g><path d="m280.396 337.596h-35.529c-4.268 0-7.726-3.459-7.726-7.726 0-4.268 3.459-7.726 7.726-7.726h35.529c4.268 0 7.726 3.459 7.726 7.726s-3.459 7.726-7.726 7.726z" fill="#eda6ad"/></g><g id="XMLID_970_"><path d="m475.149 471.272c-4.268 0-7.726-3.459-7.726-7.726v-.112c0-4.268 3.459-7.726 7.726-7.726s7.726 3.459 7.726 7.726v.112c0 4.267-3.458 7.726-7.726 7.726z" fill="#eda6ad"/></g><g id="XMLID_971_"><path d="m453.172 471.272c-4.268 0-7.726-3.459-7.726-7.726v-.112c0-4.268 3.459-7.726 7.726-7.726s7.726 3.459 7.726 7.726v.112c.001 4.267-3.458 7.726-7.726 7.726z" fill="#eda6ad"/></g></g></g></svg>