<svg id="Capa_1" enable-background="new 0 0 512 512" height="512" viewBox="0 0 512 512" width="512" xmlns="http://www.w3.org/2000/svg"><g><g><g><g><path d="m184.1 234.713h108.163v277.286h-108.163z" fill="#1682ad"/><path d="m241.029 234.713h51.234v277.286h-51.234z" fill="#107295"/><g><path d="m278.49 329.801h-77.882c-4.267 0-7.726-3.459-7.726-7.726 0-4.268 3.459-7.726 7.726-7.726h77.882c4.267 0 7.726 3.459 7.726 7.726s-3.459 7.726-7.726 7.726z" fill="#086882"/></g><g><path d="m278.49 302.559h-77.882c-4.267 0-7.726-3.459-7.726-7.726s3.459-7.726 7.726-7.726h77.882c4.267 0 7.726 3.459 7.726 7.726s-3.459 7.726-7.726 7.726z" fill="#086882"/></g></g><g><path d="m467.102 109.385-127.238.041.051 29.134h127.186v41.733l-127.238.041.051 29.134h127.186v41.743l-127.238.041.051 29.133h127.186v221.314c0 5.687-4.615 10.302-10.302 10.302h-38.106l-.041-105.12-91.758.052v105.067h-38.106c-5.687 0-10.302-4.615-10.302-10.302v-428.081c0-4.327 2.689-8.211 6.737-9.735l167.82-63.202c6.799-2.565 14.062 2.462 14.062 9.725v98.98z" fill="#64b9fc"/><g fill="#31a7fb"><path d="m373.511 85.34c0 34.181-27.712 61.893-61.893 61.893-12.187 0-23.55-3.523-33.131-9.601v-64.015c0-4.327 2.689-8.211 6.737-9.735l67.013-25.239c13.032 11.341 21.274 28.061 21.274 46.697z"/><path d="m467.092 10.405v98.98l-38.065.01v-86.515c0-5.099-3.564-9.076-8.046-10.127l32.06-12.073c6.799-2.565 14.051 2.462 14.051 9.725z"/><path d="m467.092 138.559v41.733l-38.065.01v-41.743z"/><path d="m467.092 209.467v41.743l-38.065.01v-41.753z"/><path d="m429.027 280.384h38.065v221.314c0 5.687-4.615 10.302-10.302 10.302h-27.763z"/></g><path d="m423.848 511.998h-102.108v-105.076c0-2.87 2.327-5.197 5.197-5.197h91.713c2.87 0 5.197 2.327 5.197 5.197v105.076z" fill="#d4f2f6"/><g><path d="m467.093 104.227v39.479h-127.179c-2.869 0-5.197-2.328-5.197-5.197v-29.084c0-2.869 2.328-5.197 5.197-5.197h127.179z" fill="#d4f2f6"/><g fill="#a8e7ef"><path d="m370.574 104.223c-5.45 17.049-18.1 30.885-34.367 37.931-.917-.938-1.494-2.225-1.494-3.647v-29.082c0-2.874 2.328-5.202 5.202-5.202z"/><path d="m429.028 104.227h38.065v39.479h-38.065z"/></g></g><g><path d="m467.093 175.14v39.479h-127.179c-2.869 0-5.197-2.328-5.197-5.197v-29.084c0-2.869 2.328-5.197 5.197-5.197h127.179z" fill="#d4f2f6"/><path d="m429.028 175.14h38.065v39.479h-38.065z" fill="#a8e7ef"/></g><g><path d="m467.093 246.052v39.479h-127.179c-2.869 0-5.197-2.328-5.197-5.197v-29.084c0-2.869 2.328-5.197 5.197-5.197h127.179z" fill="#d4f2f6"/><path d="m429.028 246.052h38.065v39.479h-38.065z" fill="#a8e7ef"/></g></g><g><g><path d="m155.64 142.135c-4.267 0-7.726-3.459-7.726-7.726v-48.682c0-4.268 3.459-7.726 7.726-7.726s7.726 3.459 7.726 7.726v48.681c0 4.268-3.459 7.727-7.726 7.727z" fill="#6f4491"/></g><g><path d="m128.013 142.135c-4.267 0-7.726-3.459-7.726-7.726v-26.019c0-4.268 3.459-7.726 7.726-7.726s7.726 3.459 7.726 7.726v26.019c.001 4.267-3.459 7.726-7.726 7.726z" fill="#6f4491"/></g><path d="m187.786 178.407h-119.545v-36.694c0-5.741 4.654-10.395 10.395-10.395h98.756c5.741 0 10.395 4.654 10.395 10.395v36.694z" fill="#915eb2"/><path d="m187.788 141.71v36.693h-32.151v-36.693c0-5.738-4.646-10.395-10.395-10.395h32.151c5.738.001 10.395 4.657 10.395 10.395z" fill="#804ea0"/><path d="m190.306 511.998h-135.107c-5.69 0-10.302-4.612-10.302-10.302v-321.596c0-5.741 4.654-10.395 10.395-10.395h134.921c5.741 0 10.395 4.654 10.395 10.395v321.597c0 5.689-4.612 10.301-10.302 10.301z" fill="#a176bd"/><path d="m200.605 180.098v321.6c0 5.69-4.612 10.302-10.302 10.302h-26.61v-331.902c0-5.738-4.657-10.395-10.395-10.395h36.912c5.748 0 10.395 4.657 10.395 10.395z" fill="#915eb2"/></g><g><g><path d="m104.091 240.215h-23.332c-2.713 0-4.913-2.199-4.913-4.913v-23.332c0-2.713 2.199-4.913 4.913-4.913h23.332c2.713 0 4.913 2.199 4.913 4.913v23.332c0 2.713-2.2 4.913-4.913 4.913z" fill="#e5d8ec"/></g><g><path d="m164.747 240.215h-23.332c-2.713 0-4.913-2.199-4.913-4.913v-23.332c0-2.713 2.199-4.913 4.913-4.913h23.332c2.713 0 4.913 2.199 4.913 4.913v23.332c-.001 2.713-2.2 4.913-4.913 4.913z" fill="#e5d8ec"/></g></g><g><g><path d="m104.091 302.108h-23.332c-2.713 0-4.913-2.199-4.913-4.913v-23.332c0-2.713 2.199-4.913 4.913-4.913h23.332c2.713 0 4.913 2.199 4.913 4.913v23.332c0 2.714-2.2 4.913-4.913 4.913z" fill="#e5d8ec"/></g><g><path d="m164.747 302.108h-23.332c-2.713 0-4.913-2.199-4.913-4.913v-23.332c0-2.713 2.199-4.913 4.913-4.913h23.332c2.713 0 4.913 2.199 4.913 4.913v23.332c-.001 2.714-2.2 4.913-4.913 4.913z" fill="#e5d8ec"/></g></g><g><g><path d="m104.091 364.002h-23.332c-2.713 0-4.913-2.199-4.913-4.913v-23.332c0-2.713 2.199-4.913 4.913-4.913h23.332c2.713 0 4.913 2.199 4.913 4.913v23.332c0 2.713-2.2 4.913-4.913 4.913z" fill="#e5d8ec"/></g><g><path d="m164.747 364.002h-23.332c-2.713 0-4.913-2.199-4.913-4.913v-23.332c0-2.713 2.199-4.913 4.913-4.913h23.332c2.713 0 4.913 2.199 4.913 4.913v23.332c-.001 2.713-2.2 4.913-4.913 4.913z" fill="#e5d8ec"/></g></g><g><path d="m365.063 401.729h15.453v110.271h-15.453z" fill="#a8e7ef"/></g></g><g><circle cx="311.62" cy="61.891" fill="#23f1a8" r="61.891"/><path d="m373.511 61.894c0 34.181-27.712 61.893-61.893 61.893-6.469 0-12.712-.989-18.574-2.833 31.348-1.483 56.299-27.351 56.299-59.06 0-31.699-24.941-57.566-56.268-59.071 5.862-1.834 12.084-2.823 18.543-2.823 34.181.001 61.893 27.712 61.893 61.894z" fill="#26d192"/><path d="m336.561 75.634c0-11.548-9.395-20.943-20.943-20.943h-7.995c-3.028 0-5.491-2.463-5.491-5.491s2.463-5.491 5.491-5.491h7.995c1.827 0 3.531.907 4.558 2.427 2.389 3.535 7.193 4.466 10.728 2.075 3.536-2.388 4.465-7.192 2.076-10.727-3.197-4.73-8.127-7.897-13.633-8.89v-2.246c0-4.268-3.459-7.726-7.726-7.726s-7.726 3.459-7.726 7.726v2.261c-9.773 1.767-17.215 10.318-17.215 20.592 0 11.548 9.395 20.944 20.944 20.944h7.995c3.028 0 5.49 2.463 5.49 5.49 0 3.028-2.463 5.491-5.49 5.491h-7.995c-2.213 0-4.2-1.317-5.062-3.356-1.662-3.931-6.195-5.769-10.126-4.106-3.93 1.662-5.769 6.195-4.107 10.125 2.792 6.602 8.684 11.206 15.566 12.444v1.204c0 4.268 3.459 7.726 7.726 7.726s7.726-3.459 7.726-7.726v-1.21c9.772-1.768 17.214-10.319 17.214-20.593z" fill="#1ec480"/></g></g></g></svg>