<svg id="Capa_1" enable-background="new 0 0 512 512" height="512" viewBox="0 0 512 512" width="512" xmlns="http://www.w3.org/2000/svg"><g><g><g><g><g><g><g><path d="m395.59 25.755v460.491c0 14.227-11.528 25.755-25.755 25.755h-227.67c-14.227 0-25.755-11.528-25.755-25.755v-460.491c0-14.227 11.528-25.755 25.755-25.755h38.982l7.531 21.294c2.174 6.181 8.015 10.302 14.567 10.302h105.511c6.552 0 12.393-4.121 14.567-10.302l7.53-21.294h38.982c14.227 0 25.755 11.528 25.755 25.755z" fill="#d9ecfd"/><path d="m395.59 25.755v460.491c0 14.227-11.528 25.755-25.755 25.755h-36.139c14.227 0 25.755-11.528 25.755-25.755v-460.491c0-14.227-11.528-25.755-25.755-25.755h36.139c14.227 0 25.755 11.528 25.755 25.755z" fill="#c4e1ff"/></g><path d="m328.184 23.011 8.131-23.011h-160.63l8.131 23.011c2.909 8.234 10.694 13.739 19.427 13.739h105.515c8.733 0 16.517-5.505 19.426-13.739z" fill="#189ab0"/><path d="m336.313 0-8.128 23.014c-2.905 8.231-10.693 13.732-19.429 13.732h-28.732c8.736 0 16.514-5.501 19.429-13.732l8.128-23.014z" fill="#1682ad"/></g></g></g><g><g><path d="m256 488.162c-2.049 0-4.015-.814-5.463-2.264l-11.72-11.72c-3.018-3.017-3.018-7.909 0-10.927 3.018-3.017 7.91-3.016 10.927.001l6.257 6.257 6.257-6.257c3.017-3.018 7.909-3.017 10.927-.001 3.018 3.017 3.018 7.909 0 10.927l-11.72 11.72c-1.45 1.45-3.416 2.264-5.465 2.264z" fill="#189ab0"/></g></g></g><g><g><g><path d="m233.408 163.531v18.461h91.305v37.633h-91.305v18.471h91.305v122.416c0 4.141-3.358 7.51-7.5 7.51h-29.164v-57.546h-64.098v57.546h-29.164c-4.141 0-7.5-3.369-7.5-7.51v-224.436c0-3.162 1.947-5.985 4.904-7.098l122.282-46.048c4.955-1.865 10.24 1.793 10.24 7.088v73.514h-91.305z" fill="#64b9fc"/><g fill="#31a7fb"><path d="m324.713 90.017v73.514h-27.743v-64.428c0-3.709-2.596-6.614-5.862-7.376l23.365-8.798c4.955-1.864 10.24 1.793 10.24 7.088z"/><path d="m296.97 181.992h27.743v37.633h-27.743z"/><path d="m296.97 238.096h27.743v122.416c0 4.141-3.358 7.51-7.51 7.51h-20.233z"/></g><path d="m293.201 368.017h-74.402v-58.905c0-2.092 1.696-3.787 3.787-3.787h66.828c2.092 0 3.787 1.696 3.787 3.787z" fill="#d4f2f6"/><g><path d="m324.712 158.379v28.767h-92.67c-2.09 0-3.787-1.697-3.787-3.787v-21.192c0-2.09 1.697-3.787 3.787-3.787h92.67z" fill="#d4f2f6"/><path d="m296.975 158.379h27.737v28.767h-27.737z" fill="#a8e7ef"/></g><g><path d="m324.712 214.475v28.767h-92.67c-2.09 0-3.787-1.697-3.787-3.787v-21.193c0-2.09 1.697-3.787 3.787-3.787z" fill="#d4f2f6"/><path d="m296.975 214.475h27.737v28.767h-27.737z" fill="#a8e7ef"/></g></g><g><path d="m248.274 305.325h15.453v62.697h-15.453z" fill="#a8e7ef"/></g></g></g><g><g><g><path d="m307.863 437.138h-103.726c-4.267 0-7.726-3.459-7.726-7.726s3.459-7.726 7.726-7.726h103.726c4.267 0 7.726 3.459 7.726 7.726s-3.459 7.726-7.726 7.726z" fill="#b3d5f2"/></g></g><g><g><path d="m319.959 406.708h-24.192c-4.267 0-7.726-3.459-7.726-7.726s3.459-7.726 7.726-7.726h24.192c4.267 0 7.726 3.459 7.726 7.726s-3.459 7.726-7.726 7.726z" fill="#b3d5f2"/></g><g><path d="m222.158 406.708h-30.118c-4.267 0-7.726-3.459-7.726-7.726s3.459-7.726 7.726-7.726h30.118c4.267 0 7.726 3.459 7.726 7.726s-3.458 7.726-7.726 7.726z" fill="#b3d5f2"/></g><g><path d="m266.922 406.708h-14.619c-4.267 0-7.726-3.459-7.726-7.726s3.459-7.726 7.726-7.726h14.619c4.267 0 7.726 3.459 7.726 7.726s-3.459 7.726-7.726 7.726z" fill="#b3d5f2"/></g></g></g></g><g><g><path d="m169.185 63.356h-14.332c-4.267 0-7.726-3.459-7.726-7.726s3.459-7.726 7.726-7.726h14.332c4.267 0 7.726 3.459 7.726 7.726s-3.459 7.726-7.726 7.726z" fill="#b3d5f2"/></g></g></g></svg>