<svg id="Capa_1" enable-background="new 0 0 512 512" height="512" viewBox="0 0 512 512" width="512" xmlns="http://www.w3.org/2000/svg"><g><g><g><g><g><path d="m512 109.827v343.689c0 8.54-6.923 15.453-15.453 15.453h-481.094c-8.53 0-15.453-6.912-15.453-15.452v-343.69z" fill="#eaf6ff"/><path d="m512 109.827v343.689c0 8.54-6.923 15.453-15.453 15.453h-39.662c8.53 0 15.453-6.912 15.453-15.453v-343.689z" fill="#d9ecfd"/><path d="m512 58.483v56.495h-512v-56.495c0-8.54 6.923-15.453 15.453-15.453h481.095c8.529.001 15.452 6.913 15.452 15.453z" fill="#b18bc8"/><path d="m512 58.483v56.495h-39.662v-56.495c0-8.54-6.923-15.453-15.453-15.453h39.662c8.53.001 15.453 6.913 15.453 15.453z" fill="#a176bd"/></g><g><g><path d="m472.425 86.248h-202.284c-4.268 0-7.726-3.459-7.726-7.726s3.459-7.726 7.726-7.726h202.284c4.268 0 7.726 3.459 7.726 7.726s-3.459 7.726-7.726 7.726z" fill="#915eb2"/><g><g id="XMLID_53_"><path d="m39.575 86.302c-4.268 0-7.726-3.459-7.726-7.726v-.107c0-4.267 3.459-7.726 7.726-7.726s7.726 3.459 7.726 7.726v.107c.001 4.267-3.458 7.726-7.726 7.726z" fill="#f82f40"/></g><g id="XMLID_52_"><path d="m67.037 86.302c-4.268 0-7.726-3.459-7.726-7.726v-.107c0-4.267 3.459-7.726 7.726-7.726s7.726 3.459 7.726 7.726v.107c.001 4.267-3.458 7.726-7.726 7.726z" fill="#fee265"/></g><g id="XMLID_51_"><path d="m94.499 86.302c-4.268 0-7.726-3.459-7.726-7.726v-.107c0-4.267 3.459-7.726 7.726-7.726 4.268 0 7.726 3.459 7.726 7.726v.107c0 4.267-3.458 7.726-7.726 7.726z" fill="#26d192"/></g></g></g></g></g></g><g><g><path d="m429.122 223.364v31.132h35.665v75.214h-35.665v31.132h35.665v47.1c0 5.687-4.605 10.302-10.302 10.302h-209.374c-5.697 0-10.302-4.615-10.302-10.302v-231.678c0-5.687 4.605-10.302 10.302-10.302h209.374c5.697 0 10.302 4.615 10.302 10.302v47.1z" fill="#189ab0"/><path d="m429.122 223.364v31.132h35.665v75.214h-35.665v31.132h35.665v47.09c0 5.697-4.605 10.302-10.302 10.302h-40.064c5.687 0 10.302-4.605 10.302-10.302v-231.668c0-5.687-4.615-10.302-10.302-10.302h40.064c5.697 0 10.302 4.615 10.302 10.302v47.1z" fill="#1682ad"/><path d="m265.71 382.182v-180.162c0-2.845 2.306-5.151 5.151-5.151h157.874c2.845 0 5.151 2.306 5.151 5.151v180.162c0 2.845-2.306 5.151-5.151 5.151h-157.874c-2.845 0-5.151-2.306-5.151-5.151z" fill="#a8e7ef"/><path d="m406.548 196.869v190.464h22.187c2.845 0 5.151-2.306 5.151-5.151v-180.162c0-2.845-2.306-5.151-5.151-5.151z" fill="#70d9e6"/></g><g><circle cx="319.37" cy="292.101" fill="#20bfd5" r="25.145"/><path d="m344.513 292.098c0 13.887-11.26 25.147-25.147 25.147-4.574 0-8.86-1.216-12.548-3.358 10.827-1.339 19.213-10.58 19.213-21.788s-8.396-20.449-19.233-21.778c3.698-2.143 7.984-3.369 12.568-3.369 13.887-.001 25.147 11.259 25.147 25.146z" fill="#189ab0"/></g><g><g><path d="m464.787 259.642h-35.664c-2.845 0-5.151-2.306-5.151-5.151v-31.127c0-2.845 2.306-5.151 5.151-5.151h35.664z" fill="#dcf4f7"/></g><g><path d="m464.787 365.988h-35.664c-2.845 0-5.151-2.306-5.151-5.151v-31.127c0-2.845 2.306-5.151 5.151-5.151h35.664z" fill="#dcf4f7"/></g></g></g><g><g><circle cx="116.171" cy="285.465" fill="#23f1a8" r="60.242"/><path d="m176.412 285.467c0 33.27-26.973 60.244-60.243 60.244-6.297 0-12.374-.963-18.079-2.757 30.513-1.444 54.799-26.622 54.799-57.486 0-30.854-24.276-56.032-54.769-57.496 5.705-1.785 11.762-2.747 18.049-2.747 33.27-.001 60.243 26.972 60.243 60.242z" fill="#26d192"/><path d="m140.653 298.841c0-11.354-9.237-20.591-20.592-20.591h-7.782c-2.834 0-5.138-2.305-5.138-5.139 0-2.833 2.305-5.138 5.138-5.138h7.782c1.711 0 3.305.849 4.266 2.271 2.388 3.535 7.193 4.466 10.728 2.076 3.535-2.389 4.465-7.192 2.076-10.728-3.11-4.602-7.889-7.7-13.234-8.711v-2.013c0-4.268-3.459-7.726-7.726-7.726s-7.726 3.459-7.726 7.726v2.025c-9.525 1.804-16.756 10.177-16.756 20.219 0 11.354 9.237 20.592 20.591 20.592h7.782c2.833 0 5.139 2.305 5.139 5.138 0 2.834-2.305 5.139-5.139 5.139h-7.782c-2.071 0-3.931-1.232-4.737-3.14-1.662-3.931-6.199-5.767-10.125-4.108-3.931 1.662-5.769 6.196-4.107 10.126 2.722 6.437 8.441 10.941 15.134 12.203v1c0 4.268 3.459 7.726 7.726 7.726s7.726-3.459 7.726-7.726v-1.001c9.526-1.804 16.756-10.178 16.756-20.22z" fill="#1ec480"/></g><g><g><g><g><g><path d="m194.342 426.293h-134.739c-4.267 0-7.726-3.459-7.726-7.726s3.459-7.726 7.726-7.726h134.738c4.267 0 7.726 3.459 7.726 7.726s-3.458 7.726-7.725 7.726z" fill="#c4e1ff"/></g><g><path d="m77.419 394.653h-17.816c-4.267 0-7.726-3.459-7.726-7.726 0-4.268 3.459-7.726 7.726-7.726h17.816c4.267 0 7.726 3.459 7.726 7.726s-3.459 7.726-7.726 7.726z" fill="#c4e1ff"/></g><g><path d="m194.342 394.653h-83.515c-4.267 0-7.726-3.459-7.726-7.726 0-4.268 3.459-7.726 7.726-7.726h83.515c4.267 0 7.726 3.459 7.726 7.726s-3.459 7.726-7.726 7.726z" fill="#c4e1ff"/></g><g><g><path d="m95.647 201.647h-39.717c-4.267 0-7.726-3.459-7.726-7.726 0-4.268 3.459-7.726 7.726-7.726h39.718c4.267 0 7.726 3.459 7.726 7.726s-3.46 7.726-7.727 7.726z" fill="#c4e1ff"/></g><g><path d="m140.975 174.018h-85.045c-4.267 0-7.726-3.459-7.726-7.726s3.459-7.726 7.726-7.726h85.046c4.267 0 7.726 3.459 7.726 7.726s-3.46 7.726-7.727 7.726z" fill="#c4e1ff"/></g></g></g></g></g></g></g><g><g><g><path d="m375.792 276.587h-4.978c-4.268 0-7.726-3.459-7.726-7.726s3.459-7.726 7.726-7.726h4.978c4.268 0 7.726 3.459 7.726 7.726s-3.459 7.726-7.726 7.726z" fill="#20bfd5"/></g><g><path d="m375.792 297.826h-4.978c-4.268 0-7.726-3.459-7.726-7.726s3.459-7.726 7.726-7.726h4.978c4.268 0 7.726 3.459 7.726 7.726s-3.459 7.726-7.726 7.726z" fill="#20bfd5"/></g><g><path d="m375.792 319.065h-4.978c-4.268 0-7.726-3.459-7.726-7.726 0-4.268 3.459-7.726 7.726-7.726h4.978c4.268 0 7.726 3.459 7.726 7.726 0 4.268-3.459 7.726-7.726 7.726z" fill="#20bfd5"/></g></g><g><g><path d="m402.428 276.587h-4.978c-4.268 0-7.726-3.459-7.726-7.726s3.459-7.726 7.726-7.726h4.978c4.268 0 7.726 3.459 7.726 7.726s-3.459 7.726-7.726 7.726z" fill="#20bfd5"/></g><g><path d="m402.428 297.826h-4.978c-4.268 0-7.726-3.459-7.726-7.726s3.459-7.726 7.726-7.726h4.978c4.268 0 7.726 3.459 7.726 7.726s-3.459 7.726-7.726 7.726z" fill="#20bfd5"/></g><g><path d="m402.428 319.065h-4.978c-4.268 0-7.726-3.459-7.726-7.726 0-4.268 3.459-7.726 7.726-7.726h4.978c4.268 0 7.726 3.459 7.726 7.726 0 4.268-3.459 7.726-7.726 7.726z" fill="#20bfd5"/></g></g></g></g><g><g><g><path d="m172.677 213.367c-2.049 0-4.015-.814-5.463-2.264l-11.72-11.72c-3.018-3.017-3.017-7.909 0-10.927 3.018-3.017 7.91-3.016 10.927.001l6.257 6.257 6.257-6.258c3.017-3.016 7.909-3.016 10.927 0 3.018 3.018 3.018 7.909 0 10.928l-11.72 11.72c-1.451 1.449-3.416 2.263-5.465 2.263z" fill="#915eb2"/></g></g></g></g></svg>