<svg id="Capa_1" enable-background="new 0 0 512 512" height="512" viewBox="0 0 512 512" width="512" xmlns="http://www.w3.org/2000/svg"><g><g><g><g><g><g><path d="m454.83 310.805h-85.104c-4.276 0-7.742-3.466-7.742-7.742s3.466-7.742 7.742-7.742h85.104c4.276 0 7.742 3.466 7.742 7.742s-3.466 7.742-7.742 7.742z" fill="#b5dbfd"/></g><g><path d="m454.83 235.865h-73.077c-4.276 0-7.742-3.466-7.742-7.742s3.466-7.742 7.742-7.742h73.077c4.276 0 7.742 3.466 7.742 7.742s-3.466 7.742-7.742 7.742z" fill="#b5dbfd"/></g></g><path d="m29.164 224.198h352.954v259.559h-352.954z" fill="#64b9fc"/><g fill="#31a7fb"><path d="m382.118 224.198v46.383c-5.55 5.172-12.988 8.32-21.151 8.32-17.164 0-31.065-13.901-31.065-31.065 0 8.582-3.483 16.346-9.096 21.969-5.624 5.624-13.398 9.096-21.969 9.096-17.164 0-31.065-13.901-31.065-31.065 0 8.582-3.483 16.346-9.096 21.969-5.624 5.624-13.398 9.096-21.969 9.096-17.154 0-31.065-13.901-31.065-31.065 0 8.582-3.483 16.346-9.096 21.969-5.624 5.624-13.398 9.096-21.969 9.096-17.154 0-31.065-13.901-31.065-31.065 0 8.582-3.483 16.346-9.096 21.969-5.623 5.624-13.397 9.096-21.969 9.096-17.153 0-31.065-13.901-31.065-31.065 0 8.582-3.483 16.346-9.096 21.969-5.623 5.624-13.398 9.096-21.969 9.096-8.162 0-15.601-3.147-21.151-8.32v-46.383z"/><path d="m349.89 224.201h32.222v259.556h-32.222z"/></g></g><path d="m195.86 483.757h-110.301v-140.773c0-30.459 24.692-55.151 55.151-55.151 30.459 0 55.151 24.692 55.151 55.151v140.773z" fill="#d9ecfd"/><path d="m195.858 342.982v140.77h-30.723v-140.77c0-15.23-6.179-29.024-16.154-38.999-6.487-6.486-14.58-11.366-23.632-13.976 4.868-1.425 10.02-2.177 15.356-2.177 15.23 0 29.013 6.179 38.999 16.154 9.987 9.974 16.154 23.768 16.154 38.998z" fill="#b5dbfd"/><g><path d="m161.038 363.441h-40.657c-3.148 0-5.7-2.552-5.7-5.7v-18.608c0-3.148 2.552-5.7 5.7-5.7h40.657c3.148 0 5.7 2.552 5.7 5.7v18.608c0 3.148-2.552 5.7-5.7 5.7z" fill="#fb6672"/></g><circle cx="288.741" cy="356.695" fill="#d9ecfd" r="52.883"/><path d="m341.629 356.701c0 29.207-23.678 52.873-52.884 52.873-5.575 0-10.955-.866-16.005-2.462 21.375-6.783 36.867-26.79 36.867-50.41 0-23.621-15.492-43.627-36.867-50.41 5.05-1.607 10.431-2.474 16.005-2.474 29.206-.002 52.884 23.676 52.884 52.883z" fill="#b5dbfd"/><g><path d="m166.738 410.894c-4.276 0-7.742-3.466-7.742-7.742v-3.704c0-4.276 3.466-7.742 7.742-7.742s7.742 3.466 7.742 7.742v3.704c0 4.276-3.466 7.742-7.742 7.742z" fill="#8dcafc"/></g><path d="m341.626 356.697c0 2.632-.196 5.213-.568 7.742h-44.573v44.573c-2.529.371-5.11.568-7.742.568s-5.213-.196-7.742-.568v-44.573h-44.573c-.372-2.529-.568-5.11-.568-7.742s.196-5.213.568-7.742h44.573v-44.573c2.529-.372 5.11-.568 7.742-.568s5.213.196 7.742.568v44.573h44.573c.372 2.529.568 5.11.568 7.742z" fill="#8dcafc"/></g><g><g><path d="m50.316 255.266c-17.157 0-31.065-13.908-31.065-31.065v-52.842h62.129v52.842c.001 17.157-13.907 31.065-31.064 31.065z" fill="#fddd45"/><path d="m81.385 171.363v52.843c0 17.146-13.912 31.058-31.07 31.058-6.174 0-11.924-1.799-16.758-4.916 8.608-5.527 14.3-15.17 14.3-26.142v-52.847z" fill="#f8c52d"/><path d="m112.446 255.266c-17.157 0-31.065-13.908-31.065-31.065v-52.842h62.129v52.842c0 17.157-13.908 31.065-31.064 31.065z" fill="#b18bc8"/><path d="m143.512 171.363v52.843c0 17.146-13.912 31.058-31.07 31.058-6.174 0-11.925-1.799-16.758-4.916 8.608-5.527 14.3-15.17 14.3-26.142v-52.843z" fill="#a176bd"/><path d="m174.575 255.266c-17.157 0-31.065-13.908-31.065-31.065v-52.842h62.129v52.842c.001 17.157-13.907 31.065-31.064 31.065z" fill="#fddd45"/><path d="m205.64 171.363v52.843c0 17.146-13.912 31.058-31.07 31.058-6.174 0-11.925-1.799-16.758-4.927 8.608-5.515 14.3-15.158 14.3-26.131v-52.843z" fill="#f8c52d"/><path d="m236.705 255.266c-17.157 0-31.065-13.908-31.065-31.065v-52.842h62.129v52.842c0 17.157-13.908 31.065-31.064 31.065z" fill="#b18bc8"/><path d="m267.768 171.363v52.843c0 17.146-13.912 31.058-31.058 31.058-6.186 0-11.936-1.811-16.77-4.927 8.597-5.504 14.3-15.158 14.3-26.131v-52.843z" fill="#a176bd"/></g><g><g><path d="m298.834 255.266c-17.157 0-31.065-13.908-31.065-31.065v-52.842h62.129v52.842c.001 17.157-13.907 31.065-31.064 31.065z" fill="#fddd45"/></g><path d="m329.895 171.363v52.843c0 17.146-13.9 31.058-31.058 31.058-6.174 0-11.925-1.799-16.758-4.916 8.597-5.527 14.288-15.17 14.288-26.142v-52.843z" fill="#f8c52d"/><g><path d="m360.964 255.266c-17.157 0-31.065-13.908-31.065-31.065v-52.842h62.129v52.842c0 17.157-13.908 31.065-31.064 31.065z" fill="#b18bc8"/></g><path d="m392.028 171.363v52.843c0 17.146-13.912 31.058-31.07 31.058-6.174 0-11.924-1.799-16.758-4.916 8.608-5.527 14.3-15.17 14.3-26.142v-52.847z" fill="#a176bd"/></g></g><g><g><path d="m52.384 116.268-33.133 55.091h62.13l22.088-55.091z" fill="#f8c52d"/><path d="m75.905 116.268-28.048 55.091h33.528l22.087-55.091z" fill="#e8b125"/><path d="m103.469 116.268-22.088 55.091h62.129l11.045-55.091z" fill="#a176bd"/><path d="m126.988 116.268-17.003 55.091h33.527l11.044-55.091z" fill="#915eb2"/><path d="m154.555 116.268-11.045 55.091h62.13v-55.091z" fill="#f8c52d"/><path d="m178.072 116.268-5.96 55.091h33.528v-55.091z" fill="#e8b125"/><path d="m205.64 116.268v55.091h62.129l-11.044-55.091z" fill="#a176bd"/><path d="m229.156 116.268 5.084 55.091h33.527l-11.043-55.091z" fill="#915eb2"/></g><g><g><path d="m256.725 116.268 11.044 55.091h62.13l-22.089-55.091z" fill="#f8c52d"/></g><path d="m280.24 116.268 16.128 55.091h33.527l-22.088-55.091z" fill="#e8b125"/><g><path d="m307.81 116.268 22.089 55.091h62.129l-33.133-55.091z" fill="#a176bd"/></g><path d="m331.328 116.268 27.173 55.091h33.527l-33.133-55.091z" fill="#915eb2"/></g></g><g><g><path d="m61.485 81.818v-64.713c0-9.444 7.656-17.1 17.1-17.1h257.892c9.444 0 17.1 7.656 17.1 17.1v64.712c0 9.444-7.656 17.1-17.1 17.1h-257.893c-9.444 0-17.099-7.655-17.099-17.099z" fill="#64b9fc"/><path d="m353.576 17.1v64.717c0 9.439-7.661 17.1-17.1 17.1h-37.608c9.439 0 17.1-7.661 17.1-17.1v-64.717c0-9.439-7.661-17.1-17.1-17.1h37.608c9.439 0 17.1 7.661 17.1 17.1z" fill="#31a7fb"/><path d="m314.216 64.718h-213.37c-2.851 0-5.161-2.311-5.161-5.161v-20.19c0-2.851 2.311-5.161 5.161-5.161h213.37c2.85 0 5.161 2.311 5.161 5.161v20.19c0 2.85-2.311 5.161-5.161 5.161z" fill="#fddd45"/></g></g><g><path d="m371.082 127.439h-325.756c-6.296 0-11.4-5.104-11.4-11.4v-6.642c0-6.296 5.104-11.4 11.4-11.4h325.756c6.296 0 11.4 5.104 11.4 11.4v6.642c0 6.296-5.104 11.4-11.4 11.4z" fill="#d9ecfd"/><path d="m382.486 109.391v6.646c0 6.293-5.107 11.4-11.4 11.4h-30.449c6.293 0 11.4-5.107 11.4-11.4v-6.646c0-6.293-5.107-11.4-11.4-11.4h30.449c6.293.001 11.4 5.108 11.4 11.4z" fill="#b5dbfd"/></g></g><g><path d="m393.051 512h-369.693c-6.296 0-11.4-5.104-11.4-11.4v-11.656c0-6.296 5.104-11.4 11.4-11.4h369.692c6.296 0 11.4 5.104 11.4 11.4v11.656c0 6.296-5.104 11.4-11.399 11.4z" fill="#fca62f"/><path d="m404.453 488.939v11.659c0 6.292-5.107 11.4-11.4 11.4h-33.63c6.293 0 11.4-5.107 11.4-11.4v-11.659c0-6.293-5.107-11.4-11.4-11.4h33.63c6.293 0 11.4 5.107 11.4 11.4z" fill="#f98824"/></g><g><circle cx="454.83" cy="265.593" fill="#fddd45" r="45.212"/><path d="m500.042 265.589c0 24.977-20.246 45.212-45.212 45.212-4.138 0-8.14-.559-11.936-1.596 19.175-5.233 33.276-22.777 33.276-43.616 0-20.828-14.102-38.383-33.276-43.616 3.796-1.037 7.797-1.596 11.936-1.596 24.965 0 45.212 20.246 45.212 45.212z" fill="#f8c52d"/><path d="m468.874 257.851h-6.302v-6.302c0-4.276-3.466-7.742-7.742-7.742s-7.742 3.466-7.742 7.742v6.302h-6.302c-4.276 0-7.742 3.466-7.742 7.742s3.466 7.742 7.742 7.742h6.302v6.302c0 4.276 3.466 7.742 7.742 7.742s7.742-3.466 7.742-7.742v-6.302h6.302c4.276 0 7.742-3.466 7.742-7.742s-3.466-7.742-7.742-7.742z" fill="#e8b125"/></g></g></svg>