<svg id="Capa_1" enable-background="new 0 0 512 512" height="512" viewBox="0 0 512 512" width="512" xmlns="http://www.w3.org/2000/svg"><g><g><g><path d="m232.406 301.044c3.074-6.266 4.602-13.427 4.075-20.991-1.413-20.245-17.8-36.628-38.047-38.026-23.999-1.657-43.982 17.32-43.982 40.965 0 6.479 1.505 12.606 4.178 18.055.667 1.359-.343 2.944-1.857 2.944h-56.954c-3.186 0-5.769 2.583-5.769 5.769v160.243c0 23.194 18.802 41.996 41.996 41.996h166.012v-208.009h-67.797c-1.515 0-2.522-1.585-1.855-2.946z" fill="#72f4c3"/><path d="m271.713 303.99h30.346v208.009h-30.346z" fill="#27e19d"/><path d="m302.059 303.99v67.797c0 1.515-1.585 2.523-2.946 1.855-6.266-3.074-13.427-4.602-20.991-4.075-20.245 1.413-36.628 17.8-38.026 38.047-1.657 23.999 17.32 43.983 40.965 43.983 6.479 0 12.606-1.505 18.055-4.179 1.359-.667 2.944.343 2.944 1.857v62.723h166.012c23.194 0 41.996-18.802 41.996-41.996v-166.012z" fill="#a176bd"/><path d="m510.068 303.991v166.014c0 23.195-18.8 41.995-41.995 41.995h-32.771c23.195 0 41.995-18.8 41.995-41.995v-166.014z" fill="#915eb2"/><path d="m510.068 137.977c0-23.193-18.802-41.995-41.995-41.995h-160.155c-3.236 0-5.859 2.623-5.859 5.859v51.193c0 4.021 3.951 6.833 7.757 5.536 4.155-1.417 8.61-2.186 13.245-2.186 23.639 0 42.62 19.976 40.965 43.978-1.395 20.242-17.763 36.627-38.003 38.05-5.695.4-11.163-.364-16.192-2.076-3.813-1.298-7.773 1.503-7.773 5.531v62.124h67.797c1.515 0 2.523 1.585 1.855 2.946-3.074 6.265-4.602 13.426-4.075 20.989 1.412 20.246 17.799 36.629 38.045 38.028 24 1.658 43.984-17.32 43.984-40.965 0-6.479-1.505-12.605-4.178-18.054-.667-1.359.343-2.943 1.857-2.943h62.724v-166.015z" fill="#fddd45"/><path d="m510.068 137.977v166.014h-32.771v-166.014c0-23.195-18.8-41.995-41.995-41.995h32.771c23.195-.001 41.995 18.8 41.995 41.995z" fill="#f8c52d"/></g><g><path d="m276.928 66.497c7.286 18.939-.635 40.711-18.385 50.546-6.614 3.665-13.73 5.31-20.689 5.182-1.541-.028-2.598 1.531-1.946 2.929l26.174 56.131c1.368 2.933.099 6.419-2.834 7.787l-50.988 23.776c-3.678 1.715-7.859-.749-8.306-4.783-.524-4.722-1.885-9.44-4.154-13.953-9.385-18.669-31.758-27.382-51.273-19.912-22.506 8.615-32.623 34.294-22.622 55.743 1.959 4.202 4.537 7.916 7.576 11.085 2.782 2.901 1.902 7.669-1.741 9.367l-46.391 21.633c-2.933 1.368-6.419.099-7.787-2.834l-67.686-145.151c-9.802-21.02-.708-46.007 20.313-55.809l145.15-67.684c2.933-1.368 6.419-.099 7.787 2.834l24.032 51.537c.64 1.372 2.503 1.618 3.453.439 3.808-4.727 8.727-8.68 14.6-11.419 21.427-9.992 47.077.096 55.717 22.556z" fill="#64b9fc"/><g fill="#31a7fb"><path d="m160.976 82.095c0 32.616-26.434 59.04-59.04 59.04-32.605 0-59.04-26.424-59.04-59.04 0-8.561 1.823-16.699 5.11-24.034l70.186-32.729c24.704 7.047 42.784 29.793 42.784 56.763z"/><path d="m179.123 3.387 24.65 52.862c-2.055.644-4.106 1.434-6.132 2.379-4.906 2.287-9.145 5.422-12.628 9.147-2.008 2.147-5.565 1.533-6.807-1.131l-24.065-51.607c-1.369-2.936-4.851-4.203-7.787-2.834l24.982-11.649c2.933-1.369 6.419-.1 7.787 2.833z"/><path d="m276.417 65.229c8.321 19.727-.176 42.881-19.265 52.549-6.296 3.195-13.001 4.603-19.564 4.431 14.487-10.606 21.107-28.12 13.848-45.331-7.829-18.571-26.467-25.96-44.908-21.397 3.816-4.79 8.763-8.778 14.68-11.537 21.021-9.803 46.11-.287 55.209 21.285z"/><path d="m235.271 123.798 26.808 57.489c1.366 2.928.102 6.418-2.834 7.787l-24.982 11.649c2.936-1.369 4.2-4.858 2.834-7.787l-26.21-56.208c-1.252-2.684.604-5.779 3.561-5.941 5.504-.303 11.045-1.727 16.307-4.394 1.568-.796 3.078-1.657 4.516-2.595z"/></g></g></g><g><circle cx="94.05" cy="59.041" fill="#23f1a8" r="59.041"/><path d="m153.091 59.044c0 32.607-26.436 59.043-59.043 59.043-6.172 0-12.127-.943-17.719-2.703 29.905-1.415 53.707-26.092 53.707-56.341 0-30.239-23.792-54.915-53.677-56.35 5.592-1.749 11.528-2.693 17.689-2.693 32.607.001 59.043 26.436 59.043 59.044z" fill="#26d192"/><path d="m118.198 72.151c0-11.212-9.123-20.335-20.335-20.335h-7.627c-2.691 0-4.881-2.19-4.881-4.881 0-2.692 2.19-4.882 4.881-4.882h7.627c1.626 0 3.141.807 4.053 2.158 2.39 3.534 7.193 4.465 10.728 2.076s4.465-7.192 2.076-10.728c-3.047-4.509-7.717-7.552-12.945-8.575v-1.849c0-4.268-3.459-7.726-7.726-7.726-4.268 0-7.726 3.459-7.726 7.726v1.852c-9.345 1.83-16.422 10.075-16.422 19.949 0 11.212 9.122 20.334 20.334 20.334h7.627c2.692 0 4.882 2.19 4.882 4.882s-2.19 4.882-4.882 4.882h-7.627c-1.968 0-3.734-1.171-4.5-2.983-1.662-3.931-6.2-5.766-10.126-4.108-3.931 1.662-5.77 6.195-4.108 10.126 2.671 6.316 8.265 10.748 14.821 12.027v.852c0 4.268 3.459 7.726 7.726 7.726 4.268 0 7.726-3.459 7.726-7.726v-.848c9.348-1.831 16.424-10.076 16.424-19.949z" fill="#1ec480"/></g></g></svg>