<svg id="Capa_1" enable-background="new 0 0 512 512" height="512" viewBox="0 0 512 512" width="512" xmlns="http://www.w3.org/2000/svg"><g><g><g><path d="m322.848 452.642h-133.696l8.241-91.82h36.066v28.278c0 12.449 10.092 22.54 22.54 22.54 12.449 0 22.54-10.092 22.54-22.54v-28.278h36.066z" fill="#1682ad"/><g fill="#107295"><path d="m317.904 397.562-3.298-36.74h-36.066v28.278c0 2.994-.59 5.849-1.651 8.462z"/><path d="m235.111 397.562c-1.062-2.613-1.651-5.468-1.651-8.462v-28.278h-36.066l-3.298 36.74z"/><path d="m322.848 452.642h-30.37l-8.241-91.82h30.37z"/></g></g><g><path d="m349.379 490.292h-186.758c-5.69 0-10.302-4.612-10.302-10.302v-19.073c0-5.689 4.612-10.302 10.302-10.302h186.759c5.689 0 10.302 4.612 10.302 10.302v19.073c-.001 5.69-4.613 10.302-10.303 10.302z" fill="#189ab0"/></g><g><path d="m359.677 460.914v19.079c0 5.687-4.605 10.302-10.302 10.302h-30.359c5.687 0 10.302-4.615 10.302-10.302v-19.079c0-5.687-4.615-10.302-10.302-10.302h30.359c5.697 0 10.302 4.616 10.302 10.302z" fill="#1682ad"/></g><g><path d="m491.102 371.493h-470.202c-11.542 0-20.898-9.356-20.898-20.898v-307.992c0-11.542 9.356-20.898 20.898-20.898h470.202c11.542 0 20.898 9.356 20.898 20.898v307.992c0 11.541-9.356 20.898-20.898 20.898z" fill="#d9ecfd"/><path d="m512 42.608v279.869h-512v-279.869c0-11.548 9.354-20.902 20.902-20.902h470.195c11.549 0 20.903 9.354 20.903 20.902z" fill="#d9ecfd"/><path d="m512 42.598v279.88h-39.662v-279.88c0-11.538-9.364-20.892-20.902-20.892h39.672c11.538 0 20.892 9.354 20.892 20.892z" fill="#c4e1ff"/><path d="m400.214 174.376h-136.491v-21.314c0-4.268-3.459-7.726-7.726-7.726s-7.726 3.459-7.726 7.726v21.314h-136.485c-4.267 0-7.726 3.459-7.726 7.726v32.722c0 4.268 3.459 7.726 7.726 7.726s7.726-3.459 7.726-7.726v-24.996h128.758v24.995c0 4.268 3.459 7.726 7.726 7.726s7.726-3.459 7.726-7.726v-24.995h128.765v24.996c0 4.268 3.459 7.726 7.726 7.726s7.726-3.459 7.726-7.726v-32.722c.001-4.267-3.458-7.726-7.725-7.726z" fill="#189ab0"/><path d="m511.997 317.328v33.264c0 11.548-9.354 20.902-20.892 20.902h-470.203c-11.548.001-20.902-9.353-20.902-20.901v-33.264h511.997z" fill="#189ab0"/><path d="m511.997 317.328v33.264c0 11.548-9.354 20.902-20.892 20.902h-39.672c11.538 0 20.902-9.354 20.902-20.902v-33.264z" fill="#1682ad"/></g></g><g><g><g><path d="m159.718 290.469h-53.134c-4.267 0-7.726-3.459-7.726-7.726s3.459-7.726 7.726-7.726h53.134c4.267 0 7.726 3.459 7.726 7.726s-3.459 7.726-7.726 7.726z" fill="#b3d5f2"/></g><g><path d="m78.569 290.469h-14.715c-4.267 0-7.726-3.459-7.726-7.726s3.459-7.726 7.726-7.726h14.716c4.267 0 7.726 3.459 7.726 7.726s-3.459 7.726-7.727 7.726z" fill="#b3d5f2"/></g><g><path d="m222.784 290.469h-14.716c-4.267 0-7.726-3.459-7.726-7.726s3.459-7.726 7.726-7.726h14.716c4.267 0 7.726 3.459 7.726 7.726s-3.459 7.726-7.726 7.726z" fill="#b3d5f2"/></g><g><path d="m303.932 290.469h-53.133c-4.267 0-7.726-3.459-7.726-7.726s3.459-7.726 7.726-7.726h53.133c4.267 0 7.726 3.459 7.726 7.726s-3.459 7.726-7.726 7.726z" fill="#b3d5f2"/></g><g><path d="m366.997 290.469h-14.716c-4.267 0-7.726-3.459-7.726-7.726s3.459-7.726 7.726-7.726h14.716c4.267 0 7.726 3.459 7.726 7.726s-3.458 7.726-7.726 7.726z" fill="#b3d5f2"/></g><g><path d="m448.146 290.469h-53.133c-4.267 0-7.726-3.459-7.726-7.726s3.459-7.726 7.726-7.726h53.133c4.267 0 7.726 3.459 7.726 7.726s-3.459 7.726-7.726 7.726z" fill="#b3d5f2"/></g></g></g><g><g><path d="m287.124 153.057h-62.249c-2.845 0-5.151-2.306-5.151-5.151v-23.214c0-14.801 11.998-26.799 26.799-26.799h18.952c14.801 0 26.799 11.998 26.799 26.799v23.214c.001 2.845-2.305 5.151-5.15 5.151z" fill="#31a7fb"/><path d="m292.276 124.701v23.21c0 2.845-2.306 5.151-5.151 5.151h-19.11v-28.371c0-13.907-10.59-25.332-24.137-26.671.865-.082 1.751-.124 2.648-.124h18.945c14.804 0 26.805 12.001 26.805 26.805z" fill="#1c96f9"/><circle cx="255.999" cy="75.661" fill="#64b9fc" r="24.628"/></g><g><path d="m148.561 257.775h-73.55c-6.162 0-11.157-4.995-11.157-11.157v-20.636c0-6.162 4.995-11.157 11.157-11.157h73.55c6.162 0 11.157 4.995 11.157 11.157v20.636c0 6.161-4.995 11.157-11.157 11.157z" fill="#fee265"/><path d="m159.718 225.979v20.638c0 6.168-4.995 11.163-11.153 11.163h-25.337c6.158 0 11.153-4.995 11.153-11.163v-20.638c0-6.158-4.995-11.153-11.153-11.153h25.337c6.158-.001 11.153 4.994 11.153 11.153z" fill="#f8c52d"/></g><g><path d="m292.775 257.775h-73.55c-6.162 0-11.157-4.995-11.157-11.157v-20.636c0-6.162 4.995-11.157 11.157-11.157h73.55c6.162 0 11.157 4.995 11.157 11.157v20.636c0 6.161-4.995 11.157-11.157 11.157z" fill="#27e19d"/><path d="m303.932 225.979v20.638c0 6.168-4.995 11.163-11.153 11.163h-25.337c6.158 0 11.153-4.995 11.153-11.163v-20.638c0-6.158-4.995-11.153-11.153-11.153h25.337c6.158-.001 11.153 4.994 11.153 11.153z" fill="#26d192"/></g><g><path d="m436.989 257.775h-73.55c-6.162 0-11.157-4.995-11.157-11.157v-20.636c0-6.162 4.995-11.157 11.157-11.157h73.55c6.162 0 11.157 4.995 11.157 11.157v20.636c0 6.161-4.995 11.157-11.157 11.157z" fill="#fb4a59"/><path d="m448.146 225.979v20.638c0 6.168-4.995 11.163-11.153 11.163h-25.337c6.158 0 11.153-4.995 11.153-11.163v-20.638c0-6.158-4.995-11.153-11.153-11.153h25.337c6.158-.001 11.153 4.994 11.153 11.153z" fill="#f82f40"/></g></g></g></svg>