<svg id="Capa_1" enable-background="new 0 0 512 512" height="512" viewBox="0 0 512 512" width="512" xmlns="http://www.w3.org/2000/svg"><g><g><g><path d="m395.594 25.758v460.488c0 14.216-11.528 25.754-25.754 25.754h-227.679c-14.216 0-25.754-11.538-25.754-25.754v-460.488c0-14.227 11.538-25.754 25.754-25.754h38.992l7.52 21.294c2.184 6.171 8.025 10.302 14.567 10.302h105.52c6.552 0 12.383-4.131 14.567-10.302l7.52-21.294h38.992c14.227 0 25.755 11.527 25.755 25.754z" fill="#d9ecfd"/><path d="m328.186 23.011 8.13-23.011h-160.628l8.131 23.011c2.909 8.234 10.694 13.739 19.426 13.739h105.514c8.733 0 16.517-5.505 19.427-13.739z" fill="#189ab0"/><path d="m336.314 0-8.128 23.014c-2.905 8.231-10.693 13.732-19.429 13.732h-28.732c8.736 0 16.514-5.501 19.429-13.732l8.129-23.014z" fill="#1682ad"/><path d="m395.59 25.754v460.488c0 14.227-11.528 25.754-25.754 25.754h-36.139c14.227 0 25.754-11.528 25.754-25.754v-460.488c.001-14.226-11.527-25.754-25.753-25.754h36.139c14.226 0 25.753 11.528 25.753 25.754z" fill="#c4e1ff"/></g></g><g><g><g><g><circle cx="256.005" cy="199.145" fill="#fb4a59" r="108.639"/><path d="m364.643 199.15c0 59.999-48.643 108.642-108.642 108.642-11.356 0-22.314-1.736-32.603-4.973 55.026-2.604 98.823-48.01 98.823-103.67 0-55.641-43.779-101.047-98.769-103.688 10.289-3.219 21.211-4.955 32.549-4.955 59.999.001 108.642 48.644 108.642 108.644z" fill="#f82f40"/></g></g></g><g><circle cx="256.005" cy="199.146" fill="#d9ecfd" r="84.326"/><path d="m340.33 199.149c0 46.572-37.757 84.328-84.328 84.328-8.815 0-17.32-1.347-25.307-3.86 42.712-2.021 76.707-37.266 76.707-80.469 0-43.189-33.981-78.433-76.665-80.482 7.986-2.498 16.464-3.846 25.265-3.846 46.571.001 84.328 37.758 84.328 84.329z" fill="#c4e1ff"/></g></g><g><path d="m169.19 63.359c4.267 0 7.726-3.459 7.726-7.726s-3.459-7.726-7.726-7.726h-14.332c-4.267 0-7.726 3.459-7.726 7.726s3.459 7.726 7.726 7.726z" fill="#b3d5f2"/><path d="m358.496 405.66c0-11.048-8.988-20.037-20.037-20.037h-7.447c-2.528 0-4.584-2.056-4.584-4.584s2.056-4.584 4.584-4.584h7.447c1.526 0 2.949.758 3.806 2.026 2.39 3.536 7.192 4.466 10.728 2.077s4.466-7.192 2.077-10.727c-2.973-4.4-7.516-7.383-12.608-8.419v-1.657c0-4.268-3.459-7.726-7.726-7.726s-7.726 3.459-7.726 7.726v1.651c-9.137 1.86-16.034 9.956-16.034 19.634 0 11.048 8.988 20.037 20.037 20.037h7.447c2.528 0 4.584 2.056 4.584 4.584s-2.057 4.584-4.584 4.584h-7.447c-1.848 0-3.507-1.1-4.227-2.803-1.663-3.93-6.196-5.769-10.126-4.106-3.93 1.662-5.769 6.195-4.107 10.126 2.612 6.176 8.06 10.525 14.456 11.823v.681c0 4.268 3.459 7.726 7.726 7.726s7.726-3.459 7.726-7.726v-.672c9.138-1.861 16.035-9.957 16.035-19.634z" fill="#26d192"/><path d="m231.994 354.703h-70.76c-4.267 0-7.726 3.459-7.726 7.726s3.459 7.726 7.726 7.726h70.76c4.267 0 7.726-3.459 7.726-7.726s-3.459-7.726-7.726-7.726z" fill="#b3d5f2"/><path d="m285.032 385.133h-24.193c-4.267 0-7.726 3.459-7.726 7.726s3.459 7.726 7.726 7.726h24.193c4.267 0 7.726-3.459 7.726-7.726s-3.459-7.726-7.726-7.726z" fill="#b3d5f2"/><path d="m161.234 385.133c-4.267 0-7.726 3.459-7.726 7.726s3.459 7.726 7.726 7.726h30.117c4.267 0 7.726-3.459 7.726-7.726s-3.459-7.726-7.726-7.726z" fill="#b3d5f2"/><path d="m231.994 385.133h-14.619c-4.267 0-7.726 3.459-7.726 7.726s3.459 7.726 7.726 7.726h14.619c4.267 0 7.726-3.459 7.726-7.726s-3.459-7.726-7.726-7.726z" fill="#b3d5f2"/><path d="m268.565 423.289c0-4.268-3.459-7.726-7.726-7.726h-99.605c-4.267 0-7.726 3.459-7.726 7.726s3.459 7.726 7.726 7.726h99.605c4.267.001 7.726-3.458 7.726-7.726z" fill="#b3d5f2"/><path d="m262.259 463.248-6.257 6.258-6.257-6.257c-3.017-3.018-7.909-3.017-10.926-.001-3.017 3.017-3.018 7.909 0 10.926l11.72 11.72c1.449 1.45 3.414 2.264 5.463 2.264s4.015-.814 5.463-2.263l11.72-11.72c3.018-3.018 3.018-7.909 0-10.927-3.017-3.016-7.909-3.016-10.926 0z" fill="#189ab0"/><path d="m256.005 152.506c4.267 0 7.726-3.459 7.726-7.726v-6.424c0-4.268-3.459-7.726-7.726-7.726s-7.726 3.459-7.726 7.726v6.424c0 4.267 3.459 7.726 7.726 7.726z" fill="#189ab0"/><path d="m248.279 253.519v6.424c0 4.268 3.459 7.726 7.726 7.726s7.726-3.459 7.726-7.726v-6.424c0-4.268-3.459-7.726-7.726-7.726s-7.726 3.458-7.726 7.726z" fill="#189ab0"/><path d="m195.21 206.875h6.424c4.267 0 7.726-3.459 7.726-7.726s-3.459-7.726-7.726-7.726h-6.424c-4.267 0-7.726 3.459-7.726 7.726s3.459 7.726 7.726 7.726z" fill="#189ab0"/><path d="m302.649 199.149c0 4.268 3.459 7.726 7.726 7.726h6.424c4.267 0 7.726-3.459 7.726-7.726s-3.459-7.726-7.726-7.726h-6.424c-4.267 0-7.726 3.459-7.726 7.726z" fill="#189ab0"/><g fill="#0d5f7f"><path d="m218.932 150.39c1.422 2.477 3.995 3.848 6.651 3.848 1.313 0 2.646-.335 3.87-1.037 3.701-2.124 4.954-6.89 2.83-10.591s-6.846-4.98-10.547-2.855c-3.701 2.124-4.98 6.846-2.856 10.547z"/><path d="m282.532 245.053c-3.701 2.124-4.979 6.846-2.856 10.547l.051.089c1.422 2.477 3.995 3.848 6.651 3.848 1.313 0 2.646-.335 3.87-1.037 3.701-2.124 4.954-6.89 2.83-10.591-2.123-3.702-6.846-4.981-10.546-2.856z"/><path d="m199.478 175.435.088.05c1.203.687 2.508 1.013 3.794 1.013 2.677 0 5.274-1.411 6.704-3.913 2.117-3.704.786-8.45-2.919-10.566-3.704-2.117-8.424-.83-10.542 2.875-2.117 3.704-.83 8.424 2.875 10.541z"/><path d="m315.372 233.363c2.108-3.71.765-8.452-2.945-10.559-3.709-2.11-8.426-.81-10.535 2.9-2.108 3.71-.809 8.426 2.901 10.534l.089.05c1.199.681 2.497 1.004 3.778 1.004 2.683.001 5.285-1.418 6.712-3.929z"/><path d="m290.274 139.754c-3.702-2.126-8.423-.845-10.547 2.855l-.051.089c-2.124 3.701-.82 8.379 2.881 10.503 1.201.689 2.512 1.015 3.807 1.015 2.698 0 5.33-1.414 6.765-3.914 2.124-3.702.846-8.424-2.855-10.548z"/><path d="m225.569 259.515c2.698 0 5.33-1.414 6.765-3.914 2.124-3.701.846-8.423-2.856-10.547-3.702-2.126-8.423-.845-10.547 2.855l-.051.089c-2.124 3.701-.82 8.379 2.881 10.503 1.202.688 2.512 1.014 3.808 1.014z"/><path d="m308.674 176.461c1.306 0 2.631-.328 3.842-1.017 3.71-2.108 5.009-6.824 2.901-10.534-2.109-3.709-6.825-5.01-10.535-2.9l-.089.05c-3.71 2.108-4.965 6.799-2.857 10.509 1.42 2.499 4.043 3.892 6.738 3.892z"/><path d="m199.566 222.813-.088.05c-3.705 2.117-4.948 6.812-2.831 10.516 1.423 2.49 4.039 3.876 6.727 3.876 1.313 0 2.643-.331 3.859-1.026 3.705-2.117 4.992-6.837 2.875-10.541-2.118-3.706-6.838-4.993-10.542-2.875z"/></g><path d="m275.307 240.608c1.301 0 2.619-.329 3.829-1.02 3.704-2.119 4.989-6.839 2.871-10.543l-19.295-33.734c-1.204-2.105-3.326-3.522-5.732-3.829s-4.815.535-6.508 2.273l-22.852 23.445c-2.978 3.055-2.915 7.947.14 10.925 3.056 2.978 7.947 2.916 10.926-.141l15.7-16.108 14.207 24.839c1.427 2.495 4.033 3.893 6.714 3.893z" fill="#f82f40"/></g></g></svg>