<svg id="Capa_1" enable-background="new 0 0 512 512" height="512" viewBox="0 0 512 512" width="512" xmlns="http://www.w3.org/2000/svg"><g><g><g><g><g><g><path d="m369.697 351.919h-29.931v-25.755h29.932c7.165 0 12.973-5.808 12.973-12.973v-69.297h25.755v69.296c0 21.39-17.34 38.729-38.729 38.729z" fill="#b5dbfd"/></g><g><path d="m382.671 243.895h25.755v28.006h-25.755z" fill="#8dcafc"/></g></g><g><path d="m418.366 256.222h-34.059c-5.455 0-9.877-4.422-9.877-9.877v-10.17c0-5.455 4.422-9.877 9.877-9.877h34.059c5.455 0 9.877 4.422 9.877 9.877v10.17c.001 5.455-4.422 9.877-9.877 9.877z" fill="#107295"/><path d="m428.244 236.175v10.168c0 5.46-4.42 9.88-9.88 9.88h-21.572c5.46 0 9.879-4.42 9.879-9.88v-10.168c0-5.46-4.419-9.88-9.879-9.88h21.572c5.46.001 9.88 4.42 9.88 9.88z" fill="#0d5f7f"/></g></g><g><g><g><path d="m142.303 351.919h29.931v-25.755h-29.932c-7.165 0-12.973-5.808-12.973-12.973v-69.297h-25.755v69.296c0 21.39 17.34 38.729 38.729 38.729z" fill="#b5dbfd"/></g><g><path d="m103.574 243.895h25.755v28.006h-25.755z" fill="#8dcafc"/></g></g><g><path d="m127.693 226.296h-34.059c-5.455 0-9.877 4.422-9.877 9.877v10.17c0 5.455 4.422 9.877 9.877 9.877h34.059c5.455 0 9.877-4.422 9.877-9.877v-10.17c0-5.455-4.422-9.877-9.877-9.877z" fill="#107295"/><path d="m137.57 246.343v-10.168c0-5.46-4.42-9.88-9.88-9.88h-21.572c5.46 0 9.879 4.42 9.879 9.88v10.168c0 5.46-4.42 9.88-9.879 9.88h21.572c5.461-.001 9.88-4.42 9.88-9.88z" fill="#0d5f7f"/></g></g></g><g><g><g><g><path d="m246.824 403.603v26.628l-80.959 28.247c-5.694 1.982-9.516 7.364-9.516 13.389v16.317h-25.149v-16.317c0-16.709 10.603-31.637 26.386-37.14z" fill="#8dcafc"/></g><g><path d="m377.216 471.868v16.317h-25.149v-16.317c0-6.026-3.833-11.408-9.516-13.389l-78.625-27.432v-26.628l86.905 30.309c15.782 5.502 26.385 20.431 26.385 37.14z" fill="#8dcafc"/></g></g><g><path d="m242.8 371.848h25.149v116.333h-25.149z" fill="#b5dbfd"/><path d="m242.8 371.848h25.149v29.316h-25.149z" fill="#8dcafc"/></g></g><g><path d="m281.669 384.605h-51.337c-5.556 0-10.06-4.504-10.06-10.06v-26.02h71.456v26.02c0 5.556-4.504 10.06-10.059 10.06z" fill="#d9ecfd"/><path d="m291.727 348.521v26.022c0 5.563-4.502 10.065-10.055 10.065h-23.818c5.553 0 10.055-4.502 10.055-10.065v-26.022z" fill="#b5dbfd"/></g><g><g><path d="m330.438 66.398 6.443-40.689h-163.013l6.443 40.689c9.352 59.055 9.341 119.214-.031 178.266l-10.098 63.627h170.386l-10.098-63.627c-9.373-59.052-9.384-119.211-.032-178.266z" fill="#20bfd5"/><path d="m183.497 89.677h143.755c.904-7.775 1.96-15.536 3.186-23.278l6.443-40.689h-163.013l6.443 40.689c1.226 7.741 2.282 15.503 3.186 23.278z" fill="#1fb2cc"/><g><path d="m256 311.589c-4.267 0-7.726-3.459-7.726-7.726v-234.064c0-4.268 3.459-7.726 7.726-7.726 4.268 0 7.726 3.459 7.726 7.726v234.063c0 4.268-3.458 7.727-7.726 7.727z" fill="#189ab0"/></g><path d="m340.568 308.292h-30.586l-10.096-63.624c-9.375-59.06-9.385-119.213-.031-178.273l6.449-40.682h30.576l-6.439 40.682c-9.354 59.06-9.344 119.213.031 178.273z" fill="#1fb2cc"/></g><path d="m322.827 69.799h-134.905c-14.863 0-26.912-12.049-26.912-26.912v-15.975c.001-14.863 12.049-26.912 26.912-26.912h134.905c14.863 0 26.911 12.049 26.911 26.912v15.976c0 14.863-12.048 26.911-26.911 26.911z" fill="#107295"/><path d="m349.736 26.908v15.978c0 14.866-12.043 26.908-26.908 26.908h-33.058c14.866 0 26.908-12.043 26.908-26.908v-15.978c0-14.855-12.043-26.908-26.909-26.908h33.058c14.866 0 26.909 12.053 26.909 26.908z" fill="#0d5f7f"/><path d="m354.346 351.919h-197.943c-9.28 0-16.803-7.523-16.803-16.803 0-17.259 13.991-31.251 31.251-31.251h169.047c17.259 0 31.251 13.991 31.251 31.251 0 9.28-7.523 16.803-16.803 16.803z" fill="#107295"/><path d="m371.154 335.118c0 4.636-1.885 8.839-4.924 11.878-3.049 3.039-7.253 4.924-11.888 4.924h-33.058c4.646 0 8.849-1.885 11.888-4.924s4.924-7.242 4.924-11.878c0-17.266-14-31.256-31.256-31.256h33.058c17.255 0 31.256 13.99 31.256 31.256z" fill="#0d5f7f"/></g><g><g><circle cx="138.053" cy="488.181" fill="#107295" r="23.819"/><path d="m161.871 488.184c0 13.148-10.663 23.811-23.821 23.811-3.581 0-6.991-.795-10.039-2.213 8.138-3.792 13.772-12.041 13.772-21.598 0-9.567-5.633-17.815-13.772-21.608 3.048-1.419 6.458-2.213 10.039-2.213 13.158 0 23.821 10.663 23.821 23.821z" fill="#0d5f7f"/></g></g><g><g><circle cx="256" cy="488.181" fill="#107295" r="23.819"/><path d="m279.818 488.184c0 13.148-10.663 23.811-23.821 23.811-3.581 0-6.991-.795-10.039-2.213 8.138-3.792 13.772-12.041 13.772-21.598 0-9.567-5.633-17.815-13.772-21.608 3.048-1.419 6.458-2.213 10.039-2.213 13.158 0 23.821 10.663 23.821 23.821z" fill="#0d5f7f"/></g></g><g><g><circle cx="373.947" cy="488.181" fill="#107295" r="23.819"/><path d="m397.765 488.184c0 13.148-10.663 23.811-23.821 23.811-3.581 0-6.991-.795-10.039-2.213 8.138-3.792 13.772-12.041 13.772-21.598 0-9.567-5.633-17.815-13.772-21.608 3.048-1.419 6.458-2.213 10.039-2.213 13.158 0 23.821 10.663 23.821 23.821z" fill="#0d5f7f"/></g></g></g></g></g></svg>