<svg id="Capa_1" enable-background="new 0 0 512 512" height="512" viewBox="0 0 512 512" width="512" xmlns="http://www.w3.org/2000/svg"><g><path d="m84.125 197.591h343.749v268.601h-343.749z" fill="#094c66"/><g><path d="m72.563 239.786h59.209v224.542h-59.209z" fill="#d4f2f6"/><path d="m72.563 239.786h59.209v28.916h-59.209z" fill="#a8e7ef"/><g><path d="m102.167 472.054c-4.268 0-7.726-3.459-7.726-7.726v-216.459c0-4.268 3.459-7.726 7.726-7.726 4.268 0 7.726 3.459 7.726 7.726v216.459c0 4.268-3.458 7.726-7.726 7.726z" fill="#70d9e6"/></g><g><path d="m134.247 247.869h-64.16c-6.943 0-12.572-5.629-12.572-12.572v-32.519h89.305v32.519c0 6.943-5.629 12.572-12.573 12.572z" fill="#1fb2cc"/><path d="m146.818 202.771v32.522c0 6.952-5.626 12.579-12.566 12.579h-29.767c6.94 0 12.566-5.626 12.566-12.579v-32.522z" fill="#189ab0"/></g></g><g><path d="m380.227 239.786h59.209v224.542h-59.209z" fill="#d4f2f6"/><path d="m380.227 239.786h59.209v28.916h-59.209z" fill="#a8e7ef"/><g><path d="m409.832 472.054c-4.268 0-7.726-3.459-7.726-7.726v-216.459c0-4.268 3.459-7.726 7.726-7.726s7.726 3.459 7.726 7.726v216.459c0 4.268-3.458 7.726-7.726 7.726z" fill="#70d9e6"/></g><g><path d="m441.912 247.869h-64.161c-6.943 0-12.572-5.629-12.572-12.572v-32.519h89.305v32.519c0 6.943-5.629 12.572-12.572 12.572z" fill="#1fb2cc"/><path d="m454.482 202.771v32.522c0 6.952-5.626 12.579-12.566 12.579h-29.767c6.94 0 12.566-5.626 12.566-12.579v-32.522z" fill="#189ab0"/></g></g><g><path d="m225.98 239.786h59.209v224.542h-59.209z" fill="#d4f2f6"/><path d="m225.98 239.786h59.209v28.916h-59.209z" fill="#a8e7ef"/><g><path d="m255.584 472.054c-4.268 0-7.726-3.459-7.726-7.726v-216.459c0-4.268 3.459-7.726 7.726-7.726 4.268 0 7.726 3.459 7.726 7.726v216.459c.001 4.268-3.458 7.726-7.726 7.726z" fill="#70d9e6"/></g><g><path d="m287.665 247.869h-64.161c-6.943 0-12.572-5.629-12.572-12.572v-32.519h89.305v32.519c.001 6.943-5.628 12.572-12.572 12.572z" fill="#1fb2cc"/><path d="m300.236 202.771v32.522c0 6.952-5.626 12.579-12.566 12.579h-29.767c6.94 0 12.566-5.626 12.566-12.579v-32.522z" fill="#189ab0"/></g></g><g><path d="m458.291 172.541-195.369-169.795c-4.208-3.657-10.466-3.657-14.674 0l-195.37 169.795z" fill="#a8e7ef"/><path d="m458.293 172.544h-47.279l-174.041-151.256c-2.002-1.745-4.463-2.651-6.935-2.718l18.209-15.827c4.206-3.658 10.469-3.658 14.675 0z" fill="#70d9e6"/></g><path d="m313.422 164.015c-9.158 22.726-31.421 38.766-57.422 38.766s-48.264-16.04-57.422-38.766z" fill="#a8e7ef"/><g><path d="m471.875 175.193v23.035c0 6.181-5.017 11.188-11.188 11.188h-410.198c-6.181 0-11.188-5.007-11.188-11.188v-23.035c0-6.171 5.007-11.178 11.188-11.178h410.197c6.171 0 11.189 5.007 11.189 11.178z" fill="#d4f2f6"/><path d="m471.871 175.195v23.03c0 6.185-5.011 11.185-11.185 11.185h-29.193c6.185 0 11.185-5 11.185-11.185v-23.03c0-6.174-5-11.185-11.185-11.185h29.193c6.174 0 11.185 5.011 11.185 11.185z" fill="#a8e7ef"/></g><g><path d="m460.684 484.35h-410.199c-6.177 0-11.185-5.008-11.185-11.185v-14.085c0-6.177 5.008-11.185 11.185-11.185h410.199c6.177 0 11.185 5.008 11.185 11.185v14.085c0 6.177-5.007 11.185-11.185 11.185z" fill="#1fb2cc"/><path d="m471.871 459.084v14.082c0 6.174-5.011 11.185-11.185 11.185h-31.195c6.174 0 11.185-5.011 11.185-11.185v-14.082c0-6.186-5.011-11.185-11.185-11.185h31.195c6.174-.001 11.185 4.999 11.185 11.185z" fill="#189ab0"/></g><g><path d="m483.469 511.998h-454.939c-6.177 0-11.185-5.008-11.185-11.185v-9.611c0-6.177 5.008-11.185 11.185-11.185h454.939c6.177 0 11.185 5.008 11.185 11.185v9.611c0 6.177-5.008 11.185-11.185 11.185z" fill="#23f1a8"/><path d="m494.655 491.207v9.608c0 6.174-5.011 11.185-11.185 11.185h-29.193c6.185 0 11.185-5.011 11.185-11.185v-9.608c0-6.185-5-11.185-11.185-11.185h29.193c6.174 0 11.185 5 11.185 11.185z" fill="#26d192"/></g><g><circle cx="256" cy="117.098" fill="#23f1a8" r="61.891"/><path d="m317.891 117.101c0 34.181-27.712 61.893-61.893 61.893-6.47 0-12.712-.989-18.574-2.833 31.348-1.483 56.299-27.351 56.299-59.06 0-31.699-24.941-57.566-56.268-59.071 5.862-1.834 12.084-2.823 18.543-2.823 34.181 0 61.893 27.712 61.893 61.894z" fill="#26d192"/><path d="m280.941 130.841c0-11.548-9.395-20.944-20.944-20.944h-7.994c-3.028 0-5.491-2.463-5.491-5.491s2.463-5.491 5.491-5.491h7.994c1.828 0 3.532.907 4.558 2.427 2.388 3.536 7.19 4.466 10.727 2.077 3.536-2.388 4.466-7.191 2.077-10.727-3.197-4.732-8.128-7.898-13.634-8.892v-2.245c0-4.268-3.459-7.726-7.726-7.726s-7.726 3.459-7.726 7.726v2.26c-9.772 1.767-17.214 10.318-17.214 20.592 0 11.548 9.395 20.944 20.944 20.944h7.994c3.028 0 5.491 2.463 5.491 5.491s-2.463 5.491-5.491 5.491h-7.994c-2.213 0-4.2-1.318-5.063-3.357-1.664-3.93-6.199-5.767-10.127-4.105-3.93 1.663-5.768 6.196-4.105 10.127 2.793 6.601 8.684 11.204 15.565 12.442v1.203c0 4.268 3.459 7.726 7.726 7.726s7.726-3.459 7.726-7.726v-1.209c9.774-1.768 17.216-10.319 17.216-20.593z" fill="#1ec480"/></g></g></svg>