<svg id="Capa_1" enable-background="new 0 0 512 512" height="512" viewBox="0 0 512 512" width="512" xmlns="http://www.w3.org/2000/svg"><g><g><g><path d="m504.109 226.312v240.084c0 12.29-9.962 22.252-22.252 22.252h-451.714c-12.29 0-22.252-9.962-22.252-22.252v-240.084z" fill="#fca62f"/><path d="m504.109 226.312v55.372c-1.71 1.453-3.667 2.658-5.81 3.554-10.137 4.224-26.507 9.828-51.045 15.154v48.49c0 7.376-2.988 14.052-7.819 18.883-4.832 4.831-11.497 7.819-18.873 7.819-14.742 0-26.692-11.95-26.692-26.702v-39.59c-24.477 3.06-53.508 5.47-87.761 6.686v28.536c0 6.655-5.398 12.053-12.053 12.053h-76.11c-6.655 0-12.053-5.398-12.053-12.053v-28.536c-34.254-1.216-63.284-3.626-87.761-6.686v39.59c0 7.376-2.987 14.052-7.819 18.883s-11.497 7.819-18.873 7.819c-14.742 0-26.692-11.95-26.692-26.702v-48.49c-24.539-5.326-40.908-10.93-51.045-15.154-2.143-.896-4.1-2.101-5.81-3.554v-55.372z" fill="#f98824"/><path d="m504.109 226.312v240.084c0 12.29-9.962 22.252-22.252 22.252h-35.84c12.29 0 22.252-9.962 22.252-22.252v-240.084z" fill="#f98824"/><g><g><path d="m355.694 23.352h-199.388c-13.597 0-24.62 11.023-24.62 24.62v78.978h33.016v-68.521c0-1.138.922-2.06 2.06-2.06h178.473c1.138 0 2.06.922 2.06 2.06v68.521h33.016v-78.978c.002-13.597-11.02-24.62-24.617-24.62z" fill="#ffd496"/><path d="m380.312 47.967v78.984h-27.877v-78.984c0-13.588-11.023-24.611-24.621-24.611h27.877c13.598 0 24.621 11.023 24.621 24.611z" fill="#fcc16d"/><g><path d="m178.255 129.01h-60.121v-15.181c0-6.659 5.398-12.058 12.058-12.058h36.006c6.659 0 12.058 5.398 12.058 12.058v15.181z" fill="#d9ecfd"/><path d="m178.252 113.827v15.185h-23.89v-15.185c0-6.655-5.398-12.053-12.063-12.053h23.9c6.655 0 12.053 5.398 12.053 12.053z" fill="#bad5e4"/></g><g><path d="m393.865 129.01h-60.121v-15.181c0-6.659 5.398-12.058 12.058-12.058h36.006c6.659 0 12.057 5.398 12.057 12.058z" fill="#d9ecfd"/><path d="m393.869 113.827v15.185h-23.9v-15.185c0-6.655-5.398-12.053-12.053-12.053h23.89c6.665 0 12.063 5.398 12.063 12.053z" fill="#bad5e4"/></g></g></g><path d="m512 241.532c0 8.992-5.404 17.094-13.706 20.548-26.511 11.03-95.617 31.601-242.294 31.601s-215.783-20.572-242.294-31.601c-8.302-3.454-13.706-11.556-13.706-20.548v-92.329c0-12.29 9.963-22.253 22.253-22.253h467.495c12.29 0 22.253 9.963 22.253 22.253v92.329z" fill="#fee265"/><path d="m512 149.203v92.325c0 8.993-5.408 17.101-13.701 20.552-7.366 3.07-18.018 6.871-32.708 10.755 6.5-4.008 10.57-11.147 10.57-18.945v-104.687c0-12.29-9.962-22.252-22.252-22.252h35.84c12.289 0 22.251 9.962 22.251 22.252z" fill="#fdd330"/></g><g><path d="m153.286 444.706h-79.485c-6.659 0-12.058-5.398-12.058-12.057v-22.301c0-6.659 5.398-12.057 12.058-12.057h79.485c6.659 0 12.057 5.398 12.057 12.057v22.301c.001 6.659-5.397 12.057-12.057 12.057z" fill="#eaf6ff"/><path d="m165.344 410.344v22.303c0 6.665-5.398 12.063-12.053 12.063h-27.382c6.655 0 12.053-5.398 12.053-12.063v-22.303c0-6.655-5.398-12.053-12.053-12.053h27.382c6.655 0 12.053 5.398 12.053 12.053z" fill="#d9ecfd"/></g><path d="m294.05 333.41h-76.1c-6.659 0-12.057-5.398-12.057-12.057v-42.889c0-6.659 5.398-12.057 12.057-12.057h76.1c6.659 0 12.057 5.398 12.057 12.057v42.889c0 6.659-5.398 12.057-12.057 12.057z" fill="#ffd496"/><path d="m306.108 278.46v42.886c0 6.665-5.398 12.064-12.064 12.064h-32.739c6.665 0 12.053-5.398 12.053-12.064v-42.886c0-6.655-5.388-12.053-12.053-12.053h32.739c6.666 0 12.064 5.398 12.064 12.053z" fill="#fcc16d"/></g><g><g><path d="m420.561 352.42c-14.743 0-26.695-11.952-26.695-26.695v-197.744c0-6.145 4.981-11.126 11.126-11.126h31.138c6.145 0 11.126 4.981 11.126 11.126v197.745c0 14.743-11.952 26.694-26.695 26.694z" fill="#ffd496"/><g fill="#fcc16d"><path d="m393.865 210.931h53.39v39.824h-53.39z"/><path d="m447.253 127.981v197.743c0 14.742-11.95 26.692-26.692 26.692-5.326 0-10.281-1.556-14.433-4.244 7.376-4.749 12.259-13.032 12.259-22.448v-197.743c0-6.15-4.986-11.126-11.126-11.126h28.866c6.15 0 11.126 4.976 11.126 11.126z"/></g></g><g><path d="m91.44 352.42c-14.743 0-26.695-11.952-26.695-26.695v-197.744c0-6.145 4.981-11.126 11.126-11.126h31.138c6.145 0 11.126 4.981 11.126 11.126v197.745c0 14.743-11.952 26.694-26.695 26.694z" fill="#ffd496"/><g fill="#fcc16d"><path d="m64.744 210.931h53.39v39.824h-53.39z"/><path d="m118.131 127.981v197.743c0 14.742-11.95 26.692-26.692 26.692-5.326 0-10.281-1.556-14.433-4.244 7.376-4.739 12.259-13.021 12.259-22.448v-197.743c0-6.15-4.986-11.126-11.126-11.126h28.866c6.15 0 11.126 4.976 11.126 11.126z"/></g></g></g><g><g><path d="m384.964 186.51h71.192v39.547h-71.192z" fill="#fee265"/><g><path d="m456.157 194.236h-71.192c-4.268 0-7.726-3.459-7.726-7.726s3.459-7.726 7.726-7.726h71.192c4.268 0 7.726 3.459 7.726 7.726s-3.458 7.726-7.726 7.726z" fill="#e8b125"/></g><g><path d="m456.157 233.783h-71.192c-4.268 0-7.726-3.459-7.726-7.726s3.459-7.726 7.726-7.726h71.192c4.268 0 7.726 3.459 7.726 7.726s-3.458 7.726-7.726 7.726z" fill="#e8b125"/></g></g><g><path d="m55.843 186.51h71.192v39.547h-71.192z" fill="#fee265"/><g><path d="m127.035 233.783h-71.192c-4.268 0-7.726-3.459-7.726-7.726s3.459-7.726 7.726-7.726h71.192c4.268 0 7.726 3.459 7.726 7.726.001 4.267-3.458 7.726-7.726 7.726z" fill="#e8b125"/></g><g><path d="m127.035 194.236h-71.192c-4.268 0-7.726-3.459-7.726-7.726s3.459-7.726 7.726-7.726h71.192c4.268 0 7.726 3.459 7.726 7.726.001 4.267-3.458 7.726-7.726 7.726z" fill="#e8b125"/></g></g></g></g></svg>