<svg id="Capa_1" enable-background="new 0 0 512 512" height="512" viewBox="0 0 512 512" width="512" xmlns="http://www.w3.org/2000/svg"><g><g><g><g><g><path d="m491.789 429.021-9.147 9.181c-2.013 2.021-5.285 2.021-7.298 0l-151.596-152.17-37.829 37.973 151.624 152.198c2.002 2.01 2.002 5.261 0 7.271l-9.174 9.209c-7.102 7.129-2.072 19.318 7.971 19.318h63.421c6.226 0 11.273-5.066 11.273-11.316v-63.661c0-10.083-12.143-15.131-19.245-8.003z" fill="#23f1a8"/><path d="m511.034 437.02v63.669c0 6.247-5.045 11.311-11.269 11.311h-11.423v-52.199c0-10.082-12.143-15.131-19.245-8.002l-9.167 9.201c-2.002 2.009-5.255 2.009-7.257 0l-151.619-152.193 22.691-22.777 151.598 152.173c2.013 2.021 5.285 2.021 7.298 0l9.149-9.183c7.102-7.129 19.244-2.081 19.244 8z" fill="#26d192"/></g><g><path d="m20.211 82.979 9.147-9.181c2.013-2.021 5.285-2.021 7.298 0l151.597 152.171 37.83-37.973-151.625-152.199c-2.002-2.01-2.002-5.261 0-7.271l9.174-9.209c7.101-7.128 2.072-19.317-7.972-19.317h-63.421c-6.226 0-11.273 5.066-11.273 11.316v63.661c0 10.082 12.143 15.13 19.245 8.002z" fill="#23f1a8"/><path d="m226.083 187.998-22.691 22.777-151.619-152.193c-2.006-2.014-2.006-5.271 0-7.284l9.167-9.202c7.102-7.129 2.072-19.318-7.972-19.318h-52.002v-11.467c0-6.247 5.045-11.311 11.269-11.311h63.429c10.043 0 15.072 12.188 7.971 19.316l-9.176 9.211c-2.002 2.01-2.002 5.261 0 7.271z" fill="#26d192"/></g></g></g><g><g><g><path d="m83.632 492.682-9.174-9.209c-2.002-2.01-2.002-5.261 0-7.271l151.624-152.198-37.83-37.973-151.597 152.171c-2.013 2.021-5.285 2.021-7.298 0l-9.147-9.181c-7.102-7.129-19.245-2.08-19.245 8.002v63.661c0 6.25 5.047 11.316 11.273 11.316h63.421c10.045 0 15.074-12.189 7.973-19.318z" fill="#23f1a8"/><path d="m75.663 512h-63.428c-6.224 0-11.269-5.064-11.269-11.311v-11.466h52.002c10.044 0 15.074-12.189 7.972-19.318l-9.167-9.202c-2.006-2.014-2.006-5.271 0-7.284l151.619-152.193 22.691 22.777-151.626 152.2c-2.002 2.01-2.002 5.261 0 7.271l9.176 9.211c7.102 7.127 2.073 19.315-7.97 19.315z" fill="#26d192"/></g><g><path d="m428.368 19.318 9.174 9.209c2.002 2.01 2.002 5.261 0 7.271l-151.624 152.198 37.829 37.973 151.598-152.171c2.013-2.021 5.285-2.021 7.298 0l9.147 9.181c7.102 7.129 19.245 2.08 19.245-8.002v-63.661c0-6.25-5.047-11.316-11.273-11.316l-63.422 0c-10.044 0-15.073 12.189-7.972 19.318z" fill="#23f1a8"/><path d="m323.746 225.97-22.691-22.777 151.618-152.193c2.002-2.009 5.255-2.009 7.257 0l9.167 9.202c7.102 7.129 19.245 2.08 19.245-8.002v-52.2h11.423c6.224 0 11.269 5.064 11.269 11.311v63.669c0 10.081-12.142 15.129-19.243 8.001l-9.149-9.183c-2.013-2.021-5.285-2.021-7.298 0z" fill="#26d192"/></g></g></g><g><g><ellipse cx="256" cy="255.992" fill="#1fb2cc" rx="164.216" ry="164.838"/><path d="m420.214 255.999c0 91.037-73.528 164.843-164.221 164.843-17.165 0-33.73-2.634-49.283-7.545 83.176-3.951 149.379-72.846 149.379-157.298 0-84.424-66.175-153.319-149.297-157.325 15.553-4.884 32.062-7.518 49.201-7.518 90.694 0 164.221 73.806 164.221 164.843z" fill="#189ab0"/><g><g><path d="m263.726 91.336v31.153c0 4.265-3.461 7.726-7.726 7.726s-7.726-3.461-7.726-7.726v-31.153c2.555-.123 5.13-.185 7.726-.185s5.172.061 7.726.185z" fill="#0d8c99"/></g><g><path d="m263.726 389.512v31.132c-2.555.123-5.13.185-7.726.185s-5.172-.062-7.726-.185v-31.132c0-4.275 3.461-7.726 7.726-7.726 4.265-.001 7.726 3.45 7.726 7.726z" fill="#0d8c99"/></g></g><g><g><path d="m208.045 139.796c-.958.392-1.957.587-2.946.587-3.029 0-5.913-1.803-7.139-4.78l-11.888-28.794c4.636-2.204 9.395-4.193 14.268-5.944l11.899 28.835c1.627 3.945-.248 8.468-4.194 10.096z" fill="#0d8c99"/></g><g><path d="m325.919 405.181c-4.636 2.194-9.395 4.183-14.268 5.934l-11.888-28.825c-1.628-3.945.247-8.458 4.193-10.085 3.945-1.628 8.458.247 10.086 4.193z" fill="#0d8c99"/></g></g><g><g><path d="m325.929 106.809-11.888 28.794c-1.226 2.977-4.11 4.78-7.139 4.78-.989 0-1.988-.196-2.946-.587-3.946-1.628-5.821-6.15-4.193-10.096l11.899-28.835c4.871 1.751 9.631 3.74 14.267 5.944z" fill="#0d8c99"/></g><g><path d="m212.238 382.29-11.888 28.825c-4.873-1.751-9.632-3.74-14.268-5.934l11.878-28.783c1.628-3.946 6.14-5.821 10.086-4.193 3.945 1.627 5.82 6.139 4.192 10.085z" fill="#0d8c99"/></g></g><g><g><path d="m410.537 200.113-28.691 11.93c-.968.402-1.968.597-2.956.597-3.029 0-5.903-1.793-7.139-4.77-1.638-3.935.227-8.458 4.162-10.096l28.722-11.94c2.183 4.646 4.151 9.406 5.902 14.279z" fill="#0d8c99"/></g><g><path d="m136.087 314.226-28.711 11.94c-2.184-4.646-4.162-9.405-5.903-14.278v-.01l28.68-11.919c3.935-1.638 8.458.227 10.096 4.162 1.638 3.944-.227 8.467-4.162 10.105z" fill="#0d8c99"/></g></g><g><g><path d="m410.527 311.877v.01c-1.741 4.873-3.719 9.632-5.903 14.278l-28.711-11.94c-3.935-1.638-5.8-6.16-4.162-10.106 1.638-3.935 6.15-5.8 10.096-4.162z" fill="#0d8c99"/></g><g><path d="m140.249 207.87c-1.236 2.977-4.11 4.77-7.139 4.77-.989 0-1.988-.196-2.956-.597l-28.691-11.93c1.751-4.873 3.719-9.632 5.903-14.278l28.721 11.94c3.935 1.637 5.8 6.16 4.162 10.095z" fill="#0d8c99"/></g></g><g><g><path d="m377.448 145.039-21.923 22.005c-1.514 1.515-3.492 2.277-5.48 2.277-1.968 0-3.946-.752-5.45-2.256-3.018-3.008-3.029-7.901-.021-10.92l21.964-22.046h.01c3.802 3.471 7.439 7.118 10.9 10.94z" fill="#0d8c99"/></g><g><path d="m167.425 355.855-21.953 22.036c-3.801-3.462-7.438-7.119-10.91-10.941l21.912-21.994c3.018-3.029 7.912-3.039 10.93-.021 3.019 3.009 3.029 7.902.021 10.92z" fill="#0d8c99"/></g></g><g><g><path d="m377.438 366.95c-3.472 3.822-7.108 7.479-10.909 10.941l-21.953-22.036c-3.008-3.018-2.998-7.912.021-10.92 3.018-3.019 7.912-3.008 10.93.021z" fill="#0d8c99"/></g><g><path d="m167.404 167.064c-1.504 1.504-3.482 2.256-5.45 2.256-1.988 0-3.966-.762-5.48-2.277l-21.922-22.005c3.461-3.822 7.098-7.469 10.899-10.941h.01l21.964 22.046c3.008 3.02 2.998 7.913-.021 10.921z" fill="#0d8c99"/></g></g><g><g><path d="m420.211 255.99c0 2.596-.062 5.172-.185 7.737h-31.019c-4.265 0-7.726-3.461-7.726-7.726s3.462-7.726 7.726-7.726h31.019c.123 2.553.185 5.129.185 7.715z" fill="#0d8c99"/></g><g><path d="m130.72 256c0 4.265-3.461 7.726-7.726 7.726h-31.019c-.124-2.565-.185-5.141-.185-7.737 0-2.586.062-5.161.185-7.716h31.019c4.264.001 7.726 3.462 7.726 7.727z" fill="#0d8c99"/></g></g></g><g><ellipse cx="256" cy="255.993" fill="#fca62f" rx="133.001" ry="133.505"/><path d="m389 255.999c0 73.732-59.551 133.51-133.006 133.51-13.903 0-27.318-2.133-39.915-6.111 67.366-3.2 120.985-58.999 120.985-127.399 0-68.377-53.596-124.176-120.918-127.42 12.597-3.955 25.968-6.089 39.848-6.089 73.455 0 133.006 59.777 133.006 133.509z" fill="#f98824"/></g><ellipse cx="256" cy="255.995" fill="#fee265" rx="96.068" ry="96.432"/><path d="m352.068 255.999c0 53.258-43.015 96.435-96.071 96.435-10.042 0-19.732-1.541-28.831-4.414 48.659-2.311 87.388-42.616 87.388-92.021 0-49.389-38.713-89.694-87.34-92.037 9.099-2.857 18.757-4.398 28.783-4.398 53.056-.001 96.071 43.177 96.071 96.435z" fill="#fdd330"/><path d="m281.705 270.402c0-11.9-9.658-21.582-21.53-21.582h-8.35c-3.351 0-6.077-2.751-6.077-6.131s2.726-6.13 6.077-6.13h8.35c2.017 0 3.9 1.008 5.037 2.697 2.383 3.539 7.185 4.479 10.723 2.096 3.54-2.382 4.479-7.183 2.096-10.723-3.34-4.963-8.527-8.253-14.305-9.219v-2.678c0-4.268-3.459-7.726-7.726-7.726s-7.726 3.459-7.726 7.726v2.693c-10.184 1.705-17.979 10.578-17.979 21.264 0 11.9 9.658 21.583 21.53 21.583h8.35c3.351 0 6.077 2.749 6.077 6.13s-2.726 6.13-6.077 6.13h-8.35c-2.445 0-4.643-1.467-5.6-3.736-1.656-3.934-6.192-5.777-10.12-4.12-3.933 1.657-5.777 6.188-4.12 10.12 2.907 6.899 9.088 11.687 16.288 12.886v1.576c0 4.268 3.459 7.726 7.726 7.726s7.726-3.459 7.726-7.726v-1.592c10.186-1.706 17.98-10.578 17.98-21.264z" fill="#e8b125"/></g></g><g><g><path d="m268.62 324.2c-3.58 0-6.793-2.503-7.554-6.147-.874-4.177 1.804-8.271 5.981-9.144 3.688-.772 7.3-1.936 10.733-3.46 3.898-1.732 8.466.027 10.196 3.927 1.731 3.899-.026 8.465-3.927 10.196-4.429 1.967-9.085 3.468-13.84 4.462-.533.112-1.065.166-1.589.166zm-25.669-.079c-.544 0-1.097-.058-1.65-.179-4.736-1.03-9.381-2.571-13.806-4.58-3.886-1.764-5.606-6.343-3.842-10.228 1.765-3.885 6.344-5.609 10.228-3.842 3.433 1.558 7.034 2.754 10.705 3.552 4.17.907 6.814 5.023 5.906 9.192-.786 3.615-3.986 6.085-7.541 6.085zm58.724-18.985c-1.84 0-3.687-.654-5.163-1.981-3.173-2.853-3.433-7.738-.579-10.911 2.522-2.805 4.758-5.882 6.645-9.147 2.135-3.694 6.862-4.96 10.555-2.823 3.694 2.135 4.959 6.861 2.823 10.555-2.424 4.193-5.295 8.146-8.532 11.746-1.527 1.698-3.633 2.561-5.749 2.561zm-91.65-.33c-2.132 0-4.254-.876-5.781-2.597-3.218-3.625-6.063-7.597-8.456-11.805-2.109-3.71-.811-8.427 2.899-10.535s8.427-.81 10.535 2.899c1.859 3.272 4.072 6.361 6.576 9.181 2.833 3.19 2.543 8.073-.648 10.907-1.469 1.307-3.301 1.95-5.125 1.95zm107.199-34.535c-.27 0-.543-.014-.818-.043-4.243-.447-7.322-4.249-6.875-8.493.197-1.87.297-3.775.297-5.661 0-1.871-.099-3.772-.292-5.651-.439-4.244 2.647-8.04 6.892-8.478 4.235-.449 8.041 2.648 8.478 6.892.249 2.403.374 4.838.374 7.236 0 2.425-.129 4.873-.381 7.279-.417 3.969-3.77 6.919-7.675 6.919zm-122.481-.438c-3.926 0-7.286-2.979-7.68-6.967-.227-2.3-.343-4.634-.344-6.939 0-2.529.139-5.075.412-7.574.463-4.241 4.251-7.319 8.521-6.839 4.241.464 7.304 4.279 6.839 8.521-.212 1.942-.32 3.923-.32 5.888.001 1.798.092 3.624.27 5.422.42 4.246-2.682 8.029-6.929 8.45-.257.025-.514.038-.769.038zm114.887-36.468c-2.7 0-5.322-1.417-6.74-3.939-1.845-3.279-4.044-6.375-6.536-9.205-2.821-3.201-2.511-8.083.691-10.904 3.201-2.822 8.084-2.512 10.904.691 3.205 3.639 6.034 7.623 8.407 11.841 2.093 3.719.775 8.43-2.945 10.522-1.198.674-2.499.994-3.781.994zm-106.771-.831c-1.323 0-2.663-.34-3.888-1.054-3.685-2.152-4.929-6.882-2.778-10.568 2.44-4.179 5.327-8.119 8.58-11.708 2.865-3.161 7.752-3.401 10.913-.535 3.161 2.865 3.401 7.751.535 10.913-2.534 2.796-4.783 5.865-6.683 9.121-1.435 2.459-4.022 3.831-6.679 3.831zm78.686-25.025c-1.078 0-2.174-.227-3.218-.706-3.426-1.572-7.023-2.784-10.691-3.599-4.165-.926-6.792-5.052-5.866-9.218.925-4.165 5.052-6.795 9.218-5.866 4.731 1.051 9.369 2.612 13.786 4.639 3.878 1.781 5.578 6.367 3.799 10.245-1.301 2.834-4.101 4.505-7.028 4.505zm-50.217-.401c-2.973 0-5.808-1.726-7.079-4.624-1.714-3.907.063-8.465 3.971-10.18 4.434-1.946 9.097-3.427 13.859-4.401 4.178-.855 8.264 1.839 9.119 6.02.856 4.18-1.84 8.263-6.02 9.119-3.695.757-7.311 1.904-10.748 3.413-1.011.442-2.065.653-3.102.653z" fill="#fca62f"/></g></g></g></svg>