<svg id="Capa_1" enable-background="new 0 0 512 512" height="512" viewBox="0 0 512 512" width="512" xmlns="http://www.w3.org/2000/svg"><g><g><g><g><g><path d="m111.906 11.219h358.41v476.16h-358.41z" fill="#fcb44d"/><g fill="#fb9927"><path d="m432.595 11.216h37.717v476.167h-37.717z"/><path d="m470.317 11.219v65.231l-1.092 2.421c-9.694 21.479-31.184 35.356-54.744 35.356h-246.749c-23.56 0-45.05-13.877-54.744-35.356l-1.082-2.4v-65.252z"/><circle cx="291.107" cy="107.615" r="27.591"/></g><g><path d="m271.242 183.624c-4.268 0-7.726-3.459-7.726-7.726v-89.626c0-4.267 3.459-7.726 7.726-7.726s7.726 3.459 7.726 7.726v89.626c0 4.267-3.459 7.726-7.726 7.726z" fill="#ffd496"/></g><g><path d="m310.972 183.624c-4.268 0-7.726-3.459-7.726-7.726v-89.626c0-4.267 3.459-7.726 7.726-7.726 4.268 0 7.726 3.459 7.726 7.726v89.626c0 4.267-3.459 7.726-7.726 7.726z" fill="#ffd496"/></g><circle cx="291.107" cy="197.241" fill="#fb9927" r="27.591"/></g><g><path d="m445.751 68.274 23.534-52.13c3.418-7.57-2.118-16.144-10.424-16.144h-335.508c-8.306 0-13.842 8.574-10.424 16.144l23.534 52.13c5.55 12.293 17.786 20.194 31.273 20.194h246.742c13.487 0 25.724-7.902 31.273-20.194z" fill="#ffd496"/><path d="m469.286 16.143-23.54 52.127c-5.542 12.3-17.781 20.202-31.266 20.202h-35.119c13.495 0 25.724-7.902 31.276-20.202l23.54-52.127c3.411-7.572-2.121-16.143-10.425-16.143h35.108c8.304 0 13.846 8.571 10.426 16.143z" fill="#fcc16d"/><g><path d="m291.107 418.889c-4.268 0-7.726-3.459-7.726-7.726v-208.895c0-4.267 3.459-7.726 7.726-7.726s7.726 3.459 7.726 7.726v208.895c0 4.267-3.459 7.726-7.726 7.726z" fill="#f98824"/></g><path d="m136.463 430.326-23.534 52.13c-3.418 7.57 2.119 16.144 10.424 16.144h335.509c8.306 0 13.842-8.574 10.424-16.144l-23.534-52.13c-5.55-12.293-17.786-20.194-31.273-20.194h-246.743c-13.487 0-25.724 7.902-31.273 20.194z" fill="#ffd496"/><g><path d="m458.861 498.597h-35.108c8.303 0 13.835-8.571 10.425-16.143l-23.54-52.127c-5.553-12.29-17.781-20.192-31.276-20.192h35.119c13.485 0 25.724 7.902 31.266 20.192l23.54 52.127c3.419 7.572-2.123 16.143-10.426 16.143z" fill="#fcc16d"/></g></g></g><g><g><g id="XMLID_954_"><path d="m433.037 383.393c-4.268 0-7.726-3.459-7.726-7.726v-.104c0-4.267 3.459-7.726 7.726-7.726s7.726 3.459 7.726 7.726v.104c.001 4.267-3.458 7.726-7.726 7.726z" fill="#f98824"/></g><g id="XMLID_953_"><path d="m409.221 383.393c-4.268 0-7.726-3.459-7.726-7.726v-.104c0-4.267 3.459-7.726 7.726-7.726 4.268 0 7.726 3.459 7.726 7.726v.104c.001 4.267-3.458 7.726-7.726 7.726z" fill="#f98824"/></g><g id="XMLID_952_"><path d="m385.405 383.393c-4.268 0-7.726-3.459-7.726-7.726v-.104c0-4.267 3.459-7.726 7.726-7.726s7.726 3.459 7.726 7.726v.104c.001 4.267-3.458 7.726-7.726 7.726z" fill="#f98824"/></g></g><g><g><path d="m433.037 353.531h-94.787c-4.268 0-7.726-3.459-7.726-7.726s3.459-7.726 7.726-7.726h94.787c4.268 0 7.726 3.459 7.726 7.726.001 4.266-3.458 7.726-7.726 7.726z" fill="#f98824"/></g><g><path d="m363.205 324.887h-24.955c-4.268 0-7.726-3.459-7.726-7.726s3.459-7.726 7.726-7.726h24.955c4.268 0 7.726 3.459 7.726 7.726s-3.458 7.726-7.726 7.726z" fill="#f98824"/></g><g><path d="m433.037 324.887h-40.864c-4.268 0-7.726-3.459-7.726-7.726s3.459-7.726 7.726-7.726h40.864c4.268 0 7.726 3.459 7.726 7.726s-3.458 7.726-7.726 7.726z" fill="#f98824"/></g></g></g></g><g><g><circle cx="291.107" cy="86.272" fill="#189ab0" r="27.591"/><path d="m318.699 86.274c0 15.238-12.353 27.591-27.591 27.591-3.999 0-7.803-.854-11.229-2.389 9.64-4.29 16.362-13.963 16.362-25.203s-6.722-20.912-16.362-25.203c3.426-1.535 7.23-2.388 11.229-2.388 15.238.002 27.591 12.354 27.591 27.592z" fill="#1682ad"/></g><g id="XMLID_955_"><path d="m291.107 94.055c-4.268 0-7.726-3.459-7.726-7.726v-.112c0-4.267 3.459-7.726 7.726-7.726s7.726 3.459 7.726 7.726v.112c0 4.267-3.459 7.726-7.726 7.726z" fill="#0d5f7f"/></g></g><g><g><circle cx="291.107" cy="175.898" fill="#189ab0" r="27.591"/><path d="m318.699 175.901c0 15.238-12.353 27.591-27.591 27.591-3.999 0-7.803-.854-11.229-2.389 9.64-4.29 16.362-13.963 16.362-25.203s-6.722-20.912-16.362-25.203c3.426-1.535 7.23-2.388 11.229-2.388 15.238.001 27.591 12.353 27.591 27.592z" fill="#1682ad"/></g><g id="XMLID_956_"><path d="m291.107 183.682c-4.268 0-7.726-3.459-7.726-7.726v-.112c0-4.267 3.459-7.726 7.726-7.726s7.726 3.459 7.726 7.726v.112c0 4.266-3.459 7.726-7.726 7.726z" fill="#0d5f7f"/></g></g></g><g><g><circle cx="133.928" cy="419.748" fill="#fca62f" r="92.245"/><path d="m226.173 419.752c0 50.945-41.303 92.248-92.248 92.248-9.642 0-18.947-1.474-27.684-4.222 46.723-2.211 83.911-40.765 83.911-88.026 0-47.245-37.172-85.799-83.864-88.041 8.737-2.733 18.01-4.207 27.637-4.207 50.945 0 92.248 41.303 92.248 92.248z" fill="#f98824"/></g><circle cx="133.928" cy="419.749" fill="#fee265" r="64.429"/><path d="m198.357 419.752c0 35.583-28.848 64.431-64.431 64.431-6.735 0-13.234-1.029-19.336-2.949 32.634-1.544 58.608-28.473 58.608-61.482 0-32.998-25.963-59.927-58.575-61.492 6.102-1.909 12.579-2.938 19.303-2.938 35.583-.001 64.431 28.847 64.431 64.43z" fill="#fdd330"/><path d="m159.575 434.055c0-11.847-9.639-21.485-21.486-21.485h-8.323c-3.326 0-6.032-2.707-6.032-6.033s2.706-6.032 6.032-6.032h8.323c2.008 0 3.88.996 5.007 2.665 2.388 3.535 7.191 4.465 10.728 2.076 3.535-2.389 4.465-7.192 2.076-10.727-3.329-4.927-8.494-8.196-14.246-9.162v-2.61c0-4.267-3.459-7.726-7.726-7.726s-7.726 3.459-7.726 7.726v2.625c-10.153 1.706-17.921 10.534-17.921 21.164 0 11.847 9.638 21.485 21.485 21.485h8.323c3.327 0 6.033 2.706 6.033 6.032s-2.706 6.033-6.033 6.033h-8.323c-2.431 0-4.614-1.447-5.561-3.687-1.662-3.931-6.197-5.769-10.125-4.107-3.931 1.662-5.77 6.196-4.107 10.126 2.899 6.856 9.057 11.615 16.228 12.815v1.515c0 4.267 3.459 7.726 7.726 7.726s7.726-3.459 7.726-7.726v-1.531c10.154-1.704 17.922-10.532 17.922-21.162z" fill="#e8b125"/></g></g></svg>