<svg id="Capa_1" enable-background="new 0 0 550.359 550.359" height="512" viewBox="0 0 550.359 550.359" width="512" xmlns="http://www.w3.org/2000/svg"><g><g><g><g><g><g><path d="m342.027 512.706h-133.695l8.241-91.819h36.066v28.278c0 12.449 10.092 22.54 22.54 22.54 12.449 0 22.54-10.092 22.54-22.54v-28.278h36.066z" fill="#1682ad"/><g fill="#107295"><path d="m337.083 457.628-3.298-36.74h-36.065v28.278c0 2.994-.59 5.849-1.651 8.462z"/><path d="m254.291 457.628c-1.062-2.613-1.651-5.467-1.651-8.462v-28.278h-36.066l-3.298 36.74z"/><path d="m342.027 512.706h-30.369l-8.242-91.818h30.37z"/></g></g></g><g><g><path d="m368.558 550.356h-186.757c-5.689 0-10.302-4.612-10.302-10.302v-19.073c0-5.689 4.612-10.302 10.302-10.302h186.757c5.689 0 10.302 4.612 10.302 10.302v19.073c0 5.69-4.612 10.302-10.302 10.302z" fill="#189ab0"/></g><g><path d="m378.856 520.979v19.079c0 5.687-4.605 10.302-10.302 10.302h-30.359c5.687 0 10.302-4.615 10.302-10.302v-19.079c0-5.687-4.615-10.302-10.302-10.302h30.359c5.697 0 10.302 4.615 10.302 10.302z" fill="#1682ad"/></g></g></g><g><g><g><g><g><path d="m499.114 87.311v-47.479c0-21.999-17.834-39.832-39.832-39.832h-308.055v87.311z" fill="#8dcafc"/></g></g></g><path d="m531.18 102.675v280.251h-512v-280.251c0-11.55 9.357-20.896 20.907-20.896h470.197c11.538 0 20.896 9.346 20.896 20.896z" fill="#a176bd"/><g><path d="m419.044 382.931v-343.099c0-22 17.831-39.832 39.832-39.832h-308.303c-21.999 0-39.832 17.833-39.832 39.832v343.099z" fill="#eaf6ff"/></g><g><path d="m458.88 0c-22.003 0-39.832 17.829-39.832 39.832v343.094h-41.736v-343.094c0-22.003 17.828-39.832 39.831-39.832z" fill="#d9ecfd"/></g><path d="m531.18 102.675v280.251h-39.666v-280.251c0-11.539-9.368-20.896-20.907-20.896h39.677c11.538 0 20.896 9.357 20.896 20.896z" fill="#915eb2"/></g><g><path d="m531.18 377.389v33.265c0 11.55-9.357 20.907-20.896 20.907h-470.197c-11.55 0-20.907-9.357-20.907-20.907v-33.265z" fill="#189ab0"/><g fill="#1682ad"><path d="m462.324 377.389c-18.792 23.398-47.639 38.381-79.996 38.381s-61.204-14.983-79.996-38.381z"/><path d="m531.175 377.394v33.264c0 11.548-9.354 20.902-20.892 20.902h-39.672c11.538 0 20.902-9.354 20.902-20.902v-33.264z"/></g></g></g></g></g><g><g><path d="m165.749 164.019c-2.126 0-4.251-.811-5.873-2.433l-9.058-9.058c-3.244-3.243-3.244-8.502 0-11.745 3.243-3.243 8.502-3.243 11.745 0l3.185 3.185 9.254-9.254c3.243-3.243 8.502-3.243 11.745 0 3.244 3.243 3.244 8.502 0 11.745l-15.127 15.127c-1.62 1.622-3.746 2.433-5.871 2.433z" fill="#1ec480"/></g><g><path d="m382.327 156.456h-108.126c-4.587 0-8.305-3.718-8.305-8.305s3.718-8.305 8.305-8.305h108.126c4.587 0 8.305 3.718 8.305 8.305s-3.718 8.305-8.305 8.305z" fill="#b3d5f2"/></g><g><path d="m246.496 156.456h-27.578c-4.587 0-8.305-3.718-8.305-8.305s3.718-8.305 8.305-8.305h27.578c4.587 0 8.305 3.718 8.305 8.305s-3.718 8.305-8.305 8.305z" fill="#b3d5f2"/></g><g><g><path d="m165.749 123.666c-2.126 0-4.251-.811-5.873-2.433l-9.058-9.058c-3.244-3.243-3.244-8.502 0-11.745 3.243-3.243 8.502-3.243 11.745 0l3.185 3.185 9.254-9.254c3.244-3.244 8.503-3.244 11.745 0 3.244 3.244 3.244 8.502 0 11.745l-15.127 15.126c-1.62 1.623-3.746 2.434-5.871 2.434z" fill="#1ec480"/></g><g><g><g><path d="m382.327 116.103h-5.555c-4.587 0-8.305-3.718-8.305-8.305s3.718-8.305 8.305-8.305h5.555c4.587 0 8.305 3.718 8.305 8.305s-3.718 8.305-8.305 8.305z" fill="#b3d5f2"/></g><g><path d="m346.655 116.103h-27.083c-4.587 0-8.305-3.718-8.305-8.305s3.718-8.305 8.305-8.305h27.083c4.587 0 8.305 3.718 8.305 8.305s-3.718 8.305-8.305 8.305z" fill="#b3d5f2"/></g><g><path d="m291.867 116.103h-72.949c-4.587 0-8.305-3.718-8.305-8.305s3.718-8.305 8.305-8.305h72.949c4.587 0 8.305 3.718 8.305 8.305s-3.718 8.305-8.305 8.305z" fill="#b3d5f2"/></g></g></g></g><g><path d="m165.749 83.313c-2.203 0-4.315-.875-5.873-2.433l-9.058-9.058c-3.244-3.244-3.243-8.502 0-11.745 3.244-3.244 8.503-3.244 11.745 0l3.185 3.185 9.254-9.254c3.243-3.243 8.502-3.243 11.745 0 3.244 3.243 3.244 8.502 0 11.745l-15.127 15.127c-1.556 1.558-3.669 2.433-5.871 2.433z" fill="#1ec480"/></g><g><path d="m382.327 75.75h-108.126c-4.587 0-8.305-3.718-8.305-8.305s3.718-8.305 8.305-8.305h108.126c4.587 0 8.305 3.718 8.305 8.305s-3.718 8.305-8.305 8.305z" fill="#b3d5f2"/></g><g><path d="m246.496 75.75h-27.578c-4.587 0-8.305-3.718-8.305-8.305s3.718-8.305 8.305-8.305h27.578c4.587 0 8.305 3.718 8.305 8.305s-3.718 8.305-8.305 8.305z" fill="#b3d5f2"/></g></g><g><g><g><path d="m303.417 218.029v19.357c0 5.847-4.739 10.575-10.575 10.575h-104.413v-40.507l104.413-.011c5.836-.001 10.575 4.739 10.575 10.586z" fill="#31a7fb"/><path d="m193.961 207.448v40.515h-27.013c-5.849 0-10.577-4.738-10.577-10.577v-19.361c0-5.839 4.728-10.577 10.577-10.577z" fill="#70d9e6"/><path d="m303.413 218.025v19.361c0 5.839-4.728 10.577-10.577 10.577h-35.665c5.849 0 10.577-4.738 10.577-10.577v-19.361c0-5.839-4.728-10.577-10.577-10.577h35.665c5.85 0 10.577 4.739 10.577 10.577z" fill="#1c96f9"/></g><g><path d="m303.417 258.547v19.357c0 5.847-4.739 10.575-10.575 10.575h-104.413v-40.519h104.413c5.836 0 10.575 4.74 10.575 10.587z" fill="#72f4c3"/><path d="m193.961 247.963v40.515h-27.013c-5.849 0-10.577-4.728-10.577-10.577v-19.361c0-5.838 4.728-10.577 10.577-10.577z" fill="#20bfd5"/><path d="m303.413 258.54v19.361c0 5.849-4.728 10.577-10.577 10.577h-35.665c5.849 0 10.577-4.728 10.577-10.577v-19.361c0-5.838-4.728-10.577-10.577-10.577h35.665c5.85 0 10.577 4.739 10.577 10.577z" fill="#23f1a8"/></g><g><path d="m303.417 299.054v19.368c0 5.836-4.739 10.575-10.575 10.575h-104.413v-40.518h104.413c5.836 0 10.575 4.74 10.575 10.575z" fill="#31a7fb"/><path d="m193.961 288.478v40.525h-27.013c-5.849 0-10.577-4.738-10.577-10.577v-19.372c0-5.838 4.728-10.577 10.577-10.577h27.013z" fill="#70d9e6"/><path d="m303.413 299.055v19.372c0 5.838-4.728 10.577-10.577 10.577h-35.665c5.849 0 10.577-4.738 10.577-10.577v-19.372c0-5.838-4.728-10.577-10.577-10.577h35.665c5.85 0 10.577 4.739 10.577 10.577z" fill="#1c96f9"/></g></g></g><g><g><circle cx="382.327" cy="289.138" fill="#fca62f" r="102.553"/><path d="m484.88 289.142c0 56.638-45.918 102.557-102.557 102.557-10.72 0-21.064-1.639-30.777-4.694 51.944-2.458 93.288-45.321 93.288-97.863 0-52.524-41.326-95.387-93.236-97.879 9.713-3.038 20.023-4.677 30.726-4.677 56.638-.001 102.556 45.918 102.556 102.556z" fill="#f98824"/></g><circle cx="382.327" cy="289.139" fill="#fee265" r="71.629"/><path d="m453.956 289.142c0 39.559-32.072 71.631-71.631 71.631-7.487 0-14.712-1.145-21.496-3.279 36.28-1.717 65.157-31.655 65.157-68.352 0-36.686-28.865-66.623-65.121-68.364 6.784-2.122 13.985-3.267 21.461-3.267 39.558 0 71.63 32.072 71.63 71.631z" fill="#fdd330"/><path d="m410.556 305.044c0-13.014-10.588-23.602-23.602-23.602h-9.253c-3.855 0-6.991-3.136-6.991-6.991s3.136-6.991 6.991-6.991h9.253c2.327 0 4.495 1.154 5.802 3.089 2.567 3.8 7.73 4.8 11.531 2.232s4.8-7.73 2.232-11.531c-3.702-5.481-9.472-9.092-15.887-10.102v-3.144c0-4.587-3.718-8.305-8.305-8.305s-8.305 3.718-8.305 8.305v3.162c-11.269 1.776-19.923 11.526-19.923 23.285 0 13.014 10.588 23.602 23.602 23.602h9.253c3.855 0 6.991 3.137 6.991 6.992s-3.136 6.991-6.991 6.991h-9.253c-2.818 0-5.348-1.677-6.445-4.273-1.788-4.224-6.663-6.202-10.885-4.414-4.225 1.787-6.2 6.66-4.414 10.885 3.218 7.607 10.085 12.87 18.065 14.121v1.921c0 4.587 3.718 8.305 8.305 8.305s8.305-3.718 8.305-8.305v-1.945c11.269-1.777 19.924-11.527 19.924-23.287z" fill="#e8b125"/></g></g></svg>