<svg id="Capa_1" enable-background="new 0 0 512 512" height="512" viewBox="0 0 512 512" width="512" xmlns="http://www.w3.org/2000/svg"><g><g><g><path d="m479.897 248.202-223.897-213.175-223.897 213.175c-2.248 2.18-3.518 5.177-3.518 8.309v119.182h454.829v-119.183c0-3.131-1.269-6.129-3.517-8.308z" fill="#fb9927"/><path d="m483.412 256.515v119.182h-37.2v-102.586c0-3.132-1.267-6.13-3.523-8.314l-214.009-203.759 27.32-26.012 223.9 213.175c2.245 2.185 3.512 5.182 3.512 8.314z" fill="#f98824"/></g><g><g><g><g><path d="m416.145 11.666v446.079c0 6.439-5.226 11.666-11.666 11.666h-296.959c-6.439 0-11.666-5.226-11.666-11.666v-446.079c0-6.44 5.227-11.666 11.666-11.666h296.96c6.439 0 11.665 5.226 11.665 11.666z" fill="#eaf6ff"/><g><g><g><path d="m282.449 230.271h-45.141c-4.267 0-7.726-3.459-7.726-7.726s3.459-7.726 7.726-7.726h45.141c4.267 0 7.726 3.459 7.726 7.726s-3.459 7.726-7.726 7.726z" fill="#b3d5f2"/></g><g><path d="m367.54 264.149h-2.18c-4.267 0-7.726-3.459-7.726-7.726s3.459-7.726 7.726-7.726h2.18c4.267 0 7.726 3.459 7.726 7.726s-3.459 7.726-7.726 7.726z" fill="#b3d5f2"/></g><g><path d="m336.515 264.149h-19.238c-4.267 0-7.726-3.459-7.726-7.726s3.459-7.726 7.726-7.726h19.238c4.267 0 7.726 3.459 7.726 7.726s-3.459 7.726-7.726 7.726z" fill="#b3d5f2"/></g><g><path d="m288.431 264.149h-51.123c-4.267 0-7.726-3.459-7.726-7.726s3.459-7.726 7.726-7.726h51.123c4.267 0 7.726 3.459 7.726 7.726s-3.459 7.726-7.726 7.726z" fill="#b3d5f2"/></g><g><path d="m367.54 292.178h-83.119c-4.267 0-7.726-3.459-7.726-7.726s3.459-7.726 7.726-7.726h83.119c4.267 0 7.726 3.459 7.726 7.726s-3.459 7.726-7.726 7.726z" fill="#b3d5f2"/></g><g><path d="m255.758 292.178h-18.45c-4.267 0-7.726-3.459-7.726-7.726s3.459-7.726 7.726-7.726h18.45c4.267 0 7.726 3.459 7.726 7.726s-3.459 7.726-7.726 7.726z" fill="#b3d5f2"/></g><g><path d="m367.54 320.207h-65.336c-4.267 0-7.726-3.459-7.726-7.726s3.459-7.726 7.726-7.726h65.336c4.267 0 7.726 3.459 7.726 7.726s-3.459 7.726-7.726 7.726z" fill="#b3d5f2"/></g></g><g><path d="m188.281 402.06h-33.519c-5.69 0-10.302-4.612-10.302-10.302v-163.234c0-5.69 4.612-10.302 10.302-10.302h33.519c5.69 0 10.302 4.612 10.302 10.302v163.234c-.001 5.689-4.613 10.302-10.302 10.302z" fill="#fb4a59"/><path d="m198.587 228.525v163.232c0 5.687-4.615 10.302-10.302 10.302h-27.063c5.687 0 10.302-4.615 10.302-10.302v-163.232c0-5.687-4.615-10.302-10.302-10.302h27.063c5.687 0 10.302 4.616 10.302 10.302z" fill="#f82f40"/></g></g><path d="m416.145 11.666v446.079c0 6.439-5.226 11.666-11.666 11.666h-36.642c6.439 0 11.666-5.226 11.666-11.666v-446.079c.001-6.44-5.225-11.666-11.665-11.666h36.642c6.439 0 11.665 5.226 11.665 11.666z" fill="#d9ecfd"/></g></g></g><g><g><g><circle cx="232.684" cy="114.334" fill="#23f1a8" r="69.521"/><path d="m302.204 114.336c0 38.395-31.128 69.523-69.523 69.523-7.267 0-14.279-1.111-20.864-3.182 35.213-1.666 63.239-30.723 63.239-66.341 0-35.606-28.015-64.663-63.205-66.352 6.584-2.06 13.574-3.171 20.829-3.171 38.396.001 69.524 31.128 69.524 69.523z" fill="#26d192"/><path d="m259.746 129.771c0-12.447-10.126-22.573-22.572-22.573h-8.981c-3.926 0-7.12-3.194-7.12-7.12s3.194-7.12 7.12-7.12h8.981c2.369 0 4.578 1.176 5.908 3.144 2.389 3.535 7.191 4.466 10.727 2.076 3.536-2.389 4.465-7.192 2.076-10.727-3.596-5.322-9.229-8.802-15.476-9.705v-3.338c0-4.267-3.459-7.726-7.726-7.726s-7.726 3.459-7.726 7.726v3.332c-10.919 1.575-19.337 10.99-19.337 22.338 0 12.447 10.126 22.572 22.572 22.572h8.981c3.926 0 7.12 3.194 7.12 7.12s-3.194 7.12-7.12 7.12h-8.981c-2.869 0-5.446-1.708-6.563-4.352-1.663-3.93-6.196-5.769-10.126-4.106-3.93 1.662-5.768 6.196-4.106 10.126 3.116 7.365 9.807 12.434 17.56 13.549v2.151c0 4.267 3.459 7.726 7.726 7.726s7.726-3.459 7.726-7.726v-2.151c10.92-1.574 19.337-10.989 19.337-22.336z" fill="#1ec480"/></g><g><g id="XMLID_97_"><path d="m348.838 122.083c-.008 0-.016 0-.023 0l-12.23-.036c-4.268-.013-7.716-3.482-7.704-7.749.013-4.26 3.469-7.704 7.726-7.704h.023l12.23.036c4.268.013 7.716 3.482 7.704 7.749-.013 4.26-3.47 7.704-7.726 7.704z" fill="#b3d5f2"/></g><g id="XMLID_94_"><path d="m331.402 91.479c-2.627 0-5.188-1.34-6.636-3.758-2.193-3.66-1.003-8.406 2.658-10.598l10.609-6.354c3.66-2.195 8.405-1.002 10.598 2.658s1.003 8.406-2.658 10.598l-10.609 6.354c-1.242.746-2.611 1.1-3.962 1.1z" fill="#b3d5f2"/></g><g id="XMLID_69_"><path d="m341.794 159.003c-1.366 0-2.749-.362-4.001-1.122l-10.574-6.418c-3.648-2.214-4.81-6.966-2.596-10.614 2.214-3.647 6.966-4.809 10.614-2.596l10.574 6.418c3.648 2.214 4.81 6.966 2.596 10.614-1.454 2.394-4.002 3.718-6.613 3.718z" fill="#b3d5f2"/></g></g></g></g></g><g><g><path d="m48.635 258.079 217.831 234.473c6.878 7.403 1.628 19.448-8.478 19.448h-217.831c-6.391 0-11.572-5.181-11.572-11.572v-234.473c.001-10.516 12.893-15.58 20.05-7.876z" fill="#fcc16d"/><path d="m257.988 512h-18.203l-211.197-227.33v-18.719c0-10.508 12.888-15.576 20.047-7.87l217.832 234.469c6.881 7.407 1.627 19.45-8.479 19.45z" fill="#fcb44d"/><path d="m463.365 258.079-217.832 234.473c-6.878 7.403-1.628 19.448 8.478 19.448h217.831c6.391 0 11.572-5.181 11.572-11.572v-234.473c0-10.516-12.892-15.58-20.049-7.876z" fill="#fcb44d"/><path d="m483.412 265.951v234.48c0 6.387-5.182 11.569-11.569 11.569h-33.213c6.387 0 11.569-5.182 11.569-11.569v-205.634c0-6.449-4.862-10.848-10.261-11.497l23.426-25.219c7.161-7.706 20.048-2.637 20.048 7.87z" fill="#fb9927"/></g></g><g><path d="m277.178 338.252h-40.673c-5.838 0-11.461 2.207-15.741 6.178l-180.607 167.57h431.685l-178.844-167.497c-4.289-4.016-9.945-6.251-15.82-6.251z" fill="#ffd496"/><path d="m471.844 512h-44.184l-178.84-167.497c-3.863-3.616-8.829-5.789-14.062-6.181.577-.051 1.164-.072 1.751-.072h40.672c5.872 0 11.528 2.235 15.813 6.253z" fill="#fcc16d"/></g></g><g><g id="XMLID_284_"><path d="m174.522 490.595c-4.267 0-7.726-3.459-7.726-7.726v-.107c0-4.267 3.459-7.726 7.726-7.726s7.726 3.459 7.726 7.726v.107c0 4.266-3.459 7.726-7.726 7.726z" fill="#fcb44d"/></g><g id="XMLID_297_"><path d="m150.066 490.595c-4.267 0-7.726-3.459-7.726-7.726v-.107c0-4.267 3.459-7.726 7.726-7.726s7.726 3.459 7.726 7.726v.107c0 4.266-3.459 7.726-7.726 7.726z" fill="#fcb44d"/></g><g id="XMLID_299_"><path d="m125.61 490.595c-4.267 0-7.726-3.459-7.726-7.726v-.107c0-4.267 3.459-7.726 7.726-7.726s7.726 3.459 7.726 7.726v.107c.001 4.266-3.459 7.726-7.726 7.726z" fill="#fcb44d"/></g></g><g><path d="m148.581 42.753h-14.332c-4.267 0-7.726-3.459-7.726-7.726s3.459-7.726 7.726-7.726h14.332c4.267 0 7.726 3.459 7.726 7.726s-3.459 7.726-7.726 7.726z" fill="#b3d5f2"/></g></g></svg>