<svg id="Capa_1" enable-background="new 0 0 512 512" height="512" viewBox="0 0 512 512" width="512" xmlns="http://www.w3.org/2000/svg"><g><g><g><path d="m512 109.828v343.689c0 8.54-6.923 15.453-15.453 15.453h-481.094c-8.53-.001-15.453-6.913-15.453-15.453v-343.689z" fill="#eaf6ff"/><path d="m512 109.828v343.689c0 8.54-6.923 15.453-15.453 15.453h-39.662c8.53 0 15.453-6.912 15.453-15.453v-343.689z" fill="#d9ecfd"/><path d="m512 58.483v56.495h-512v-56.495c0-8.54 6.923-15.453 15.453-15.453h481.095c8.529.001 15.452 6.913 15.452 15.453z" fill="#b18bc8"/><path d="m512 58.483v56.495h-39.662v-56.495c0-8.54-6.923-15.453-15.453-15.453h39.662c8.53.001 15.453 6.913 15.453 15.453z" fill="#a176bd"/></g><g><g><g id="XMLID_348_"><path d="m39.575 86.302c-4.267 0-7.726-3.459-7.726-7.726v-.107c0-4.267 3.459-7.726 7.726-7.726s7.726 3.459 7.726 7.726v.107c.001 4.267-3.458 7.726-7.726 7.726z" fill="#f82f40"/></g><g id="XMLID_354_"><path d="m67.038 86.302c-.013 0-.025 0-.037 0-4.267-.02-7.71-3.495-7.69-7.763v-.107c.02-4.255 3.476-7.69 7.725-7.69h.037c4.267.02 7.71 3.495 7.69 7.763l-.001.107c-.019 4.255-3.475 7.69-7.724 7.69z" fill="#fee265"/></g><g id="XMLID_356_"><path d="m94.498 86.302c-4.267 0-7.726-3.459-7.726-7.726v-.107c0-4.267 3.459-7.726 7.726-7.726s7.726 3.459 7.726 7.726v.107c.001 4.267-3.458 7.726-7.726 7.726z" fill="#26d192"/></g></g><g><path d="m472.425 86.248h-202.284c-4.268 0-7.726-3.459-7.726-7.726s3.459-7.726 7.726-7.726h202.284c4.268 0 7.726 3.459 7.726 7.726s-3.459 7.726-7.726 7.726z" fill="#915eb2"/></g></g></g><g><g><path d="m183.53 412.142h-21.357v-75.181c0-4.267-3.459-7.726-7.726-7.726s-7.726 3.459-7.726 7.726v75.181h-15.326v-28.287c0-4.267-3.459-7.726-7.726-7.726s-7.726 3.459-7.726 7.726v28.287h-15.326v-49.931c0-4.267-3.459-7.726-7.726-7.726s-7.726 3.459-7.726 7.726v49.931h-13.63v-85.373c0-4.267-3.459-7.726-7.726-7.726s-7.726 3.459-7.726 7.726v93.1c0 4.267 3.459 7.726 7.726 7.726h119.721c4.267 0 7.726-3.459 7.726-7.726 0-4.268-3.459-7.727-7.726-7.727z" fill="#fb4a59"/><g><path d="m275.879 398.766h-44.056c-4.267 0-7.726-3.459-7.726-7.726s3.459-7.726 7.726-7.726h44.056c4.268 0 7.726 3.459 7.726 7.726.001 4.267-3.458 7.726-7.726 7.726z" fill="#b3d5f2"/></g><g><path d="m429.757 427.595h-197.934c-4.267 0-7.726-3.459-7.726-7.726s3.459-7.726 7.726-7.726h197.933c4.268 0 7.726 3.459 7.726 7.726.001 4.266-3.458 7.726-7.725 7.726z" fill="#b3d5f2"/></g><g><g><path d="m437.892 355.438h-203.464c-5.69 0-10.302-4.612-10.302-10.302v-18.647c0-5.69 4.612-10.302 10.302-10.302h203.464c5.69 0 10.302 4.612 10.302 10.302v18.647c0 5.689-4.612 10.302-10.302 10.302z" fill="#fb4a59"/><path d="m448.192 326.487v18.646c0 5.697-4.615 10.302-10.302 10.302h-27.99c5.697 0 10.302-4.605 10.302-10.302v-18.646c0-5.687-4.605-10.302-10.302-10.302h27.99c5.687 0 10.302 4.616 10.302 10.302z" fill="#f82f40"/></g><g><g><path d="m436.615 284.531h-204.792c-4.267 0-7.726-3.459-7.726-7.726s3.459-7.726 7.726-7.726h204.791c4.268 0 7.726 3.459 7.726 7.726.001 4.267-3.458 7.726-7.725 7.726z" fill="#b3d5f2"/></g><g><path d="m436.615 255.24h-25.089c-4.268 0-7.726-3.459-7.726-7.726s3.459-7.726 7.726-7.726h25.089c4.268 0 7.726 3.459 7.726 7.726s-3.459 7.726-7.726 7.726z" fill="#b3d5f2"/></g><g><path d="m385.502 255.24h-3.844c-4.268 0-7.726-3.459-7.726-7.726s3.459-7.726 7.726-7.726h3.844c4.268 0 7.726 3.459 7.726 7.726s-3.458 7.726-7.726 7.726z" fill="#b3d5f2"/></g><g><path d="m355.136 255.24h-84.488c-4.268 0-7.726-3.459-7.726-7.726s3.459-7.726 7.726-7.726h84.488c4.268 0 7.726 3.459 7.726 7.726s-3.459 7.726-7.726 7.726z" fill="#b3d5f2"/></g><g><path d="m242.134 255.24h-10.311c-4.267 0-7.726-3.459-7.726-7.726s3.459-7.726 7.726-7.726h10.311c4.267 0 7.726 3.459 7.726 7.726s-3.459 7.726-7.726 7.726z" fill="#b3d5f2"/></g><g><path d="m436.615 225.948h-123.724c-4.268 0-7.726-3.459-7.726-7.726s3.459-7.726 7.726-7.726h123.723c4.268 0 7.726 3.459 7.726 7.726s-3.458 7.726-7.725 7.726z" fill="#b3d5f2"/></g><g><path d="m284.448 225.948h-52.624c-4.267 0-7.726-3.459-7.726-7.726s3.459-7.726 7.726-7.726h52.624c4.268 0 7.726 3.459 7.726 7.726s-3.459 7.726-7.726 7.726z" fill="#b3d5f2"/></g></g><g><g><path d="m109.119 201.647h-39.718c-4.267 0-7.726-3.459-7.726-7.726s3.459-7.726 7.726-7.726h39.718c4.267 0 7.726 3.459 7.726 7.726s-3.459 7.726-7.726 7.726z" fill="#b3d5f2"/></g><g><path d="m154.447 174.019h-85.046c-4.267 0-7.726-3.459-7.726-7.726s3.459-7.726 7.726-7.726h85.046c4.267 0 7.726 3.459 7.726 7.726s-3.459 7.726-7.726 7.726z" fill="#b3d5f2"/></g></g></g></g><g><path d="m424.894 185.738c-1.977 0-3.955-.755-5.463-2.263l-11.72-11.72c-3.018-3.017-3.018-7.909-.001-10.927 3.018-3.017 7.91-3.018 10.927 0l6.258 6.257 6.258-6.257c3.017-3.018 7.909-3.018 10.927 0 3.017 3.018 3.017 7.909-.001 10.927l-11.72 11.72c-1.51 1.509-3.488 2.263-5.465 2.263z" fill="#915eb2"/></g></g><g><circle cx="96.939" cy="264.664" fill="#fee265" r="27.538"/><path d="m124.473 264.664c0 15.207-12.319 27.538-27.538 27.538-4.35 0-8.481-1.011-12.136-2.827 10.479-3.326 18.07-13.135 18.07-24.711s-7.591-21.385-18.07-24.711c3.655-1.816 7.786-2.827 12.136-2.827 15.219 0 27.538 12.331 27.538 27.538z" fill="#f8c52d"/></g></g></svg>