<svg id="Capa_1" enable-background="new 0 0 512 512" height="512" viewBox="0 0 512 512" width="512" xmlns="http://www.w3.org/2000/svg"><g><g><g><g><g><g><g><path d="m480.001 174.544v259.41l-78.057 78.046h-161.1c-5.676 0-10.292-4.615-10.292-10.302v-327.154c0-5.687 4.615-10.292 10.292-10.292h228.855c5.676 0 10.302 4.605 10.302 10.292z" fill="#c4e1ff"/><path d="m281.444 164.252v201.874c0 5.686-4.615 10.302-10.292 10.302h-40.599v-201.884c0-5.687 4.615-10.292 10.292-10.292z" fill="#8dcafc"/><path d="m479.997 433.952v-259.405c0-5.687-4.62-10.299-10.299-10.299h-32.357c5.688 0 10.299 4.612 10.299 10.299v291.761z" fill="#8dcafc"/><g><g fill="#7fbfea"><path d="m269.254 257.117h48.829c4.268 0 7.726-3.459 7.726-7.726s-3.459-7.726-7.726-7.726h-48.829c-4.268 0-7.726 3.459-7.726 7.726-.001 4.266 3.458 7.726 7.726 7.726z"/><path d="m269.254 229.717h105.775c4.268 0 7.726-3.459 7.726-7.726s-3.459-7.726-7.726-7.726h-105.775c-4.268 0-7.726 3.459-7.726 7.726-.001 4.267 3.458 7.726 7.726 7.726z"/><path d="m366.588 418.892h-97.334c-4.268 0-7.726 3.459-7.726 7.726s3.459 7.726 7.726 7.726h97.334c4.268 0 7.726-3.459 7.726-7.726s-3.459-7.726-7.726-7.726z"/><path d="m366.588 448.306h-25.626c-4.268 0-7.726 3.459-7.726 7.726s3.459 7.726 7.726 7.726h25.626c4.268 0 7.726-3.459 7.726-7.726s-3.459-7.726-7.726-7.726z"/><path d="m311.215 448.306h-41.962c-4.268 0-7.726 3.459-7.726 7.726s3.459 7.726 7.726 7.726h41.962c4.268 0 7.726-3.459 7.726-7.726.001-4.267-3.458-7.726-7.726-7.726z"/></g><path d="m438.209 371.574h-21.357v-75.182c0-4.267-3.459-7.726-7.726-7.726s-7.726 3.459-7.726 7.726v75.182h-15.326v-28.288c0-4.267-3.459-7.726-7.726-7.726s-7.726 3.459-7.726 7.726v28.288h-15.326v-49.931c0-4.267-3.459-7.726-7.726-7.726s-7.726 3.459-7.726 7.726v49.931h-13.63v-85.374c0-4.267-3.459-7.726-7.726-7.726s-7.726 3.459-7.726 7.726v93.1c0 4.267 3.459 7.726 7.726 7.726h119.723c4.268 0 7.726-3.459 7.726-7.726-.001-4.266-3.46-7.726-7.728-7.726z" fill="#fb4a59"/></g></g></g><path d="m401.949 444.251v67.749l78.048-78.048h-67.749c-5.679 0-10.299 4.611-10.299 10.299z" fill="#64b9fc"/></g><g><g><g><g><path d="m281.447 78.048v259.405c0 5.687-4.62 10.299-10.299 10.299h-228.849c-5.679 0-10.299-4.612-10.299-10.299v-327.154c-.001-5.687 4.619-10.299 10.299-10.299h161.1z" fill="#eaf6ff"/><path d="m281.447 78.048v259.405c0 5.687-4.62 10.299-10.299 10.299h-32.357c5.688 0 10.299-4.612 10.299-10.299v-291.762z" fill="#d9ecfd"/></g></g><path d="m203.399 67.749v-67.749l78.048 78.048h-67.749c-5.679 0-10.299-4.611-10.299-10.299z" fill="#b5dbfd"/></g><g><g><g><circle cx="135.119" cy="150.06" fill="#23f1a8" r="64.416"/><path d="m199.534 150.063c0 35.576-28.842 64.418-64.418 64.418-6.733 0-13.231-1.029-19.332-2.949 32.627-1.544 58.596-28.467 58.596-61.469 0-32.992-25.958-59.914-58.563-61.48 6.101-1.908 12.577-2.938 19.299-2.938 35.576 0 64.418 28.842 64.418 64.418z" fill="#26d192"/><path d="m160.762 164.364c0-11.846-9.637-21.483-21.482-21.483h-8.321c-3.325 0-6.03-2.705-6.03-6.03s2.705-6.03 6.03-6.03h8.321c2.007 0 3.877.995 5.004 2.663 2.388 3.536 7.191 4.467 10.727 2.077 3.536-2.388 4.466-7.191 2.077-10.727-3.328-4.927-8.491-8.195-14.243-9.161v-2.608c0-4.267-3.459-7.726-7.726-7.726s-7.726 3.459-7.726 7.726v2.623c-10.151 1.707-17.916 10.533-17.916 21.161 0 11.846 9.637 21.482 21.483 21.482h8.321c3.325 0 6.029 2.705 6.029 6.03s-2.704 6.03-6.029 6.03h-8.321c-2.431 0-4.613-1.447-5.56-3.686-1.662-3.931-6.196-5.768-10.126-4.106s-5.769 6.196-4.106 10.126c2.899 6.854 9.055 11.612 16.225 12.812v1.513c0 4.267 3.459 7.726 7.726 7.726s7.726-3.459 7.726-7.726v-1.528c10.151-1.704 17.917-10.53 17.917-21.158z" fill="#1ec480"/></g><g><g id="XMLID_492_"><path d="m242.744 157.808c-.009 0-.016 0-.024 0l-11.332-.034c-4.267-.013-7.716-3.482-7.703-7.749.013-4.259 3.47-7.703 7.725-7.703h.024l11.332.034c4.267.013 7.716 3.482 7.703 7.749-.013 4.259-3.47 7.703-7.725 7.703z" fill="#b3d5f2"/></g><g id="XMLID_491_"><path d="m226.589 129.451c-2.627 0-5.187-1.34-6.636-3.757-2.192-3.661-1.002-8.406 2.659-10.599l9.83-5.888c3.658-2.192 8.404-1.003 10.599 2.658 2.192 3.661 1.002 8.406-2.659 10.599l-9.83 5.888c-1.243.745-2.612 1.099-3.963 1.099z" fill="#b3d5f2"/></g><g id="XMLID_467_"><path d="m236.216 192.016c-1.366 0-2.749-.362-4.002-1.123l-9.797-5.947c-3.648-2.214-4.81-6.966-2.596-10.614 2.215-3.648 6.968-4.81 10.614-2.596l9.797 5.947c3.648 2.214 4.81 6.966 2.596 10.614-1.454 2.396-4.001 3.719-6.612 3.719z" fill="#b3d5f2"/></g></g></g></g><g><path d="m119.532 270.336h-48.829c-4.268 0-7.726-3.459-7.726-7.726s3.459-7.726 7.726-7.726h48.829c4.268 0 7.726 3.459 7.726 7.726.001 4.267-3.458 7.726-7.726 7.726z" fill="#b3d5f2"/></g><g><path d="m176.478 297.736h-105.775c-4.268 0-7.726-3.459-7.726-7.726s3.459-7.726 7.726-7.726h105.775c4.268 0 7.726 3.459 7.726 7.726s-3.458 7.726-7.726 7.726z" fill="#b3d5f2"/></g></g></g><g><path d="m77.207 59.278c-1.977 0-3.955-.755-5.463-2.263l-11.72-11.72c-3.018-3.017-3.018-7.909-.001-10.927 3.018-3.017 7.91-3.018 10.927 0l6.258 6.257 6.258-6.257c3.016-3.018 7.908-3.018 10.927 0 3.017 3.018 3.017 7.909-.001 10.927l-11.72 11.72c-1.51 1.508-3.488 2.263-5.465 2.263z" fill="#26d192"/></g></g></g><g fill="#64b9fc"><path d="m196.677 464.733c-16.053 2.71-32.203-.992-45.474-10.429-13.269-9.436-22.068-23.474-24.779-39.528-.896-5.305-1.086-10.607-.594-15.852 1.49 1.782 3.672 2.775 5.919 2.775 1.286 0 2.589-.321 3.788-.998 3.717-2.096 5.031-6.808 2.936-10.525l-8.434-14.956c-1.007-1.785-2.681-3.097-4.655-3.648-1.973-.548-4.085-.293-5.87.713l-14.957 8.434c-3.717 2.096-5.031 6.808-2.936 10.525 1.842 3.267 5.708 4.675 9.14 3.545-.972 7.453-.85 15.005.426 22.559 3.397 20.124 14.429 37.721 31.061 49.549 13.078 9.3 28.388 14.158 44.118 14.158 4.276-.001 8.583-.359 12.882-1.085 4.208-.71 7.043-4.697 6.333-8.905-.71-4.205-4.695-7.042-8.904-6.332z"/><path d="m410.374 120.755c-1.842-3.267-5.708-4.676-9.14-3.545.972-7.453.85-15.005-.426-22.559-3.397-20.124-14.429-37.721-31.061-49.549-16.634-11.828-36.881-16.468-57-13.073-4.208.71-7.043 4.697-6.333 8.905.71 4.207 4.698 7.042 8.904 6.332 16.054-2.711 32.204.993 45.474 10.429 13.269 9.436 22.068 23.474 24.779 39.528.895 5.301 1.085 10.597.595 15.837-2.344-2.796-6.416-3.62-9.708-1.763-3.717 2.096-5.031 6.808-2.936 10.525l8.434 14.956c1.007 1.785 2.681 3.097 4.655 3.648.682.19 1.379.284 2.075.284 1.318 0 2.627-.338 3.795-.996l14.957-8.434c3.718-2.095 5.032-6.808 2.936-10.525z"/></g></g></svg>